<svg width="130" height="40" viewBox="0 0 130 40" fill="none" xmlns="http://www.w3.org/2000/svg">
<path fill-rule="evenodd" clip-rule="evenodd" d="M5.45476 0H34.8238C36.2647 0.00207529 37.6464 0.571149 38.6678 1.58323C39.6892 2.59531 40.2676 3.96836 40.2769 5.40323V34.5609C40.275 36.0013 39.7001 37.3824 38.6781 38.4017C37.6561 39.4211 36.2702 39.9958 34.8238 40H5.45476C4.00818 39.9956 2.62224 39.4209 1.60003 38.4016C0.577817 37.3823 0.00253511 36.0014 0 34.5609V5.40323C0.0099303 3.96828 0.588728 2.59535 1.61037 1.58336C2.63201 0.571372 4.01376 0.00228075 5.45476 0Z" fill="white"/>
<path fill-rule="evenodd" clip-rule="evenodd" d="M40.2769 27.6445V34.4536C40.275 35.8941 39.7001 37.2751 38.6781 38.2945C37.6561 39.3138 36.2702 39.8885 34.8238 39.8927H5.45476C4.00818 39.8883 2.62224 39.3136 1.60003 38.2943C0.577817 37.2751 0.00253511 35.8941 0 34.4536V27.6445C9.9841 37.3786 28.9876 38.4853 40.2769 27.6445Z" fill="#447839"/>
<path d="M19.8097 33.0211C16.094 33.0317 12.3995 32.4648 8.85935 31.3408C7.20156 30.8067 5.59661 30.1219 4.0648 29.2951C2.61134 28.5125 1.24857 27.5733 0.000976562 26.4945L0.000976563 5.40341C0.000979576 4.69403 0.142656 3.99174 0.417762 3.3374C0.692868 2.68305 1.09591 2.08973 1.60343 1.59195C2.10837 1.08697 2.70861 0.686435 3.36961 0.41339C4.03061 0.140345 4.73932 0.000185632 5.45493 0.00097992H34.8239C36.264 0.00389778 37.6446 0.573285 38.6651 1.58515C39.6855 2.59701 40.2632 3.96938 40.2723 5.40341V26.4945C37.3639 28.7061 34.0793 30.378 30.5758 31.4302C27.0873 32.4942 23.4582 33.0305 19.8097 33.0211ZM21.3497 5.60527C19.7328 5.60527 17.9533 5.64836 15.9102 5.73533V28.9735H21.6341C24.0034 28.9352 25.3582 28.8937 26.8084 28.8259C28.3679 28.7248 29.9018 28.3813 31.3546 27.8078C32.7606 27.2558 34.0511 26.4482 35.1604 25.4261C36.3442 24.2893 37.2752 22.9176 37.8929 21.3998C38.5107 19.882 38.8016 18.252 38.7467 16.6152C38.7851 13.9587 37.7992 11.3887 35.9921 9.43429C34.4393 7.76072 32.3838 6.63315 30.1335 6.22044C27.2279 5.77219 24.2897 5.56642 21.3497 5.60527ZM7.40752 9.6553V28.9735H13.101V5.73533H7.40752L1.53132 8.43694L2.38623 11.9891L7.40672 9.6553H7.40752ZM52.6905 29.2216C50.1894 29.2879 47.7345 28.5427 45.6958 27.0985C44.6864 26.318 43.8703 25.3173 43.3103 24.1733C42.7504 23.0293 42.4616 21.7727 42.466 20.5C42.4983 18.7533 43.0459 17.0546 44.0405 15.6154C44.764 14.5624 45.7263 13.6938 46.8496 13.0798C48.3468 12.2976 50.0065 11.8736 51.697 11.8415C59.7894 11.954 60.8718 17.3979 60.9111 22.1285H47.9312C48.317 23.1156 49.0406 23.9351 49.9743 24.4424C51.0819 24.9844 52.3074 25.2438 53.5406 25.1972C55.3754 25.1487 57.1972 24.8753 58.9649 24.3833L59.7365 27.4911C57.5616 28.6234 55.1447 29.217 52.6905 29.2216ZM51.6954 15.0194C50.7243 14.9958 49.7835 15.3564 49.0789 16.0222C48.3742 16.688 47.9633 17.6047 47.936 18.5716H55.4563C55.4551 18.1002 55.3566 17.634 55.1669 17.2021C54.9773 16.7702 54.7005 16.3817 54.3539 16.0607C53.6347 15.3872 52.6826 15.0154 51.6954 15.0226V15.0194ZM92.3681 29.165C92.2078 29.165 92.0476 29.165 91.8681 29.1562C90.6992 29.0755 89.5586 28.7604 88.515 28.2299C87.8629 27.9089 87.2887 27.4504 86.8324 26.8863C86.3571 26.2762 86.103 25.524 86.1113 24.7519V15.799H83.3743V12.2484H86.1113V9.25077L91.8713 7.40129V12.2484H96.226V15.799H91.8713V23.5703C91.8713 24.4631 92.5027 24.9155 93.7478 24.9155C94.4627 24.8926 95.1736 24.7998 95.8703 24.6386H95.8743C96.0145 24.6099 96.1355 24.5852 96.226 24.57V28.4182C95.0349 28.9758 93.7243 29.2334 92.4098 29.1682L92.3681 29.165ZM103.883 29.1562H103.802C102.361 29.116 100.953 28.7198 99.7041 28.0033C99.0097 27.6005 98.4192 27.0418 97.9799 26.3716C97.5051 25.6092 97.2652 24.7248 97.29 23.828C97.2843 22.7829 97.5673 21.7564 98.1081 20.8607C98.6325 20.034 99.3465 19.343 100.191 18.8445C102.057 17.7979 104.173 17.2741 106.313 17.3285C107.062 17.3279 107.81 17.3841 108.55 17.4968C108.184 15.8484 106.969 14.9763 105.036 14.9763C103.222 15.0723 101.446 15.5397 99.8211 16.3495C99.5687 15.7064 99.3356 15.12 99.1481 14.65C98.9758 14.2168 98.7619 13.6782 98.5319 13.0941C99.5838 12.5048 100.722 12.0844 101.906 11.8487C103.322 11.5452 104.767 11.3939 106.216 11.3971C107.208 11.3955 108.199 11.4678 109.18 11.6133C110.061 11.7261 110.91 12.018 111.673 12.4709C112.436 12.9239 113.097 13.5282 113.616 14.2463C114.43 15.353 114.893 16.6777 114.943 18.049V28.6408H109.176V26.7163C108.652 27.2775 108.052 27.7628 107.393 28.1581C106.337 28.8061 105.123 29.1525 103.883 29.1594L103.883 29.1562ZM108.58 20.6437C107.286 20.5844 105.993 20.7741 104.772 21.2022C104.358 21.3458 103.987 21.5905 103.693 21.9139C103.399 22.2373 103.192 22.6291 103.089 23.0533C103.01 23.321 102.995 23.6037 103.045 23.8784C103.095 24.1531 103.21 24.4122 103.379 24.6347C103.633 24.909 103.944 25.1256 104.289 25.2699C104.635 25.4142 105.008 25.4827 105.382 25.4708C105.47 25.4708 105.556 25.4668 105.637 25.4589C106.121 25.4534 106.598 25.3499 107.04 25.1547C107.482 24.9595 107.88 24.6767 108.208 24.3235C109.135 23.2064 108.943 21.4774 108.849 20.6485L108.58 20.6437ZM69.2158 28.6448H63.483V12.0258H68.2223V14.579C69.1507 13.7167 70.2085 13.0039 71.3575 12.4662C72.4299 11.9956 73.5917 11.761 74.7635 11.7784C75.6055 11.7863 76.445 11.8691 77.2722 12.0258C77.9636 12.1864 78.6136 12.4894 79.1802 12.9154C79.7468 13.3414 80.2176 13.881 80.562 14.4992C81.2443 15.6064 81.6262 16.8711 81.6701 18.1694V28.64H75.5487V18.4655C75.5487 17.1585 74.5256 15.7527 72.2789 15.7527C70.9601 15.7527 69.5019 16.3631 69.2166 17.725V28.6408L69.2158 28.6448ZM117.61 28.6448V4.59675H123.37V28.64H117.61V28.6448ZM23.2654 24.9099C22.7102 24.9099 22.1533 24.8892 21.6357 24.866V9.6553H22.9978C23.3479 9.64333 23.67 9.63695 23.9833 9.63695C26.5128 9.63695 28.3364 10.0359 29.7241 10.8864C30.5753 11.4042 31.2723 12.1387 31.7432 13.0144C32.3117 14.1432 32.6153 15.3859 32.631 16.6487C32.6491 18.8146 31.8581 20.9099 30.4116 22.5275C29.4182 23.699 28.0345 24.4753 26.5136 24.7144C25.4348 24.8337 24.3507 24.8989 23.2654 24.9099Z" fill="#396C9C"/>
<path d="M46.6896 36.7872C47.0089 36.8709 47.255 37.028 47.4277 37.2583C47.6057 37.4886 47.6947 37.7765 47.6947 38.122C47.6947 38.6088 47.535 38.9831 47.2157 39.2448C46.8964 39.5013 46.4436 39.6296 45.8573 39.6296H43.8786C43.7792 39.6296 43.698 39.6008 43.6352 39.5432C43.5776 39.4856 43.5488 39.4097 43.5488 39.3155V34.408C43.5488 34.3138 43.5776 34.2379 43.6352 34.1803C43.698 34.1227 43.7792 34.0939 43.8786 34.0939H45.7709C46.3415 34.0939 46.7838 34.2196 47.0979 34.4708C47.412 34.7221 47.569 35.0781 47.569 35.5387C47.569 35.8371 47.4905 36.0936 47.3335 36.3082C47.1817 36.5228 46.9671 36.6825 46.6896 36.7872ZM44.1848 36.5516H45.6767C46.0903 36.5516 46.4017 36.4679 46.6111 36.3004C46.8257 36.1328 46.933 35.8894 46.933 35.5701C46.933 34.942 46.5143 34.6279 45.6767 34.6279H44.1848V36.5516ZM45.7945 39.0957C46.229 39.0957 46.5483 39.0171 46.7524 38.8601C46.9618 38.6978 47.0665 38.4466 47.0665 38.1063C47.0665 37.4258 46.6425 37.0856 45.7945 37.0856H44.1848V39.0957H45.7945Z" fill="#396C9C"/>
<path d="M51.7057 38.7423C51.7633 38.7423 51.813 38.7659 51.8549 38.813C51.8967 38.8601 51.9177 38.9203 51.9177 38.9936C51.9177 39.1245 51.8261 39.2448 51.6429 39.3548C51.4544 39.4647 51.2555 39.5485 51.0461 39.606C50.8367 39.6584 50.6326 39.6846 50.4337 39.6846C49.8421 39.6846 49.3736 39.5092 49.0282 39.1585C48.6879 38.8078 48.5178 38.3235 48.5178 37.7059C48.5178 37.3133 48.5937 36.9678 48.7455 36.6694C48.8973 36.3658 49.1093 36.1302 49.3815 35.9627C49.6589 35.7952 49.973 35.7115 50.3237 35.7115C50.821 35.7115 51.2162 35.8737 51.5094 36.1983C51.8025 36.5228 51.9491 36.9625 51.9491 37.5174C51.9491 37.6221 51.9282 37.698 51.8863 37.7451C51.8444 37.7922 51.7764 37.8158 51.6821 37.8158H49.1538C49.2009 38.7161 49.6275 39.1663 50.4337 39.1663C50.6378 39.1663 50.8132 39.1402 50.9597 39.0878C51.1063 39.0302 51.2634 38.9543 51.4309 38.8601C51.567 38.7816 51.6586 38.7423 51.7057 38.7423ZM50.3316 36.2061C49.9966 36.2061 49.727 36.3108 49.5228 36.5202C49.3239 36.7296 49.2061 37.0254 49.1695 37.4075H51.3916C51.3811 37.0201 51.2843 36.7244 51.1011 36.5202C50.9179 36.3108 50.6614 36.2061 50.3316 36.2061Z" fill="#396C9C"/>
<path d="M54.1739 39.6846C53.9331 39.6846 53.7028 39.6558 53.4829 39.5982C53.2683 39.5406 53.0772 39.4595 52.9097 39.3548C52.8155 39.292 52.7475 39.2344 52.7056 39.182C52.6689 39.1245 52.6506 39.0564 52.6506 38.9779C52.6506 38.9098 52.6689 38.8549 52.7056 38.813C52.7475 38.7659 52.7998 38.7423 52.8626 38.7423C52.9254 38.7423 53.017 38.7816 53.1374 38.8601C53.2945 38.9543 53.4489 39.0302 53.6007 39.0878C53.7578 39.1402 53.9514 39.1663 54.1818 39.1663C54.4644 39.1663 54.6843 39.1166 54.8413 39.0171C54.9984 38.9177 55.0769 38.7737 55.0769 38.5853C55.0769 38.4701 55.0481 38.3785 54.9905 38.3105C54.9329 38.2372 54.8335 38.1744 54.6921 38.122C54.5508 38.0644 54.344 38.0069 54.0718 37.9493C53.6112 37.8498 53.2814 37.7163 53.0825 37.5488C52.8836 37.3813 52.7841 37.1536 52.7841 36.8657C52.7841 36.6406 52.8469 36.4417 52.9726 36.2689C53.0982 36.0962 53.2709 35.9601 53.4908 35.8606C53.7159 35.7612 53.9698 35.7115 54.2524 35.7115C54.4566 35.7115 54.6529 35.7402 54.8413 35.7978C55.035 35.8502 55.2051 35.9261 55.3517 36.0255C55.5297 36.1512 55.6187 36.282 55.6187 36.4181C55.6187 36.4862 55.5977 36.5438 55.5559 36.5909C55.514 36.638 55.4642 36.6615 55.4067 36.6615C55.3439 36.6615 55.2496 36.6171 55.124 36.5281C54.9774 36.4338 54.8387 36.3606 54.7078 36.3082C54.577 36.2559 54.4147 36.2297 54.221 36.2297C53.975 36.2297 53.7761 36.2847 53.6243 36.3946C53.4777 36.5045 53.4044 36.6511 53.4044 36.8343C53.4044 36.9495 53.4306 37.0437 53.4829 37.117C53.5405 37.185 53.6321 37.2478 53.7578 37.3054C53.8886 37.3578 54.0744 37.4101 54.3152 37.4624C54.6712 37.541 54.946 37.6273 55.1397 37.7216C55.3386 37.8158 55.48 37.9309 55.5637 38.0671C55.6475 38.2032 55.6893 38.3759 55.6893 38.5853C55.6893 38.9151 55.5506 39.182 55.2732 39.3862C54.9957 39.5851 54.6293 39.6846 54.1739 39.6846Z" fill="#396C9C"/>
<path d="M58.3872 39.1663C58.5704 39.182 58.662 39.2658 58.662 39.4176C58.662 39.5066 58.628 39.5746 58.5599 39.6217C58.4971 39.6636 58.4003 39.6793 58.2694 39.6689L58.0574 39.6532C57.6386 39.6217 57.3298 39.4961 57.1308 39.2763C56.9319 39.0564 56.8325 38.724 56.8325 38.2791V36.3082H56.3064C56.2174 36.3082 56.1467 36.2873 56.0944 36.2454C56.0473 36.1983 56.0237 36.1381 56.0237 36.0648C56.0237 35.9863 56.0473 35.9235 56.0944 35.8763C56.1467 35.8292 56.2174 35.8057 56.3064 35.8057H56.8325V34.9184C56.8325 34.8189 56.8613 34.743 56.9188 34.6907C56.9764 34.6331 57.0549 34.6043 57.1544 34.6043C57.2486 34.6043 57.3245 34.6331 57.3821 34.6907C57.4397 34.743 57.4685 34.8189 57.4685 34.9184V35.8057H58.3401C58.4238 35.8057 58.4892 35.8292 58.5364 35.8763C58.5887 35.9235 58.6149 35.9863 58.6149 36.0648C58.6149 36.1381 58.5887 36.1983 58.5364 36.2454C58.4892 36.2873 58.4238 36.3082 58.3401 36.3082H57.4685V38.3105C57.4685 38.5984 57.5261 38.8078 57.6412 38.9386C57.7616 39.0643 57.9396 39.1349 58.1752 39.1506L58.3872 39.1663Z" fill="#396C9C"/>
<path d="M61.7294 39.6689C61.63 39.6689 61.5514 39.6401 61.4939 39.5825C61.4363 39.5197 61.4075 39.4385 61.4075 39.3391V34.408C61.4075 34.3138 61.4363 34.2379 61.4939 34.1803C61.5567 34.1227 61.6378 34.0939 61.7373 34.0939H63.5982C64.1792 34.0939 64.6294 34.2353 64.9487 34.518C65.2733 34.8006 65.4355 35.2011 65.4355 35.7193C65.4355 36.2375 65.2733 36.6406 64.9487 36.9285C64.6242 37.2164 64.174 37.3604 63.5982 37.3604H62.0513V39.3391C62.0513 39.4385 62.0226 39.5197 61.965 39.5825C61.9074 39.6401 61.8289 39.6689 61.7294 39.6689ZM63.5354 36.8264C64.3781 36.8264 64.7995 36.4574 64.7995 35.7193C64.7995 34.9917 64.3781 34.6279 63.5354 34.6279H62.0513V36.8264H63.5354Z" fill="#396C9C"/>
<path d="M66.696 39.6689C66.6018 39.6689 66.5233 39.6427 66.4605 39.5903C66.4029 39.5328 66.3741 39.4542 66.3741 39.3548V34.3688C66.3741 34.2693 66.4029 34.1934 66.4605 34.1411C66.5233 34.0835 66.6018 34.0547 66.696 34.0547C66.785 34.0547 66.8583 34.0835 66.9159 34.1411C66.9787 34.1934 67.0101 34.2693 67.0101 34.3688V39.3548C67.0101 39.4542 66.9787 39.5328 66.9159 39.5903C66.8583 39.6427 66.785 39.6689 66.696 39.6689Z" fill="#396C9C"/>
<path d="M69.7616 35.7115C70.7196 35.7115 71.1985 36.214 71.1985 37.219V39.3548C71.1985 39.449 71.1697 39.5249 71.1122 39.5825C71.0598 39.6401 70.9865 39.6689 70.8923 39.6689C70.7981 39.6689 70.7222 39.6401 70.6646 39.5825C70.607 39.5249 70.5782 39.449 70.5782 39.3548V38.9779C70.4788 39.203 70.327 39.3783 70.1228 39.504C69.9187 39.6244 69.6831 39.6846 69.4161 39.6846C69.1701 39.6846 68.9424 39.6348 68.733 39.5354C68.5289 39.4359 68.3666 39.2972 68.2462 39.1192C68.1258 38.9412 68.0656 38.7449 68.0656 38.5303C68.0656 38.2424 68.1389 38.0199 68.2854 37.8629C68.432 37.7006 68.6728 37.5855 69.0078 37.5174C69.3428 37.4441 69.8087 37.4075 70.4055 37.4075H70.5782V37.1484C70.5782 36.8343 70.5128 36.604 70.3819 36.4574C70.2563 36.3108 70.0495 36.2375 69.7616 36.2375C69.4057 36.2375 69.0445 36.3344 68.678 36.5281C68.5367 36.6171 68.4373 36.6615 68.3797 36.6615C68.3169 36.6615 68.2645 36.638 68.2226 36.5909C68.1808 36.5438 68.1598 36.4836 68.1598 36.4103C68.1598 36.337 68.1808 36.2742 68.2226 36.2218C68.2697 36.1643 68.343 36.1067 68.4425 36.0491C68.6257 35.9444 68.8325 35.8633 69.0628 35.8057C69.2984 35.7429 69.5313 35.7115 69.7616 35.7115ZM69.5025 39.182C69.8166 39.182 70.0731 39.0773 70.272 38.868C70.4761 38.6533 70.5782 38.3785 70.5782 38.0435V37.8158H70.4369C69.9762 37.8158 69.6255 37.8367 69.3847 37.8786C69.1439 37.9152 68.9712 37.9807 68.8665 38.0749C68.767 38.1639 68.7173 38.2974 68.7173 38.4754C68.7173 38.6795 68.7906 38.8496 68.9372 38.9857C69.089 39.1166 69.2774 39.182 69.5025 39.182Z" fill="#396C9C"/>
<path d="M74.2865 35.7115C75.2026 35.7115 75.6606 36.2166 75.6606 37.2269V39.3548C75.6606 39.4542 75.6318 39.5328 75.5742 39.5903C75.5219 39.6427 75.446 39.6689 75.3465 39.6689C75.2471 39.6689 75.1685 39.6427 75.111 39.5903C75.0534 39.5328 75.0246 39.4542 75.0246 39.3548V37.2661C75.0246 36.9102 74.9539 36.6511 74.8126 36.4888C74.6765 36.3265 74.4566 36.2454 74.153 36.2454C73.8023 36.2454 73.5222 36.3527 73.3129 36.5673C73.1035 36.7819 72.9988 37.0725 72.9988 37.4389V39.3548C72.9988 39.4542 72.97 39.5328 72.9124 39.5903C72.8601 39.6427 72.7842 39.6689 72.6847 39.6689C72.5852 39.6689 72.5067 39.6427 72.4491 39.5903C72.3916 39.5328 72.3628 39.4542 72.3628 39.3548V36.0412C72.3628 35.947 72.3916 35.8711 72.4491 35.8135C72.5067 35.756 72.5852 35.7272 72.6847 35.7272C72.7789 35.7272 72.8522 35.756 72.9046 35.8135C72.9621 35.8711 72.9909 35.9444 72.9909 36.0334V36.4338C73.1166 36.1983 73.2919 36.0203 73.517 35.8999C73.7421 35.7743 73.9986 35.7115 74.2865 35.7115Z" fill="#396C9C"/>
<path d="M78.1132 39.6846C77.8724 39.6846 77.6421 39.6558 77.4223 39.5982C77.2076 39.5406 77.0166 39.4595 76.8491 39.3548C76.7548 39.292 76.6868 39.2344 76.6449 39.182C76.6083 39.1245 76.59 39.0564 76.59 38.9779C76.59 38.9098 76.6083 38.8549 76.6449 38.813C76.6868 38.7659 76.7391 38.7423 76.802 38.7423C76.8648 38.7423 76.9564 38.7816 77.0768 38.8601C77.2338 38.9543 77.3882 39.0302 77.54 39.0878C77.6971 39.1402 77.8908 39.1663 78.1211 39.1663C78.4038 39.1663 78.6236 39.1166 78.7807 39.0171C78.9377 38.9177 79.0162 38.7737 79.0162 38.5853C79.0162 38.4701 78.9874 38.3785 78.9298 38.3105C78.8723 38.2372 78.7728 38.1744 78.6315 38.122C78.4901 38.0644 78.2834 38.0069 78.0112 37.9493C77.5505 37.8498 77.2207 37.7163 77.0218 37.5488C76.8229 37.3813 76.7234 37.1536 76.7234 36.8657C76.7234 36.6406 76.7863 36.4417 76.9119 36.2689C77.0375 36.0962 77.2103 35.9601 77.4301 35.8606C77.6552 35.7612 77.9091 35.7115 78.1918 35.7115C78.3959 35.7115 78.5922 35.7402 78.7807 35.7978C78.9743 35.8502 79.1445 35.9261 79.291 36.0255C79.469 36.1512 79.558 36.282 79.558 36.4181C79.558 36.4862 79.5371 36.5438 79.4952 36.5909C79.4533 36.638 79.4036 36.6615 79.346 36.6615C79.2832 36.6615 79.189 36.6171 79.0633 36.5281C78.9168 36.4338 78.778 36.3606 78.6472 36.3082C78.5163 36.2559 78.354 36.2297 78.1604 36.2297C77.9143 36.2297 77.7154 36.2847 77.5636 36.3946C77.417 36.5045 77.3438 36.6511 77.3438 36.8343C77.3438 36.9495 77.3699 37.0437 77.4223 37.117C77.4799 37.185 77.5715 37.2478 77.6971 37.3054C77.828 37.3578 78.0138 37.4101 78.2546 37.4624C78.6105 37.541 78.8854 37.6273 79.079 37.7216C79.278 37.8158 79.4193 37.9309 79.503 38.0671C79.5868 38.2032 79.6287 38.3759 79.6287 38.5853C79.6287 38.9151 79.49 39.182 79.2125 39.3862C78.9351 39.5851 78.5687 39.6846 78.1132 39.6846Z" fill="#396C9C"/>
<path d="M80.8739 39.6689C80.7483 39.6689 80.6436 39.6296 80.5598 39.5511C80.4761 39.4673 80.4342 39.36 80.4342 39.2291C80.4342 39.0983 80.4761 38.991 80.5598 38.9072C80.6436 38.8235 80.7483 38.7816 80.8739 38.7816C80.9943 38.7816 81.0937 38.8235 81.1723 38.9072C81.256 38.991 81.2979 39.0983 81.2979 39.2291C81.2979 39.36 81.256 39.4673 81.1723 39.5511C81.0937 39.6296 80.9943 39.6689 80.8739 39.6689Z" fill="#396C9C"/>
<path d="M87.6135 36.7872C87.9328 36.8709 88.1788 37.028 88.3516 37.2583C88.5295 37.4886 88.6185 37.7765 88.6185 38.122C88.6185 38.6088 88.4589 38.9831 88.1395 39.2448C87.8202 39.5013 87.3674 39.6296 86.7812 39.6296H84.8025C84.703 39.6296 84.6219 39.6008 84.559 39.5432C84.5015 39.4856 84.4727 39.4097 84.4727 39.3155V34.408C84.4727 34.3138 84.5015 34.2379 84.559 34.1803C84.6219 34.1227 84.703 34.0939 84.8025 34.0939H86.6948C87.2654 34.0939 87.7077 34.2196 88.0218 34.4708C88.3358 34.7221 88.4929 35.0781 88.4929 35.5387C88.4929 35.8371 88.4144 36.0936 88.2573 36.3082C88.1055 36.5228 87.8909 36.6825 87.6135 36.7872ZM85.1087 36.5516H86.6006C87.0141 36.5516 87.3256 36.4679 87.5349 36.3004C87.7496 36.1328 87.8569 35.8894 87.8569 35.5701C87.8569 34.942 87.4381 34.6279 86.6006 34.6279H85.1087V36.5516ZM86.7183 39.0957C87.1528 39.0957 87.4721 39.0171 87.6763 38.8601C87.8857 38.6978 87.9904 38.4466 87.9904 38.1063C87.9904 37.4258 87.5663 37.0856 86.7183 37.0856H85.1087V39.0957H86.7183Z" fill="#396C9C"/>
<path d="M92.6295 38.7423C92.6871 38.7423 92.7368 38.7659 92.7787 38.813C92.8206 38.8601 92.8415 38.9203 92.8415 38.9936C92.8415 39.1245 92.7499 39.2448 92.5667 39.3548C92.3783 39.4647 92.1793 39.5485 91.97 39.606C91.7606 39.6584 91.5564 39.6846 91.3575 39.6846C90.766 39.6846 90.2975 39.5092 89.952 39.1585C89.6118 38.8078 89.4416 38.3235 89.4416 37.7059C89.4416 37.3133 89.5175 36.9678 89.6693 36.6694C89.8211 36.3658 90.0331 36.1302 90.3053 35.9627C90.5828 35.7952 90.8969 35.7115 91.2476 35.7115C91.7449 35.7115 92.1401 35.8737 92.4332 36.1983C92.7264 36.5228 92.8729 36.9625 92.8729 37.5174C92.8729 37.6221 92.852 37.698 92.8101 37.7451C92.7682 37.7922 92.7002 37.8158 92.606 37.8158H90.0776C90.1247 38.7161 90.5514 39.1663 91.3575 39.1663C91.5617 39.1663 91.737 39.1402 91.8836 39.0878C92.0302 39.0302 92.1872 38.9543 92.3547 38.8601C92.4908 38.7816 92.5824 38.7423 92.6295 38.7423ZM91.2554 36.2061C90.9204 36.2061 90.6508 36.3108 90.4467 36.5202C90.2478 36.7296 90.13 37.0254 90.0933 37.4075H92.3154C92.305 37.0201 92.2081 36.7244 92.0249 36.5202C91.8417 36.3108 91.5852 36.2061 91.2554 36.2061Z" fill="#396C9C"/>
<path d="M95.0977 39.6846C94.857 39.6846 94.6266 39.6558 94.4068 39.5982C94.1922 39.5406 94.0011 39.4595 93.8336 39.3548C93.7394 39.292 93.6713 39.2344 93.6294 39.182C93.5928 39.1245 93.5745 39.0564 93.5745 38.9779C93.5745 38.9098 93.5928 38.8549 93.6294 38.813C93.6713 38.7659 93.7237 38.7423 93.7865 38.7423C93.8493 38.7423 93.9409 38.7816 94.0613 38.8601C94.2183 38.9543 94.3727 39.0302 94.5246 39.0878C94.6816 39.1402 94.8753 39.1663 95.1056 39.1663C95.3883 39.1663 95.6081 39.1166 95.7652 39.0171C95.9222 38.9177 96.0007 38.7737 96.0007 38.5853C96.0007 38.4701 95.9719 38.3785 95.9144 38.3105C95.8568 38.2372 95.7573 38.1744 95.616 38.122C95.4746 38.0644 95.2679 38.0069 94.9957 37.9493C94.535 37.8498 94.2052 37.7163 94.0063 37.5488C93.8074 37.3813 93.708 37.1536 93.708 36.8657C93.708 36.6406 93.7708 36.4417 93.8964 36.2689C94.022 36.0962 94.1948 35.9601 94.4146 35.8606C94.6397 35.7612 94.8936 35.7115 95.1763 35.7115C95.3804 35.7115 95.5767 35.7402 95.7652 35.7978C95.9589 35.8502 96.129 35.9261 96.2755 36.0255C96.4535 36.1512 96.5425 36.282 96.5425 36.4181C96.5425 36.4862 96.5216 36.5438 96.4797 36.5909C96.4378 36.638 96.3881 36.6615 96.3305 36.6615C96.2677 36.6615 96.1735 36.6171 96.0478 36.5281C95.9013 36.4338 95.7625 36.3606 95.6317 36.3082C95.5008 36.2559 95.3385 36.2297 95.1449 36.2297C94.8988 36.2297 94.6999 36.2847 94.5481 36.3946C94.4015 36.5045 94.3283 36.6511 94.3283 36.8343C94.3283 36.9495 94.3544 37.0437 94.4068 37.117C94.4644 37.185 94.556 37.2478 94.6816 37.3054C94.8125 37.3578 94.9983 37.4101 95.2391 37.4624C95.595 37.541 95.8699 37.6273 96.0635 37.7216C96.2625 37.8158 96.4038 37.9309 96.4875 38.0671C96.5713 38.2032 96.6132 38.3759 96.6132 38.5853C96.6132 38.9151 96.4745 39.182 96.197 39.3862C95.9196 39.5851 95.5532 39.6846 95.0977 39.6846Z" fill="#396C9C"/>
<path d="M99.311 39.1663C99.4942 39.182 99.5858 39.2658 99.5858 39.4176C99.5858 39.5066 99.5518 39.5746 99.4838 39.6217C99.4209 39.6636 99.3241 39.6793 99.1932 39.6689L98.9812 39.6532C98.5625 39.6217 98.2536 39.4961 98.0547 39.2763C97.8558 39.0564 97.7563 38.724 97.7563 38.2791V36.3082H97.2302C97.1413 36.3082 97.0706 36.2873 97.0182 36.2454C96.9711 36.1983 96.9476 36.1381 96.9476 36.0648C96.9476 35.9863 96.9711 35.9235 97.0182 35.8763C97.0706 35.8292 97.1413 35.8057 97.2302 35.8057H97.7563V34.9184C97.7563 34.8189 97.7851 34.743 97.8427 34.6907C97.9003 34.6331 97.9788 34.6043 98.0782 34.6043C98.1725 34.6043 98.2484 34.6331 98.306 34.6907C98.3635 34.743 98.3923 34.8189 98.3923 34.9184V35.8057H99.2639C99.3477 35.8057 99.4131 35.8292 99.4602 35.8763C99.5125 35.9235 99.5387 35.9863 99.5387 36.0648C99.5387 36.1381 99.5125 36.1983 99.4602 36.2454C99.4131 36.2873 99.3477 36.3082 99.2639 36.3082H98.3923V38.3105C98.3923 38.5984 98.4499 38.8078 98.5651 38.9386C98.6855 39.0643 98.8634 39.1349 99.099 39.1506L99.311 39.1663Z" fill="#396C9C"/>
<path d="M102.653 39.6689C102.554 39.6689 102.475 39.6401 102.418 39.5825C102.36 39.5197 102.331 39.4385 102.331 39.3391V34.408C102.331 34.3138 102.36 34.2379 102.418 34.1803C102.481 34.1227 102.562 34.0939 102.661 34.0939H104.522C105.103 34.0939 105.553 34.2353 105.873 34.518C106.197 34.8006 106.359 35.2011 106.359 35.7193C106.359 36.2375 106.197 36.6406 105.873 36.9285C105.548 37.2164 105.098 37.3604 104.522 37.3604H102.975V39.3391C102.975 39.4385 102.946 39.5197 102.889 39.5825C102.831 39.6401 102.753 39.6689 102.653 39.6689ZM104.459 36.8264C105.302 36.8264 105.723 36.4574 105.723 35.7193C105.723 34.9917 105.302 34.6279 104.459 34.6279H102.975V36.8264H104.459Z" fill="#396C9C"/>
<path d="M109.114 35.7272C109.333 35.7115 109.443 35.8004 109.443 35.9941C109.443 36.0779 109.42 36.1459 109.373 36.1983C109.326 36.2454 109.244 36.2742 109.129 36.2847L108.894 36.3082C108.543 36.3396 108.281 36.4652 108.109 36.6851C107.941 36.8997 107.857 37.1536 107.857 37.4467V39.3548C107.857 39.4595 107.828 39.538 107.771 39.5903C107.713 39.6427 107.637 39.6689 107.543 39.6689C107.449 39.6689 107.37 39.6427 107.308 39.5903C107.25 39.5328 107.221 39.4542 107.221 39.3548V36.0412C107.221 35.9418 107.253 35.8659 107.315 35.8135C107.378 35.756 107.454 35.7272 107.543 35.7272C107.627 35.7272 107.698 35.756 107.755 35.8135C107.813 35.8659 107.842 35.9392 107.842 36.0334V36.4731C107.951 36.2428 108.106 36.0674 108.305 35.947C108.509 35.8266 108.742 35.756 109.004 35.735L109.114 35.7272Z" fill="#396C9C"/>
<path d="M110.311 39.6689C110.217 39.6689 110.139 39.6427 110.076 39.5903C110.018 39.5328 109.989 39.4542 109.989 39.3548V36.0412C109.989 35.9418 110.018 35.8659 110.076 35.8135C110.139 35.756 110.217 35.7272 110.311 35.7272C110.406 35.7272 110.481 35.756 110.539 35.8135C110.597 35.8659 110.625 35.9418 110.625 36.0412V39.3548C110.625 39.4595 110.597 39.538 110.539 39.5903C110.481 39.6427 110.406 39.6689 110.311 39.6689ZM110.311 34.9027C110.186 34.9027 110.084 34.8661 110.005 34.7928C109.927 34.7195 109.887 34.6226 109.887 34.5023C109.887 34.3871 109.927 34.2929 110.005 34.2196C110.084 34.1463 110.186 34.1097 110.311 34.1097C110.437 34.1097 110.539 34.1463 110.618 34.2196C110.696 34.2929 110.735 34.3871 110.735 34.5023C110.735 34.6226 110.696 34.7195 110.618 34.7928C110.539 34.8661 110.437 34.9027 110.311 34.9027Z" fill="#396C9C"/>
<path d="M113.393 39.6846C113.037 39.6846 112.72 39.6034 112.443 39.4411C112.17 39.2789 111.958 39.0485 111.807 38.7502C111.66 38.4518 111.587 38.1063 111.587 37.7137C111.587 37.3211 111.663 36.973 111.814 36.6694C111.971 36.3658 112.189 36.1302 112.466 35.9627C112.744 35.7952 113.063 35.7115 113.424 35.7115C113.623 35.7115 113.819 35.7402 114.013 35.7978C114.212 35.8502 114.385 35.9287 114.531 36.0334C114.625 36.0962 114.691 36.159 114.727 36.2218C114.769 36.2794 114.79 36.3448 114.79 36.4181C114.79 36.4914 114.769 36.5516 114.727 36.5987C114.691 36.6458 114.641 36.6694 114.578 36.6694C114.542 36.6694 114.502 36.6589 114.46 36.638C114.419 36.6171 114.382 36.5961 114.351 36.5752C114.324 36.5542 114.306 36.5411 114.296 36.5359C114.159 36.4469 114.029 36.3763 113.903 36.3239C113.783 36.2716 113.633 36.2454 113.455 36.2454C113.073 36.2454 112.775 36.3763 112.56 36.638C112.351 36.8945 112.246 37.2531 112.246 37.7137C112.246 38.1744 112.351 38.5303 112.56 38.7816C112.775 39.0328 113.073 39.1585 113.455 39.1585C113.633 39.1585 113.785 39.1323 113.911 39.08C114.042 39.0276 114.173 38.9569 114.303 38.868C114.361 38.8313 114.416 38.7999 114.468 38.7737C114.521 38.7476 114.565 38.7345 114.602 38.7345C114.659 38.7345 114.707 38.758 114.743 38.8051C114.785 38.8522 114.806 38.9124 114.806 38.9857C114.806 39.0538 114.788 39.1166 114.751 39.1742C114.714 39.2265 114.646 39.2867 114.547 39.3548C114.4 39.4542 114.222 39.5354 114.013 39.5982C113.809 39.6558 113.602 39.6846 113.393 39.6846Z" fill="#396C9C"/>
<path d="M118.532 38.7423C118.589 38.7423 118.639 38.7659 118.681 38.813C118.723 38.8601 118.744 38.9203 118.744 38.9936C118.744 39.1245 118.652 39.2448 118.469 39.3548C118.281 39.4647 118.082 39.5485 117.872 39.606C117.663 39.6584 117.459 39.6846 117.26 39.6846C116.668 39.6846 116.2 39.5092 115.854 39.1585C115.514 38.8078 115.344 38.3235 115.344 37.7059C115.344 37.3133 115.42 36.9678 115.572 36.6694C115.723 36.3658 115.935 36.1302 116.208 35.9627C116.485 35.7952 116.799 35.7115 117.15 35.7115C117.647 35.7115 118.042 35.8737 118.336 36.1983C118.629 36.5228 118.775 36.9625 118.775 37.5174C118.775 37.6221 118.754 37.698 118.712 37.7451C118.671 37.7922 118.603 37.8158 118.508 37.8158H115.98C116.027 38.7161 116.454 39.1663 117.26 39.1663C117.464 39.1663 117.639 39.1402 117.786 39.0878C117.932 39.0302 118.09 38.9543 118.257 38.8601C118.393 38.7816 118.485 38.7423 118.532 38.7423ZM117.158 36.2061C116.823 36.2061 116.553 36.3108 116.349 36.5202C116.15 36.7296 116.032 37.0254 115.996 37.4075H118.218C118.207 37.0201 118.11 36.7244 117.927 36.5202C117.744 36.3108 117.488 36.2061 117.158 36.2061Z" fill="#396C9C"/>
<path d="M121 39.6846C120.759 39.6846 120.529 39.6558 120.309 39.5982C120.094 39.5406 119.903 39.4595 119.736 39.3548C119.642 39.292 119.574 39.2344 119.532 39.182C119.495 39.1245 119.477 39.0564 119.477 38.9779C119.477 38.9098 119.495 38.8549 119.532 38.813C119.574 38.7659 119.626 38.7423 119.689 38.7423C119.752 38.7423 119.843 38.7816 119.964 38.8601C120.121 38.9543 120.275 39.0302 120.427 39.0878C120.584 39.1402 120.778 39.1663 121.008 39.1663C121.291 39.1663 121.51 39.1166 121.667 39.0171C121.825 38.9177 121.903 38.7737 121.903 38.5853C121.903 38.4701 121.874 38.3785 121.817 38.3105C121.759 38.2372 121.66 38.1744 121.518 38.122C121.377 38.0644 121.17 38.0069 120.898 37.9493C120.437 37.8498 120.108 37.7163 119.909 37.5488C119.71 37.3813 119.61 37.1536 119.61 36.8657C119.61 36.6406 119.673 36.4417 119.799 36.2689C119.924 36.0962 120.097 35.9601 120.317 35.8606C120.542 35.7612 120.796 35.7115 121.079 35.7115C121.283 35.7115 121.479 35.7402 121.667 35.7978C121.861 35.8502 122.031 35.9261 122.178 36.0255C122.356 36.1512 122.445 36.282 122.445 36.4181C122.445 36.4862 122.424 36.5438 122.382 36.5909C122.34 36.638 122.29 36.6615 122.233 36.6615C122.17 36.6615 122.076 36.6171 121.95 36.5281C121.804 36.4338 121.665 36.3606 121.534 36.3082C121.403 36.2559 121.241 36.2297 121.047 36.2297C120.801 36.2297 120.602 36.2847 120.45 36.3946C120.304 36.5045 120.231 36.6511 120.231 36.8343C120.231 36.9495 120.257 37.0437 120.309 37.117C120.367 37.185 120.458 37.2478 120.584 37.3054C120.715 37.3578 120.901 37.4101 121.141 37.4624C121.497 37.541 121.772 37.6273 121.966 37.7216C122.165 37.8158 122.306 37.9309 122.39 38.0671C122.474 38.2032 122.516 38.3759 122.516 38.5853C122.516 38.9151 122.377 39.182 122.099 39.3862C121.822 39.5851 121.455 39.6846 121 39.6846Z" fill="#396C9C"/>
<path d="M123.761 39.6689C123.635 39.6689 123.53 39.6296 123.447 39.5511C123.363 39.4673 123.321 39.36 123.321 39.2291C123.321 39.0983 123.363 38.991 123.447 38.9072C123.53 38.8235 123.635 38.7816 123.761 38.7816C123.881 38.7816 123.981 38.8235 124.059 38.9072C124.143 38.991 124.185 39.0983 124.185 39.2291C124.185 39.36 124.143 39.4673 124.059 39.5511C123.981 39.6296 123.881 39.6689 123.761 39.6689Z" fill="#396C9C"/>
<path d="M127.777 4.61035C128.117 4.61035 128.449 4.69802 128.773 4.87336C129.097 5.04692 129.349 5.29651 129.53 5.62214C129.71 5.94599 129.801 6.28414 129.801 6.63662C129.801 6.98551 129.711 7.32098 129.532 7.64304C129.355 7.96509 129.106 8.21558 128.784 8.3945C128.463 8.57163 128.128 8.6602 127.777 8.6602C127.427 8.6602 127.09 8.57163 126.768 8.3945C126.448 8.21558 126.198 7.96509 126.019 7.64304C125.84 7.32098 125.751 6.98551 125.751 6.63662C125.751 6.28414 125.841 5.94599 126.022 5.62214C126.205 5.29651 126.458 5.04692 126.782 4.87336C127.105 4.69802 127.437 4.61035 127.777 4.61035ZM127.777 4.94583C127.493 4.94583 127.215 5.01918 126.945 5.1659C126.677 5.31082 126.467 5.51926 126.315 5.79122C126.162 6.06139 126.086 6.34319 126.086 6.63662C126.086 6.92825 126.161 7.20826 126.309 7.47664C126.459 7.74323 126.669 7.95167 126.937 8.10197C127.206 8.25047 127.486 8.32472 127.777 8.32472C128.069 8.32472 128.349 8.25047 128.617 8.10197C128.886 7.95167 129.094 7.74323 129.243 7.47664C129.391 7.20826 129.465 6.92825 129.465 6.63662C129.465 6.34319 129.389 6.06139 129.237 5.79122C129.087 5.51926 128.877 5.31082 128.607 5.1659C128.336 5.01918 128.06 4.94583 127.777 4.94583ZM126.889 7.75576V5.57652H127.638C127.894 5.57652 128.079 5.59709 128.193 5.63824C128.308 5.67761 128.399 5.74739 128.467 5.84758C128.535 5.94778 128.569 6.05423 128.569 6.16695C128.569 6.32619 128.512 6.46485 128.397 6.58294C128.284 6.70103 128.134 6.76723 127.946 6.78154C128.023 6.81375 128.085 6.85221 128.132 6.89694C128.219 6.98283 128.327 7.12686 128.454 7.32903L128.719 7.75576H128.29L128.097 7.41223C127.945 7.14206 127.822 6.97298 127.729 6.90499C127.665 6.8549 127.571 6.82985 127.447 6.82985H127.24V7.75576H126.889ZM127.24 6.52926H127.667C127.871 6.52926 128.01 6.49885 128.083 6.43801C128.158 6.37718 128.196 6.29667 128.196 6.19647C128.196 6.13206 128.178 6.07481 128.142 6.02471C128.106 5.97282 128.056 5.93436 127.992 5.90931C127.929 5.88426 127.812 5.87173 127.64 5.87173H127.24V6.52926Z" fill="#396C9C"/>
</svg>
