<svg xmlns="http://www.w3.org/2000/svg" width="121" height="117" viewBox="0 0 121 117" fill="none">
<ellipse cx="60.3042" cy="109.15" rx="60.3042" ry="7.83955" fill="url(#paint0_radial_192_11837)"/>
<path d="M59.5009 104.869C48.6521 100.177 13.2656 73.2153 13.2656 17.3435V17.2048C13.4888 14.7383 23.0349 9.61852 27.6241 7.51993C35.1259 4.10069 46.9214 0.0120608 60.52 0C74.1246 0.0120608 85.9201 4.10069 93.422 7.51993C98.0111 9.61249 107.557 14.7383 107.774 17.2048V17.2772L107.78 17.3495C107.78 73.2214 72.3939 100.183 61.5452 104.869C61.4004 104.929 60.526 105.345 60.526 105.345C60.526 105.345 59.6456 104.929 59.5009 104.869Z" fill="url(#paint1_linear_192_11837)"/>
<path d="M60.5207 1.62891C35.3196 1.65303 15.0091 16.0295 14.8945 17.3442C14.8945 78.8786 56.3899 102.729 60.5207 103.537C64.6576 102.729 106.147 78.8786 106.147 17.3442C106.032 16.0235 85.7278 1.65303 60.5207 1.62891Z" fill="#B3B3B3"/>
<path d="M59.8128 97.1194C47.8605 91.3664 19.9517 67.1784 18.9868 19.8396L18.9688 18.9833L19.6683 18.4827C21.5015 17.1802 38.2058 5.72236 60.5244 5.69824C82.8309 5.72236 99.5352 17.1741 101.368 18.4827L102.068 18.9833L102.05 19.8396C101.091 67.1784 73.1762 91.3604 61.2239 97.1134L60.5183 97.4511L59.8128 97.1134V97.1194Z" fill="url(#paint2_linear_192_11837)"/>
<path d="M31.8984 65.2189C41.1491 82.5744 53.7708 92.404 60.5188 95.6484C70.2881 90.9507 92.3534 72.4674 98.7034 37.292C68.9192 39.2338 43.8688 50.1428 31.9045 65.2189H31.8984Z" fill="url(#paint3_linear_192_11837)"/>
<path d="M98.1543 38.0582C99.2096 32.462 99.873 26.4557 100.006 19.9851C95.3501 16.6683 79.7314 7.65286 60.5245 7.63477C41.3055 7.65286 25.6867 16.6683 21.0312 19.9851C21.4112 38.7939 26.1933 53.8459 32.471 65.4424C44.2242 50.6317 68.8706 39.9216 98.1483 38.0582H98.1543Z" fill="url(#paint4_linear_192_11837)"/>
<path d="M100.428 19.8101C98.6427 18.5377 82.3364 7.35127 60.5304 7.32715C38.7304 7.35127 22.4061 18.5377 20.6211 19.8101C21.0312 40.1387 26.4224 58.0852 36.6319 73.1612C44.779 85.1859 54.3131 92.6636 60.5244 95.6547C66.7357 92.6697 76.2698 85.1919 84.4229 73.1673C94.6324 58.0973 100.024 40.1447 100.434 19.8161L100.428 19.8101ZM83.9465 72.8416C75.9683 84.613 66.6694 91.9822 60.5244 95.0155C54.3794 91.9822 45.0805 84.613 37.1022 72.8416C27.0013 57.9344 21.6523 40.1929 21.194 20.0996C23.8896 18.2241 39.6893 7.91813 60.5304 7.89401C81.3957 7.9121 97.1652 18.2301 99.8548 20.0996C99.3965 40.1929 94.0475 57.9344 83.9526 72.8356L83.9465 72.8416Z" fill="#575757"/>
<g filter="url(#filter0_d_192_11837)">
<path d="M42.4302 48.2856H37.3164V32.1904H39.4693V46.3378H42.4302V48.2856Z" fill="white"/>
<path d="M46.7124 48.2856C44.9756 48.2856 44.1133 47.375 44.1133 45.5478V34.9463C44.1133 33.1071 44.9696 32.1904 46.6883 32.1904H48.7507C50.4693 32.1904 51.3257 33.1071 51.3257 34.9463V45.5478C51.3257 47.369 50.4573 48.2856 48.7266 48.2856H46.7064H46.7124ZM47.225 46.3378H48.3225C48.8894 46.3378 49.1728 46.0242 49.1728 45.397V35.085C49.1728 34.4579 48.8532 34.1443 48.2079 34.1443H47.2009C46.5737 34.1443 46.2601 34.4579 46.2601 35.085V45.397C46.2601 46.0242 46.5797 46.3378 47.225 46.3378Z" fill="white"/>
<path d="M60.5403 32.1904L57.9412 48.2856H55.3843L52.7852 32.1904H54.9139L56.6627 44.4744L58.4115 32.1904H60.5403Z" fill="white"/>
<path d="M62.1055 48.2856V32.1904H67.4424V34.1383H64.2583V39.0229H67.0806V40.9707H64.2583V46.3257H67.4424V48.2736H62.1055V48.2856Z" fill="white"/>
<path d="M73.6992 48.2856V32.1904H75.8521V48.2856H73.6992Z" fill="white"/>
<path d="M81.8559 34.1441V48.2915H79.703V34.1441H77.6406V32.1963H83.9183V34.1441H81.8559Z" fill="white"/>
<path d="M37.3043 59.7429V58.4222H39.5235V63.7411H36.6651C35.5374 63.7411 34.9766 63.126 34.9766 61.9018V54.7015C34.9766 53.4532 35.5374 52.832 36.6651 52.832H37.6661C38.9024 52.832 39.5175 53.4652 39.5175 54.7316V55.9196H38.0581V54.9487C38.0581 54.4241 37.8531 54.1587 37.437 54.1587H37.0691C36.641 54.1587 36.4299 54.4241 36.4299 54.9487V61.6364C36.4299 62.1611 36.641 62.4264 37.0691 62.4264H38.0581V59.7489H37.2983L37.3043 59.7429Z" fill="white"/>
<path d="M45.8258 52.8262V61.6728C45.8258 63.0477 45.2409 63.7412 44.065 63.7412H42.8348C41.6709 63.7412 41.0859 63.0477 41.0859 61.6607V52.8322H42.5453V61.709C42.5453 62.1854 42.7564 62.4206 43.1845 62.4206H43.7755C44.1735 62.4206 44.3665 62.1854 44.3665 61.709V52.8322H45.8258V52.8262Z" fill="white"/>
<path d="M48.9555 63.7411H47.4961V54.7015C47.4961 53.4532 48.081 52.832 49.2449 52.832H50.3364C51.5003 52.832 52.0852 53.4532 52.0852 54.7015V63.7411H50.6259V59.7429H48.9555V63.7411ZM50.6259 58.4222V54.7919C50.6259 54.3638 50.4148 54.1527 49.9867 54.1527H49.5886C49.1605 54.1527 48.9494 54.3638 48.9494 54.7919V58.4222H50.6199H50.6259Z" fill="white"/>
<path d="M53.7617 52.8262H56.6201C57.7358 52.8262 58.2906 53.4473 58.2906 54.6956V57.3852C58.2906 58.338 58.0011 58.941 57.4222 59.1943L58.4413 63.7352H57.0604L56.1015 59.327H55.2211V63.7352H53.7617V52.8262ZM55.2211 58.0847H56.1799C56.6141 58.0847 56.8312 57.8194 56.8312 57.2947V54.9368C56.8312 54.4122 56.6141 54.1468 56.1799 54.1468H55.2211V58.0847Z" fill="white"/>
<path d="M61.2641 63.7411H59.8047V54.7015C59.8047 53.4532 60.3896 52.832 61.5535 52.832H62.645C63.8089 52.832 64.3938 53.4532 64.3938 54.7015V63.7411H62.9345V59.7429H61.2641V63.7411ZM62.9345 58.4222V54.7919C62.9345 54.3638 62.7234 54.1527 62.2953 54.1527H61.8972C61.4691 54.1527 61.258 54.3638 61.258 54.7919V58.4222H62.9284H62.9345Z" fill="white"/>
<path d="M69.0916 58.1026V52.832H70.5509V63.7411H69.0916V61.5701L67.5297 56.601V63.7411H66.0703V52.832H67.5297L69.0916 58.1026Z" fill="white"/>
<path d="M74.6201 54.1527V63.7411H73.1608V54.1527H71.7617V52.832H76.0192V54.1527H74.6201Z" fill="white"/>
<path d="M77.2383 63.7411V52.832H80.8565V54.1527H78.6976V57.4634H80.6093V58.7841H78.6976V62.4144H80.8565V63.735H77.2383V63.7411Z" fill="white"/>
<path d="M82.2773 63.7411V52.832H85.8956V54.1527H83.7367V57.4634H85.6483V58.7841H83.7367V62.4144H85.8956V63.735H82.2773V63.7411Z" fill="white"/>
<path d="M44.6547 20.9248C45.5653 21.166 46.0236 21.7208 46.0236 22.5831V25.4295C46.0236 26.913 45.3241 27.6547 43.925 27.6547H42.737C41.338 27.6547 40.6384 26.913 40.6384 25.4295V24.5913H42.3933V25.3028C42.3933 25.8154 42.6224 26.0687 43.0868 26.0687H43.4908C44.0155 26.0687 44.2748 25.8154 44.2748 25.3028V22.6012C44.2748 22.0283 43.931 21.7449 43.2496 21.7449H42.7732V20.2674H43.0265C43.7079 20.2674 44.0456 19.984 44.0456 19.4111V16.9266C44.0456 16.414 43.7863 16.1607 43.2617 16.1607H43.0265C42.5621 16.1607 42.333 16.414 42.333 16.9266V18.2593H40.5781V16.8C40.5781 15.3044 41.2777 14.5566 42.6767 14.5566H43.6959C45.0949 14.5566 45.7944 15.3044 45.7944 16.8V19.4111C45.7944 20.2373 45.4085 20.7439 44.6426 20.9248H44.6547Z" fill="white"/>
<path d="M50.1298 27.6559C48.7308 27.6559 48.0312 26.9081 48.0312 25.4125V16.7951C48.0312 15.2995 48.7308 14.5518 50.1298 14.5518H51.354C52.7531 14.5518 53.4526 15.2995 53.4526 16.7951V25.4125C53.4526 26.9081 52.7531 27.6559 51.354 27.6559H50.1298ZM50.4736 16.1378C50.0092 16.1378 49.7801 16.391 49.7801 16.9036V25.298C49.7801 25.8106 50.0394 26.0638 50.564 26.0638H51.0042C51.4686 26.0638 51.6977 25.8106 51.6977 25.298V16.9036C51.6977 16.391 51.4384 16.1378 50.9138 16.1378H50.4736Z" fill="white"/>
<path d="M54.9492 22.5297V21.0703H58.9655V22.5297H54.9492Z" fill="white"/>
<path d="M60.4609 27.6559V14.5518H63.5063C65.1466 14.5518 65.9727 15.39 65.9727 17.0725V25.7623C65.9727 27.0287 65.2732 27.6619 63.8742 27.6619H60.4609V27.6559ZM62.2158 26.0699H63.5304C63.9948 26.0699 64.2239 25.8769 64.2239 25.4849V17.0906C64.2239 16.4574 63.9646 16.1438 63.44 16.1438H62.2158V26.0699Z" fill="white"/>
<path d="M69.6377 27.6547H67.8828V16.8C67.8828 15.3044 68.5823 14.5566 69.9814 14.5566H71.296C72.6951 14.5566 73.3946 15.3044 73.3946 16.8V27.6607H71.6398V22.8605H69.6316V27.6607L69.6377 27.6547ZM71.6458 21.2685V16.9085C71.6458 16.3959 71.3925 16.1426 70.8799 16.1426H70.4035C69.8909 16.1426 69.6377 16.3959 69.6377 16.9085V21.2685H71.6458Z" fill="white"/>
<path d="M78.3101 27.6559H76.5552V22.8376L74.4023 14.5518H76.1391L77.4537 20.2445H77.508L78.696 14.5518H80.4328L78.3161 22.8376V27.6559H78.3101Z" fill="white"/>
</g>
<g filter="url(#filter1_d_192_11837)">
<path d="M51.8075 69.628L52.5613 67.457L53.3212 69.628L55.6188 69.6762L53.7855 71.0693L54.4549 73.2704L52.5613 71.9557L50.6738 73.2704L51.3372 71.0693L49.5039 69.6762L51.8075 69.628Z" fill="white"/>
<path d="M43.913 69.628L44.6728 67.457L45.4266 69.628L47.7303 69.6762L45.897 71.0693L46.5604 73.2704L44.6728 71.9557L42.7793 73.2704L43.4487 71.0693L41.6094 69.6762L43.913 69.628Z" fill="white"/>
<path d="M59.6942 69.628L60.448 67.457L61.2079 69.628L63.5115 69.6762L61.6722 71.0693L62.3416 73.2704L60.448 71.9557L58.5605 73.2704L59.2299 71.0693L57.3906 69.6762L59.6942 69.628Z" fill="white"/>
<path d="M67.5888 69.628L68.3426 67.457L69.0964 69.628L71.4 69.6762L69.5668 71.0693L70.2301 73.2704L68.3426 71.9557L66.4551 73.2704L67.1184 71.0693L65.2852 69.6762L67.5888 69.628Z" fill="white"/>
<path d="M75.4755 69.628L76.2353 67.457L76.9891 69.628L79.2867 69.6762L77.4535 71.0693L78.1228 73.2704L76.2353 71.9557L74.3418 73.2704L75.0112 71.0693L73.1719 69.6762L75.4755 69.628Z" fill="white"/>
</g>
<defs>
<filter id="filter0_d_192_11837" x="31.9766" y="11.5518" width="58.918" height="57.1895" filterUnits="userSpaceOnUse" color-interpolation-filters="sRGB">
<feFlood flood-opacity="0" result="BackgroundImageFix"/>
<feColorMatrix in="SourceAlpha" type="matrix" values="0 0 0 0 0 0 0 0 0 0 0 0 0 0 0 0 0 0 127 0" result="hardAlpha"/>
<feOffset dx="1" dy="1"/>
<feGaussianBlur stdDeviation="2"/>
<feColorMatrix type="matrix" values="0 0 0 0 0 0 0 0 0 0 0 0 0 0 0 0 0 0 0.2 0"/>
<feBlend mode="normal" in2="BackgroundImageFix" result="effect1_dropShadow_192_11837"/>
<feBlend mode="normal" in="SourceGraphic" in2="effect1_dropShadow_192_11837" result="shape"/>
</filter>
<filter id="filter1_d_192_11837" x="38.6094" y="64.457" width="45.6758" height="13.8135" filterUnits="userSpaceOnUse" color-interpolation-filters="sRGB">
<feFlood flood-opacity="0" result="BackgroundImageFix"/>
<feColorMatrix in="SourceAlpha" type="matrix" values="0 0 0 0 0 0 0 0 0 0 0 0 0 0 0 0 0 0 127 0" result="hardAlpha"/>
<feOffset dx="1" dy="1"/>
<feGaussianBlur stdDeviation="2"/>
<feColorMatrix type="matrix" values="0 0 0 0 0 0 0 0 0 0 0 0 0 0 0 0 0 0 0.2 0"/>
<feBlend mode="normal" in2="BackgroundImageFix" result="effect1_dropShadow_192_11837"/>
<feBlend mode="normal" in="SourceGraphic" in2="effect1_dropShadow_192_11837" result="shape"/>
</filter>
<radialGradient id="paint0_radial_192_11837" cx="0" cy="0" r="1" gradientUnits="userSpaceOnUse" gradientTransform="translate(60.3042 109.15) rotate(90) scale(7.83955 60.3042)">
<stop offset="0.0141763" stop-color="#A6A6A6"/>
<stop offset="0.410033" stop-color="#D9D9D9" stop-opacity="0"/>
<stop offset="0.873602" stop-color="white" stop-opacity="0"/>
</radialGradient>
<linearGradient id="paint1_linear_192_11837" x1="60.52" y1="105.339" x2="60.52" y2="0" gradientUnits="userSpaceOnUse">
<stop stop-color="#6A6A6A"/>
<stop offset="0.33" stop-color="#9A9A9A"/>
<stop offset="0.78" stop-color="#D6D6D6"/>
<stop offset="1" stop-color="#EEEEEE"/>
</linearGradient>
<linearGradient id="paint2_linear_192_11837" x1="60.5244" y1="97.4571" x2="60.5244" y2="5.69824" gradientUnits="userSpaceOnUse">
<stop stop-color="#FBFBFB"/>
<stop offset="0.2" stop-color="#E3E3E3"/>
<stop offset="0.61" stop-color="#A7A7A7"/>
<stop offset="1" stop-color="#6A6A6A"/>
</linearGradient>
<linearGradient id="paint3_linear_192_11837" x1="31.8984" y1="66.4732" x2="98.7034" y2="66.4732" gradientUnits="userSpaceOnUse">
<stop stop-color="#456B97"/>
<stop offset="0.27" stop-color="#426893"/>
<stop offset="0.49" stop-color="#3C6089"/>
<stop offset="0.68" stop-color="#325178"/>
<stop offset="0.87" stop-color="#233E60"/>
<stop offset="1" stop-color="#162D4C"/>
</linearGradient>
<linearGradient id="paint4_linear_192_11837" x1="21.0373" y1="36.5386" x2="100.006" y2="36.5386" gradientUnits="userSpaceOnUse">
<stop stop-color="#3D5D35"/>
<stop offset="0.05" stop-color="#4A723F"/>
<stop offset="0.1" stop-color="#548046"/>
<stop offset="0.16" stop-color="#5A894A"/>
<stop offset="0.26" stop-color="#5C8C4C"/>
<stop offset="0.42" stop-color="#588649"/>
<stop offset="0.63" stop-color="#4D7740"/>
<stop offset="0.85" stop-color="#3B5E32"/>
<stop offset="1" stop-color="#2D4A27"/>
</linearGradient>
</defs>
</svg>