<svg xmlns="http://www.w3.org/2000/svg" width="49" height="55" viewBox="0 0 49 55" fill="none">
<path d="M37.2535 10.3488C36.1314 10.3479 35.0153 10.511 33.9404 10.8327V3.24526C33.9404 2.38457 33.5985 1.55912 32.9899 0.950516C32.3813 0.341911 31.5558 0 30.6951 0L3.24526 0C2.38457 0 1.55912 0.341911 0.950516 0.950516C0.341911 1.55912 0 2.38457 0 3.24526L0 51.7547C0 52.6154 0.341911 53.4409 0.950516 54.0495C1.55912 54.6581 2.38457 55 3.24526 55H30.6951C31.5558 55 32.3813 54.6581 32.9899 54.0495C33.5985 53.4409 33.9404 52.6154 33.9404 51.7547V32.9192C35.5255 33.3932 37.1941 33.5204 38.8327 33.2923C40.4714 33.0641 42.0417 32.4859 43.4371 31.5969C44.8324 30.7079 46.0201 29.529 46.9193 28.1403C47.8186 26.7515 48.4084 25.1855 48.6486 23.5486C48.8889 21.9116 48.774 20.2422 48.3117 18.6536C47.8494 17.065 47.0507 15.5946 45.9696 14.3421C44.8886 13.0897 43.5506 12.0846 42.0466 11.3952C40.5427 10.7057 38.9079 10.3481 37.2535 10.3466V10.3488ZM33.6519 51.7547C33.6519 52.5389 33.3404 53.291 32.7859 53.8455C32.2314 54.4 31.4793 54.7115 30.6951 54.7115H3.24526C2.46107 54.7115 1.709 54.4 1.15449 53.8455C0.599986 53.291 0.288468 52.5389 0.288468 51.7547V3.24526C0.288468 2.46107 0.599986 1.709 1.15449 1.15449C1.709 0.599986 2.46107 0.288468 3.24526 0.288468H30.6951C31.4793 0.288468 32.2314 0.599986 32.7859 1.15449C33.3404 1.709 33.6519 2.46107 33.6519 3.24526V10.9236C31.346 11.6823 29.3383 13.1495 27.9151 15.1161C26.4919 17.0827 25.7256 19.4484 25.7256 21.876C25.7256 24.3035 26.4919 26.6692 27.9151 28.6358C29.3383 30.6024 31.346 32.0696 33.6519 32.8284V51.7547ZM38.2847 27.9273L37.4381 25.1255H33.4861L32.705 27.9273H30.5963L34.4474 15.8354H36.4667L40.4576 27.9273H38.2847ZM45.1863 21.7022H43.0459V23.8419H41.631V21.7022H39.4905V20.2872H41.631V18.1468H43.0459V20.2872H45.1863V21.7022Z" fill="#015C89"/>
</svg>