<svg width="139" height="158" viewBox="0 0 139 158" fill="none" xmlns="http://www.w3.org/2000/svg">
<path d="M106.153 29.7292C102.956 29.7268 99.7758 30.1951 96.7129 31.1194V9.32276C96.7129 6.85021 95.7386 4.47893 94.0044 2.73057C92.2702 0.982216 89.9181 0 87.4655 0L9.24735 0C6.7948 0 4.4427 0.982216 2.70849 2.73057C0.974271 4.47893 0 6.85021 0 9.32276L0 148.677C0 151.15 0.974271 153.521 2.70849 155.269C4.4427 157.018 6.7948 158 9.24735 158H87.4655C89.9181 158 92.2702 157.018 94.0044 155.269C95.7386 153.521 96.7129 151.15 96.7129 148.677V94.568C101.23 95.9296 105.984 96.295 110.654 95.6396C115.323 94.9841 119.798 93.323 123.774 90.7692C127.75 88.2155 131.134 84.8288 133.696 80.8393C136.259 76.8498 137.939 72.351 138.624 67.6486C139.308 62.9461 138.981 58.1502 137.664 53.5867C136.347 49.0232 134.07 44.7989 130.99 41.201C127.91 37.6031 124.097 34.7158 119.812 32.7352C115.526 30.7547 110.868 29.7274 106.153 29.723V29.7292ZM95.8909 148.677C95.8909 150.93 95.0032 153.09 93.4232 154.683C91.8431 156.276 89.7001 157.171 87.4655 157.171H9.24735C7.0128 157.171 4.86978 156.276 3.28972 154.683C1.70966 153.09 0.821987 150.93 0.821987 148.677V9.32276C0.821987 7.06999 1.70966 4.90949 3.28972 3.31654C4.86978 1.7236 7.0128 0.828689 9.24735 0.828689H87.4655C89.7001 0.828689 91.8431 1.7236 93.4232 3.31654C95.0032 4.90949 95.8909 7.06999 95.8909 9.32276V31.3804C89.3201 33.5601 83.5993 37.775 79.5438 43.4245C75.4883 49.074 73.305 55.8699 73.305 62.8437C73.305 69.8174 75.4883 76.6133 79.5438 82.2628C83.5993 87.9123 89.3201 92.1272 95.8909 94.3069V148.677ZM109.092 80.2275L106.679 72.1788H95.4183L93.1927 80.2275H87.184L98.1575 45.4909H103.911L115.284 80.2275H109.092ZM128.758 62.3444H122.659V68.4912H118.627V62.3444H112.528V58.2797H118.627V52.1308H122.659V58.2797H128.758V62.3444Z" fill="#015C89"/>
</svg>