<svg xmlns="http://www.w3.org/2000/svg" width="61" height="64" viewBox="0 0 61 64" fill="none">
<g clip-path="url(#clip0_147_9049)">
<rect width="61" height="64" fill="white"/>
<path d="M61 0H0V64H61V0Z" fill="white"/>
<path d="M59.6444 1.34277H1.35547V64.0001H59.6444V1.34277Z" fill="white"/>
<path d="M1.21973 10.5269H59.7797V48.2669C59.7797 52.4312 56.2766 55.7481 52.4752 55.7481H1.21973V10.5269Z" fill="#FBAF17"/>
<path d="M21.7317 21.1542H17.1699V19.9819H27.6659V21.1542H23.104V32.8026H21.7317V21.1542Z" fill="#EC3338"/>
<path d="M31.8472 32.0608C30.8297 31.5191 29.9829 30.7112 29.3995 29.7256C28.8219 28.7072 28.5186 27.5595 28.5186 26.3922C28.5186 25.2249 28.8219 24.0772 29.3995 23.0588C29.9829 22.0733 30.8297 21.2653 31.8472 20.7236C32.9222 20.1659 34.1181 19.8737 35.3324 19.8721C36.5467 19.8705 37.7433 20.1595 38.8198 20.7145C39.8333 21.2584 40.6767 22.066 41.2584 23.0497C41.8419 24.0695 42.1485 25.2209 42.1485 26.3923C42.1485 27.5636 41.8419 28.7151 41.2584 29.7349C40.6768 30.7186 39.8335 31.5262 38.82 32.0699C37.7436 32.625 36.5469 32.9141 35.3326 32.9125C34.1183 32.9109 32.9224 32.6187 31.8475 32.0608H31.8472ZM38.1244 31.0168C38.9393 30.572 39.6133 29.9127 40.0715 29.1121C40.5339 28.2783 40.7763 27.3429 40.7763 26.3923C40.7763 25.4416 40.5339 24.5062 40.0715 23.6724C39.6132 22.8719 38.9392 22.2126 38.1244 21.7676C37.2666 21.3166 36.3098 21.0808 35.3381 21.0808C34.3664 21.0808 33.4096 21.3166 32.5519 21.7676C31.7317 22.2118 31.0515 22.8709 30.5862 23.6724C30.1181 24.5044 29.8724 25.4405 29.8724 26.3923C29.8724 27.3441 30.1181 28.2802 30.5862 29.1121C31.0514 29.9137 31.7316 30.5728 32.5519 31.0168C33.4096 31.4678 34.3664 31.7037 35.3381 31.7037C36.3098 31.7037 37.2666 31.4678 38.1244 31.0168Z" fill="#EC3338"/>
<path d="M53.9792 21.1542C54.9186 21.9358 55.3884 23.0103 55.3887 24.3777C55.3889 25.7452 54.9191 26.8166 53.9792 27.5919C53.0396 28.3675 51.7416 28.7552 50.085 28.755H46.5988V32.8026H45.2266V19.9819H50.085C51.7412 19.9819 53.0393 20.3727 53.9792 21.1542ZM52.9964 26.7312C53.6762 26.1756 54.0161 25.3911 54.0163 24.3777C54.0163 23.3399 53.6763 22.5432 52.9964 21.9876C52.3164 21.4319 51.3336 21.1541 50.0479 21.1542H46.5988V27.5646H50.048C51.3336 27.5646 52.3164 27.2868 52.9964 26.7312Z" fill="#EC3338"/>
<path d="M22.1353 36.1143V48.9349H20.8V37.2864H17.7402V36.1143H22.1353Z" fill="#EC3338"/>
<path d="M28.5601 48.1931C27.5426 47.6514 26.6957 46.8435 26.1123 45.8579C25.5347 44.8395 25.2314 43.6918 25.2314 42.5245C25.2314 41.3573 25.5347 40.2095 26.1123 39.1912C26.6957 38.2056 27.5426 37.3976 28.5601 36.856C29.6351 36.2982 30.8309 36.006 32.0452 36.0044C33.2595 36.0028 34.4562 36.2919 35.5326 36.8468C36.5462 37.3907 37.3895 38.1983 37.9712 39.182C38.5547 40.2018 38.8613 41.3532 38.8613 42.5245C38.8613 43.6959 38.5547 44.8473 37.9712 45.8671C37.3896 46.8509 36.5463 47.6585 35.5326 48.2022C34.4562 48.7573 33.2596 49.0463 32.0452 49.0447C30.8309 49.0431 29.6351 48.7509 28.5601 48.1931ZM34.8372 47.1491C35.6522 46.7043 36.3262 46.0449 36.7844 45.2443C37.2467 44.4105 37.489 43.4752 37.489 42.5245C37.489 41.5739 37.2467 40.6385 36.7844 39.8047C36.3261 39.0042 35.6521 38.3449 34.8372 37.8999C33.9795 37.4489 33.0227 37.2131 32.051 37.2131C31.0793 37.2131 30.1225 37.4489 29.2648 37.8999C28.4445 38.344 27.7643 39.0032 27.2991 39.8047C26.8309 40.6366 26.5852 41.5727 26.5852 42.5245C26.5852 43.4763 26.8309 44.4124 27.2991 45.2443C27.7642 46.046 28.4444 46.7051 29.2648 47.1491C30.1225 47.6001 31.0793 47.836 32.051 47.836C33.0227 47.836 33.9795 47.6001 34.8372 47.1491Z" fill="#EC3338"/>
<path d="M44.1187 48.1931C43.1012 47.6514 42.2544 46.8435 41.671 45.8579C41.0934 44.8395 40.79 43.6918 40.79 42.5245C40.79 41.3572 41.0934 40.2095 41.671 39.1912C42.2544 38.2056 43.1012 37.3977 44.1187 36.856C45.1937 36.2982 46.3895 36.006 47.6038 36.0044C48.8182 36.0028 50.0148 36.2919 51.0913 36.8468C52.1048 37.3907 52.9482 38.1983 53.5299 39.182C54.1134 40.2018 54.42 41.3532 54.42 42.5245C54.42 43.6959 54.1134 44.8473 53.5299 45.8671C52.9483 46.8509 52.1049 47.6585 51.0913 48.2022C50.0148 48.7573 48.8182 49.0463 47.6038 49.0447C46.3895 49.0431 45.1937 48.7509 44.1187 48.1931ZM50.3959 47.1491C51.2108 46.7043 51.8848 46.0449 52.343 45.2443C52.8054 44.4106 53.0478 43.4752 53.0478 42.5245C53.0478 41.5739 52.8054 40.6385 52.343 39.8047C51.8847 39.0042 51.2107 38.3449 50.3959 37.8999C49.5381 37.4489 48.5813 37.2131 47.6096 37.2131C46.6379 37.2131 45.6811 37.4489 44.8234 37.8999C44.0032 38.3441 43.323 39.0032 42.8577 39.8047C42.3896 40.6367 42.1439 41.5727 42.1439 42.5245C42.1439 43.4763 42.3896 44.4124 42.8577 45.2443C43.3227 46.0459 44.0028 46.705 44.8229 47.1491C45.6806 47.6001 46.6374 47.836 47.6091 47.836C48.5808 47.836 49.5376 47.6001 50.3954 47.1491H50.3959Z" fill="#EC3338"/>
<path d="M18.3485 48.8936H11.142C9.78595 48.8936 8.83887 47.9583 8.83887 46.619V18.3164H9.32687V46.6196C9.32687 47.8579 10.2385 48.4122 11.142 48.4122H18.3485V48.8936Z" fill="black"/>
<path d="M18.324 46.6659H13.3236C11.9675 46.6659 11.0205 45.7305 11.0205 44.3912V22.4561H11.5085V44.3912C11.5085 45.6296 12.4201 46.1839 13.3236 46.1839H18.324V46.6659Z" fill="black"/>
<path d="M18.3489 44.4626H15.5795C14.2235 44.4626 13.2764 43.5272 13.2764 42.1879V26.5718H13.7644V42.1879C13.7641 43.4264 14.6757 43.9806 15.5795 43.9806H18.3489V44.4626Z" fill="black"/>
<path d="M7.12081 22.4561H6.63281V49.1606H7.12081V22.4561Z" fill="black"/>
<path d="M4.8171 26.5723H4.3291V49.161H4.8171V26.5723Z" fill="black"/>
<path d="M3.68844 5.25891H2.68634V8.1009H2.30484V5.25891H1.30273V4.92285H3.68844V5.25891Z" fill="#231F20"/>
<path d="M6.08812 6.64352H4.5436V8.10151H4.16211V4.92285H4.5436V6.30758H6.08812V4.92285H6.46962V8.1009H6.08812V6.64352Z" fill="#231F20"/>
<path d="M7.25098 4.92285H9.00229V5.25891H7.63247V6.29854H8.88736V6.63448H7.63247V7.76484H9.02534V8.1009H7.25098V4.92285Z" fill="#231F20"/>
<path d="M10.9414 4.92246C10.9995 4.91346 11.0645 4.90668 11.1366 4.9021C11.2086 4.89752 11.2837 4.89463 11.3619 4.89294C11.4401 4.89125 11.5166 4.89005 11.5918 4.88848C11.6669 4.88691 11.7365 4.88619 11.8009 4.88619C12.0296 4.88098 12.257 4.92114 12.4697 5.00428C12.6491 5.0766 12.8088 5.18933 12.9362 5.33347C13.0626 5.48119 13.1558 5.65367 13.2098 5.83955C13.3278 6.25444 13.3294 6.69324 13.2144 7.10896C13.1614 7.3004 13.0701 7.47943 12.946 7.63552C12.8176 7.79296 12.654 7.91887 12.4681 8.00339C12.244 8.10128 12.0006 8.14854 11.7556 8.14172C11.7068 8.14172 11.6429 8.14172 11.5647 8.13955C11.4865 8.13738 11.4061 8.13497 11.3235 8.13052C11.2409 8.12606 11.1641 8.12208 11.0937 8.11907C11.0429 8.1179 10.9922 8.11339 10.942 8.10557L10.9414 4.92246ZM11.8102 5.22213H11.6791C11.6316 5.22213 11.5848 5.22366 11.5388 5.22671C11.4928 5.22972 11.4508 5.23285 11.4124 5.23575C11.3741 5.23864 11.3443 5.24189 11.3229 5.24478V7.78723C11.3518 7.79142 11.3809 7.79371 11.4101 7.79409L11.5435 7.79855L11.6768 7.80313C11.7198 7.80458 11.7488 7.8053 11.7642 7.8053C11.9503 7.81145 12.1353 7.7743 12.3043 7.69686C12.4435 7.62943 12.5636 7.5288 12.6536 7.40405C12.743 7.27688 12.8062 7.13359 12.8397 6.98232C12.8768 6.82073 12.8953 6.65554 12.8949 6.48986C12.8946 6.33938 12.8777 6.18939 12.8442 6.04258C12.8126 5.89745 12.7534 5.75957 12.6697 5.63627C12.5839 5.51252 12.4697 5.4106 12.3364 5.33889C12.174 5.25603 11.9928 5.21582 11.8102 5.22213Z" fill="#231F20"/>
<path d="M15.3611 7.22017H14.1811L13.8611 8.10098H13.4795L14.6975 4.87305H14.8722L16.0948 8.10098H15.6904L15.3611 7.22017ZM14.3046 6.89326H15.2468L14.8901 5.92641L14.7757 5.44516H14.7711L14.6568 5.93545L14.3046 6.89326Z" fill="#231F20"/>
<path d="M18.4247 8.1009H16.5215V4.92285H16.903V7.76484H18.4246L18.4247 8.1009Z" fill="#231F20"/>
<path d="M20.8007 8.1009H18.8975V4.92285H19.279V7.76484H20.8007V8.1009Z" fill="#231F20"/>
<path d="M22.4579 7.22017H21.2778L20.9577 8.10098H20.5762L21.7943 4.87305H21.9689L23.1922 8.10098H22.7872L22.4579 7.22017ZM21.4014 6.89326H22.3436L21.9869 5.92641L21.8724 5.44516H21.8678L21.7536 5.93545L21.4014 6.89326Z" fill="#231F20"/>
<path d="M25.0717 7.29236C25.0764 7.17778 25.0351 7.06601 24.9568 6.98136C24.873 6.89575 24.776 6.82374 24.6695 6.76796C24.548 6.70294 24.4229 6.64461 24.2949 6.59325C24.1634 6.54057 24.0378 6.47437 23.9203 6.39576C23.8066 6.31976 23.709 6.2226 23.6329 6.1097C23.5517 5.97967 23.5117 5.8286 23.518 5.67592C23.5131 5.56427 23.5342 5.453 23.5796 5.35065C23.6251 5.2483 23.6936 5.1576 23.7801 5.0855C23.9941 4.92788 24.2579 4.85062 24.5243 4.86752C24.6952 4.86628 24.8659 4.87995 25.0344 4.90837C25.1582 4.9269 25.2789 4.96205 25.393 5.01284L25.2785 5.34974C25.179 5.30595 25.075 5.27299 24.9682 5.25142C24.8165 5.21848 24.6615 5.20271 24.5062 5.20442C24.343 5.19229 24.1811 5.23999 24.0513 5.33841C24.007 5.37529 23.9708 5.42069 23.9448 5.47183C23.9188 5.52298 23.9037 5.57881 23.9003 5.63593C23.8968 5.69304 23.9052 5.75025 23.9249 5.80406C23.9446 5.85788 23.9751 5.90718 24.0147 5.94896C24.099 6.03343 24.1959 6.10463 24.302 6.16007C24.4169 6.22224 24.5418 6.28354 24.6767 6.34394C24.8079 6.40257 24.9333 6.47325 25.0512 6.55505C25.164 6.63311 25.2614 6.73082 25.3386 6.84339C25.4187 6.96796 25.4588 7.11356 25.4534 7.26103C25.4555 7.38738 25.4306 7.51274 25.3802 7.6289C25.3311 7.73785 25.2571 7.83413 25.1642 7.91026C25.0625 7.99259 24.9454 8.0543 24.8195 8.09184C24.6705 8.13626 24.5155 8.15772 24.3598 8.15546C24.1684 8.15918 23.9772 8.14164 23.7898 8.10317C23.6691 8.07847 23.5518 8.0396 23.4404 7.98737L23.5693 7.65143C23.6688 7.70052 23.7736 7.73835 23.8817 7.76422C24.0333 7.80276 24.1895 7.82136 24.346 7.81952C24.4419 7.82014 24.5374 7.8102 24.631 7.78988C24.7132 7.77308 24.7912 7.74071 24.8609 7.69457C24.9243 7.65167 24.977 7.59499 25.0148 7.52889C25.0545 7.45634 25.0741 7.37476 25.0717 7.29236Z" fill="#231F20"/>
<path d="M29.76 5.96718L29.806 5.49038H29.783L29.6084 5.92633L28.7717 7.36082H28.6569L27.7697 5.92175L27.6043 5.49038H27.5813L27.6457 5.96248V8.1009H27.2871V4.92285H27.572L28.5786 6.54821L28.7302 6.90234H28.7395L28.8819 6.53917L29.8426 4.92285H30.1415V8.1009H29.7599L29.76 5.96718Z" fill="#231F20"/>
<path d="M30.7892 6.51154C30.7892 5.98184 30.9026 5.57549 31.1294 5.29249C31.2455 5.15096 31.3939 5.03868 31.5626 4.96488C31.7312 4.89108 31.9151 4.85787 32.0993 4.86799C32.3019 4.86303 32.5031 4.9034 32.6877 4.98607C32.8503 5.06252 32.9915 5.17706 33.0991 5.31972C33.2131 5.47489 33.2951 5.65075 33.3404 5.83725C33.3948 6.05807 33.4211 6.28475 33.4186 6.51202C33.4186 7.04171 33.3044 7.44802 33.0761 7.73094C32.9587 7.87274 32.809 7.98511 32.6392 8.05888C32.4695 8.13265 32.2844 8.16574 32.0993 8.15545C31.8989 8.16028 31.7 8.11989 31.5178 8.03736C31.3561 7.96053 31.2157 7.84603 31.1087 7.70371C30.9945 7.54842 30.9125 7.37232 30.8674 7.18558C30.813 6.965 30.7867 6.73856 30.7892 6.51154ZM31.1938 6.51154C31.1929 6.67938 31.2106 6.84682 31.2466 7.01087C31.2775 7.15728 31.3327 7.29765 31.4098 7.42633C31.4799 7.54236 31.5768 7.64035 31.6926 7.71227C31.8151 7.78552 31.9562 7.82257 32.0993 7.81903C32.2291 7.82404 32.3582 7.79747 32.4752 7.74164C32.5922 7.68582 32.6935 7.60245 32.7703 7.49887C32.9329 7.28559 33.0143 6.95648 33.0143 6.51154C33.0148 6.34442 32.997 6.17773 32.9613 6.01437C32.9306 5.86686 32.8746 5.72559 32.7959 5.59662C32.7245 5.48089 32.6269 5.38304 32.5109 5.31068C32.3868 5.23713 32.244 5.20009 32.0994 5.20392C31.9705 5.19913 31.8425 5.22584 31.7266 5.2817C31.6108 5.33755 31.5107 5.42081 31.4352 5.52408C31.2743 5.7372 31.1939 6.06635 31.1938 6.51154Z" fill="#231F20"/>
<path d="M34.0674 4.95433C34.1839 4.93312 34.3181 4.91649 34.47 4.90444C34.6219 4.89239 34.7606 4.88633 34.8861 4.88625C35.0217 4.88561 35.1568 4.90086 35.2887 4.93168C35.4095 4.95916 35.5235 5.01007 35.6242 5.08145C35.7221 5.15298 35.8016 5.24632 35.856 5.35389C35.9177 5.48128 35.9476 5.62136 35.9434 5.76249C35.9532 5.98231 35.8792 6.19777 35.736 6.36629C35.5982 6.52064 35.415 6.62855 35.212 6.67488L35.4327 6.84357L36.2325 8.10117H35.7866L34.8994 6.72946L34.4489 6.66138V8.10057H34.0674V4.95433ZM34.8949 5.21315H34.7705C34.7276 5.21315 34.6862 5.21472 34.6464 5.21773C34.6066 5.22074 34.569 5.22376 34.5338 5.22677C34.505 5.22871 34.4764 5.23327 34.4484 5.24038V6.41171H34.8071C34.9944 6.41919 35.179 6.36489 35.3317 6.25736C35.4029 6.19956 35.4589 6.12561 35.4949 6.04181C35.5309 5.95801 35.5458 5.86685 35.5385 5.7761C35.5407 5.70071 35.5267 5.62571 35.4975 5.55605C35.4682 5.4864 35.4242 5.42369 35.3685 5.37208C35.2378 5.25997 35.0677 5.20292 34.8949 5.21315Z" fill="#231F20"/>
<path d="M37.381 6.02172L37.1327 5.56312H37.1143L37.1603 6.02172V8.10098H36.8018V4.87305H37.004L38.5439 6.99376L38.7829 7.42959H38.8059L38.7553 6.99376V4.92293H39.1139V8.15087H38.9115L37.381 6.02172Z" fill="#231F20"/>
<path d="M39.9824 4.92285H40.3639V8.1009H39.9824V4.92285Z" fill="#231F20"/>
<path d="M41.8125 6.02172L41.5644 5.56312H41.546L41.592 6.02172V8.10098H41.2334V4.87305H41.4357L42.9754 6.99376L43.2146 7.42959H43.2376L43.1869 6.99376V4.92293H43.5455V8.15087H43.3433L41.8125 6.02172Z" fill="#231F20"/>
<path d="M45.4115 6.51658H46.4916V7.91432C46.4366 7.95409 46.3773 7.9876 46.3147 8.01422C46.2433 8.04538 46.1695 8.07115 46.0941 8.09133C46.014 8.11302 45.9325 8.12912 45.8501 8.13953C45.7686 8.14996 45.6864 8.15527 45.6042 8.15544C45.4112 8.15757 45.2196 8.12444 45.0388 8.05771C44.8685 7.99365 44.7158 7.89105 44.5929 7.75816C44.4592 7.60962 44.359 7.43475 44.2988 7.2451C44.2238 7.00795 44.1881 6.7604 44.193 6.51201C44.1866 6.25494 44.2303 5.99906 44.3217 5.75831C44.3961 5.56671 44.5104 5.39271 44.6573 5.24765C44.7893 5.11966 44.9476 5.0213 45.1215 4.95931C45.2866 4.89987 45.4608 4.86913 45.6364 4.86846C45.7886 4.86629 45.9408 4.87617 46.0914 4.89798C46.1952 4.91345 46.2969 4.94012 46.3947 4.9775L46.2982 5.31344C46.0992 5.23097 45.884 5.1937 45.6685 5.20439C45.5377 5.2048 45.408 5.22708 45.2848 5.27031C45.1547 5.31608 45.0374 5.3915 44.9423 5.49045C44.8326 5.60705 44.7481 5.74453 44.6941 5.89447C44.6245 6.0929 44.5918 6.3021 44.5976 6.51201C44.5937 6.70846 44.62 6.90435 44.6755 7.09303C44.7193 7.24168 44.7934 7.37993 44.8932 7.49934C44.984 7.60543 45.0996 7.68813 45.23 7.74033C45.367 7.7944 45.5133 7.82142 45.6608 7.81986C45.8344 7.82499 46.0065 7.78586 46.1604 7.70623V6.82035L45.4112 6.7295L45.4115 6.51658Z" fill="#231F20"/>
<path d="M48.9463 6.02172L48.6982 5.56312H48.6798L48.7257 6.02172V8.10098H48.3672V4.87305H48.5695L50.1093 6.99376L50.3483 7.42959H50.3713L50.3208 6.99376V4.92293H50.6787V8.15087H50.4763L48.9463 6.02172Z" fill="#231F20"/>
<path d="M51.46 4.92285H53.2111V5.25891H51.8415V6.29854H53.0963V6.63448H51.8415V7.76484H53.2342V8.1009H51.46V4.92285Z" fill="#231F20"/>
<path d="M54.5539 7.0521L54.6271 7.57879H54.6317L54.7099 7.04307L55.3716 4.92236H55.5556L56.2221 7.05162L56.302 7.5783H56.3068L56.3914 7.04258L56.9346 4.92188H57.3023L56.406 8.14981H56.1944L55.5418 6.02067L55.459 5.53941H55.4369L55.3542 6.02513L54.7014 8.14981H54.4901L53.5703 4.92284H53.9749L54.5539 7.0521Z" fill="#231F20"/>
<path d="M59.1825 7.29236C59.1872 7.1778 59.1459 7.06604 59.0676 6.98137C58.9838 6.89579 58.8868 6.82378 58.7803 6.76797C58.6588 6.70292 58.5338 6.6446 58.4058 6.59325C58.2742 6.54057 58.1486 6.47438 58.0311 6.39576C57.9174 6.31977 57.8198 6.2226 57.7438 6.10971C57.6625 5.97967 57.6225 5.8286 57.6289 5.67592C57.624 5.56428 57.645 5.45301 57.6905 5.35066C57.7359 5.24831 57.8045 5.1576 57.8909 5.0855C58.1049 4.92787 58.3687 4.8506 58.6351 4.86752C58.8061 4.86628 58.9769 4.87995 59.1454 4.90837C59.2692 4.92688 59.3898 4.96203 59.5039 5.01284L59.3899 5.34975C59.2904 5.30598 59.1863 5.27301 59.0796 5.25142C58.9279 5.21849 58.7729 5.20272 58.6177 5.20443C58.4544 5.1923 58.2924 5.24 58.1625 5.33842C58.1182 5.3753 58.082 5.42069 58.056 5.47184C58.03 5.52299 58.0149 5.57882 58.0115 5.63593C58.008 5.69305 58.0164 5.75025 58.0361 5.80407C58.0558 5.85788 58.0863 5.90718 58.1259 5.94897C58.2101 6.03346 58.307 6.10467 58.4131 6.16007C58.5281 6.22225 58.653 6.28354 58.7877 6.34395C58.919 6.4026 59.0445 6.47328 59.1624 6.55506C59.2751 6.63315 59.3724 6.73086 59.4496 6.8434C59.5298 6.96791 59.5699 7.11353 59.5646 7.26104C59.5668 7.38738 59.5418 7.51275 59.4914 7.62891C59.4424 7.73787 59.3685 7.83416 59.2755 7.91026C59.1737 7.9926 59.0565 8.0543 58.9306 8.09185C58.7816 8.13627 58.6266 8.15773 58.471 8.15547C58.2796 8.15919 58.0885 8.14164 57.901 8.10317C57.7803 8.0785 57.6631 8.03962 57.5518 7.98738L57.6803 7.65144C57.78 7.7005 57.8848 7.73833 57.993 7.76422C58.1447 7.80278 58.3008 7.82138 58.4574 7.81953C58.5532 7.82013 58.6488 7.81019 58.7424 7.78989C58.8244 7.77306 58.9025 7.7407 58.9721 7.69458C59.0356 7.6517 59.0882 7.59502 59.126 7.5289C59.1655 7.45631 59.185 7.37474 59.1825 7.29236Z" fill="#231F20"/>
<path d="M4.13113 58.6669C4.28412 58.809 4.40605 58.9804 4.48939 59.1707C4.57273 59.3611 4.61573 59.5662 4.61573 59.7736C4.61573 59.981 4.57273 60.1861 4.48939 60.3765C4.40605 60.5668 4.28412 60.7383 4.13113 60.8803C3.80816 61.147 3.36187 61.2803 2.79226 61.2802H1.5936V62.672H1.12207V58.2642H2.79226C3.36136 58.2641 3.80765 58.3983 4.13113 58.6669ZM3.79257 60.5843C3.91017 60.4853 4.00301 60.3607 4.06385 60.2204C4.12469 60.08 4.15187 59.9277 4.14329 59.7753C4.15271 59.6209 4.12598 59.4665 4.06515 59.324C4.00432 59.1815 3.91104 59.0547 3.79257 58.9536C3.55926 58.7625 3.22157 58.6669 2.77949 58.6669H1.5936V60.8709H2.77949C3.22147 60.8709 3.55937 60.7753 3.79318 60.5843H3.79257Z" fill="#1A1A1A"/>
<path d="M5.63574 58.2642H6.10819V62.2694H8.60694V62.6724H5.63574V58.2642Z" fill="#1A1A1A"/>
<path d="M12.202 61.4945H9.71592L9.18037 62.672H8.68945L10.7296 58.2642H11.195L13.2353 62.672H12.7379L12.202 61.4945ZM12.03 61.1165L10.9589 58.7489L9.88766 61.1165H12.03Z" fill="#1A1A1A"/>
<path d="M14.6543 62.4202C14.306 62.2339 14.0167 61.956 13.8183 61.6174C13.6198 61.2661 13.5156 60.8705 13.5156 60.4682C13.5156 60.0659 13.6198 59.6702 13.8183 59.3189C14.0171 58.9797 14.3074 58.7018 14.6569 58.5161C15.025 58.3206 15.4375 58.2212 15.8554 58.2273C16.1692 58.2241 16.4807 58.2797 16.7735 58.391C17.0455 58.4944 17.2898 58.6581 17.4876 58.8695L17.188 59.1654C17.0162 58.9933 16.8104 58.8581 16.5833 58.7682C16.3562 58.6783 16.1127 58.6356 15.8682 58.6429C15.5317 58.6388 15.1999 58.7212 14.9054 58.8821C14.623 59.0353 14.3882 59.2618 14.2265 59.537C14.0655 59.8219 13.981 60.1427 13.981 60.4689C13.981 60.7951 14.0655 61.1159 14.2265 61.4008C14.3881 61.6761 14.6229 61.9026 14.9054 62.0557C15.1998 62.2168 15.5317 62.2993 15.8682 62.2951C16.1134 62.303 16.3575 62.26 16.5849 62.1689C16.8122 62.0778 17.0177 61.9406 17.188 61.7662L17.4876 62.0621C17.2887 62.2744 17.0434 62.4391 16.7703 62.5438C16.4769 62.6572 16.1642 62.7139 15.8491 62.711C15.4322 62.7167 15.0208 62.6166 14.6543 62.4202Z" fill="#1A1A1A"/>
<path d="M21.652 62.2699V62.673H18.4961V58.2651H21.5566V58.6676H18.9679V60.2356H21.2763V60.6324H18.9679V62.2699H21.652Z" fill="#1A1A1A"/>
<path d="M23.0387 62.5523C22.7737 62.471 22.5322 62.3285 22.334 62.1368L22.5187 61.7779C22.7026 61.9512 22.9222 62.0833 23.1625 62.1652C23.4276 62.2634 23.7084 62.3135 23.9914 62.3131C24.3067 62.3351 24.621 62.2591 24.8904 62.0959C24.9839 62.034 25.0602 61.95 25.1125 61.8516C25.1648 61.7532 25.1915 61.6435 25.1901 61.5323C25.1939 61.4547 25.1814 61.3772 25.1534 61.3046C25.1254 61.2319 25.0825 61.1658 25.0274 61.1104C24.9138 61.0023 24.7779 60.9196 24.629 60.868C24.4136 60.7946 24.1944 60.7326 23.9723 60.6822C23.6998 60.6177 23.4315 60.5367 23.169 60.4398C22.9714 60.3638 22.7953 60.2417 22.6558 60.084C22.5053 59.9016 22.4291 59.6703 22.442 59.4354C22.4399 59.2198 22.502 59.0084 22.6207 58.8274C22.756 58.6315 22.9467 58.4793 23.169 58.3898C23.46 58.2724 23.7727 58.2166 24.087 58.2261C24.3404 58.2259 24.5927 58.2608 24.8363 58.33C25.0621 58.3907 25.2764 58.4875 25.4706 58.6165L25.3112 58.9879C25.1265 58.8674 24.9245 58.7752 24.7119 58.7144C24.509 58.6549 24.2986 58.6242 24.087 58.6232C23.7759 58.6015 23.4662 58.6799 23.2041 58.8467C23.111 58.9118 23.0354 58.9982 22.9837 59.0986C22.932 59.199 22.9059 59.3103 22.9075 59.4229C22.9039 59.5011 22.9164 59.5791 22.9444 59.6523C22.9724 59.7255 23.0152 59.7923 23.0702 59.8485C23.1856 59.9599 23.3251 60.0438 23.4782 60.094C23.6417 60.1506 23.8617 60.2126 24.1381 60.2797C24.4074 60.3421 24.6725 60.421 24.9318 60.5159C25.1294 60.5906 25.3055 60.7116 25.4451 60.8686C25.5931 61.0485 25.6681 61.2763 25.6554 61.5078C25.6575 61.7239 25.5942 61.9356 25.4737 62.1158C25.3355 62.3121 25.1413 62.4634 24.9158 62.5504C24.6219 62.6653 24.3074 62.7199 23.9914 62.711C23.667 62.7118 23.3448 62.6582 23.0387 62.5523Z" fill="#1A1A1A"/>
<path d="M29.2189 58.6671H27.6504V58.2642H31.259V58.6671H29.6905V62.6721H29.2189V58.6671Z" fill="#1A1A1A"/>
<path d="M32.6971 62.4167C32.3472 62.2304 32.0561 61.9527 31.8554 61.6138C31.657 61.2636 31.5527 60.869 31.5527 60.4677C31.5527 60.0664 31.657 59.6718 31.8554 59.3216C32.0561 58.9828 32.3473 58.705 32.6971 58.5186C33.0667 58.327 33.4779 58.2266 33.8954 58.2261C34.3128 58.2255 34.7243 58.3249 35.0944 58.5156C35.4429 58.7026 35.7328 58.9802 35.9328 59.3184C36.1334 59.669 36.2388 60.0649 36.2388 60.4676C36.2388 60.8704 36.1334 61.2662 35.9328 61.6169C35.7328 61.9551 35.4429 62.2327 35.0944 62.4197C34.7243 62.6106 34.3129 62.7101 33.8954 62.7096C33.4778 62.709 33.0667 62.6085 32.6971 62.4167ZM34.8553 62.0578C35.1354 61.9047 35.3671 61.6779 35.5247 61.4026C35.6838 61.1159 35.7672 60.7943 35.7672 60.4674C35.7672 60.1405 35.6838 59.8189 35.5247 59.5323C35.3672 59.257 35.1354 59.0304 34.8553 58.8775C34.5604 58.7224 34.2314 58.6413 33.8974 58.6413C33.5633 58.6413 33.2343 58.7224 32.9395 58.8775C32.6574 59.03 32.4234 59.2566 32.2636 59.5323C32.1026 59.8183 32.0181 60.1402 32.0181 60.4674C32.0181 60.7947 32.1026 61.1165 32.2636 61.4026C32.4235 61.6782 32.6574 61.9048 32.9395 62.0575C33.2344 62.2125 33.5633 62.2935 33.8974 62.2935C34.2314 62.2935 34.5604 62.2125 34.8553 62.0575V62.0578Z" fill="#1A1A1A"/>
<path d="M45.0946 58.2642L43.5898 62.672H43.0926L41.7856 58.9126L40.4722 62.6721H39.9813L38.4766 58.2643H38.9612L40.2489 62.055L41.5815 58.2643H42.0215L43.3349 62.074L44.6418 58.2643L45.0946 58.2642Z" fill="#1A1A1A"/>
<path d="M46.666 62.4166C46.3161 62.2304 46.0249 61.9526 45.8243 61.6138C45.6258 61.2636 45.5215 60.869 45.5215 60.4677C45.5215 60.0663 45.6258 59.6717 45.8243 59.3216C46.025 58.9827 46.3162 58.7049 46.666 58.5186C47.0356 58.327 47.4467 58.2266 47.8642 58.2261C48.2817 58.2255 48.693 58.3249 49.0632 58.5155C49.4117 58.7025 49.7017 58.9801 49.9017 59.3184C50.1023 59.669 50.2077 60.0649 50.2077 60.4676C50.2077 60.8703 50.1023 61.2662 49.9017 61.6168C49.7017 61.9551 49.4117 62.2327 49.0632 62.4197C48.6931 62.6106 48.2817 62.71 47.8642 62.7095C47.4467 62.709 47.0355 62.6085 46.666 62.4166ZM48.8242 62.0578C49.1043 61.9047 49.336 61.678 49.4936 61.4028C49.6525 61.1161 49.7358 60.7945 49.7358 60.4677C49.7358 60.1408 49.6525 59.8192 49.4936 59.5325C49.3361 59.2573 49.1043 59.0306 48.8242 58.8777C48.5293 58.7227 48.2003 58.6415 47.8662 58.6415C47.5321 58.6415 47.2031 58.7227 46.9082 58.8777C46.6262 59.0304 46.3923 59.257 46.2325 59.5325C46.0715 59.8186 45.987 60.1404 45.987 60.4677C45.987 60.7949 46.0715 61.1168 46.2325 61.4028C46.3924 61.6784 46.6262 61.905 46.9082 62.0578C47.2031 62.2127 47.5321 62.2938 47.8662 62.2938C48.2003 62.2938 48.5292 62.2127 48.8242 62.0578Z" fill="#1A1A1A"/>
<path d="M54.3141 62.6727L53.2941 61.2558C53.1756 61.2685 53.0564 61.2748 52.9371 61.2746H51.7384V62.673H51.2666V58.2651H52.9371C53.5065 58.2651 53.9528 58.3994 54.276 58.6681C54.4369 58.8041 54.5643 58.9747 54.6483 59.1668C54.7322 59.3589 54.7706 59.5674 54.7604 59.7764C54.7757 60.0876 54.6829 60.3945 54.4974 60.6465C54.3119 60.8984 54.0448 61.0802 53.7404 61.1617L54.8306 62.6731L54.3141 62.6727ZM53.9383 60.5884C54.0493 60.4824 54.1375 60.3554 54.1978 60.215C54.258 60.0747 54.2891 59.9238 54.2891 59.7713C54.2891 59.6189 54.258 59.468 54.1978 59.3276C54.1375 59.1872 54.0493 59.0603 53.9383 58.9543C53.7044 58.7632 53.3664 58.6676 52.9243 58.6676H51.7384V60.8779H52.9243C53.3663 60.8779 53.7043 60.7814 53.9383 60.5884Z" fill="#1A1A1A"/>
<path d="M57.2595 60.6003L56.3477 61.5133V62.672H55.876V58.2642H56.3477V60.9279L58.9681 58.2642H59.5101L57.5782 60.2603L59.644 62.6721H59.0829L57.2595 60.6003Z" fill="#1A1A1A"/>
<path d="M59.7797 1.20508H1.21973V2.41003H59.7797V1.20508Z" fill="#1A1A1A"/>
</g>
<defs>
<clipPath id="clip0_147_9049">
<rect width="61" height="64" fill="white"/>
</clipPath>
</defs>
</svg>