<svg width="48" height="63" viewBox="0 0 48 63" fill="none" xmlns="http://www.w3.org/2000/svg">
<g clip-path="url(#clip0_147_8954)">
<path d="M2.02336 3.36396H1.20036V5.72296H0.889359V3.36396H0.0683594V3.08496H2.02336V3.36396Z" fill="black"/>
<path d="M3.99013 4.51296H2.72413V5.72296H2.41113V3.08496H2.72413V4.23496H3.99013V3.08496H4.30013V5.72296H3.99013V4.51296Z" fill="black"/>
<path d="M4.94336 3.08496H6.37936V3.36396H5.25636V4.22696H6.28536V4.50596H5.25636V5.44396H6.40036V5.72296H4.94336V3.08496Z" fill="black"/>
<path d="M7.96898 3.08482C8.01598 3.07782 8.06898 3.07182 8.12898 3.06882C8.18898 3.06582 8.24898 3.06182 8.31298 3.06082H8.50198H8.67298C8.86051 3.05711 9.04686 3.09112 9.22098 3.16082C9.36574 3.21935 9.49532 3.30995 9.59998 3.42582C9.70345 3.54883 9.77978 3.69229 9.82398 3.84682C9.91948 4.19133 9.91948 4.55532 9.82398 4.89982C9.78033 5.05862 9.70554 5.20717 9.60398 5.33682C9.49851 5.46727 9.36436 5.57164 9.21198 5.64182C9.02846 5.72365 8.82883 5.76296 8.62798 5.75682C8.58798 5.75682 8.53598 5.75682 8.47198 5.75682C8.40798 5.75682 8.34198 5.75682 8.27198 5.74982L8.08298 5.73982C8.04144 5.73914 8 5.73546 7.95898 5.72882L7.96898 3.08482ZM8.68098 3.33382H8.57298C8.53398 3.33382 8.49598 3.33382 8.45798 3.33382L8.35798 3.34082C8.32698 3.34082 8.30198 3.34082 8.28398 3.34882V5.45882L8.35598 5.46482H8.46498H8.57398H8.64598C8.79864 5.46972 8.95034 5.4389 9.08898 5.37482C9.20285 5.31858 9.30109 5.23511 9.37498 5.13182C9.44489 5.03127 9.49573 4.91874 9.52498 4.79982C9.55498 4.66556 9.57007 4.52839 9.56998 4.39082C9.56986 4.26603 9.55611 4.14163 9.52898 4.01982C9.50286 3.89935 9.45398 3.78497 9.38498 3.68282C9.31473 3.58011 9.22119 3.49547 9.11198 3.43582C8.97951 3.36525 8.83104 3.33012 8.68098 3.33382Z" fill="black"/>
<path d="M11.5909 4.99195H10.6239L10.3609 5.72295H10.0479L11.0479 3.04395H11.1909L12.1909 5.72295H11.8599L11.5909 4.99195ZM10.7249 4.72095H11.4999L11.2079 3.92095L11.1139 3.52095L11.0199 3.92795L10.7249 4.72095Z" fill="black"/>
<path d="M14.1 5.72296H12.54V3.08496H12.853V5.44396H14.1V5.72296Z" fill="black"/>
<path d="M16.0502 5.72296H14.4902V3.08496H14.8002V5.44396H16.0502V5.72296Z" fill="black"/>
<path d="M17.4082 4.99195H16.4412L16.1782 5.72295H15.8662L16.8662 3.04395H17.0092L18.0092 5.72295H17.6772L17.4082 4.99195ZM16.5422 4.72095H17.3142L17.0222 3.92095L16.9282 3.52095L16.8352 3.92795L16.5422 4.72095Z" fill="black"/>
<path d="M19.5509 5.05191C19.5545 4.95675 19.5204 4.86402 19.4559 4.79391C19.3875 4.72276 19.3082 4.663 19.2209 4.61691C19.1213 4.56315 19.0188 4.51475 18.9139 4.47191C18.8062 4.42806 18.7033 4.37309 18.6069 4.30791C18.514 4.24459 18.4339 4.16416 18.3709 4.07091C18.3049 3.96278 18.2722 3.83755 18.2769 3.71091C18.2729 3.61823 18.2902 3.52585 18.3274 3.4409C18.3647 3.35594 18.421 3.28068 18.4919 3.22091C18.6667 3.09033 18.8822 3.02617 19.0999 3.03991C19.24 3.03872 19.3799 3.0501 19.5179 3.07391C19.6194 3.08907 19.7183 3.118 19.8119 3.15991L19.7179 3.43991C19.6364 3.40378 19.5512 3.37629 19.4639 3.35791C19.3394 3.331 19.2123 3.31792 19.0849 3.31891C18.951 3.30894 18.8182 3.34883 18.7119 3.43091C18.6767 3.46046 18.6477 3.49668 18.6265 3.53748C18.6053 3.57828 18.5924 3.62287 18.5885 3.66868C18.5846 3.7145 18.5898 3.76063 18.6037 3.80443C18.6177 3.84823 18.6402 3.88883 18.6699 3.92391L18.6819 3.93691C18.7506 4.00723 18.8299 4.06629 18.9169 4.11191C19.0119 4.16391 19.1169 4.21191 19.2239 4.26491C19.3318 4.31358 19.4349 4.37216 19.5319 4.43991C19.6243 4.5049 19.7039 4.58624 19.7669 4.67991C19.8328 4.78297 19.8656 4.9037 19.8609 5.02591C19.8626 5.13099 19.8422 5.23525 19.8009 5.33191C19.7606 5.42215 19.7001 5.50188 19.6239 5.56492C19.5408 5.6333 19.4449 5.68461 19.3419 5.71592C19.2197 5.75254 19.0925 5.77008 18.9649 5.76792C18.8081 5.77166 18.6514 5.75723 18.4979 5.72492C18.3986 5.70314 18.3023 5.66957 18.2109 5.62492L18.3169 5.34591C18.3984 5.38681 18.4843 5.41835 18.5729 5.43992C18.6971 5.47169 18.8248 5.48715 18.9529 5.48592C19.0316 5.48611 19.1101 5.47773 19.1869 5.46092C19.2541 5.44681 19.3179 5.41999 19.3749 5.38191C19.426 5.34709 19.4687 5.30132 19.4999 5.24791C19.5338 5.18816 19.5514 5.12058 19.5509 5.05191Z" fill="black"/>
<path d="M23.3932 3.95196L23.4312 3.55196H23.4122L23.2692 3.91396L22.5832 5.10496H22.4892L21.7622 3.90496L21.6262 3.54696H21.6082L21.6602 3.93896V5.72296H21.3662V3.08496H21.6002L22.4252 4.43396L22.5492 4.72796H22.5572L22.6742 4.42796L23.4612 3.08596H23.7062V5.72296H23.3932V3.95196Z" fill="black"/>
<path d="M24.2377 4.39992C24.2377 3.96058 24.3304 3.62325 24.5157 3.38791C24.6115 3.26987 24.734 3.17636 24.8732 3.11514C25.0123 3.05392 25.164 3.02676 25.3157 3.03591C25.4819 3.03275 25.6466 3.06693 25.7977 3.13591C25.9312 3.19946 26.0472 3.29453 26.1357 3.41291C26.2295 3.54203 26.2974 3.68804 26.3357 3.84291C26.38 4.02624 26.4015 4.21433 26.3997 4.40292C26.3997 4.84225 26.3061 5.17925 26.1187 5.41392C26.0227 5.53159 25.9001 5.62483 25.761 5.68601C25.622 5.7472 25.4704 5.77458 25.3187 5.76592C25.1545 5.77004 24.9915 5.7358 24.8427 5.66592C24.7078 5.60486 24.5899 5.51143 24.4997 5.39392C24.4051 5.26531 24.3371 5.11913 24.2997 4.96392C24.2548 4.77938 24.234 4.5898 24.2377 4.39992ZM24.5687 4.39992C24.568 4.5394 24.5824 4.67854 24.6117 4.81492C24.6375 4.93608 24.6828 5.05225 24.7457 5.15892C24.8029 5.25649 24.8824 5.33909 24.9777 5.39992C25.0782 5.46021 25.1936 5.49073 25.3107 5.48792C25.4171 5.49216 25.5229 5.47021 25.6188 5.42401C25.7147 5.3778 25.7978 5.30875 25.8607 5.22292C25.9947 5.04592 26.0607 4.77192 26.0607 4.40292C26.0615 4.26442 26.047 4.12627 26.0177 3.99091C25.9928 3.86826 25.9468 3.75085 25.8817 3.64391C25.8235 3.54789 25.7438 3.46675 25.6487 3.40691C25.5468 3.34581 25.4296 3.31494 25.3107 3.31791C25.2052 3.31399 25.1003 3.33622 25.0053 3.38263C24.9104 3.42903 24.8285 3.49818 24.7667 3.58391C24.6347 3.76125 24.5687 4.03325 24.5687 4.39992Z" fill="black"/>
<path d="M26.9238 3.11218C27.0331 3.09266 27.1432 3.07864 27.2538 3.07018C27.3778 3.06018 27.4918 3.05518 27.5948 3.05518C27.7059 3.0548 27.8167 3.06756 27.9248 3.09318C28.0237 3.11616 28.1171 3.15828 28.1998 3.21718C28.2797 3.27689 28.3447 3.35423 28.3898 3.44318C28.4401 3.54893 28.4645 3.66515 28.4608 3.78218C28.4691 3.96414 28.4088 4.14257 28.2918 4.28218C28.1785 4.40998 28.0282 4.49943 27.8618 4.53818L28.0428 4.67818L28.6998 5.72318H28.3348L27.6078 4.58518L27.2388 4.52818V5.72318H26.9258L26.9238 3.11218ZM27.5998 3.32718H27.4998C27.4645 3.32718 27.4312 3.32718 27.3998 3.32718L27.3078 3.33518C27.2842 3.33681 27.2608 3.34049 27.2378 3.34618V4.31818H27.5318C27.6854 4.32476 27.8368 4.2797 27.9618 4.19018C28.0205 4.14229 28.0666 4.08085 28.0962 4.01117C28.1258 3.94148 28.138 3.86564 28.1318 3.79018C28.1337 3.72753 28.1224 3.66519 28.0984 3.60727C28.0744 3.54934 28.0384 3.49717 27.9928 3.45418C27.8837 3.36174 27.7424 3.3161 27.5998 3.32718Z" fill="black"/>
<path d="M29.6399 3.99995L29.4399 3.61995H29.4249L29.4629 3.99995V5.72295H29.1689V3.04395H29.3349L30.5929 4.79995L30.7929 5.16195H30.8119L30.7669 4.79995V3.08495H31.0599V5.76395H30.8999L29.6399 3.99995Z" fill="black"/>
<path d="M31.7734 3.08496H32.0854V5.72296H31.7734V3.08496Z" fill="black"/>
<path d="M33.2718 3.99995L33.0718 3.61995H33.0568L33.0938 3.99995V5.72295H32.7998V3.04395H32.9648L34.2258 4.79995L34.4208 5.16195H34.4398L34.3998 4.79995V3.08495H34.6938V5.76395H34.5278L33.2718 3.99995Z" fill="black"/>
<path d="M36.2221 4.40824H37.1081V5.56824C37.063 5.60126 37.0144 5.6291 36.9631 5.65124C36.9044 5.67701 36.8439 5.6984 36.7821 5.71524C36.7164 5.73298 36.6495 5.74634 36.5821 5.75524C36.5157 5.7635 36.4489 5.76784 36.3821 5.76824C36.2241 5.76998 36.0671 5.74252 35.9191 5.68724C35.7791 5.63429 35.6537 5.54896 35.5531 5.43824C35.444 5.31492 35.3619 5.17016 35.3121 5.01324C35.2508 4.81618 35.2214 4.61058 35.2251 4.40424C35.2201 4.19104 35.256 3.97886 35.3311 3.77924C35.3903 3.62074 35.4819 3.47634 35.6001 3.35524C35.7083 3.24891 35.8383 3.16737 35.9811 3.11624C36.1163 3.06659 36.2591 3.04088 36.4031 3.04024C36.5279 3.0386 36.6526 3.04696 36.7761 3.06524C36.861 3.07767 36.9442 3.09982 37.0241 3.13124L36.9461 3.41024C36.7829 3.34227 36.6067 3.31119 36.4301 3.31924C36.3227 3.31995 36.2163 3.33853 36.1151 3.37424C36.0086 3.41235 35.9127 3.47505 35.8351 3.55724C35.7464 3.65424 35.6784 3.7682 35.6351 3.89224C35.5779 4.05705 35.5512 4.23087 35.5561 4.40524C35.5528 4.56822 35.5744 4.73075 35.6201 4.88724C35.6564 5.01068 35.7177 5.12537 35.8001 5.22424C35.8745 5.31227 35.9692 5.3809 36.0761 5.42424C36.1884 5.46889 36.3082 5.49131 36.4291 5.49024C36.5715 5.49454 36.7127 5.46217 36.8391 5.39624V4.66024L36.2251 4.58524L36.2221 4.40824Z" fill="black"/>
<path d="M39.1196 3.99995L38.9196 3.61995H38.8996L38.9366 3.99995V5.72295H38.6426V3.04395H38.8086L40.0726 4.79995L40.2726 5.16195H40.2916L40.2466 4.79995V3.08495H40.5396V5.76395H40.3736L39.1196 3.99995Z" fill="black"/>
<path d="M41.1807 3.08496H42.6157V3.36396H41.4927V4.22696H42.5217V4.50596H41.4927V5.44396H42.6347V5.72296H41.1807V3.08496Z" fill="black"/>
<path d="M43.7162 4.85296L43.7762 5.28996L43.8402 4.84496L44.3832 3.08496H44.5332L45.0802 4.85196L45.1462 5.28996L45.2152 4.84496L45.6602 3.08496H45.9602L45.2252 5.76396H45.0522L44.5272 3.99996L44.4592 3.59996H44.4402L44.3722 3.99996L43.8372 5.76296H43.6642L42.9102 3.08496H43.2422L43.7162 4.85296Z" fill="black"/>
<path d="M47.5099 5.05196C47.5139 4.95692 47.4801 4.86417 47.4159 4.79396C47.3472 4.72278 47.2675 4.66303 47.1799 4.61696C47.0804 4.56301 46.9779 4.51461 46.8729 4.47197C46.7653 4.4279 46.6624 4.37294 46.5659 4.30797C46.473 4.24489 46.3932 4.16441 46.3309 4.07097C46.2641 3.9631 46.2311 3.83775 46.2359 3.71097C46.2321 3.61831 46.2495 3.52601 46.2867 3.44109C46.324 3.35617 46.3802 3.28088 46.4509 3.22097C46.6264 3.09016 46.8426 3.026 47.0609 3.03997C47.2013 3.03882 47.3416 3.0502 47.4799 3.07397C47.5811 3.08899 47.6797 3.11793 47.7729 3.15997L47.6799 3.43997C47.5984 3.40383 47.5132 3.37634 47.4259 3.35797C47.3014 3.33105 47.1743 3.31797 47.0469 3.31897C46.9131 3.30899 46.7802 3.34888 46.6739 3.43097C46.6387 3.46051 46.6097 3.49673 46.5885 3.53753C46.5673 3.57834 46.5544 3.62293 46.5505 3.66874C46.5466 3.71455 46.5518 3.76068 46.5657 3.80448C46.5797 3.84828 46.6022 3.88889 46.6319 3.92397L46.6439 3.93697C46.7126 4.00729 46.7919 4.06634 46.8789 4.11197C46.9739 4.16397 47.0789 4.21197 47.1869 4.26497C47.2944 4.31386 47.3971 4.37243 47.4939 4.43997C47.5863 4.50495 47.6659 4.58629 47.7289 4.67996C47.7948 4.78302 47.8276 4.90375 47.8229 5.02596C47.8251 5.13109 47.8047 5.23545 47.7629 5.33196C47.7226 5.4222 47.6621 5.50193 47.5859 5.56496C47.5016 5.63381 47.4044 5.68514 47.2999 5.71596C47.1777 5.75259 47.0505 5.77013 46.9229 5.76796C46.7661 5.77171 46.6094 5.75728 46.4559 5.72496C46.3566 5.70319 46.2603 5.66962 46.1689 5.62496L46.2749 5.34596C46.3565 5.38686 46.4423 5.41839 46.5309 5.43996C46.6554 5.47179 46.7835 5.48725 46.9119 5.48596C46.9903 5.48611 47.0684 5.47773 47.1449 5.46096C47.2123 5.44668 47.2764 5.41988 47.3339 5.38196C47.3859 5.34611 47.429 5.29892 47.4599 5.24396C47.4928 5.18533 47.5101 5.1192 47.5099 5.05196Z" fill="black"/>
<path d="M48 0H0V1H48V0Z" fill="black"/>
<path d="M0 53V63H48V53H0ZM18.9 60.477H16.508V60.3C16.596 60.208 16.702 60.094 16.826 59.958C16.95 59.822 17.079 59.671 17.213 59.505C17.3463 59.3397 17.4797 59.164 17.613 58.978C17.7408 58.7953 17.859 58.606 17.967 58.411C18.0686 58.2289 18.1539 58.0381 18.222 57.841C18.2846 57.6697 18.3184 57.4893 18.322 57.307C18.3285 57.1285 18.2687 56.9539 18.154 56.817C18.0887 56.7488 18.0091 56.6961 17.9209 56.6625C17.8327 56.629 17.7381 56.6155 17.644 56.623C17.4911 56.6228 17.3399 56.6545 17.2 56.716C17.0675 56.771 16.9425 56.8426 16.828 56.929L16.628 56.587C16.7756 56.4626 16.9452 56.367 17.128 56.305C17.3266 56.236 17.5358 56.2022 17.746 56.205C17.9013 56.2017 18.0559 56.2271 18.202 56.28C18.3282 56.3257 18.4429 56.3984 18.538 56.493C18.631 56.5854 18.7027 56.697 18.748 56.82C18.7969 56.9515 18.8213 57.0908 18.82 57.231C18.8183 57.4531 18.7787 57.6732 18.703 57.882C18.6205 58.1134 18.5182 58.3373 18.397 58.551C18.2692 58.7779 18.1279 58.9969 17.974 59.207C17.818 59.4223 17.662 59.6257 17.506 59.817L17.2 60.075V60.1L17.584 60.035H18.9V60.477ZM22.787 60C22.68 60.1748 22.5281 60.3176 22.3471 60.4136C22.1661 60.5097 21.9627 60.5554 21.758 60.546C21.282 60.546 20.934 60.356 20.714 59.976C20.494 59.596 20.384 59.0627 20.384 58.376C20.384 57.656 20.501 57.114 20.735 56.75C20.841 56.5757 20.9919 56.4331 21.1718 56.3371C21.3518 56.241 21.5542 56.1951 21.758 56.204C22.242 56.204 22.593 56.383 22.811 56.741C23.029 57.099 23.138 57.644 23.138 58.376C23.138 59.0967 23.021 59.638 22.787 60ZM26.894 60.475H24.764V60.031H25.6V57.131L25.66 56.777L25.42 57.059L24.76 57.533L24.532 57.227L25.852 56.207H26.068V60.035H26.89L26.894 60.475ZM30.974 59.728C30.9205 59.8847 30.8369 60.0294 30.728 60.154C30.6172 60.2779 30.4807 60.3762 30.328 60.442C30.1549 60.5129 29.969 60.5469 29.782 60.542C29.5972 60.544 29.4138 60.51 29.242 60.442C29.0842 60.38 28.9426 60.2829 28.828 60.158C28.707 60.0234 28.616 59.8645 28.561 59.692C28.4957 59.4868 28.4643 59.2723 28.468 59.057C28.4642 58.6864 28.5157 58.3173 28.621 57.962C28.7129 57.6494 28.8559 57.3541 29.044 57.088C29.2161 56.8485 29.4332 56.6447 29.683 56.488C29.9257 56.3347 30.1985 56.2355 30.483 56.197L30.583 56.581C30.3665 56.6179 30.1589 56.6953 29.971 56.809C29.7882 56.9194 29.625 57.0593 29.488 57.223C29.3484 57.3893 29.2341 57.5753 29.149 57.775C29.0619 57.9759 29.0013 58.1874 28.969 58.404C29.0506 58.2788 29.1619 58.1757 29.293 58.104C29.4636 58.0099 29.6563 57.9632 29.851 57.969C30.227 57.969 30.522 58.078 30.736 58.293C30.95 58.508 31.057 58.811 31.057 59.199C31.0597 59.3794 31.0317 59.559 30.974 59.73V59.728Z" fill="black"/>
<path d="M29.7497 58.4002C29.5699 58.3952 29.3929 58.4455 29.2427 58.5442C29.1147 58.6225 29.0109 58.7347 28.9427 58.8682C28.9356 58.9139 28.9316 58.96 28.9307 59.0062V59.1262C28.9307 59.25 28.9479 59.3732 28.9817 59.4922C29.0137 59.6084 29.0677 59.7174 29.1407 59.8132C29.2131 59.9068 29.304 59.9844 29.4077 60.0412C29.5233 60.1014 29.6524 60.131 29.7827 60.1273C29.8912 60.1294 29.9988 60.1072 30.0977 60.0622C30.1898 60.0189 30.2724 59.9577 30.3407 59.8822C30.4114 59.8016 30.4654 59.7078 30.4997 59.6062C30.5385 59.4944 30.5578 59.3767 30.5567 59.2583C30.5567 58.9743 30.49 58.7602 30.3567 58.6162C30.2233 58.4722 30.021 58.4002 29.7497 58.4002Z" fill="black"/>
<path d="M22.4449 57.1098C22.3859 56.9689 22.2919 56.8454 22.1719 56.7508C22.0517 56.6641 21.9061 56.6195 21.7579 56.6238C21.6173 56.6201 21.4788 56.6589 21.3606 56.7351C21.2423 56.8112 21.1497 56.9213 21.0949 57.0508C20.9529 57.3348 20.8819 57.7768 20.8819 58.3768C20.8804 58.6148 20.8975 58.8525 20.9329 59.0878C20.9603 59.2783 21.0138 59.464 21.0919 59.6398C21.1532 59.7797 21.2467 59.9031 21.3649 59.9998C21.4774 60.0863 21.6161 60.1315 21.7579 60.1278C21.899 60.1331 22.0384 60.0957 22.1577 60.0204C22.2771 59.9451 22.371 59.8354 22.4269 59.7058C22.5689 59.4232 22.6399 58.9802 22.6399 58.3768C22.641 58.1401 22.6259 57.9035 22.5949 57.6688C22.5717 57.4763 22.5211 57.2881 22.4449 57.1098Z" fill="black"/>
<path d="M15.4364 8.47323V11.9522H16.9524C17.3004 11.9522 17.5554 11.8706 17.7174 11.7072C17.8794 11.5439 17.9867 11.2209 18.0394 10.7382H18.2664V13.7382H18.0394C18.0394 13.3952 17.9934 13.1382 17.9134 12.9812C17.8425 12.8297 17.727 12.7034 17.5824 12.6192C17.3858 12.5269 17.1692 12.4853 16.9524 12.4982H15.4364V15.2792C15.4364 15.7272 15.4631 16.0232 15.5164 16.1672C15.5676 16.2875 15.6587 16.3864 15.7744 16.4472C15.9453 16.5491 16.1404 16.6033 16.3394 16.6042H16.6394V16.8452H13.0664V16.6002H13.3664C13.7104 16.6002 13.9594 16.4932 14.1154 16.2802C14.2134 16.1402 14.2624 15.8069 14.2624 15.2802V9.55623C14.2624 9.10823 14.2364 8.81223 14.1824 8.66823C14.1328 8.54924 14.0443 8.45055 13.9314 8.38823C13.7609 8.28546 13.5655 8.23118 13.3664 8.23123H13.0664V7.99023H19.2664L19.3464 9.93523H19.1314C19.0247 9.52257 18.9007 9.2189 18.7594 9.02423C18.6279 8.83877 18.4476 8.69339 18.2384 8.60423C18.0311 8.5169 17.7107 8.47357 17.2774 8.47423L15.4364 8.47323Z" fill="#007E87"/>
<path d="M23.7369 16.6002V16.8412H20.1699V16.6002H20.4699C20.8139 16.6002 21.0629 16.4932 21.2189 16.2802C21.3169 16.1402 21.3659 15.8069 21.3659 15.2802V9.55623C21.3659 9.10823 21.3393 8.81223 21.2859 8.66823C21.2359 8.54917 21.1471 8.4505 21.0339 8.38823C20.8634 8.28624 20.6686 8.23201 20.4699 8.23123H20.1699V7.99023H23.7369V8.23223H23.4369C23.0969 8.23223 22.8499 8.33823 22.6939 8.55123C22.5919 8.69123 22.5409 9.02657 22.5409 9.55723V15.2742C22.5409 15.7232 22.5669 16.0192 22.6209 16.1622C22.672 16.2828 22.7632 16.382 22.8789 16.4432C23.0471 16.5453 23.2402 16.5993 23.4369 16.5992L23.7369 16.6002Z" fill="#007E87"/>
<path d="M32.5408 16.8402H30.3188L27.5008 12.7002C27.2918 12.7092 27.1218 12.7132 26.9908 12.7132H26.8188C26.7578 12.7132 26.6938 12.7082 26.6288 12.7032V15.2752C26.6288 15.8319 26.6861 16.1776 26.8008 16.3122C26.9568 16.5042 27.1901 16.6002 27.5008 16.6002H27.8268V16.8412H24.2588V16.6002H24.5718C24.9238 16.6002 25.1758 16.4782 25.3278 16.2342C25.4138 16.1009 25.4565 15.7812 25.4558 15.2752V9.55623C25.4558 8.9989 25.3988 8.6529 25.2848 8.51823C25.1248 8.32723 24.8848 8.23123 24.5718 8.23123H24.2588V7.99023H27.2918C28.1758 7.99023 28.8278 8.0589 29.2478 8.19623C29.6714 8.33632 30.0433 8.59996 30.3158 8.95323C30.6106 9.32716 30.7659 9.79218 30.7548 10.2682C30.7642 10.7851 30.5866 11.2879 30.2548 11.6842C29.9215 12.0842 29.4048 12.3672 28.7048 12.5332L30.4238 15.0722C30.8165 15.6556 31.1541 16.0429 31.4368 16.2342C31.7702 16.4435 32.1493 16.5691 32.5418 16.6002L32.5408 16.8402ZM26.6288 12.2912C26.7068 12.2912 26.7738 12.2912 26.8288 12.2912H26.9708C27.7648 12.2912 28.3631 12.1086 28.7658 11.7432C28.963 11.5684 29.1194 11.3524 29.2239 11.1105C29.3284 10.8686 29.3786 10.6067 29.3708 10.3432C29.3708 9.79123 29.2081 9.3419 28.8828 8.99523C28.5575 8.64857 28.1268 8.47557 27.5908 8.47623C27.2663 8.48738 26.9435 8.5289 26.6268 8.60023L26.6288 12.2912Z" fill="#007E87"/>
<path d="M38.2 7.78711V10.8491H37.972C37.8987 10.2611 37.7654 9.79444 37.572 9.44911C37.3833 9.10263 37.1018 8.81557 36.759 8.62011C36.4287 8.42195 36.0512 8.31626 35.666 8.31411C35.4712 8.30803 35.2771 8.34159 35.0956 8.41276C34.914 8.48392 34.7489 8.59121 34.61 8.72811C34.4798 8.84866 34.3756 8.99461 34.3038 9.15696C34.2321 9.31931 34.1944 9.49463 34.193 9.67211C34.1929 9.94096 34.2862 10.2015 34.457 10.4091C34.711 10.7358 35.3147 11.1711 36.268 11.7151C37.0447 12.1591 37.5757 12.4994 37.861 12.7361C38.1388 12.9643 38.3631 13.2507 38.518 13.5751C38.6702 13.8904 38.7489 14.236 38.748 14.5861C38.7516 14.9099 38.6882 15.231 38.5619 15.5292C38.4356 15.8274 38.2491 16.0963 38.014 16.3191C37.5254 16.8051 36.8964 17.0478 36.127 17.0471C35.8984 17.0485 35.6701 17.0288 35.445 16.9881C35.1773 16.9254 34.9138 16.8459 34.656 16.7501C34.256 16.6128 34.0034 16.5444 33.898 16.5451C33.8527 16.5432 33.8075 16.5511 33.7655 16.5684C33.7236 16.5856 33.6859 16.6118 33.655 16.6451C33.5763 16.7662 33.5308 16.9059 33.523 17.0501H33.3V14.0081H33.527C33.6344 14.6441 33.7777 15.1194 33.957 15.4341C34.1555 15.7668 34.4411 16.039 34.783 16.2211C35.1544 16.4299 35.574 16.5378 36 16.5341C36.511 16.5341 36.916 16.3911 37.212 16.1031C37.3534 15.974 37.4662 15.8168 37.543 15.6414C37.6198 15.4661 37.659 15.2765 37.658 15.0851C37.6545 14.8552 37.5966 14.6293 37.489 14.4261C37.3602 14.1844 37.1812 13.9731 36.964 13.8061C36.804 13.6728 36.368 13.3951 35.656 12.9731C35.1257 12.6721 34.618 12.3329 34.137 11.9581C33.8545 11.7291 33.6214 11.445 33.452 11.1231C33.2957 10.8131 33.2158 10.4703 33.219 10.1231C33.2142 9.81664 33.2721 9.51242 33.3892 9.22917C33.5063 8.94592 33.6801 8.68964 33.9 8.47611C34.3594 8.01678 34.9427 7.78744 35.65 7.78811C36.1384 7.79889 36.6184 7.91701 37.056 8.13411C37.2069 8.21934 37.3725 8.27564 37.544 8.30011C37.592 8.30197 37.6399 8.29407 37.6848 8.27688C37.7297 8.25969 37.7706 8.23357 37.805 8.20011C37.8949 8.08112 37.9511 7.94023 37.968 7.79211L38.2 7.78711Z" fill="#007E87"/>
<path d="M46.7008 7.99023L46.7928 10.0662H46.5588C46.5378 9.79704 46.4758 9.53264 46.3748 9.28223C46.2658 9.04976 46.0895 8.85537 45.8688 8.72423C45.6114 8.59418 45.3249 8.53222 45.0368 8.54423H43.8618V15.3062C43.8618 15.8502 43.9178 16.1902 44.0278 16.3252C44.1838 16.5072 44.4278 16.5992 44.7458 16.5992H45.0348V16.8402H41.5008V16.6002H41.8008C42.1528 16.6002 42.4008 16.4862 42.5498 16.2602C42.6398 16.1209 42.6848 15.8032 42.6848 15.3072V8.54423H41.6848C41.2961 8.54423 41.0198 8.5749 40.8558 8.63623C40.6273 8.732 40.4358 8.89894 40.3098 9.11223C40.1418 9.40245 40.049 9.73004 40.0398 10.0652H39.8008L39.9008 7.99023H46.7008Z" fill="#007E87"/>
<path d="M15.1213 23.34V25.593C15.1213 26.0803 15.1706 26.3826 15.2693 26.5C15.4043 26.668 15.6073 26.751 15.8793 26.751H16.1553V26.962H13.0733V26.751H13.3433C13.6433 26.751 13.8653 26.645 13.9963 26.431C14.0669 26.313 14.1023 26.0336 14.1023 25.593V20.6C14.1023 20.1126 14.0546 19.81 13.9593 19.692C13.8825 19.606 13.7871 19.5387 13.6803 19.4952C13.5736 19.4517 13.4583 19.4332 13.3433 19.441H13.0723V19.23H15.7103C16.3543 19.23 16.8619 19.3013 17.2333 19.444C17.6091 19.5896 17.935 19.8402 18.1723 20.166C18.4294 20.5124 18.5638 20.9347 18.5543 21.366C18.5543 21.9973 18.3606 22.5106 17.9733 22.906C17.5859 23.3013 17.0386 23.4993 16.3313 23.5C16.1429 23.4986 15.9549 23.4853 15.7683 23.46C15.5669 23.4333 15.3513 23.3933 15.1213 23.34ZM15.1213 23.015C15.3083 23.053 15.4753 23.081 15.6213 23.1C15.7442 23.1176 15.8681 23.1273 15.9923 23.129C16.1753 23.1285 16.3559 23.087 16.5208 23.0075C16.6857 22.9281 16.8308 22.8128 16.9453 22.67C17.2119 22.364 17.3453 21.9673 17.3453 21.48C17.3483 21.159 17.2832 20.841 17.1543 20.547C17.0452 20.2814 16.8561 20.0563 16.6133 19.903C16.3722 19.7574 16.0948 19.6832 15.8133 19.689C15.5781 19.6968 15.3447 19.7331 15.1183 19.797L15.1213 23.015Z" fill="#007E87"/>
<path d="M25.1673 24.823L25.3423 24.863L24.7263 26.963H19.1543V26.752H19.4253C19.7253 26.752 19.9463 26.646 20.0773 26.432C20.1523 26.311 20.1893 26.032 20.1893 25.588V20.6C20.1893 20.116 20.1393 19.814 20.0403 19.692C19.9637 19.606 19.8685 19.5387 19.7619 19.4952C19.6553 19.4517 19.5402 19.4332 19.4253 19.441H19.1543V19.23H22.4123V19.441C22.0303 19.441 21.7636 19.479 21.6123 19.555C21.4767 19.6169 21.3658 19.7225 21.2973 19.855C21.2406 19.977 21.2123 20.268 21.2123 20.728V25.588C21.2123 25.904 21.2406 26.1206 21.2973 26.238C21.3407 26.319 21.4116 26.3817 21.4973 26.415C21.5853 26.453 21.8613 26.472 22.3253 26.472H22.8503C23.4023 26.472 23.7896 26.4283 24.0123 26.341C24.2523 26.2411 24.4624 26.0809 24.6223 25.876C24.801 25.6533 24.9826 25.3023 25.1673 24.823Z" fill="#007E87"/>
<path d="M30.5482 24.3718H27.7612L27.2732 25.5928C27.1751 25.8052 27.1142 26.0328 27.0932 26.2658C27.0941 26.3261 27.1086 26.3853 27.1356 26.4392C27.1626 26.493 27.2014 26.5401 27.2492 26.5768C27.3542 26.6668 27.5792 26.7248 27.9262 26.7508V26.9618H25.6602V26.7508C25.9602 26.6938 26.1552 26.6198 26.2442 26.5288C26.4242 26.3455 26.6242 25.9745 26.8442 25.4158L29.3752 19.0488H29.5612L32.0662 25.4848C32.2662 26.0015 32.4492 26.3368 32.6152 26.4908C32.8063 26.6558 33.0497 26.7479 33.3022 26.7508V26.9618H30.4632V26.7508C30.7492 26.7362 30.9428 26.6848 31.0442 26.5968C31.0917 26.5584 31.1299 26.5098 31.156 26.4545C31.1822 26.3993 31.1955 26.3389 31.1952 26.2778C31.1952 26.1108 31.1242 25.8458 30.9832 25.4848L30.5482 24.3718ZM30.4002 23.9498L29.1792 20.8238L27.9262 23.9498H30.4002Z" fill="#007E87"/>
<path d="M39.9677 19.0488L40.1317 21.6788H39.9677C39.7483 20.8915 39.4353 20.3248 39.0287 19.9788C38.6201 19.6328 38.099 19.4482 37.5637 19.4598C37.1022 19.4552 36.6504 19.5916 36.2687 19.8508C35.8827 20.1122 35.5793 20.5278 35.3587 21.0978C35.138 21.6678 35.0273 22.3772 35.0267 23.2258C35.0129 23.8471 35.1195 24.4651 35.3407 25.0458C35.5237 25.5281 35.8531 25.9411 36.2827 26.2268C36.7096 26.503 37.2092 26.6458 37.7177 26.6368C38.1515 26.6456 38.5793 26.5342 38.9537 26.3148C39.3117 26.1002 39.7047 25.6732 40.1327 25.0338L40.2967 25.1478C39.936 25.8372 39.515 26.3412 39.0337 26.6598C38.5233 26.9879 37.9261 27.1548 37.3197 27.1388C36.1277 27.1388 35.2043 26.6635 34.5497 25.7128C34.0617 25.0062 33.8177 24.1728 33.8177 23.2128C33.8096 22.4758 33.9751 21.7471 34.3007 21.0858C34.595 20.4716 35.0554 19.952 35.6297 19.5858C36.1818 19.2338 36.8239 19.0487 37.4787 19.0528C38.018 19.0576 38.5474 19.1986 39.0177 19.4628C39.1135 19.5277 39.2224 19.5707 39.3367 19.5888C39.3833 19.5889 39.4296 19.5793 39.4724 19.5608C39.5152 19.5422 39.5538 19.515 39.5857 19.4808C39.6886 19.3581 39.7575 19.2105 39.7857 19.0528L39.9677 19.0488Z" fill="#007E87"/>
<path d="M42.9444 19.6476V22.7056H44.5254C44.9364 22.7056 45.2104 22.6396 45.3484 22.5056C45.5324 22.3309 45.6351 22.0229 45.6564 21.5816H45.8564V24.2746H45.6564C45.6354 24.0279 45.5854 23.7846 45.5074 23.5496C45.4404 23.4136 45.3304 23.3036 45.1944 23.2366C44.9831 23.1476 44.7542 23.1083 44.5254 23.1216H42.9444V25.6716C42.9444 26.0143 42.9584 26.2226 42.9864 26.2966C43.0149 26.3706 43.0674 26.4329 43.1354 26.4736C43.2614 26.5277 43.3987 26.5504 43.5354 26.5396H44.7564C45.0546 26.5521 45.3531 26.5211 45.6424 26.4476C45.8464 26.3737 46.0288 26.2503 46.1734 26.0886C46.4475 25.7666 46.6744 25.4074 46.8474 25.0216H47.0594L46.4384 26.9616H40.9004V26.7506H41.1544C41.3242 26.7507 41.4909 26.7055 41.6374 26.6196C41.7475 26.5623 41.8305 26.4638 41.8684 26.3456C41.9208 26.1003 41.9413 25.8492 41.9294 25.5986V20.5726C41.9294 20.0819 41.8834 19.7796 41.7914 19.6656C41.6634 19.5136 41.4514 19.4366 41.1544 19.4366H40.9004V19.2256H46.4464L46.5264 20.9256H46.3194C46.2454 20.5186 46.1624 20.2386 46.0724 20.0866C45.9786 19.9317 45.8388 19.81 45.6724 19.7386C45.5304 19.6816 45.2814 19.6526 44.9234 19.6526L42.9444 19.6476Z" fill="#007E87"/>
<path d="M14.9726 29.9841V32.7841H16.4206C16.7966 32.7841 17.0476 32.7231 17.1736 32.6011C17.3423 32.4411 17.4363 32.1588 17.4556 31.7541H17.6356V34.2201H17.4556C17.4363 33.9945 17.3907 33.772 17.3196 33.5571C17.2584 33.432 17.1575 33.3307 17.0326 33.2691C16.8388 33.1897 16.6295 33.1555 16.4206 33.1691H14.9726V35.5001C14.9616 35.692 14.9747 35.8845 15.0116 36.0731C15.038 36.1405 15.0858 36.1974 15.1476 36.2351C15.264 36.2843 15.3906 36.3049 15.5166 36.2951H16.6346C16.9079 36.3062 17.1814 36.2779 17.4466 36.2111C17.6333 36.1433 17.8003 36.0303 17.9326 35.8821C18.1836 35.5873 18.3913 35.2584 18.5496 34.9051H18.7436L18.1756 36.6811H13.1006V36.4881H13.3336C13.4893 36.4879 13.6421 36.4465 13.7766 36.3681C13.8773 36.3156 13.9532 36.2254 13.9876 36.1171C14.0361 35.8925 14.055 35.6626 14.0436 35.4331V30.8331C14.0436 30.3838 14.0016 30.1068 13.9176 30.0021C13.8006 29.8631 13.6066 29.7931 13.3336 29.7931H13.1006V29.6001H18.1796L18.2526 31.1521H18.0626C17.9946 30.7791 17.9186 30.5231 17.8366 30.3841C17.7508 30.2419 17.6224 30.1303 17.4696 30.0651C17.2474 30.0003 17.0157 29.9739 16.7846 29.9871L14.9726 29.9841Z" fill="#007E87"/>
<path d="M24.7314 29.6002L24.8044 31.2612H24.6194C24.6025 31.046 24.5533 30.8347 24.4734 30.6342C24.3879 30.4487 24.2485 30.2933 24.0734 30.1882C23.8703 30.084 23.6435 30.0344 23.4154 30.0442H22.4874V35.4572C22.4874 35.8922 22.5304 36.1642 22.6184 36.2722C22.7418 36.4182 22.9311 36.4912 23.1864 36.4912H23.4154V36.6852H20.6194V36.4912H20.8534C21.1314 36.4912 21.3294 36.4012 21.4454 36.2202C21.5174 36.1082 21.5524 35.8542 21.5524 35.4572V30.0412H20.7604C20.5393 30.0303 20.3178 30.055 20.1044 30.1142C19.923 30.192 19.7713 30.3258 19.6714 30.4962C19.5384 30.7286 19.4652 30.9904 19.4584 31.2582H19.2734L19.3514 29.5972L24.7314 29.6002Z" fill="#007E87"/>
<path d="M27.1007 32.8831H30.1617V30.8561C30.1617 30.4941 30.1407 30.2554 30.0987 30.1401C30.0596 30.0447 29.989 29.9657 29.8987 29.9161C29.7659 29.834 29.6128 29.7903 29.4567 29.7901H29.2237V29.6001H32.0417V29.7931H31.8007C31.6453 29.793 31.4927 29.8344 31.3587 29.9131C31.3085 29.9394 31.264 29.9754 31.2278 30.019C31.1916 30.0626 31.1644 30.1129 31.1477 30.1671C31.0986 30.3943 31.0798 30.627 31.0917 30.8591V35.4301C31.0917 35.7894 31.1127 36.0264 31.1547 36.1411C31.1939 36.2363 31.2645 36.3153 31.3547 36.3651C31.4896 36.4467 31.644 36.4903 31.8017 36.4911H32.0357V36.6841H29.2157V36.4911H29.4497C29.7187 36.4911 29.9147 36.4051 30.0377 36.2351C30.119 36.1231 30.1597 35.8548 30.1597 35.4301V33.2701H27.1007V35.4281C27.1007 35.7871 27.1217 36.0281 27.1637 36.1381C27.2027 36.2338 27.2733 36.3132 27.3637 36.3631C27.4966 36.4449 27.6496 36.4882 27.8057 36.4881H28.0437V36.6821H25.2227V36.4881H25.4557C25.7277 36.4881 25.9253 36.4028 26.0487 36.2321C26.1267 36.1211 26.1647 35.8531 26.1647 35.4321V30.8561C26.1647 30.4941 26.1437 30.2554 26.1017 30.1401C26.0624 30.0449 25.9919 29.9659 25.9017 29.9161C25.7669 29.8344 25.6123 29.7908 25.4547 29.7901H25.2217V29.6001H28.0447V29.7931H27.8067C27.6513 29.793 27.4987 29.8344 27.3647 29.9131C27.265 29.9678 27.1902 30.0587 27.1557 30.1671C27.1051 30.3941 27.0852 30.6268 27.0967 30.8591L27.1007 32.8831Z" fill="#007E87"/>
<path d="M35.3113 36.4881V36.6821H32.4873V36.4881H32.7203C32.9923 36.4881 33.19 36.4028 33.3133 36.2321C33.3913 36.1208 33.43 35.8541 33.4293 35.4321V30.8511C33.4293 30.4921 33.4083 30.2511 33.3663 30.1401C33.3271 30.0449 33.2565 29.9659 33.1663 29.9161C33.0315 29.8344 32.877 29.7908 32.7193 29.7901H32.4863V29.6001H35.3103V29.7931H35.0723C34.8057 29.7931 34.6097 29.8784 34.4843 30.0491C34.4033 30.1601 34.3633 30.4291 34.3633 30.8541V35.4301C34.3633 35.7894 34.3843 36.0264 34.4263 36.1411C34.4654 36.2365 34.536 36.3155 34.6263 36.3651C34.7592 36.4472 34.9122 36.4908 35.0683 36.4911L35.3113 36.4881Z" fill="#007E87"/>
<path d="M41.5463 29.4351L41.7003 31.8441H41.5493C41.3493 31.1234 41.0626 30.6044 40.6893 30.2871C40.3158 29.9694 39.8385 29.8 39.3483 29.8111C38.9257 29.807 38.512 29.9319 38.1623 30.1691C37.8083 30.4077 37.5303 30.7884 37.3283 31.3111C37.1263 31.8337 37.0263 32.4834 37.0283 33.2601C37.0161 33.829 37.1135 34.395 37.3153 34.9271C37.4836 35.3684 37.7853 35.7462 38.1783 36.0081C38.5693 36.2611 39.0267 36.3919 39.4923 36.3841C39.8899 36.3922 40.2821 36.2901 40.6253 36.0891C40.952 35.8891 41.3116 35.4981 41.7043 34.9161L41.8543 35.0161C41.521 35.6461 41.1356 36.1074 40.6983 36.4001C40.2306 36.7 39.6837 36.8529 39.1283 36.8391C38.0363 36.8391 37.1906 36.4037 36.5913 35.5331C36.1446 34.8851 35.921 34.1221 35.9203 33.2441C35.9114 32.5709 36.0608 31.905 36.3563 31.3001C36.6258 30.7367 37.0473 30.2598 37.5733 29.9231C38.0792 29.6008 38.6674 29.4314 39.2673 29.4351C39.7611 29.44 40.2457 29.5693 40.6763 29.8111C40.7642 29.87 40.8638 29.9093 40.9683 29.9261C41.0111 29.9259 41.0534 29.9169 41.0927 29.8997C41.1319 29.8825 41.1672 29.8575 41.1963 29.8261C41.2892 29.7132 41.3513 29.5781 41.3763 29.4341L41.5463 29.4351Z" fill="#007E87"/>
<path d="M46.7564 29.4351V31.8851H46.5764C46.5406 31.4949 46.4342 31.1144 46.2624 30.7621C46.1131 30.4913 45.895 30.2646 45.63 30.105C45.3651 29.9454 45.0627 29.8585 44.7534 29.8531C44.5988 29.8482 44.4448 29.8752 44.3009 29.9323C44.1571 29.9894 44.0266 30.0755 43.9174 30.1851C43.8141 30.2818 43.7315 30.3985 43.6748 30.5282C43.618 30.6578 43.5883 30.7976 43.5874 30.9391C43.5873 31.154 43.6611 31.3623 43.7964 31.5291C43.9964 31.7911 44.4744 32.1395 45.2304 32.5741C45.671 32.8143 46.0926 33.0878 46.4914 33.3921C46.7117 33.5751 46.8892 33.8042 47.0114 34.0631C47.1323 34.316 47.1945 34.5929 47.1934 34.8731C47.1962 35.1316 47.1462 35.388 47.0465 35.6264C46.9467 35.8649 46.7994 36.0806 46.6134 36.2601C46.2254 36.6488 45.7271 36.8431 45.1184 36.8431C44.9377 36.844 44.7573 36.8283 44.5794 36.7961C44.3672 36.746 44.1584 36.6822 43.9544 36.6051C43.7616 36.5271 43.5602 36.4721 43.3544 36.4411C43.3187 36.4393 43.2829 36.4453 43.2498 36.4587C43.2166 36.4722 43.1868 36.4928 43.1624 36.5191C43.1009 36.6163 43.0664 36.7282 43.0624 36.8431H42.8824V34.4141H43.0624C43.1464 34.9235 43.2598 35.3041 43.4024 35.5561C43.5583 35.822 43.7842 36.0399 44.0554 36.1861C44.3495 36.353 44.6824 36.4393 45.0204 36.4361C45.4251 36.4361 45.7451 36.3211 45.9804 36.0911C46.0925 35.9872 46.1817 35.8611 46.2423 35.7207C46.3029 35.5804 46.3336 35.429 46.3324 35.2761C46.3301 35.0925 46.2846 34.9119 46.1994 34.7491C46.0975 34.555 45.9558 34.3847 45.7834 34.2491C45.45 34.0097 45.1045 33.7874 44.7484 33.5831C44.3292 33.342 43.9282 33.0706 43.5484 32.7711C43.3246 32.5869 43.1402 32.3593 43.0064 32.1021C42.8822 31.8522 42.8188 31.5763 42.8214 31.2971C42.8182 31.0526 42.8649 30.8099 42.9586 30.584C43.0523 30.3581 43.1911 30.1537 43.3664 29.9831C43.547 29.801 43.7632 29.658 44.0015 29.5632C44.2398 29.4684 44.4951 29.4238 44.7514 29.4321C45.1384 29.4408 45.5186 29.5355 45.8644 29.7091C45.9831 29.7762 46.1134 29.8203 46.2484 29.8391C46.2865 29.8408 46.3245 29.8344 46.36 29.8205C46.3955 29.8065 46.4277 29.7853 46.4544 29.7581C46.5257 29.6629 46.5702 29.5504 46.5834 29.4321L46.7564 29.4351Z" fill="#007E87"/>
<path d="M10.9363 7.63191L10.9643 37.6119C10.9643 40.2729 11.4583 40.6009 13.1793 40.6009H46.8943V42.1509H0.279297V40.7939C3.2573 40.7939 4.3793 40.5479 4.3793 37.5559C4.3793 14.6559 5.4933 11.7009 0.279297 11.7009V9.99991C3.6863 9.99991 6.4523 10.0669 6.4523 7.62891L10.9363 7.63191Z" fill="black"/>
<path d="M46.8944 38.2339H13.2344V39.6459H46.8944V38.2339Z" fill="black"/>
<path d="M5.74032 49.16H2.76932L2.24932 50.33C2.12065 50.618 2.05632 50.833 2.05632 50.975C2.05784 51.0348 2.07383 51.0933 2.10292 51.1456C2.132 51.1978 2.17331 51.2422 2.22332 51.275C2.33399 51.361 2.57465 51.4167 2.94532 51.442V51.642H0.52832V51.442C0.84932 51.387 1.05632 51.316 1.15132 51.229C1.34332 51.0543 1.55665 50.6987 1.79132 50.162L4.49132 44.062H4.69132L7.36232 50.231C7.57699 50.727 7.77199 51.0487 7.94732 51.196C8.15797 51.3567 8.41538 51.4441 8.68032 51.445V51.645H5.64932V51.445C5.95532 51.4297 6.16199 51.3803 6.26932 51.297C6.31798 51.2633 6.35795 51.2185 6.38594 51.1664C6.41393 51.1142 6.42914 51.0562 6.43032 50.997C6.43032 50.837 6.35499 50.5837 6.20432 50.237L5.74032 49.16ZM5.58232 48.755L4.28232 45.755L2.94732 48.755H5.58232Z" fill="#007E87"/>
<path d="M20.1169 44.228V44.428C19.9487 44.4198 19.7812 44.4542 19.6299 44.528C19.4796 44.6243 19.3569 44.758 19.2739 44.916C19.1312 45.2106 19.0118 45.5158 18.9169 45.829L16.7779 51.807H16.5519L14.7999 47.071L13.0619 51.813H12.8619L10.5819 45.655C10.4119 45.1957 10.3042 44.924 10.2589 44.84C10.1902 44.708 10.0827 44.6002 9.95088 44.531C9.7848 44.4567 9.60361 44.4225 9.42188 44.431V44.231H12.2619V44.431H12.1259C11.9626 44.4198 11.8005 44.4662 11.6679 44.562C11.6188 44.5991 11.5789 44.647 11.5513 44.7019C11.5237 44.7569 11.5092 44.8175 11.5089 44.879C11.5089 45.007 11.5919 45.3 11.7579 45.76L13.2689 49.922L14.5419 46.383L14.3159 45.76L14.1349 45.26C14.0629 45.091 13.9738 44.9298 13.8689 44.779C13.8201 44.7098 13.7587 44.6504 13.6879 44.604C13.6015 44.5422 13.5061 44.4943 13.4049 44.462C13.2935 44.4361 13.1792 44.425 13.0649 44.429V44.229H16.0529V44.429H15.8529C15.6875 44.4154 15.5227 44.4619 15.3889 44.56C15.3399 44.605 15.3013 44.6602 15.2759 44.7217C15.2506 44.7832 15.2389 44.8496 15.2419 44.916C15.2419 45.102 15.3269 45.4264 15.4969 45.889L16.9679 49.92L18.4279 45.834C18.5939 45.382 18.6769 45.0687 18.6769 44.894C18.6758 44.8089 18.647 44.7264 18.5949 44.659C18.5428 44.5882 18.4707 44.5346 18.3879 44.505C18.2067 44.4488 18.0175 44.4231 17.8279 44.429V44.229L20.1169 44.228Z" fill="#007E87"/>
<path d="M25.6154 49.16H22.6454L22.1244 50.33C21.9964 50.618 21.9324 50.833 21.9324 50.975C21.9339 51.0348 21.9499 51.0933 21.979 51.1456C22.0081 51.1978 22.0494 51.2422 22.0994 51.275C22.2101 51.361 22.4504 51.4167 22.8204 51.442V51.642H20.4004V51.442C20.7217 51.3873 20.9291 51.3163 21.0224 51.229C21.2157 51.0543 21.4291 50.6987 21.6624 50.162L24.3624 44.062H24.5624L27.2334 50.231C27.4487 50.727 27.6437 51.0487 27.8184 51.196C28.029 51.3567 28.2864 51.4441 28.5514 51.445V51.645H25.5254V51.445C25.8307 51.4297 26.0374 51.3803 26.1454 51.297C26.1948 51.2626 26.2351 51.2169 26.2632 51.1636C26.2912 51.1104 26.306 51.0512 26.3064 50.991C26.3064 50.831 26.2311 50.5777 26.0804 50.231L25.6154 49.16ZM25.4574 48.755L24.1574 45.755L22.8214 48.755H25.4574Z" fill="#007E87"/>
<path d="M37.9055 51.643H35.8565L33.2565 48.176C33.0645 48.183 32.9075 48.187 32.7865 48.187H32.6275C32.5715 48.187 32.5125 48.187 32.4525 48.179V50.334C32.4525 50.8006 32.5052 51.0906 32.6105 51.204C32.7545 51.364 32.9698 51.444 33.2565 51.444H33.5565V51.644H30.2715V51.444H30.5605C30.8845 51.444 31.1178 51.342 31.2605 51.138C31.3398 51.0253 31.3795 50.7586 31.3795 50.338V45.54C31.3795 45.0733 31.3265 44.7833 31.2205 44.67C31.0732 44.51 30.8545 44.43 30.5645 44.43H30.2755V44.23H33.0755C33.8902 44.23 34.4902 44.2876 34.8755 44.403C35.2579 44.5152 35.5999 44.7353 35.8605 45.037C36.1264 45.3409 36.2691 45.7332 36.2605 46.137C36.2664 46.5769 36.1015 47.0021 35.8005 47.323C35.4932 47.6563 35.0168 47.8933 34.3715 48.034L35.9565 50.161C36.3185 50.6496 36.6295 50.9743 36.8895 51.135C37.2023 51.3112 37.5504 51.4157 37.9085 51.441L37.9055 51.643ZM32.4555 47.831C32.5275 47.831 32.5895 47.831 32.6425 47.831H32.7725C33.5058 47.831 34.0575 47.678 34.4275 47.372C34.6048 47.2336 34.7476 47.0558 34.8444 46.8528C34.9412 46.6497 34.9895 46.4269 34.9855 46.202C34.9935 45.9926 34.9577 45.7839 34.8802 45.5893C34.8027 45.3947 34.6852 45.2185 34.5355 45.072C34.2355 44.782 33.8382 44.6373 33.3435 44.638C33.0451 44.6453 32.748 44.6788 32.4555 44.738V47.831Z" fill="#007E87"/>
<path d="M39.3916 51.643V51.443H39.6806C40.0046 51.443 40.2346 51.343 40.3706 51.143C40.4533 51.023 40.4946 50.7533 40.4946 50.334V45.54C40.4946 45.077 40.4426 44.787 40.3366 44.67C40.1893 44.51 39.9706 44.43 39.6806 44.43H39.3916V44.23H42.5156C43.6616 44.23 44.5339 44.356 45.1326 44.608C45.7349 44.8636 46.2402 45.3042 46.5756 45.866C46.9465 46.4786 47.1358 47.184 47.1216 47.9C47.1216 48.932 46.7969 49.7943 46.1476 50.487C45.4196 51.2603 44.3106 51.6466 42.8206 51.646L39.3916 51.643ZM41.5816 51.107C41.9769 51.1992 42.3807 51.2505 42.7866 51.26C43.6626 51.26 44.3889 50.963 44.9656 50.369C45.5423 49.775 45.8309 48.9693 45.8316 47.952C45.8316 46.9273 45.5429 46.1196 44.9656 45.529C44.3883 44.9383 43.6469 44.643 42.7416 44.643C42.35 44.6498 41.9606 44.7032 41.5816 44.802V51.107Z" fill="#007E87"/>
</g>
<defs>
<clipPath id="clip0_147_8954">
<rect width="48" height="63" fill="white"/>
</clipPath>
</defs>
</svg>
