<svg xmlns="http://www.w3.org/2000/svg" width="48" height="64" viewBox="0 0 48 64" fill="none">
<g clip-path="url(#clip0_147_9012)">
<rect y="38" width="48" height="13" fill="#E19347"/>
<rect x="1" y="22" width="46" height="8" fill="#E19347"/>
<path d="M29.5198 55.2887C29.6758 55.1728 29.8108 55.0306 29.9188 54.8681C30.0048 54.732 30.0488 54.5725 30.0478 54.4109C30.0588 54.2311 29.9898 54.0554 29.8588 53.9325C29.7338 53.8207 29.5718 53.7608 29.4058 53.7648C29.3068 53.7628 29.2088 53.7821 29.1178 53.8197C29.0388 53.8532 28.9648 53.901 28.9018 53.9599C28.8428 54.0147 28.7968 54.0828 28.7668 54.158C28.7368 54.2321 28.7218 54.3124 28.7218 54.3927C28.7198 54.4973 28.7428 54.6009 28.7878 54.6944C28.8328 54.7827 28.8928 54.862 28.9648 54.929C29.0428 55.0012 29.1288 55.0662 29.2198 55.121C29.3158 55.18 29.4158 55.2358 29.5198 55.2887Z" fill="black"/>
<path d="M22.569 54.2578C22.51 54.1145 22.416 53.9886 22.296 53.8921C22.176 53.8037 22.03 53.759 21.882 53.7641C21.594 53.7559 21.331 53.9276 21.219 54.1968C21.077 54.4853 21.006 54.9343 21.006 55.5439C21.004 55.7857 21.021 56.0274 21.057 56.2662C21.084 56.4592 21.138 56.6481 21.216 56.8269C21.277 56.9691 21.371 57.0941 21.489 57.1926C21.601 57.281 21.74 57.3267 21.882 57.3237C22.171 57.3338 22.436 57.1632 22.551 56.894C22.693 56.6075 22.764 56.1575 22.764 55.5439C22.765 55.3031 22.75 55.0634 22.719 54.8246C22.695 54.6296 22.645 54.4386 22.569 54.2578Z" fill="black"/>
<path d="M0 49.9209V56.7465L24 63.9999L48 56.5007V49.9209H0V49.9209ZM19.26 57.6781H16.872V57.5013C16.96 57.4079 17.066 57.2921 17.19 57.1539C17.314 57.0158 17.443 56.8624 17.577 56.6937C17.711 56.5251 17.843 56.3463 17.973 56.1573C18.101 55.9714 18.219 55.7794 18.327 55.5813C18.429 55.3965 18.514 55.2024 18.582 55.0023C18.643 54.8276 18.676 54.6447 18.678 54.4598C18.684 54.279 18.624 54.1022 18.51 53.9631C18.378 53.8229 18.191 53.7497 18 53.765C17.847 53.765 17.696 53.7975 17.556 53.8594C17.424 53.9153 17.299 53.9885 17.184 54.0758L16.986 53.7284C17.133 53.6024 17.302 53.5049 17.484 53.4419C17.683 53.3718 17.892 53.3363 18.102 53.3383C18.257 53.3352 18.412 53.3617 18.558 53.4145C18.684 53.4612 18.799 53.5354 18.894 53.6309C18.986 53.7253 19.058 53.8381 19.104 53.9631C19.153 54.0961 19.177 54.2373 19.176 54.3806C19.174 54.6061 19.135 54.8296 19.059 55.0419C18.977 55.2776 18.874 55.5041 18.753 55.7215C18.625 55.9521 18.484 56.1746 18.33 56.389C18.174 56.6064 18.018 56.8126 17.862 57.0076L17.568 57.2697V57.2941L17.952 57.2271H19.26V57.6781V57.6781ZM22.911 57.1966C22.693 57.5582 22.299 57.7705 21.882 57.7512C21.406 57.7512 21.058 57.5582 20.838 57.1722C20.618 56.7862 20.508 56.2437 20.508 55.5448C20.508 54.8133 20.625 54.2627 20.859 53.893C21.075 53.5323 21.467 53.32 21.882 53.3383C22.366 53.3383 22.717 53.5201 22.935 53.8838C23.153 54.2475 23.262 54.8012 23.262 55.5448C23.262 56.2762 23.145 56.8268 22.911 57.1966ZM26.778 57.6781H24.648V57.2271H25.488V54.277L25.548 53.9173L25.308 54.2038L24.648 54.6853L24.42 54.3745L25.74 53.3383H25.956V57.2271H26.778V57.6781V57.6781ZM30.528 57.0472C30.474 57.1885 30.39 57.3154 30.282 57.4191C30.168 57.5267 30.033 57.61 29.886 57.6629C29.715 57.7248 29.534 57.7543 29.352 57.7512C29.178 57.7543 29.006 57.7259 28.842 57.6659C28.703 57.6151 28.576 57.5359 28.467 57.4343C28.366 57.3378 28.287 57.221 28.236 57.0899C28.183 56.9528 28.157 56.8075 28.158 56.6602C28.153 56.4225 28.222 56.1878 28.356 55.9928C28.521 55.7754 28.732 55.5996 28.974 55.4777C28.877 55.4188 28.784 55.3548 28.695 55.2857C28.61 55.2197 28.533 55.1425 28.467 55.0571C28.4 54.9708 28.348 54.8743 28.311 54.7707C28.271 54.6528 28.252 54.5289 28.254 54.405C28.252 54.2566 28.28 54.1093 28.335 53.9722C28.388 53.8442 28.468 53.7294 28.569 53.637C28.676 53.5405 28.8 53.4663 28.935 53.4175C29.09 53.3627 29.254 53.3363 29.418 53.3383C29.573 53.3363 29.727 53.3606 29.874 53.4114C30.001 53.4551 30.118 53.5232 30.219 53.6126C30.312 53.6969 30.387 53.8015 30.438 53.9173C30.491 54.0403 30.518 54.1733 30.516 54.3074C30.52 54.5218 30.466 54.7341 30.36 54.92C30.225 55.1283 30.05 55.306 29.844 55.4412C29.947 55.5011 30.046 55.5692 30.141 55.6423C30.233 55.7134 30.315 55.7947 30.387 55.8861C30.458 55.9765 30.513 56.0791 30.552 56.1878C30.594 56.3107 30.614 56.4387 30.612 56.5688C30.614 56.7323 30.586 56.8949 30.528 57.0472V57.0472Z" fill="black"/>
<path d="M29.883 56.0284C29.802 55.9512 29.712 55.8821 29.616 55.8242C29.516 55.7633 29.412 55.7043 29.304 55.6475C29.094 55.7551 28.915 55.9136 28.782 56.1107C28.686 56.255 28.632 56.4246 28.626 56.5983C28.626 56.6938 28.642 56.7883 28.674 56.8787C28.705 56.9661 28.754 57.0453 28.818 57.1103C28.886 57.1784 28.966 57.2312 29.055 57.2657C29.159 57.3064 29.27 57.3257 29.382 57.3237C29.48 57.3237 29.577 57.3084 29.67 57.2779C29.759 57.2495 29.841 57.2038 29.913 57.1438C29.985 57.0829 30.042 57.0057 30.081 56.9183C30.125 56.8177 30.146 56.708 30.144 56.5983C30.146 56.4876 30.122 56.3769 30.072 56.2783C30.023 56.1849 29.959 56.1005 29.883 56.0284Z" fill="black"/>
<path d="M33.8887 26.2318C34.1857 25.9789 34.3337 25.6233 34.3337 25.1652C34.3337 24.6969 34.1857 24.3372 33.8887 24.0863C33.5917 23.8354 33.1627 23.7104 32.6017 23.7104H31.0967V26.6118H32.6017C33.1627 26.6118 33.5917 26.4858 33.8887 26.2318Z" fill="black"/>
<path d="M28.2639 11.0558C28.2199 10.9329 28.1419 10.8262 28.0389 10.747C27.9499 10.6759 27.8399 10.6363 27.7259 10.6353C27.5509 10.6393 27.3859 10.7216 27.2769 10.8618C27.1349 11.0396 27.0529 11.261 27.0459 11.4896H28.3269C28.3269 11.3433 28.3049 11.197 28.2629 11.0558H28.2639Z" fill="black"/>
<path d="M29.0038 32.4877C28.8538 32.3973 28.6828 32.3506 28.5088 32.3537C28.3348 32.3516 28.1638 32.3963 28.0138 32.4857C27.8658 32.5751 27.7438 32.7031 27.6608 32.8575C27.5708 33.0241 27.5188 33.209 27.5088 33.398H29.5098C29.5028 33.209 29.4518 33.0241 29.3598 32.8596C29.2748 32.7072 29.1528 32.5792 29.0048 32.4877H29.0038Z" fill="black"/>
<path d="M32.7751 19.4724C32.9861 19.2895 33.1002 19.0172 33.0852 18.7359C33.1021 18.4514 32.9871 18.1741 32.7751 17.9872C32.5681 17.8134 32.2691 17.7261 31.8771 17.7261H30.8271V19.7334H31.8771C32.2681 19.7334 32.5681 19.6461 32.7751 19.4724Z" fill="black"/>
<path d="M22.4292 13.429C22.5422 13.5337 22.6912 13.5885 22.8442 13.5834C23.0432 13.5844 23.2282 13.4808 23.3332 13.3102C23.4962 13.0714 23.5782 12.7362 23.5782 12.3034C23.5782 11.8128 23.4852 11.4349 23.3002 11.1707C23.2022 11.0062 23.0292 10.9036 22.8412 10.8975C22.7402 10.8985 22.6402 10.9279 22.5542 10.9818C22.4172 11.0895 22.2962 11.2175 22.1952 11.3607V12.5604C22.1892 12.7311 22.1982 12.9028 22.2222 13.0724C22.2522 13.2106 22.3242 13.3366 22.4292 13.43V13.429Z" fill="black"/>
<path d="M23.4502 18.5153C23.3102 18.2644 23.1052 18.0581 22.8572 17.919C22.3272 17.6325 21.6912 17.6325 21.1612 17.919C20.9112 18.0581 20.7042 18.2644 20.5632 18.5153C20.2732 19.0445 20.2732 19.6886 20.5632 20.2189C20.7052 20.4698 20.9122 20.676 21.1612 20.8152C21.6912 21.1017 22.3272 21.1017 22.8572 20.8152C23.1052 20.676 23.3102 20.4698 23.4502 20.2189C23.7362 19.6886 23.7362 19.0466 23.4502 18.5153Z" fill="black"/>
<path d="M11.1953 17.7261V19.7334H12.2453C12.6363 19.7334 12.9363 19.6461 13.1433 19.4724C13.3543 19.2895 13.4683 19.0172 13.4533 18.7359C13.4703 18.4514 13.3553 18.1741 13.1433 17.9872C12.9363 17.8134 12.6373 17.7261 12.2453 17.7261H11.1953Z" fill="black"/>
<path d="M20.3645 11.0558C20.3205 10.9329 20.2425 10.8262 20.1395 10.747C20.0505 10.6759 19.9405 10.6363 19.8265 10.6353C19.6515 10.6393 19.4865 10.7216 19.3775 10.8618C19.2355 11.0396 19.1535 11.261 19.1465 11.4896H20.4275C20.4275 11.3433 20.4055 11.197 20.3635 11.0558H20.3645Z" fill="black"/>
<path d="M9.20802 18.5153C9.06802 18.2644 8.86302 18.0581 8.61502 17.919C8.08502 17.6325 7.44902 17.6325 6.91902 17.919C6.66902 18.0581 6.46202 18.2644 6.32102 18.5153C6.03102 19.0445 6.03102 19.6886 6.32102 20.2189C6.46302 20.4698 6.67002 20.676 6.91902 20.8152C7.44902 21.1017 8.08502 21.1017 8.61502 20.8152C8.86302 20.676 9.06802 20.4698 9.20802 20.2189C9.49402 19.6886 9.49402 19.0466 9.20802 18.5153Z" fill="black"/>
<path d="M0 0V38.3675H48V0H0ZM38.944 10.3893H39.071V11.1116C39.303 10.6301 39.54 10.3893 39.784 10.3893C39.888 10.3863 39.988 10.429 40.059 10.5072C40.129 10.5793 40.168 10.6768 40.168 10.7784C40.17 10.8627 40.142 10.945 40.089 11.01C40.044 11.069 39.975 11.1045 39.902 11.1045C39.811 11.0944 39.727 11.0517 39.665 10.9836C39.614 10.9237 39.546 10.882 39.47 10.8627C39.423 10.8688 39.38 10.8942 39.352 10.9328C39.234 11.074 39.139 11.2335 39.071 11.4062V12.9453C39.065 13.0824 39.084 13.2196 39.128 13.3486C39.157 13.4146 39.205 13.4695 39.267 13.506C39.355 13.5538 39.454 13.5751 39.554 13.569V13.695H38.137V13.569C38.247 13.5771 38.357 13.5507 38.451 13.4918C38.506 13.4471 38.544 13.3831 38.557 13.313C38.571 13.2003 38.576 13.0865 38.572 12.9727V11.7272C38.578 11.5048 38.572 11.2813 38.552 11.0588C38.545 10.9999 38.52 10.946 38.479 10.9034C38.443 10.8698 38.396 10.8526 38.348 10.8536C38.275 10.8566 38.203 10.8739 38.137 10.9064L38.107 10.7804L38.944 10.3873V10.3893ZM34.98 10.4838H35.95V12.6334C35.95 12.9331 35.995 13.1291 36.084 13.2226C36.168 13.314 36.286 13.3648 36.409 13.3628C36.514 13.3577 36.615 13.3242 36.704 13.2683C36.853 13.1698 36.985 13.0479 37.095 12.9077V11.0872C37.095 10.9054 37.066 10.7815 37.009 10.7175C36.952 10.6535 36.832 10.6189 36.651 10.6138V10.4838H37.594V12.4302C37.588 12.6578 37.595 12.8853 37.617 13.1129C37.624 13.1769 37.649 13.2368 37.689 13.2866C37.72 13.3181 37.762 13.3364 37.805 13.3354C37.879 13.3323 37.951 13.312 38.016 13.2754L38.058 13.3984L37.23 13.7945H37.094V13.1139C36.856 13.4136 36.675 13.6015 36.55 13.6787C36.431 13.7539 36.294 13.7945 36.154 13.7945C36.005 13.7966 35.861 13.7407 35.751 13.6381C35.635 13.5304 35.553 13.3912 35.514 13.2368C35.463 13.0093 35.441 12.7756 35.448 12.542V11.1076C35.455 11.0009 35.441 10.8932 35.406 10.7916C35.379 10.7347 35.335 10.687 35.281 10.6565C35.186 10.6179 35.083 10.6027 34.98 10.6128V10.4828V10.4838ZM37.601 21.374H37.161L36.687 20.3012H34.485L34.011 21.374H33.576L35.382 17.3592H35.794L37.6 21.374H37.601ZM32.821 10.8465C33.036 10.5529 33.375 10.3822 33.735 10.3853C34.03 10.3782 34.312 10.5092 34.499 10.7408C34.698 10.9775 34.798 11.2955 34.798 11.6927H32.886C32.884 12.1702 32.984 12.544 33.185 12.8152C33.386 13.0865 33.623 13.2216 33.895 13.2216C34.068 13.2246 34.236 13.1627 34.368 13.0479C34.531 12.8843 34.647 12.6791 34.705 12.4536L34.799 12.5237C34.757 12.8437 34.629 13.1464 34.43 13.3994C34.253 13.6493 33.968 13.7956 33.666 13.7935C33.327 13.7905 33.01 13.6229 32.812 13.3425C32.575 13.0418 32.457 12.6385 32.457 12.1305C32.457 11.581 32.578 11.1523 32.821 10.8455V10.8465ZM30.004 10.3893H30.134V11.07C30.459 10.6159 30.768 10.3893 31.062 10.3893C31.203 10.3863 31.341 10.432 31.452 10.5204C31.578 10.6362 31.669 10.7865 31.712 10.9531C31.764 11.1634 31.787 11.3808 31.779 11.5982V12.9697C31.771 13.1088 31.786 13.249 31.821 13.3831C31.841 13.439 31.879 13.4877 31.928 13.5203C32.013 13.5609 32.108 13.5771 32.201 13.569V13.695H30.832V13.569H30.889C30.984 13.5782 31.079 13.5548 31.159 13.501C31.215 13.4471 31.253 13.376 31.266 13.2998C31.278 13.1901 31.282 13.0804 31.278 12.9707V11.6561C31.291 11.4387 31.257 11.2224 31.18 11.0192C31.12 10.8902 30.989 10.8119 30.849 10.8211C30.609 10.8211 30.37 10.9735 30.133 11.2772V12.9707C30.124 13.1058 30.136 13.2419 30.166 13.374C30.189 13.4349 30.229 13.4867 30.282 13.5233C30.377 13.5639 30.48 13.5802 30.583 13.571V13.697H29.215V13.571H29.275C29.385 13.5853 29.495 13.5375 29.561 13.4471C29.61 13.3638 29.635 13.2053 29.635 12.9717V11.779C29.641 11.5434 29.634 11.3087 29.612 11.074C29.606 11.011 29.582 10.9511 29.542 10.9024C29.508 10.8709 29.463 10.8546 29.417 10.8566C29.347 10.8597 29.278 10.878 29.215 10.9095L29.17 10.7835L30.004 10.3904V10.3893ZM27.17 20.863H26.972L25.42 18.1791V21.374H25.019V17.3592H25.363L27.079 20.3357L28.778 17.3592H29.122V21.374H28.721V18.1618L27.169 20.863H27.17ZM26.981 10.8465C27.196 10.5529 27.535 10.3822 27.895 10.3853C28.19 10.3782 28.472 10.5092 28.659 10.7408C28.858 10.9775 28.958 11.2955 28.958 11.6927H27.046C27.044 12.1702 27.144 12.544 27.345 12.8152C27.546 13.0865 27.783 13.2216 28.055 13.2216C28.228 13.2246 28.396 13.1627 28.528 13.0479C28.69 12.8843 28.807 12.6791 28.865 12.4536L28.959 12.5237C28.917 12.8437 28.789 13.1464 28.59 13.3994C28.413 13.6493 28.128 13.7956 27.826 13.7935C27.487 13.7905 27.17 13.6229 26.973 13.3425C26.736 13.0418 26.618 12.6385 26.618 12.1305C26.618 11.581 26.739 11.1523 26.982 10.8455L26.981 10.8465ZM25.203 10.3893H25.33V11.1116C25.562 10.6301 25.799 10.3893 26.043 10.3893C26.147 10.3863 26.247 10.429 26.318 10.5072C26.388 10.5793 26.427 10.6768 26.427 10.7784C26.429 10.8627 26.401 10.945 26.348 11.01C26.303 11.069 26.234 11.1045 26.161 11.1045C26.07 11.0944 25.986 11.0517 25.924 10.9836C25.873 10.9237 25.805 10.882 25.729 10.8627C25.682 10.8688 25.639 10.8942 25.611 10.9328C25.493 11.074 25.398 11.2335 25.33 11.4062V12.9453C25.324 13.0824 25.343 13.2196 25.388 13.3486C25.417 13.4146 25.465 13.4695 25.527 13.506C25.615 13.5538 25.714 13.5751 25.814 13.569V13.695H24.397V13.569C24.507 13.5771 24.617 13.5507 24.711 13.4918C24.766 13.4471 24.803 13.3831 24.817 13.313C24.831 13.2003 24.836 13.0865 24.832 12.9727V11.7272C24.838 11.5048 24.832 11.2813 24.812 11.0588C24.805 10.9999 24.78 10.946 24.739 10.9034C24.703 10.8698 24.656 10.8526 24.608 10.8536C24.535 10.8566 24.463 10.8739 24.396 10.9064L24.366 10.7804L25.203 10.3873V10.3893ZM21.212 15.103H21.288C21.388 15.1081 21.487 15.0827 21.572 15.0298C21.614 14.9994 21.645 14.9557 21.661 14.9049C21.69 14.7617 21.701 14.6144 21.693 14.4681V11.4316C21.699 11.2996 21.691 11.1665 21.669 11.0354C21.657 10.9857 21.63 10.942 21.592 10.9095C21.55 10.879 21.5 10.8648 21.449 10.8678C21.385 10.8719 21.322 10.8881 21.265 10.9166L21.229 10.8038L22.081 10.4036H22.196V11.1543C22.297 10.9277 22.444 10.7256 22.626 10.56C22.754 10.4523 22.915 10.3924 23.081 10.3904C23.36 10.3904 23.621 10.5326 23.776 10.7693C24.004 11.0781 24.117 11.4804 24.117 11.9761C24.117 12.5308 23.98 12.989 23.706 13.3506C23.511 13.632 23.193 13.7976 22.854 13.7956C22.721 13.7986 22.59 13.7742 22.467 13.7224C22.364 13.6706 22.272 13.5995 22.195 13.5121V14.4904C22.187 14.6306 22.199 14.7718 22.23 14.909C22.253 14.9689 22.296 15.0187 22.351 15.0512C22.45 15.0938 22.557 15.1121 22.664 15.104V15.234H21.214V15.104L21.212 15.103ZM18.667 23.7125V23.1832H23.247V23.7125H21.256V28.9686H20.657V23.7125H18.666H18.667ZM16.588 20.2159C16.731 20.4668 16.939 20.673 17.189 20.8122C17.45 20.9585 17.743 21.0337 18.041 21.0306C18.48 21.0448 18.905 20.8701 19.209 20.5491L19.474 20.8183C19.298 21.0113 19.081 21.1617 18.839 21.2571C18.579 21.3608 18.302 21.4126 18.023 21.4095C17.654 21.4146 17.29 21.3242 16.965 21.1464C16.657 20.9768 16.4 20.7238 16.225 20.415C15.868 19.7648 15.868 18.9724 16.225 18.3223C16.401 18.0135 16.658 17.7605 16.967 17.5909C17.293 17.4121 17.658 17.3217 18.028 17.3267C18.306 17.3237 18.582 17.3745 18.841 17.4761C19.082 17.5705 19.298 17.7199 19.473 17.9119L19.208 18.1811C18.901 17.8641 18.477 17.6914 18.04 17.7057C17.742 17.7016 17.448 17.7768 17.188 17.9241C16.938 18.0632 16.73 18.2695 16.587 18.5204C16.297 19.0476 16.297 19.6907 16.587 20.2179L16.588 20.2159ZM23.069 21.1454C22.404 21.4979 21.611 21.4969 20.947 21.1424C20.637 20.9727 20.379 20.7197 20.202 20.4109C19.845 19.7628 19.845 18.9724 20.202 18.3233C20.38 18.0145 20.637 17.7615 20.947 17.5919C21.611 17.2373 22.404 17.2363 23.069 17.5888C23.378 17.7595 23.634 18.0124 23.811 18.3203C24.172 18.9694 24.172 19.7638 23.811 20.413C23.634 20.7208 23.377 20.9737 23.069 21.1444V21.1454ZM19.081 10.8485C19.296 10.5549 19.635 10.3843 19.995 10.3873C20.29 10.3802 20.572 10.5112 20.759 10.7429C20.958 10.9796 21.058 11.2975 21.058 11.6947H19.146C19.144 12.1722 19.244 12.546 19.445 12.8173C19.646 13.0885 19.883 13.2236 20.155 13.2236C20.328 13.2267 20.496 13.1647 20.628 13.0499C20.79 12.8864 20.907 12.6811 20.965 12.4556L21.059 12.5257C21.017 12.8457 20.89 13.1484 20.691 13.4014C20.514 13.6513 20.229 13.7976 19.927 13.7956C19.588 13.7925 19.271 13.6249 19.074 13.3445C18.837 13.0438 18.719 12.6405 18.719 12.1326C18.719 11.583 18.84 11.1543 19.083 10.8475L19.081 10.8485ZM17.303 10.3914H17.43V11.1137C17.662 10.6321 17.899 10.3914 18.143 10.3914C18.247 10.3883 18.347 10.431 18.418 10.5092C18.488 10.5813 18.527 10.6789 18.527 10.7804C18.529 10.8648 18.501 10.947 18.448 11.0121C18.403 11.071 18.334 11.1065 18.261 11.1065C18.17 11.0964 18.086 11.0537 18.024 10.9857C17.973 10.9257 17.905 10.8841 17.829 10.8648C17.782 10.8709 17.739 10.8963 17.711 10.9349C17.593 11.0761 17.498 11.2356 17.43 11.4083V12.9473C17.424 13.0844 17.443 13.2216 17.488 13.3506C17.517 13.4166 17.565 13.4715 17.627 13.5081C17.715 13.5558 17.814 13.5771 17.914 13.571V13.697H16.497V13.571C16.607 13.5792 16.717 13.5528 16.811 13.4938C16.866 13.4491 16.904 13.3851 16.917 13.3151C16.931 13.2023 16.936 13.0885 16.932 12.9747V11.7293C16.938 11.5068 16.932 11.2833 16.912 11.0608C16.905 11.0019 16.88 10.9481 16.84 10.9054C16.804 10.8719 16.757 10.8546 16.709 10.8556C16.636 10.8587 16.564 10.8759 16.498 10.9084L16.468 10.7825L17.305 10.3893L17.303 10.3914ZM12.484 10.3914H12.614V11.072C12.938 10.6179 13.248 10.3914 13.542 10.3914C13.683 10.3883 13.821 10.434 13.932 10.5224C14.058 10.6382 14.149 10.7886 14.192 10.9552C14.244 11.1655 14.267 11.3829 14.258 11.6003V12.9717C14.25 13.1109 14.265 13.251 14.3 13.3851C14.32 13.441 14.358 13.4898 14.407 13.5223C14.492 13.5629 14.587 13.5792 14.68 13.571V13.697H13.311V13.571H13.368C13.463 13.5802 13.558 13.5568 13.638 13.503C13.694 13.4491 13.732 13.378 13.745 13.3018C13.757 13.1921 13.761 13.0824 13.757 12.9727V11.6582C13.77 11.4408 13.736 11.2244 13.659 11.0212C13.599 10.8922 13.468 10.814 13.328 10.8231C13.088 10.8231 12.849 10.9755 12.612 11.2792V12.9727C12.603 13.1078 12.615 13.2439 12.645 13.376C12.668 13.437 12.708 13.4888 12.761 13.5253C12.856 13.566 12.959 13.5822 13.062 13.5731V13.6991H11.694V13.5731H11.754C11.864 13.5873 11.974 13.5396 12.039 13.4491C12.088 13.3658 12.113 13.2074 12.113 12.9737V11.7811C12.119 11.5454 12.112 11.3107 12.09 11.0761C12.084 11.0131 12.06 10.9531 12.021 10.9044C11.987 10.8729 11.942 10.8566 11.896 10.8587C11.826 10.8617 11.757 10.88 11.694 10.9115L11.649 10.7855L12.483 10.3924L12.484 10.3914ZM13.501 19.6846C13.482 19.7049 13.462 19.7252 13.442 19.7445C13.156 19.9873 12.761 20.1092 12.257 20.1082H11.196V21.376H10.778V17.3613H12.257C12.761 17.3613 13.156 17.4832 13.442 17.728C13.99 18.2512 14.017 19.1269 13.501 19.6836V19.6846ZM7.962 13.569H8.107C8.204 13.569 8.3 13.5406 8.382 13.4888C8.446 13.4522 8.493 13.3923 8.513 13.3201C8.543 13.1688 8.555 13.0144 8.548 12.861V9.77168C8.548 9.46997 8.522 9.28406 8.469 9.21397C8.377 9.11238 8.242 9.05956 8.107 9.07378H7.962V8.94375H11.119L11.164 9.98502H11.046C11.025 9.80724 10.977 9.63353 10.906 9.46997C10.854 9.37549 10.774 9.30133 10.678 9.25562C10.54 9.21194 10.396 9.19467 10.252 9.20279H9.128V11.0822H10.028C10.262 11.0822 10.418 11.0415 10.496 10.9592C10.601 10.8516 10.659 10.6626 10.671 10.3914H10.783V12.0472H10.671C10.659 11.8959 10.631 11.7465 10.586 11.6013C10.549 11.519 10.486 11.4509 10.408 11.4083C10.289 11.3544 10.158 11.33 10.027 11.3382H9.127V12.9057C9.12 13.0347 9.128 13.1627 9.151 13.2897C9.166 13.3344 9.196 13.373 9.236 13.3984C9.308 13.4319 9.387 13.4461 9.466 13.439H10.161C10.331 13.4471 10.501 13.4278 10.665 13.3831C10.782 13.3364 10.886 13.2602 10.967 13.1617C11.124 12.9625 11.254 12.7421 11.351 12.5054H11.472L11.118 13.698H7.96V13.568L7.962 13.569ZM2.237 17.3623H5.432V17.729H4.043V21.376H3.625V17.729H2.236V17.3623H2.237ZM3.507 27.3016C3.712 27.6622 4.01 27.9599 4.369 28.161C4.742 28.3723 5.164 28.48 5.591 28.4749C6.271 28.4749 6.829 28.2433 7.266 27.7811L7.646 28.1691C7.394 28.4475 7.083 28.6639 6.736 28.801C6.364 28.9493 5.967 29.0245 5.567 29.0205C5.038 29.0286 4.515 28.8975 4.05 28.6405C3.608 28.3957 3.241 28.031 2.99 27.5871C2.478 26.6494 2.478 25.5086 2.99 24.5709C3.242 24.126 3.61 23.7613 4.054 23.5175C4.521 23.2604 5.045 23.1294 5.575 23.1375C5.973 23.1335 6.369 23.2066 6.74 23.3519C7.086 23.488 7.396 23.7024 7.646 23.9797L7.266 24.3677C6.826 23.9116 6.219 23.6627 5.59 23.681C5.163 23.6759 4.741 23.7836 4.368 23.9949C4.009 24.1961 3.711 24.4937 3.506 24.8544C3.091 25.6152 3.091 26.5397 3.506 27.3006L3.507 27.3016ZM6.705 21.1434C6.395 20.9737 6.137 20.7208 5.96 20.4119C5.603 19.7638 5.603 18.9735 5.96 18.3243C6.138 18.0155 6.395 17.7625 6.705 17.5929C7.369 17.2384 8.162 17.2373 8.827 17.5898C9.136 17.7605 9.392 18.0135 9.569 18.3213C9.93 18.9704 9.93 19.7648 9.569 20.414C9.392 20.7218 9.135 20.9747 8.827 21.1454C8.162 21.4979 7.369 21.4969 6.705 21.1424V21.1434ZM9.475 28.3754C9.065 27.9457 8.86 27.3199 8.86 26.4991V23.1843H9.459V26.4737C9.459 27.1462 9.607 27.647 9.904 27.9782C10.201 28.3083 10.63 28.4739 11.191 28.4739C11.758 28.4739 12.189 28.3083 12.486 27.9782C12.782 27.648 12.931 27.1462 12.931 26.4737V23.1843H13.514V26.498C13.514 27.3189 13.31 27.9446 12.903 28.3744C12.496 28.8041 11.925 29.0194 11.192 29.0194C10.458 29.0194 9.886 28.8041 9.476 28.3744L9.475 28.3754ZM13.022 34.1648C13.107 34.3375 13.239 34.4818 13.402 34.5824C13.568 34.6819 13.757 34.7337 13.95 34.7307C14.109 34.7327 14.265 34.6971 14.408 34.626C14.549 34.5539 14.669 34.4452 14.756 34.3111L14.941 34.4564C14.839 34.621 14.694 34.754 14.523 34.8414C14.345 34.9308 14.149 34.9765 13.95 34.9735C13.711 34.9775 13.476 34.9135 13.27 34.7896C13.07 34.6677 12.907 34.4919 12.8 34.2806C12.573 33.8164 12.573 33.2709 12.8 32.8056C12.907 32.5953 13.07 32.4206 13.27 32.2997C13.476 32.1778 13.711 32.1158 13.95 32.1199C14.148 32.1168 14.345 32.1625 14.523 32.2519C14.694 32.3393 14.838 32.4724 14.941 32.637L14.756 32.7822C14.669 32.6481 14.549 32.5394 14.408 32.4673C14.266 32.3962 14.109 32.3606 13.95 32.3627C13.757 32.3596 13.568 32.4114 13.402 32.511C13.239 32.6105 13.107 32.7558 13.022 32.9285C12.839 33.3196 12.839 33.7747 13.022 34.1658V34.1648ZM15.207 12.8924V10.7327H14.769V10.6169C14.897 10.5519 15.013 10.4635 15.109 10.3558C15.231 10.2248 15.335 10.0775 15.419 9.91899C15.493 9.76051 15.558 9.59797 15.612 9.43137H15.705V10.4879H16.351V10.7337H15.705V12.8163C15.705 13.0245 15.731 13.1647 15.782 13.2368C15.825 13.3049 15.9 13.3455 15.98 13.3455C16.051 13.3445 16.119 13.3191 16.173 13.2734C16.24 13.2185 16.291 13.1444 16.318 13.0611H16.436C16.384 13.2582 16.281 13.437 16.137 13.5782C16.03 13.6848 15.888 13.7468 15.738 13.7519C15.641 13.7509 15.546 13.7194 15.466 13.6625C15.375 13.6005 15.307 13.5111 15.27 13.4065C15.22 13.2399 15.199 13.0662 15.206 12.8924H15.207ZM15.318 23.1853H15.917V28.4414H19.089V28.9707H15.318V23.1853V23.1853ZM17.977 34.9501H17.737V34.3477C17.657 34.5366 17.523 34.6971 17.352 34.8079C17.172 34.9206 16.963 34.9775 16.752 34.9725C16.455 34.9887 16.164 34.878 15.952 34.6657C15.759 34.4615 15.662 34.1669 15.662 33.7829V32.1412H15.912V33.7605C15.912 34.0764 15.987 34.3162 16.137 34.4818C16.304 34.6535 16.535 34.7439 16.772 34.7297C17.036 34.7418 17.293 34.6331 17.47 34.434C17.651 34.2105 17.743 33.9261 17.728 33.6376V32.1412H17.977V34.9511V34.9501ZM19.287 34.9501H19.037V30.9567H19.287V34.9501ZM21.365 34.9206C21.269 34.9552 21.169 34.9714 21.067 34.9714C20.872 34.9836 20.68 34.9105 20.542 34.7693C20.411 34.6128 20.345 34.4117 20.357 34.2065V32.3718H19.877V32.1402H20.357V31.5266H20.607V32.1402H21.437V32.3718H20.607V34.1801C20.597 34.3294 20.64 34.4777 20.73 34.5976C20.824 34.6971 20.957 34.75 21.093 34.7398C21.243 34.7449 21.389 34.689 21.498 34.5834L21.603 34.7723C21.536 34.8394 21.455 34.8902 21.365 34.9206V34.9206ZM24.583 34.9501H24.343V34.3477C24.263 34.5366 24.129 34.6971 23.958 34.8079C23.778 34.9206 23.569 34.9775 23.358 34.9725C23.061 34.9887 22.77 34.878 22.558 34.6657C22.365 34.4615 22.268 34.1669 22.268 33.7829V32.1412H22.518V33.7605C22.518 34.0764 22.593 34.3162 22.743 34.4818C22.91 34.6535 23.141 34.7439 23.378 34.7297C23.642 34.7418 23.899 34.6331 24.076 34.434C24.257 34.2105 24.348 33.9261 24.334 33.6376V32.1412H24.583V34.9511V34.9501ZM24.041 26.4991V23.1843H24.64V26.4737C24.64 27.1462 24.788 27.647 25.085 27.9782C25.382 28.3083 25.811 28.4739 26.372 28.4739C26.939 28.4739 27.37 28.3083 27.667 27.9782C27.964 27.648 28.112 27.1462 28.112 26.4737V23.1843H28.695V26.498C28.695 27.3189 28.491 27.9446 28.084 28.3744C27.677 28.8041 27.106 29.0194 26.372 29.0194C25.638 29.0194 25.066 28.8051 24.656 28.3754C24.246 27.9457 24.041 27.3199 24.041 26.4991V26.4991ZM26.879 32.383L26.819 32.3779C26.56 32.3647 26.309 32.4724 26.139 32.6715C25.976 32.8676 25.894 33.1388 25.894 33.4872V34.9511H25.644V32.1412H25.884V32.7548C25.956 32.5608 26.087 32.3952 26.259 32.2834C26.446 32.1697 26.661 32.1128 26.879 32.1199V32.383V32.383ZM29.75 33.6102H27.504C27.507 33.8154 27.56 34.0155 27.659 34.1943C27.751 34.3609 27.887 34.497 28.052 34.5895C28.372 34.7601 28.75 34.7754 29.082 34.6301C29.225 34.5651 29.35 34.4645 29.445 34.3365L29.59 34.5143C29.477 34.6616 29.33 34.7774 29.162 34.8536C28.757 35.0314 28.294 35.008 27.909 34.7886C27.707 34.6677 27.542 34.493 27.431 34.2827C27.313 34.0561 27.254 33.8022 27.258 33.5451C27.254 33.2902 27.31 33.0382 27.42 32.8107C27.52 32.6024 27.675 32.4267 27.868 32.3017C28.26 32.0589 28.753 32.0579 29.146 32.2987C29.337 32.4216 29.491 32.5963 29.591 32.8015C29.702 33.0291 29.758 33.279 29.754 33.533L29.749 33.6081L29.75 33.6102ZM30.411 17.3623H31.89C32.394 17.3623 32.789 17.4842 33.075 17.729C33.623 18.2522 33.65 19.1279 33.134 19.6846C33.115 19.7049 33.095 19.7252 33.075 19.7445C32.789 19.9873 32.394 20.1092 31.889 20.1082H30.828V21.376H30.411V17.3613V17.3623ZM30.499 23.1853H32.619C33.342 23.1853 33.908 23.362 34.318 23.7145C34.728 24.0671 34.933 24.5516 34.933 25.1693C34.974 26.0084 34.436 26.7652 33.638 26.9877L35.022 28.9707H34.367L33.072 27.1116C32.922 27.1279 32.77 27.137 32.619 27.136H31.098V28.9707H30.499V23.1853ZM31.479 31.1385C31.479 31.3905 31.288 31.5947 31.052 31.5947C30.816 31.5947 30.625 31.3905 30.625 31.1385C30.625 30.8866 30.816 30.6824 31.052 30.6824C31.288 30.6824 31.479 30.8866 31.479 31.1385ZM31.317 33.6518C31.317 34.8963 31.385 35.1147 31.062 35.1147C30.717 35.1147 30.784 34.9013 30.784 33.6498C30.784 33.6498 30.614 33.6345 30.614 33.4121C30.614 32.4886 30.489 31.9198 31.048 31.9198C31.628 31.9198 31.501 32.5222 31.501 33.4131C31.514 33.5299 31.432 33.6366 31.318 33.6518H31.317ZM35.666 33.1683C35.666 33.6559 35.451 34.0907 35.115 34.3863L35.509 34.8455C35.525 34.8648 35.523 34.8932 35.505 34.9095C35.497 34.9166 35.487 34.9206 35.476 34.9206C35.463 34.9206 35.451 34.9145 35.442 34.9054L35.046 34.4442C34.778 34.6535 34.444 34.7804 34.08 34.7804C33.204 34.7804 32.493 34.0592 32.493 33.1693C32.493 32.2794 33.203 31.5571 34.079 31.5571C34.955 31.5571 35.666 32.2784 35.666 33.1683ZM40.355 28.9707H36.349V23.1853H40.233V23.7145H36.947V25.7727H39.876V26.2928H36.947V28.4414H40.354V28.9707H40.355ZM38.674 18.1201V21.377H38.256V17.3623H38.6L41.146 20.6192V17.3623H41.558V21.377H41.214L38.674 18.1201ZM45.437 27.4428C45.44 27.7262 45.359 28.0036 45.206 28.2403C45.031 28.4973 44.784 28.6964 44.498 28.8102C44.125 28.9605 43.726 29.0326 43.325 29.0215C42.913 29.0225 42.504 28.9524 42.115 28.8142C41.778 28.7076 41.472 28.5206 41.221 28.2687L41.456 27.7973C41.689 28.0249 41.968 28.1976 42.273 28.3053C42.609 28.4343 42.966 28.4993 43.325 28.4993C43.832 28.4993 44.212 28.4038 44.466 28.2138C44.707 28.0483 44.85 27.7699 44.846 27.4743C44.856 27.2691 44.781 27.0679 44.64 26.9206C44.496 26.7784 44.323 26.6697 44.134 26.6027C43.861 26.5062 43.582 26.4249 43.301 26.3589C42.955 26.2745 42.614 26.1679 42.281 26.0409C42.03 25.9403 41.806 25.7808 41.63 25.5736C41.449 25.3643 41.359 25.0809 41.359 24.7223C41.356 24.4399 41.435 24.1625 41.586 23.9248C41.757 23.6678 41.999 23.4687 42.282 23.3509C42.651 23.1964 43.048 23.1233 43.447 23.1365C43.769 23.1365 44.089 23.1822 44.398 23.2726C44.685 23.3529 44.957 23.4799 45.203 23.6485L45.002 24.1371C44.768 23.9787 44.511 23.8578 44.241 23.7775C43.984 23.6993 43.717 23.6587 43.448 23.6577C42.952 23.6577 42.578 23.7552 42.327 23.9512C42.087 24.125 41.946 24.4074 41.951 24.7071C41.942 24.9143 42.016 25.1154 42.157 25.2648C42.303 25.4111 42.48 25.5208 42.675 25.5868C42.883 25.661 43.162 25.7422 43.513 25.8306C43.855 25.9129 44.191 26.0155 44.521 26.1404C44.772 26.239 44.995 26.3975 45.172 26.6037C45.36 26.8404 45.455 27.1391 45.439 27.4428H45.437ZM44.2 19.9893V21.378H43.788V19.9893L42.207 17.3633H42.653L44.008 19.6165L45.363 17.3633H45.781L44.201 19.9893H44.2Z" fill="black"/>
<path d="M34.1037 11.0558C34.0597 10.9329 33.9817 10.8262 33.8787 10.747C33.7897 10.6759 33.6797 10.6363 33.5657 10.6353C33.3907 10.6393 33.2257 10.7216 33.1167 10.8618C32.9747 11.0406 32.8937 11.261 32.8857 11.4896H34.1667C34.1667 11.3433 34.1447 11.197 34.1037 11.0558Z" fill="black"/>
<path d="M34.0788 31.6538C33.2568 31.6538 32.5908 32.3304 32.5908 33.1654C32.5908 34.0005 33.2568 34.677 34.0788 34.677C34.4188 34.677 34.7308 34.5602 34.9808 34.3662L34.4668 33.7678C34.4498 33.7496 34.4508 33.7211 34.4688 33.7038C34.4868 33.6866 34.5148 33.6876 34.5318 33.7059L34.5338 33.7079L35.0498 34.3093C35.3658 34.032 35.5668 33.6226 35.5668 33.1654C35.5668 32.3304 34.8998 31.6548 34.0788 31.6538Z" fill="black"/>
<path d="M34.6377 19.957H36.5337L35.5857 17.8013L34.6377 19.957Z" fill="black"/>
<path d="M4.15904 44.0587C4.47304 44.1329 4.69404 44.2233 4.82104 44.3289C4.99804 44.4691 5.10004 44.6865 5.09504 44.9141C5.09904 45.1599 4.98704 45.3926 4.79504 45.5419C4.54904 45.742 4.19204 45.8416 3.72304 45.8416H2.04004V45.7502C2.14604 45.7583 2.25204 45.743 2.35104 45.7065C2.40004 45.6831 2.44104 45.6425 2.46604 45.5937C2.49604 45.482 2.50704 45.3662 2.49904 45.2514V43.0682C2.50704 42.9524 2.49604 42.8366 2.46604 42.7249C2.44104 42.6751 2.40004 42.6355 2.35004 42.6121C2.25104 42.5766 2.14504 42.5623 2.04004 42.5695V42.478H3.62604C4.00504 42.478 4.27404 42.5126 4.43204 42.5806C4.58304 42.6436 4.71304 42.7513 4.80604 42.8884C4.89404 43.0164 4.94204 43.1678 4.94304 43.3243C4.94304 43.4858 4.88104 43.6412 4.77004 43.757C4.65404 43.883 4.45104 43.9836 4.16004 44.0577L4.15904 44.0587ZM3.27004 44.1847V45.2636L3.26804 45.3875C3.25004 45.5185 3.34104 45.6404 3.47004 45.6577C3.49104 45.6608 3.51304 45.6608 3.53404 45.6577C3.65904 45.6587 3.78304 45.6282 3.89404 45.5693C4.00204 45.5124 4.09004 45.423 4.14704 45.3133C4.20604 45.1985 4.23704 45.0695 4.23504 44.9405C4.23704 44.7922 4.20004 44.6459 4.12804 44.5179C4.06204 44.398 3.95804 44.3056 3.83304 44.2558C3.65204 44.1979 3.46104 44.1735 3.27104 44.1837L3.27004 44.1847ZM3.27004 43.9917C3.44404 44.0018 3.61804 43.9744 3.78204 43.9124C3.88604 43.8647 3.97404 43.7875 4.03504 43.6889C4.15204 43.4594 4.15204 43.1861 4.03604 42.9565C3.97704 42.86 3.89104 42.7848 3.78804 42.7391C3.62204 42.6802 3.44604 42.6558 3.27004 42.667V43.9917Z" fill="white"/>
<path d="M6.63207 42.6725V44.0419H6.69807C6.87407 44.0571 7.04507 43.9819 7.15507 43.8407C7.26407 43.6619 7.32607 43.4577 7.33607 43.2485H7.42907V45.009H7.33607C7.32407 44.8454 7.28207 44.6859 7.21307 44.5376C7.16707 44.434 7.09107 44.3476 6.99507 44.2918C6.88107 44.244 6.75707 44.2217 6.63407 44.2288V45.1756C6.62807 45.2894 6.63607 45.4031 6.65707 45.5159C6.67407 45.5586 6.70407 45.5941 6.74407 45.6175C6.80807 45.649 6.87807 45.6622 6.94907 45.6571H7.14707C7.41207 45.6703 7.67407 45.5941 7.89007 45.4387C8.09207 45.268 8.23307 45.0344 8.29207 44.7743H8.38207L8.23307 45.843H5.37207V45.7516H5.48207C5.56207 45.7556 5.64207 45.7374 5.71407 45.6998C5.75907 45.6734 5.79407 45.6307 5.81207 45.5809C5.83707 45.4783 5.84607 45.3737 5.83907 45.268V43.0555C5.84207 42.962 5.83907 42.8685 5.82707 42.7751C5.81307 42.7212 5.78207 42.6735 5.73707 42.641C5.66207 42.5912 5.57307 42.5668 5.48307 42.5719H5.37307V42.4805H8.14407V43.475H8.05107C8.02607 43.2871 7.95807 43.1083 7.85207 42.9518C7.75607 42.8391 7.63007 42.7578 7.48907 42.7182C7.32107 42.6806 7.14807 42.6654 6.97607 42.6735H6.63407L6.63207 42.6725Z" fill="white"/>
<path d="M10.9533 42.402L10.9803 43.5235H10.8803C10.8443 43.2635 10.7213 43.0247 10.5323 42.8449C10.3723 42.6844 10.1573 42.592 9.93326 42.5879C9.78926 42.5798 9.64826 42.6286 9.53926 42.723C9.44826 42.8002 9.39526 42.914 9.39426 43.0339C9.39326 43.104 9.41126 43.172 9.44526 43.232C9.50526 43.3234 9.58226 43.4016 9.67226 43.4626C9.84326 43.5703 10.0203 43.6668 10.2023 43.7531C10.5893 43.9461 10.8513 44.129 10.9863 44.3007C11.1183 44.4683 11.1883 44.6766 11.1863 44.8909C11.1873 45.1693 11.0693 45.4344 10.8623 45.6162C10.6373 45.8225 10.3433 45.9312 10.0413 45.92C9.94226 45.92 9.84326 45.9098 9.74526 45.8875C9.62626 45.857 9.50926 45.8164 9.39626 45.7656C9.33526 45.7371 9.27026 45.7199 9.20326 45.7158C9.15426 45.7178 9.10726 45.7351 9.06926 45.7656C9.01826 45.8042 8.97826 45.856 8.95426 45.9169H8.86426V44.6471H8.95426C9.00126 44.9579 9.14726 45.2444 9.36826 45.4649C9.54526 45.6406 9.78126 45.7412 10.0283 45.7463C10.1873 45.7544 10.3433 45.7006 10.4643 45.5949C10.6343 45.4517 10.6763 45.2048 10.5643 45.0118C10.5153 44.9295 10.4513 44.8574 10.3753 44.7995C10.2333 44.6989 10.0833 44.6105 9.92626 44.5374C9.69826 44.4307 9.48026 44.3017 9.27726 44.1534C9.15326 44.0569 9.05026 43.936 8.97326 43.7988C8.90226 43.6668 8.86526 43.5185 8.86726 43.3671C8.86426 43.107 8.96926 42.8581 9.15826 42.6824C9.35526 42.4924 9.61926 42.3908 9.89026 42.4C9.99526 42.4 10.1003 42.4132 10.2023 42.4396C10.2993 42.467 10.3923 42.5046 10.4823 42.5503C10.5533 42.592 10.6323 42.6194 10.7133 42.6306C10.7503 42.6326 10.7873 42.6184 10.8133 42.591C10.8503 42.5331 10.8733 42.468 10.8813 42.4H10.9543L10.9533 42.402Z" fill="white"/>
<path d="M14.5404 42.479V43.3892H14.4524C14.4204 43.2297 14.3614 43.0763 14.2794 42.9372C14.2124 42.8427 14.1224 42.7665 14.0184 42.7177C13.9144 42.6812 13.8034 42.6659 13.6934 42.673H13.4464V45.2676C13.4394 45.3763 13.4484 45.485 13.4744 45.5896C13.4984 45.6384 13.5364 45.678 13.5844 45.7024C13.6534 45.7379 13.7304 45.7552 13.8074 45.7511H13.9174V45.8426H12.1834V45.7511H12.2934C12.3734 45.7552 12.4534 45.7369 12.5254 45.6993C12.5714 45.6719 12.6064 45.6302 12.6254 45.5805C12.6504 45.4779 12.6594 45.3732 12.6524 45.2676V42.673H12.4134C12.1904 42.673 12.0284 42.7208 11.9274 42.8173C11.7764 42.9717 11.6814 43.1739 11.6584 43.3902H11.5654V42.48H14.5394L14.5404 42.479Z" fill="white"/>
<path d="M19.2171 42.4019V43.5681H19.1221C19.0691 43.2958 18.9281 43.05 18.7221 42.8681C18.5361 42.7097 18.3011 42.6233 18.0581 42.6253C17.8551 42.6243 17.6561 42.6873 17.4891 42.8062C17.3201 42.923 17.1881 43.0876 17.1111 43.2796C17.0061 43.5437 16.9531 43.8271 16.9571 44.1126C16.9541 44.3909 16.9921 44.6683 17.0691 44.9344C17.1261 45.1539 17.2491 45.3499 17.4201 45.4952C17.6001 45.6283 17.8181 45.6953 18.0401 45.6852C18.2391 45.6872 18.4361 45.6394 18.6131 45.546C18.8231 45.422 19.0091 45.2595 19.1611 45.0675V45.358C18.9981 45.5389 18.8011 45.6841 18.5811 45.7857C18.3581 45.8782 18.1181 45.9239 17.8771 45.9188C17.5511 45.9249 17.2281 45.8507 16.9361 45.7034C16.6681 45.5663 16.4471 45.3499 16.3011 45.0838C16.1541 44.8217 16.0771 44.525 16.0781 44.2233C16.0831 43.5671 16.4331 42.9646 16.9951 42.6406C17.2681 42.4841 17.5761 42.4019 17.8901 42.4029C18.1431 42.4069 18.3931 42.4587 18.6271 42.5563C18.7181 42.5989 18.8141 42.6284 18.9131 42.6457C18.9641 42.6457 19.0131 42.6253 19.0481 42.5878C19.0921 42.536 19.1181 42.4709 19.1221 42.4029H19.2171V42.4019Z" fill="white"/>
<path d="M21.4221 42.4327C21.9491 42.4124 22.3781 42.5688 22.7071 42.901C23.0351 43.2291 23.2141 43.6812 23.2011 44.1485C23.2071 44.5559 23.0771 44.952 22.8321 45.2741C22.5061 45.7038 22.0471 45.9192 21.4531 45.9192C20.8571 45.9192 20.3971 45.7139 20.0711 45.3046C19.8131 44.9785 19.6761 44.5701 19.6851 44.1515C19.6731 43.6822 19.8551 43.2291 20.1871 42.903C20.5131 42.5729 20.9621 42.4022 21.4211 42.4327H21.4221ZM21.4511 42.5912C21.1481 42.5912 20.9181 42.7486 20.7601 43.0625C20.6311 43.3206 20.5671 43.6913 20.5671 44.1739C20.5671 44.7479 20.6661 45.1715 20.8651 45.4458C20.9981 45.6347 21.2171 45.7434 21.4461 45.7333C21.5951 45.7383 21.7431 45.6957 21.8661 45.6093C22.0261 45.4793 22.1431 45.3015 22.2011 45.1024C22.2901 44.8078 22.3301 44.501 22.3211 44.1932C22.3211 43.7482 22.2801 43.416 22.1991 43.1946C22.1431 43.0107 22.0351 42.8482 21.8881 42.7273C21.7611 42.6359 21.6081 42.5881 21.4521 42.5901L21.4511 42.5912Z" fill="white"/>
<path d="M25.7635 44.6967L26.6615 42.479H28.0095V42.5704H27.9025C27.8215 42.5664 27.7405 42.5847 27.6685 42.6222C27.6245 42.6497 27.5905 42.6903 27.5705 42.7391C27.5455 42.8407 27.5365 42.9453 27.5435 43.0489V45.2666C27.5365 45.3753 27.5455 45.4829 27.5705 45.5886C27.5935 45.6374 27.6325 45.677 27.6805 45.7014C27.7495 45.7369 27.8255 45.7532 27.9025 45.7501H28.0095V45.8415H26.2805V45.7501H26.3875C26.4685 45.7542 26.5495 45.7359 26.6215 45.6983C26.6665 45.6709 26.7005 45.6292 26.7195 45.5794C26.7445 45.4768 26.7535 45.3722 26.7465 45.2666V42.7736L25.4765 45.8415H25.4175L24.1285 42.796V45.165C24.1255 45.2666 24.1285 45.3681 24.1405 45.4697C24.1615 45.552 24.2105 45.6231 24.2785 45.6719C24.3795 45.7318 24.4955 45.7593 24.6115 45.7501V45.8415H23.4795V45.7501H23.5135C23.5835 45.7521 23.6535 45.74 23.7185 45.7146C23.7745 45.6942 23.8245 45.6587 23.8625 45.612C23.8995 45.5581 23.9255 45.4961 23.9385 45.4311C23.9415 45.4128 23.9435 45.3285 23.9435 45.1782V43.0509C23.9505 42.9443 23.9415 42.8366 23.9165 42.732C23.8925 42.6832 23.8545 42.6446 23.8065 42.6202C23.7375 42.5847 23.6615 42.5684 23.5845 42.5714H23.4795V42.48H24.8325L25.7625 44.6967H25.7635Z" fill="white"/>
<path d="M29.4486 44.3187V45.2513C29.4406 45.3671 29.4516 45.4829 29.4816 45.5947C29.5066 45.6445 29.5476 45.6851 29.5986 45.7074C29.6976 45.742 29.8026 45.7572 29.9076 45.7501V45.8415H28.2256V45.7501C28.3316 45.7582 28.4376 45.743 28.5366 45.7064C28.5856 45.6831 28.6266 45.6424 28.6516 45.5937C28.6816 45.4819 28.6926 45.3661 28.6846 45.2513V43.0692C28.6926 42.9534 28.6816 42.8376 28.6516 42.7259C28.6266 42.6761 28.5856 42.6365 28.5356 42.6131C28.4366 42.5775 28.3306 42.5633 28.2256 42.5704V42.479H29.6686C30.1436 42.479 30.4846 42.5654 30.6916 42.737C30.8896 42.8904 31.0046 43.1292 31.0016 43.3821C31.0066 43.5873 30.9346 43.7874 30.8016 43.9429C30.6556 44.1054 30.4626 44.2172 30.2496 44.2598C29.9856 44.3086 29.7166 44.3279 29.4486 44.3187ZM29.4486 42.672V44.1257C29.5026 44.1288 29.5426 44.1308 29.5706 44.1308C29.7426 44.142 29.9096 44.076 30.0296 43.951C30.1366 43.8311 30.1906 43.6452 30.1906 43.3943C30.1906 43.1434 30.1366 42.9615 30.0296 42.8457C29.9006 42.7218 29.7256 42.6588 29.5486 42.672H29.4486Z" fill="white"/>
<path d="M32.8623 44.8849H31.6933L31.5543 45.212C31.5143 45.2963 31.4913 45.3887 31.4863 45.4822C31.4813 45.5675 31.5253 45.6488 31.5983 45.6904C31.7023 45.7291 31.8123 45.7494 31.9233 45.7504V45.8418H30.8223V45.7504C30.9343 45.7362 31.0373 45.6833 31.1153 45.6C31.2333 45.4456 31.3293 45.275 31.3983 45.0931L32.5823 42.4092H32.6283L33.8223 45.1673C33.8873 45.3471 33.9823 45.5137 34.1033 45.661C34.1693 45.7169 34.2523 45.7484 34.3373 45.7504V45.8418H32.7353V45.7504H32.8013C32.8953 45.7585 32.9883 45.7392 33.0723 45.6955C33.1083 45.6691 33.1283 45.6265 33.1263 45.5818C33.1263 45.5503 33.1213 45.5198 33.1113 45.4903C33.1083 45.4751 33.0833 45.4131 33.0383 45.3044L32.8623 44.8849ZM32.7793 44.701L32.2863 43.5429L31.7783 44.701H32.7793Z" fill="white"/>
<path d="M35.6378 42.479L37.2708 44.5646V43.119C37.2708 42.9168 37.2428 42.7807 37.1858 42.7096C37.1078 42.6141 36.9768 42.5674 36.7928 42.5704V42.479H37.8868V42.5704C37.7898 42.5775 37.6938 42.6009 37.6048 42.6415C37.5528 42.6751 37.5138 42.7248 37.4928 42.7827C37.4598 42.8914 37.4468 43.0052 37.4528 43.119V45.9187H37.3698L35.1308 43.118V45.2554C35.1308 45.4484 35.1748 45.5794 35.2618 45.6475C35.3478 45.7146 35.4528 45.7501 35.5608 45.7491H35.6388V45.8405H34.4648V45.7491C34.6468 45.7471 34.7738 45.7095 34.8458 45.6353C34.9278 45.5276 34.9668 45.3915 34.9538 45.2564V42.8833L34.8828 42.7939C34.8328 42.7228 34.7698 42.6639 34.6968 42.6182C34.6238 42.5857 34.5448 42.5694 34.4648 42.5714V42.48H35.6388L35.6378 42.479Z" fill="white"/>
<path d="M39.8355 45.7501V45.8415H38.1045V45.7501H38.2145C38.2945 45.7542 38.3745 45.7359 38.4465 45.6983C38.4915 45.6719 38.5265 45.6292 38.5445 45.5794C38.5695 45.4768 38.5785 45.3722 38.5715 45.2666V43.054C38.5785 42.9453 38.5695 42.8376 38.5445 42.732C38.5215 42.6832 38.4835 42.6436 38.4355 42.6192C38.3675 42.5836 38.2915 42.5674 38.2145 42.5704H38.1045V42.479H39.8355V42.5704H39.7255C39.6455 42.5664 39.5655 42.5847 39.4935 42.6222C39.4475 42.6497 39.4125 42.6913 39.3935 42.7411C39.3685 42.8437 39.3595 42.9483 39.3665 43.054V45.2666C39.3595 45.3753 39.3695 45.484 39.3945 45.5886C39.4185 45.6374 39.4565 45.677 39.5045 45.7014C39.5725 45.7369 39.6485 45.7532 39.7255 45.7501H39.8355Z" fill="white"/>
<path d="M41.3118 42.6725V44.0419H41.3778C41.5538 44.0571 41.7258 43.9819 41.8348 43.8407C41.9438 43.6619 42.0058 43.4577 42.0158 43.2485H42.1088V45.009H42.0158C42.0038 44.8454 41.9618 44.6859 41.8928 44.5376C41.8468 44.434 41.7708 44.3476 41.6748 44.2918C41.5608 44.244 41.4368 44.2217 41.3138 44.2288V45.1756C41.3078 45.2894 41.3158 45.4031 41.3368 45.5159C41.3538 45.5586 41.3838 45.5941 41.4238 45.6175C41.4878 45.649 41.5578 45.6622 41.6288 45.6571H41.8268C42.3758 45.7069 42.8718 45.3249 42.9718 44.7743H43.0618L42.9128 45.843H40.0518V45.7516H40.1618C40.2418 45.7556 40.3218 45.7374 40.3938 45.6998C40.4388 45.6734 40.4738 45.6307 40.4918 45.5809C40.5168 45.4783 40.5258 45.3737 40.5188 45.268V43.0555C40.5218 42.962 40.5188 42.8685 40.5068 42.7751C40.4928 42.7212 40.4618 42.6735 40.4168 42.641C40.3418 42.5912 40.2528 42.5668 40.1628 42.5719H40.0528V42.4805H42.8238V43.475H42.7308C42.7058 43.2871 42.6378 43.1083 42.5318 42.9518C42.4358 42.8391 42.3098 42.7578 42.1688 42.7182C42.0008 42.6806 41.8278 42.6654 41.6558 42.6735H41.3138L41.3118 42.6725Z" fill="white"/>
<path d="M45.6329 42.402L45.6599 43.5235H45.5599C45.5239 43.2635 45.4009 43.0247 45.2119 42.8449C45.0519 42.6844 44.8369 42.592 44.6129 42.5879C44.4689 42.5798 44.3279 42.6286 44.2189 42.723C44.1279 42.8002 44.0749 42.914 44.0739 43.0339C44.0729 43.104 44.0899 43.172 44.1249 43.232C44.1849 43.3234 44.2619 43.4016 44.3519 43.4626C44.5229 43.5703 44.6999 43.6668 44.8819 43.7531C45.2689 43.9461 45.5309 44.129 45.6659 44.3007C45.7979 44.4683 45.8679 44.6766 45.8659 44.8909C45.8669 45.1693 45.7489 45.4344 45.5429 45.6162C45.3179 45.8225 45.0239 45.9312 44.7209 45.92C44.6219 45.92 44.5229 45.9098 44.4259 45.8875C44.3069 45.857 44.1899 45.8164 44.0769 45.7656C44.0159 45.7371 43.9509 45.7199 43.8839 45.7158C43.8349 45.7178 43.7889 45.7351 43.7499 45.7656C43.6979 45.8042 43.6589 45.856 43.6349 45.9169H43.5449V44.6471H43.6349C43.6819 44.9579 43.8279 45.2444 44.0489 45.4649C44.2259 45.6406 44.4619 45.7412 44.7089 45.7463C44.8679 45.7544 45.0239 45.7006 45.1449 45.5949C45.3149 45.4517 45.3569 45.2048 45.2449 45.0118C45.1959 44.9295 45.1319 44.8574 45.0559 44.7995C44.9139 44.6989 44.7639 44.6115 44.6069 44.5374C44.3789 44.4307 44.1609 44.3017 43.9579 44.1534C43.8339 44.0569 43.7309 43.937 43.6539 43.7988C43.5829 43.6668 43.5459 43.5185 43.5479 43.3671C43.5439 43.107 43.6499 42.8581 43.8379 42.6824C44.0349 42.4924 44.2989 42.3908 44.5709 42.4C44.6759 42.4 44.7809 42.4132 44.8829 42.4396C44.9789 42.467 45.0729 42.5046 45.1629 42.5503C45.2339 42.592 45.3129 42.6194 45.3939 42.6306C45.4309 42.6326 45.4679 42.6184 45.4939 42.591C45.5309 42.5331 45.5539 42.468 45.5619 42.4H45.6359L45.6329 42.402Z" fill="white"/>
</g>
<defs>
<clipPath id="clip0_147_9012">
<rect width="48" height="64" fill="white"/>
</clipPath>
</defs>
</svg>