<svg xmlns="http://www.w3.org/2000/svg" width="47" height="63" viewBox="0 0 47 63" fill="none">
<g clip-path="url(#clip0_147_8871)">
<path d="M5.96574 12.5824C5.92021 12.4283 5.88755 12.3063 5.86775 12.2173C5.78658 12.5354 5.55398 13.3226 5.16992 14.5779H6.57548C6.21419 13.4016 6.01029 12.7364 5.96475 12.5824H5.96574Z" fill="black"/>
<path d="M7.03557 41.9517C7.03557 40.7814 6.52383 40.1953 5.50035 40.1963H4.8916V43.7462H5.38256C6.48423 43.7462 7.03557 43.148 7.03557 41.9527V41.9517Z" fill="black"/>
<path d="M6.36431 6.60283C6.53654 6.4808 6.62266 6.28975 6.62266 6.02868C6.62266 5.76762 6.53456 5.58557 6.35837 5.47654C6.18218 5.36751 5.90998 5.3125 5.54078 5.3125H5.19434V6.78487H5.56255C5.92384 6.78487 6.19109 6.72386 6.36332 6.60183L6.36431 6.60283Z" fill="black"/>
<path d="M3.25781 53.6367H3.98138L4.1546 52.7715H3.43103L3.25781 53.6367Z" fill="black"/>
<path d="M0 0V60.2843H11.5899V0H0ZM4.05137 4.36511H5.62321C6.35668 4.36511 6.8991 4.50014 7.25049 4.76921C7.60188 5.03828 7.77807 5.44838 7.77807 5.99752C7.78203 6.3036 7.69096 6.60268 7.51576 6.85274C7.32671 7.11381 7.07034 7.31686 6.77438 7.43989C7.58604 8.6652 8.11461 9.4574 8.36108 9.81449H7.09212L5.80435 7.72296H5.19561V9.81449H4.05137V4.36511ZM5.16393 11.3709H6.56256L8.47293 16.8443H7.24059L6.84961 15.5469H4.88282L4.49184 16.8443H3.2595L5.16294 11.3709H5.16393ZM7.2297 21.1264V18.5457H8.25913V23.9971H6.80507L4.45819 19.873H4.42453C4.47105 20.6012 4.49481 21.1214 4.49481 21.4314V23.9961H3.47232V18.5447H4.9145L7.25742 22.6277H7.28315C7.24653 21.9196 7.22772 21.4184 7.22772 21.1254L7.2297 21.1264ZM3.74848 39.248H5.44207C6.32302 39.248 7.006 39.483 7.49399 39.9521C7.98098 40.4223 8.22448 41.0784 8.22448 41.9207C8.22448 42.8179 7.97207 43.5051 7.46627 43.9822C6.96047 44.4593 6.23097 44.6984 5.27578 44.6984H3.74848V39.247V39.248ZM7.39896 34.5088V35.456H5.57273V36.8614H7.53556V37.8156H4.42849V32.3642H7.53556V33.3115H5.57273V34.5088H7.39896ZM7.07628 30.9949L5.66281 28.6973L5.17977 29.0474V30.9939H4.03553V25.5425H5.17977V28.0371L5.63014 27.396L7.09113 25.5425H8.36009L6.47842 27.9561L8.37494 30.9949H7.07628ZM5.9845 52.7724H4.95508L4.78186 53.6376H5.73407V54.4058H4.63833L4.35425 55.9202H3.54259L3.83063 54.4058H3.11499L2.83487 55.9202H2.04202L2.31521 54.4058H1.43525V53.6376H2.45675L2.62997 52.7724H1.70052V51.9932H2.76657L3.05065 50.4758H3.85835L3.57427 51.9932H4.30476L4.5928 50.4758H5.38565L5.09761 51.9932H5.98351V52.7724H5.9845ZM10.2239 51.199L8.1839 55.9192H6.98819L9.01337 51.4451H6.35272V50.4758H10.2229V51.199H10.2239Z" fill="black"/>
<path d="M0.503906 62.1836C0.503906 62.0425 0.54053 61.9035 0.609818 61.7805C0.679106 61.6564 0.780068 61.5544 0.901817 61.4844C1.28389 61.2603 1.77485 61.3914 1.99657 61.7775C2.21829 62.1636 2.08862 62.6597 1.70655 62.8838C1.32447 63.1078 0.833519 62.9768 0.611797 62.5907C0.54053 62.4667 0.503906 62.3266 0.503906 62.1836ZM0.615757 62.1836C0.615757 62.5677 0.923593 62.8778 1.30369 62.8788C1.42445 62.8788 1.54323 62.8468 1.64716 62.7857C1.75109 62.7247 1.83819 62.6377 1.89857 62.5327C2.0223 62.3176 2.0223 62.0515 1.89857 61.8365C1.83819 61.7315 1.75208 61.6434 1.64815 61.5824C1.43533 61.4574 1.17204 61.4574 0.959227 61.5824C0.855295 61.6434 0.76819 61.7305 0.707811 61.8355C0.646441 61.9405 0.613777 62.0615 0.615757 62.1836ZM1.34724 61.8315C1.26805 61.8275 1.19184 61.8625 1.14235 61.9245C1.09087 62.0005 1.06514 62.0916 1.07009 62.1836C1.06316 62.2776 1.08691 62.3716 1.1374 62.4506C1.18887 62.5117 1.26508 62.5437 1.34427 62.5377C1.42148 62.5347 1.4967 62.5177 1.56896 62.4897V62.6227C1.53531 62.6367 1.49967 62.6497 1.46404 62.6587C1.42247 62.6697 1.37891 62.6747 1.33635 62.6737C1.21658 62.6807 1.09978 62.6337 1.01961 62.5437C0.94042 62.4406 0.900827 62.3126 0.908746 62.1826C0.901817 62.0525 0.94438 61.9255 1.02654 61.8255C1.10869 61.7355 1.22648 61.6875 1.34724 61.6935C1.4383 61.6935 1.52838 61.7155 1.60855 61.7585L1.54718 61.8855C1.48483 61.8525 1.41653 61.8345 1.34724 61.8315Z" fill="black"/>
<path d="M4.42678 62.9687H3.40527V62.8156L3.81506 62.3995C3.90316 62.3135 3.98531 62.2225 4.06153 62.1264C4.09815 62.0774 4.12785 62.0244 4.15061 61.9674C4.17041 61.9144 4.18031 61.8574 4.18031 61.8014C4.18427 61.7273 4.15655 61.6543 4.10508 61.6023C4.04767 61.5503 3.97244 61.5243 3.89524 61.5293C3.83288 61.5293 3.77052 61.5403 3.71212 61.5613C3.64184 61.5903 3.5775 61.6293 3.5191 61.6783L3.42606 61.5573C3.55573 61.4423 3.72202 61.3783 3.89425 61.3772C4.01897 61.3702 4.14171 61.4103 4.23772 61.4903C4.32185 61.5683 4.36739 61.6793 4.36244 61.7944C4.36145 61.8984 4.33274 62.0004 4.27929 62.0894C4.19219 62.2255 4.08726 62.3505 3.96849 62.4595L3.62798 62.7956V62.8046H4.42777V62.9687H4.42678Z" fill="black"/>
<path d="M5.94072 62.1815C5.95458 62.3925 5.91103 62.6026 5.81402 62.7897C5.66456 63.0037 5.37157 63.0547 5.15975 62.9037C5.11422 62.8717 5.07462 62.8307 5.04295 62.7847C4.94496 62.5996 4.89942 62.3905 4.91229 62.1815C4.91229 61.9084 4.95485 61.7054 5.03899 61.5723C5.18944 61.3593 5.48342 61.3093 5.69425 61.4623C5.7388 61.4943 5.77839 61.5353 5.80907 61.5813C5.90707 61.7654 5.9526 61.9734 5.94072 62.1815ZM5.09145 62.1815C5.08155 62.3515 5.10828 62.5226 5.17163 62.6806C5.24388 62.8227 5.4171 62.8777 5.55766 62.8047C5.61111 62.7767 5.65466 62.7326 5.68139 62.6786C5.7873 62.3565 5.7873 62.0085 5.68139 61.6854C5.60913 61.5423 5.43591 61.4863 5.29535 61.5593C5.24289 61.5863 5.19934 61.6304 5.17163 61.6834C5.10828 61.8414 5.08155 62.0115 5.09145 62.1815Z" fill="black"/>
<path d="M7.07099 62.9688H6.89875V61.8495C6.89875 61.7565 6.90172 61.6685 6.90766 61.5855C6.89282 61.6005 6.87599 61.6165 6.85817 61.6325C6.84036 61.6485 6.75523 61.7185 6.60478 61.8425L6.51074 61.7205L6.92251 61.3994H7.07099V62.9698V62.9688Z" fill="black"/>
<path d="M8.12088 62.9688L8.76526 61.5625H7.91797V61.3984H8.95234V61.5415L8.31687 62.9698H8.12088V62.9688Z" fill="black"/>
<path d="M10.843 62.9688H10.6619V61.5605H10.1699V61.3984H11.3349V61.5605H10.843V62.9688Z" fill="black"/>
<path d="M11.7886 61.4725C11.7856 61.4395 11.7965 61.4075 11.8183 61.3825C11.8608 61.3445 11.9242 61.3445 11.9657 61.3825C11.9885 61.4065 11.9994 61.4385 11.9964 61.4715C11.9994 61.5045 11.9875 61.5376 11.9657 61.5616C11.9459 61.5806 11.9202 61.5916 11.8925 61.5906C11.8648 61.5906 11.8381 61.5806 11.8183 61.5616C11.7965 61.5366 11.7856 61.5045 11.7886 61.4715V61.4725ZM11.9796 62.9689H11.8034V61.7916H11.9796V62.9689Z" fill="black"/>
<path d="M14.101 62.9689V62.2027C14.1069 62.1277 14.0851 62.0527 14.0416 61.9917C13.9931 61.9417 13.9258 61.9157 13.8565 61.9217C13.7654 61.9137 13.6753 61.9497 13.613 62.0177C13.5536 62.1037 13.5259 62.2077 13.5348 62.3118V62.9689H13.3586V62.2027C13.3645 62.1277 13.3427 62.0527 13.2992 61.9917C13.2507 61.9417 13.1824 61.9157 13.1131 61.9217C13.0211 61.9137 12.931 61.9507 12.8696 62.0217C12.8102 62.1207 12.7825 62.2357 12.7924 62.3508V62.9689H12.6162V61.7906H12.7597L12.7884 61.9517H12.7973C12.831 61.8947 12.8795 61.8477 12.9379 61.8176C13.0013 61.7846 13.0705 61.7686 13.1418 61.7696C13.3239 61.7696 13.4427 61.8366 13.4991 61.9697H13.508C13.5437 61.9077 13.5961 61.8567 13.6585 61.8236C13.7278 61.7866 13.806 61.7686 13.8842 61.7696C13.9931 61.7616 14.1 61.7986 14.1801 61.8727C14.2534 61.9657 14.289 62.0827 14.2781 62.2007V62.9689H14.101Z" fill="black"/>
<path d="M15.3953 62.9908C15.2429 62.9988 15.0944 62.9408 14.9875 62.8317C14.8826 62.7097 14.8282 62.5517 14.8381 62.3906C14.8292 62.2276 14.8786 62.0676 14.9766 61.9385C15.0687 61.8275 15.2063 61.7655 15.3488 61.7705C15.4805 61.7645 15.6072 61.8175 15.6953 61.9165C15.7843 62.0235 15.8299 62.1606 15.8229 62.3006V62.4136H15.0202C15.0152 62.5277 15.0519 62.6397 15.1241 62.7287C15.1964 62.8037 15.2983 62.8428 15.4013 62.8358C15.529 62.8358 15.6557 62.8077 15.7735 62.7567V62.9158C15.717 62.9418 15.6576 62.9608 15.5963 62.9748C15.53 62.9878 15.4626 62.9938 15.3953 62.9928V62.9908ZM15.3478 61.9195C15.2637 61.9155 15.1815 61.9495 15.1241 62.0115C15.0647 62.0836 15.0301 62.1736 15.0261 62.2676H15.6349C15.6408 62.1756 15.6151 62.0836 15.5606 62.0095C15.5072 61.9475 15.429 61.9145 15.3478 61.9195Z" fill="black"/>
<path d="M17.2393 62.9689V61.3975H17.4204V62.9689H17.2393Z" fill="black"/>
<path d="M18.8788 62.9687V62.2065C18.8848 62.1295 18.862 62.0525 18.8145 61.9915C18.7601 61.9395 18.6858 61.9145 18.6116 61.9205C18.5116 61.9115 18.4136 61.9485 18.3433 62.0205C18.278 62.1175 18.2483 62.2335 18.2582 62.3506V62.9687H18.082V61.7904H18.2256L18.2543 61.9515H18.2632C18.2998 61.8924 18.3532 61.8464 18.4156 61.8164C18.4839 61.7844 18.5581 61.7674 18.6334 61.7684C18.7482 61.7594 18.862 61.7964 18.9501 61.8714C19.0283 61.9615 19.0669 62.0805 19.056 62.1995V62.9677H18.8798L18.8788 62.9687Z" fill="black"/>
<path d="M20.1453 62.9907C19.9978 62.9997 19.8543 62.9417 19.7533 62.8337C19.6543 62.7077 19.6048 62.5486 19.6147 62.3886C19.6038 62.2235 19.6543 62.0615 19.7553 61.9315C19.8582 61.8204 20.0057 61.7614 20.1572 61.7704C20.2136 61.7704 20.27 61.7764 20.3254 61.7884C20.371 61.7974 20.4155 61.8114 20.4571 61.8314L20.4026 61.9835C20.3611 61.9675 20.3185 61.9535 20.275 61.9445C20.2354 61.9345 20.1938 61.9295 20.1522 61.9285C19.9156 61.9285 19.7969 62.0815 19.7969 62.3866C19.7889 62.5046 19.8196 62.6206 19.884 62.7197C19.9453 62.7987 20.0414 62.8427 20.1403 62.8357C20.2433 62.8347 20.3442 62.8127 20.4393 62.7727V62.9307C20.3472 62.9747 20.2462 62.9957 20.1443 62.9917L20.1453 62.9907Z" fill="black"/>
<path d="M20.9519 62.8557C20.9489 62.8157 20.9608 62.7767 20.9845 62.7457C21.0083 62.7197 21.0429 62.7067 21.0776 62.7087C21.1132 62.7067 21.1489 62.7197 21.1736 62.7457C21.1983 62.7757 21.2112 62.8157 21.2082 62.8547C21.2112 62.8937 21.1983 62.9328 21.1736 62.9618C21.1221 63.0108 21.0419 63.0118 20.9875 62.9658C20.9608 62.9358 20.9479 62.8957 20.9519 62.8557Z" fill="black"/>
<path d="M24.6721 61.3984V62.4147C24.6801 62.5717 24.6217 62.7258 24.5118 62.8368C24.39 62.9448 24.2317 62.9998 24.0703 62.9908C23.911 63.0008 23.7536 62.9448 23.6358 62.8358C23.5289 62.7208 23.4735 62.5677 23.4824 62.4107V61.3984H23.6635V62.4237C23.6566 62.5347 23.6952 62.6437 23.7694 62.7258C23.8555 62.8018 23.9684 62.8398 24.0822 62.8308C24.1931 62.8378 24.302 62.7998 24.3851 62.7248C24.4603 62.6428 24.4989 62.5327 24.491 62.4217V61.3984H24.6721Z" fill="black"/>
<path d="M26.0698 62.6475C26.0748 62.7476 26.0292 62.8426 25.9481 62.9006C25.8471 62.9656 25.7273 62.9966 25.6076 62.9896C25.4829 62.9966 25.3581 62.9706 25.2463 62.9156V62.7506C25.3037 62.7796 25.3641 62.8026 25.4264 62.8186C25.4868 62.8346 25.5492 62.8426 25.6115 62.8436C25.6848 62.8476 25.758 62.8326 25.8243 62.7986C25.8966 62.7556 25.9204 62.6615 25.8778 62.5885C25.8679 62.5715 25.855 62.5575 25.8402 62.5455C25.7689 62.4965 25.6917 62.4575 25.6096 62.4305C25.5294 62.4025 25.4512 62.3675 25.3779 62.3234C25.3364 62.2974 25.3017 62.2614 25.276 62.2194C25.2532 62.1774 25.2413 62.1294 25.2423 62.0804C25.2394 61.9894 25.2839 61.9033 25.3581 61.8533C25.4532 61.7933 25.564 61.7643 25.6759 61.7703C25.8026 61.7703 25.9273 61.7973 26.0441 61.8473L25.9817 61.9924C25.8818 61.9474 25.7739 61.9223 25.664 61.9193C25.5987 61.9153 25.5333 61.9293 25.4749 61.9594C25.4353 61.9814 25.4106 62.0234 25.4116 62.0684C25.4116 62.0974 25.4195 62.1254 25.4353 62.1494C25.4561 62.1754 25.4829 62.1974 25.5125 62.2124C25.5789 62.2454 25.6472 62.2744 25.7165 62.2994C25.8194 62.3305 25.9154 62.3825 25.9966 62.4535C26.0451 62.5055 26.0718 62.5755 26.0698 62.6475Z" fill="black"/>
<path d="M27.1112 62.9908C26.9587 62.9988 26.8102 62.9408 26.7033 62.8317C26.5984 62.7097 26.544 62.5517 26.5539 62.3906C26.545 62.2276 26.5945 62.0676 26.6925 61.9385C26.7845 61.8275 26.9221 61.7655 27.0656 61.7705C27.1973 61.7645 27.324 61.8175 27.4121 61.9165C27.5011 62.0235 27.5467 62.1606 27.5398 62.3006V62.4136H26.737C26.7321 62.5277 26.7687 62.6397 26.8409 62.7287C26.9132 62.8037 27.0151 62.8428 27.1181 62.8358C27.2458 62.8358 27.3725 62.8077 27.4903 62.7567V62.9158C27.4329 62.9418 27.3745 62.9608 27.3131 62.9748C27.2468 62.9878 27.1795 62.9938 27.1121 62.9928L27.1112 62.9908ZM27.0636 61.9195C26.9795 61.9155 26.8974 61.9495 26.8399 62.0115C26.7806 62.0836 26.7459 62.1736 26.742 62.2676H27.3507C27.3566 62.1756 27.3309 62.0836 27.2765 62.0095C27.223 61.9475 27.1448 61.9145 27.0636 61.9195Z" fill="black"/>
<path d="M28.8949 62.8108H28.885C28.8029 62.9308 28.6643 62.9988 28.5188 62.9898C28.3822 62.9968 28.2505 62.9388 28.1634 62.8318C28.0714 62.7017 28.0259 62.5427 28.0367 62.3827C28.0268 62.2216 28.0724 62.0616 28.1644 61.9306C28.2505 61.8225 28.3822 61.7625 28.5198 61.7695C28.6623 61.7615 28.7989 61.8275 28.883 61.9436H28.8969L28.889 61.8585L28.885 61.7755V61.2964H29.0612V62.9688H28.9177L28.8949 62.8108ZM28.5416 62.8408C28.6395 62.8498 28.7356 62.8128 28.8039 62.7418C28.8662 62.6467 28.8949 62.5337 28.885 62.4207V62.3827C28.8959 62.2576 28.8672 62.1326 28.8029 62.0256C28.7375 61.9496 28.6395 61.9095 28.5396 61.9185C28.4445 61.9145 28.3545 61.9606 28.302 62.0406C28.2406 62.1446 28.2119 62.2646 28.2199 62.3847C28.2119 62.5037 28.2406 62.6227 28.302 62.7248C28.3574 62.8018 28.4475 62.8458 28.5425 62.8408H28.5416Z" fill="black"/>
<path d="M30.6907 61.7915V62.5557C30.6848 62.6327 30.7076 62.7098 30.7561 62.7708C30.8105 62.8228 30.8848 62.8478 30.959 62.8418C31.059 62.8508 31.157 62.8138 31.2262 62.7408C31.2916 62.6437 31.3213 62.5277 31.3104 62.4107V61.7915H31.4866V62.9688H31.3411L31.3153 62.8108H31.3054C31.2688 62.8688 31.2173 62.9148 31.155 62.9438C31.0857 62.9758 31.0115 62.9918 30.9352 62.9898C30.8204 62.9988 30.7056 62.9618 30.6165 62.8878C30.5383 62.7978 30.4997 62.6798 30.5106 62.5607V61.7905H30.6898L30.6907 61.7915Z" fill="black"/>
<path d="M32.9199 62.9687V62.2065C32.9258 62.1295 32.903 62.0525 32.8555 61.9915C32.8011 61.9395 32.7268 61.9145 32.6526 61.9205C32.5526 61.9115 32.4546 61.9485 32.3844 62.0205C32.319 62.1175 32.2883 62.2335 32.2992 62.3506V62.9687H32.123V61.7904H32.2666L32.2953 61.9515H32.3042C32.3408 61.8924 32.3943 61.8464 32.4566 61.8164C32.5249 61.7834 32.5992 61.7674 32.6744 61.7684C32.7892 61.7594 32.903 61.7964 32.9911 61.8714C33.0693 61.9615 33.1079 62.0805 33.097 62.1995V62.9677H32.9208L32.9199 62.9687Z" fill="black"/>
<path d="M34.5131 62.8108H34.5032C34.421 62.9308 34.2825 62.9988 34.137 62.9898C34.0004 62.9968 33.8687 62.9388 33.7816 62.8318C33.6895 62.7017 33.644 62.5427 33.6549 62.3827C33.645 62.2216 33.6905 62.0616 33.7826 61.9306C33.8687 61.8225 34.0004 61.7625 34.1379 61.7695C34.2805 61.7615 34.4171 61.8275 34.5012 61.9436H34.5151L34.5071 61.8585L34.5032 61.7755V61.2964H34.6794V62.9688H34.5359L34.5131 62.8108ZM34.1597 62.8408C34.2577 62.8498 34.3537 62.8128 34.422 62.7418C34.4844 62.6467 34.5131 62.5337 34.5032 62.4207V62.3827C34.5141 62.2576 34.4854 62.1326 34.421 62.0256C34.3557 61.9496 34.2577 61.9095 34.1577 61.9185C34.0627 61.9145 33.9726 61.9606 33.9202 62.0406C33.8598 62.1446 33.8311 62.2646 33.838 62.3847C33.8301 62.5037 33.8588 62.6227 33.9202 62.7248C33.9756 62.8018 34.0657 62.8458 34.1607 62.8408H34.1597Z" fill="black"/>
<path d="M35.8083 62.9908C35.6559 62.9988 35.5074 62.9408 35.4005 62.8317C35.2956 62.7097 35.2421 62.5517 35.251 62.3906C35.2421 62.2276 35.2916 62.0676 35.3896 61.9385C35.4817 61.8275 35.6192 61.7655 35.7628 61.7705C35.8944 61.7645 36.0211 61.8175 36.1092 61.9165C36.1983 62.0235 36.2438 62.1606 36.2369 62.3006V62.4136H35.4341C35.4292 62.5277 35.4658 62.6397 35.5381 62.7287C35.6103 62.8037 35.7123 62.8428 35.8152 62.8358C35.9429 62.8358 36.0696 62.8077 36.1874 62.7567V62.9158C36.131 62.9408 36.0716 62.9608 36.0102 62.9748C35.9439 62.9878 35.8766 62.9938 35.8083 62.9928V62.9908ZM35.7608 61.9195C35.6766 61.9155 35.5945 61.9495 35.5371 62.0115C35.4777 62.0836 35.443 62.1736 35.4391 62.2676H36.0488C36.0548 62.1756 36.029 62.0836 35.9746 62.0095C35.9211 61.9475 35.8429 61.9145 35.7618 61.9195H35.7608Z" fill="black"/>
<path d="M37.3304 61.7695C37.3769 61.7695 37.4234 61.7735 37.4699 61.7825L37.4452 61.9476C37.4036 61.9376 37.3611 61.9326 37.3175 61.9316C37.2235 61.9316 37.1344 61.9736 37.076 62.0476C37.0077 62.1276 36.972 62.2307 36.975 62.3367V62.9688H36.7988V61.7915H36.9443L36.9641 62.0096H36.973C37.0107 61.9386 37.0641 61.8786 37.1294 61.8325C37.1888 61.7915 37.2591 61.7695 37.3304 61.7705V61.7695Z" fill="black"/>
<path d="M38.9526 62.9688H38.7764V61.2964H38.9526V62.9688Z" fill="black"/>
<path d="M39.5737 61.4725C39.5708 61.4395 39.5816 61.4075 39.6034 61.3825C39.646 61.3445 39.7093 61.3445 39.7509 61.3825C39.7737 61.4065 39.7846 61.4385 39.7816 61.4715C39.7846 61.5045 39.7727 61.5376 39.7509 61.5616C39.7311 61.5806 39.7044 61.5916 39.6777 61.5906C39.6499 61.5906 39.6232 61.5806 39.6034 61.5616C39.5816 61.5366 39.5708 61.5045 39.5737 61.4715V61.4725ZM39.7648 62.9689H39.5886V61.7916H39.7648V62.9689Z" fill="black"/>
<path d="M40.866 62.9909C40.7185 62.9999 40.575 62.9419 40.474 62.8339C40.375 62.7078 40.3255 62.5488 40.3354 62.3888C40.3246 62.2237 40.375 62.0617 40.476 61.9316C40.5789 61.8206 40.7264 61.7606 40.8769 61.7706C40.9333 61.7706 40.9897 61.7766 41.0451 61.7886C41.0907 61.7976 41.1352 61.8116 41.1768 61.8316L41.1224 61.9837C41.0808 61.9677 41.0382 61.9537 40.9947 61.9447C40.9541 61.9347 40.9135 61.9297 40.8719 61.9287C40.6354 61.9287 40.5166 62.0817 40.5166 62.3868C40.5087 62.5048 40.5393 62.6208 40.6037 62.7199C40.6651 62.7989 40.7611 62.8429 40.86 62.8359C40.963 62.8349 41.064 62.8129 41.159 62.7729V62.9309C41.0669 62.9749 40.966 62.9959 40.864 62.9919L40.866 62.9909Z" fill="black"/>
<path d="M42.1903 62.9908C42.0378 62.9988 41.8894 62.9408 41.7824 62.8317C41.6775 62.7097 41.6231 62.5517 41.633 62.3906C41.6241 62.2276 41.6736 62.0676 41.7716 61.9385C41.8636 61.8275 42.0012 61.7655 42.1447 61.7705C42.2764 61.7645 42.4031 61.8175 42.4912 61.9165C42.5803 62.0235 42.6258 62.1606 42.6189 62.3006V62.4136H41.8161C41.8112 62.5277 41.8478 62.6397 41.92 62.7287C41.9923 62.8037 42.0942 62.8428 42.1972 62.8358C42.3249 62.8358 42.4516 62.8077 42.5694 62.7567V62.9158C42.5129 62.9418 42.4536 62.9608 42.3922 62.9748C42.3259 62.9878 42.2586 62.9938 42.1903 62.9928V62.9908ZM42.1427 61.9195C42.0586 61.9155 41.9765 61.9495 41.919 62.0115C41.8597 62.0836 41.825 62.1736 41.8211 62.2676H42.4298C42.4357 62.1756 42.41 62.0836 42.3556 62.0095C42.3021 61.9475 42.2239 61.9145 42.1427 61.9195Z" fill="black"/>
<path d="M43.9794 62.9687V62.2065C43.9854 62.1295 43.9626 62.0525 43.9151 61.9915C43.8606 61.9395 43.7864 61.9145 43.7122 61.9205C43.6122 61.9115 43.5142 61.9485 43.4439 62.0205C43.3786 62.1175 43.3489 62.2335 43.3588 62.3506V62.9687H43.1826V61.7904H43.3261L43.3548 61.9515H43.3638C43.4004 61.8924 43.4538 61.8464 43.5162 61.8164C43.5845 61.7844 43.6587 61.7674 43.7339 61.7684C43.8488 61.7594 43.9626 61.7964 44.0507 61.8714C44.1289 61.9615 44.1675 62.0805 44.1576 62.1995V62.9677H43.9814L43.9794 62.9687Z" fill="black"/>
<path d="M45.5308 62.6475C45.5357 62.7476 45.4902 62.8426 45.409 62.9006C45.3081 62.9656 45.1883 62.9966 45.0685 62.9896C44.9438 62.9966 44.8191 62.9706 44.7072 62.9156V62.7506C44.7646 62.7796 44.825 62.8026 44.8874 62.8186C44.9478 62.8346 45.0101 62.8426 45.0725 62.8436C45.1457 62.8476 45.219 62.8326 45.2853 62.7986C45.3575 62.7556 45.3813 62.6615 45.3387 62.5885C45.3288 62.5715 45.316 62.5575 45.3011 62.5455C45.2299 62.4965 45.1526 62.4575 45.0705 62.4305C44.9903 62.4025 44.9121 62.3675 44.8389 62.3234C44.7973 62.2974 44.7627 62.2614 44.7369 62.2194C44.7142 62.1774 44.7023 62.1294 44.7033 62.0804C44.7003 61.9894 44.7448 61.9033 44.8191 61.8533C44.9141 61.7933 45.025 61.7643 45.1368 61.7703C45.2635 61.7703 45.3882 61.7973 45.505 61.8473L45.4427 61.9924C45.3427 61.9474 45.2348 61.9223 45.1249 61.9193C45.0596 61.9153 44.9943 61.9293 44.9359 61.9594C44.8963 61.9814 44.8715 62.0234 44.8725 62.0684C44.8725 62.0974 44.8804 62.1254 44.8963 62.1494C44.9171 62.1754 44.9438 62.1974 44.9735 62.2124C45.0398 62.2454 45.1081 62.2744 45.1774 62.2994C45.2803 62.3305 45.3763 62.3825 45.4575 62.4535C45.506 62.5055 45.5327 62.5755 45.5308 62.6475Z" fill="black"/>
<path d="M46.5711 62.9908C46.4187 62.9988 46.2702 62.9408 46.1633 62.8317C46.0584 62.7097 46.0039 62.5517 46.0138 62.3906C46.0049 62.2276 46.0544 62.0676 46.1524 61.9385C46.2445 61.8275 46.3821 61.7655 46.5256 61.7705C46.6572 61.7645 46.7839 61.8175 46.872 61.9165C46.9611 62.0235 47.0066 62.1606 46.9997 62.3006V62.4136H46.197C46.192 62.5277 46.2296 62.6397 46.3009 62.7287C46.3732 62.8037 46.4751 62.8428 46.578 62.8358C46.7057 62.8358 46.8324 62.8077 46.9502 62.7567V62.9158C46.8938 62.9408 46.8344 62.9608 46.773 62.9748C46.7067 62.9878 46.6394 62.9938 46.5711 62.9928V62.9908ZM46.5236 61.9195C46.4395 61.9155 46.3573 61.9495 46.2999 62.0115C46.2405 62.0836 46.2059 62.1736 46.2019 62.2676H46.8116C46.8176 62.1756 46.7918 62.0836 46.7374 62.0095C46.684 61.9485 46.6058 61.9145 46.5246 61.9195H46.5236Z" fill="black"/>
<path d="M34.1824 13.6543H33.0777C32.7907 13.6543 32.5254 13.8884 32.5254 14.1414V23.2987C32.5254 23.5518 32.7907 23.7859 33.0777 23.7859H34.1824C34.4694 23.7859 34.7347 23.5518 34.7347 23.2987V14.1414C34.7347 13.8884 34.4694 13.6543 34.1824 13.6543Z" fill="#DB4F40"/>
<path d="M18.6066 33.8076H17.3545V37.7726H19.053C19.2856 37.7726 19.5004 37.5616 19.5004 37.3325V34.6888C19.5004 34.2307 19.0709 33.8076 18.6066 33.8076Z" fill="#DB4F40"/>
<path d="M19.3213 31.7812V29.0495C19.3213 28.8204 19.1065 28.6094 18.8739 28.6094H17.3535V32.2223H18.8739C19.1065 32.2223 19.3213 32.0112 19.3213 31.7822V31.7812Z" fill="#DB4F40"/>
<path d="M14.1064 9.81641V41.1784H44.9485V9.81641H14.1064ZM21.2886 37.5975C21.2886 38.0906 21.0738 38.5487 20.7343 38.8668C20.4126 39.1669 19.9831 39.3599 19.5 39.3599H15.5655V27.0228H19.3209C19.8217 27.0228 20.2869 27.2338 20.6086 27.5689C20.9125 27.886 21.1095 28.3091 21.1095 28.7852V31.2348C21.1095 32.0981 20.5195 32.7852 19.7504 32.9093V32.9973C20.5195 33.0503 21.2886 33.7555 21.2886 34.7247V37.5975ZM22.2735 24.9933C21.8538 24.6422 21.5886 24.136 21.5886 23.5909V21.6424H23.7979V23.2988C23.7979 23.5519 24.0631 23.786 24.3502 23.786H25.4548C25.7419 23.786 26.0071 23.5519 26.0071 23.2988V19.4018C26.0071 19.1488 25.7419 18.9147 25.4548 18.9147H24.3502C24.0631 18.9147 23.7979 19.1488 23.7979 19.4018H21.5886V11.9009H27.9957V13.6544H23.5771V17.8044C23.6217 17.6874 23.688 17.5904 23.7761 17.5124C24.0196 17.2783 24.4165 17.1423 24.6818 17.1423H26.0071C26.6258 17.1423 27.1781 17.3763 27.576 17.7264C27.9739 18.0775 28.2164 18.5646 28.2164 19.0898V23.5899C28.2164 24.135 27.9512 24.6422 27.5315 24.9923C27.1336 25.3233 26.603 25.5374 26.0071 25.5374H23.7979C23.201 25.5374 22.6714 25.3233 22.2735 24.9923V24.9933ZM28.7995 28.6092H26.117V32.2221H28.2986V33.8085H26.117V37.7735H28.7995V39.3599H24.3284V27.0228H28.7995V28.6092ZM36.633 30.5477H34.8443V29.0493C34.8443 28.8202 34.6295 28.6092 34.3969 28.6092H33.324C33.0914 28.6092 32.8766 28.8202 32.8766 29.0493V30.7237C32.8766 31.1638 33.1092 31.4639 33.324 31.6049L34.8265 32.5392C35.757 33.1383 36.633 33.8085 36.633 35.0418V37.5975C36.633 38.0906 36.436 38.5137 36.1143 38.8308C35.7748 39.1659 35.3452 39.3599 34.8443 39.3599H32.8766C32.3579 39.3599 31.9461 39.1659 31.6244 38.8488C31.2849 38.5317 31.0879 38.1086 31.0879 37.5975V35.835H32.8766V37.3334C32.8766 37.5624 33.0735 37.7735 33.324 37.7735H34.3969C34.6295 37.7735 34.8443 37.5624 34.8443 37.3334V35.2889C34.8443 34.8658 34.5939 34.5487 34.3969 34.4257L32.8587 33.4214C31.9471 32.8222 31.0879 32.2231 31.0879 31.0068V28.7862C31.0879 28.2751 31.2849 27.852 31.6244 27.5349C31.9461 27.2178 32.3579 27.0238 32.8766 27.0238H34.8443C35.3452 27.0238 35.7748 27.2178 36.1143 27.5529C36.436 27.87 36.633 28.2931 36.633 28.7862V30.5487V30.5477ZM36.9447 23.5909C36.9447 24.136 36.6795 24.6432 36.2598 24.9933C35.8619 25.3243 35.3313 25.5384 34.7355 25.5384H32.5262C31.9293 25.5384 31.3997 25.3243 31.0018 24.9933C30.5821 24.6422 30.3169 24.136 30.3169 23.5909V13.8494C30.3169 13.3043 30.5821 12.8172 30.98 12.4661C31.378 12.115 31.9303 11.9009 32.5271 11.9009H34.7364C35.3551 11.9009 35.9074 12.115 36.3053 12.4851C36.7032 12.8362 36.9457 13.3233 36.9457 13.8484V23.5899L36.9447 23.5909ZM43.8943 28.6092H42.1057V39.3599H40.3171V28.6092H38.5285V27.0228H43.8933V28.6092H43.8943Z" fill="#DB4F40"/>
<path d="M16.2804 53.2856L15.9181 50.599L15.8657 49.9588H15.8261L15.7736 50.599L15.3975 53.2856H14.7382L14.0127 48.7095H14.7056L15.0223 51.4552L15.055 52.0953H15.0946L15.1668 51.4552L15.5093 48.7095H16.1616L16.511 51.4552L16.5833 52.0953H16.6229L16.6555 51.4552L16.9723 48.7095H17.6652L16.9396 53.2856H16.2804Z" fill="#DB4F40"/>
<path d="M19.1817 53.2856C18.9966 53.2856 18.8392 53.2136 18.7135 53.0896C18.5947 52.9715 18.5225 52.8145 18.5225 52.6324V49.3636C18.5225 49.1806 18.5947 49.0235 18.7135 48.9065C18.8392 48.7825 18.9966 48.7104 19.1817 48.7104H19.9072C20.0983 48.7104 20.2497 48.7825 20.3685 48.9005C20.4942 49.0185 20.5665 49.1746 20.5665 49.3646V52.6334C20.5665 52.8235 20.4942 52.9735 20.3754 53.0906C20.2566 53.2146 20.0983 53.2866 19.9072 53.2866H19.1817V53.2856ZM19.9072 49.4616C19.9072 49.3766 19.828 49.2986 19.7419 49.2986H19.346C19.2599 49.2986 19.1807 49.3766 19.1807 49.4616V52.5344C19.1807 52.6194 19.2599 52.6975 19.346 52.6975H19.7419C19.834 52.6975 19.9072 52.6194 19.9072 52.5344V49.4616Z" fill="#DB4F40"/>
<path d="M23.2833 53.2856L22.7359 51.2261H22.4063V53.2856H21.7471V48.7095H23.1388C23.31 48.7095 23.4753 48.7815 23.6 48.8995C23.7188 49.0176 23.7911 49.1806 23.7911 49.3636V50.4679C23.7911 50.664 23.7119 50.814 23.606 50.925C23.5337 50.9901 23.4476 51.0431 23.3615 51.0691L23.9752 53.2846H23.2823L23.2833 53.2856ZM23.1318 49.4617C23.1318 49.3766 23.0527 49.2986 22.9665 49.2986H22.4063V50.639H22.9606C23.0467 50.639 23.1259 50.5609 23.1318 50.4689V49.4627V49.4617Z" fill="#DB4F40"/>
<path d="M26.6589 53.2856L25.9007 51.2921L25.6631 51.7302V53.2856H25.0039V48.7095H25.6631V50.801H25.6899L26.6658 48.7095H27.4171L26.3422 50.69L27.4171 53.2856H26.6589Z" fill="#DB4F40"/>
<path d="M28.2217 53.2856V48.7095H29.6134C29.7846 48.7095 29.9499 48.7815 30.0746 48.8995C30.1934 49.0176 30.2657 49.1806 30.2657 49.3636V50.5729C30.2657 50.756 30.1934 50.913 30.0746 51.0371C29.9489 51.1551 29.7915 51.2271 29.6064 51.2271H28.8809V53.2866H28.2217V53.2856ZM29.6064 49.4617C29.6064 49.3766 29.5273 49.2986 29.4411 49.2986H28.8809V50.639H29.4352C29.5213 50.639 29.6005 50.5609 29.6064 50.4689V49.4627V49.4617Z" fill="#DB4F40"/>
<path d="M31.2354 53.2856V48.7095H31.8946V52.6975H32.8834V53.2856H31.2344H31.2354Z" fill="#DB4F40"/>
<path d="M35.1924 53.2856L35.0865 52.5665H34.3015L34.2026 53.2856H33.5166L34.3342 48.7095H35.0597L35.8773 53.2856H35.1914H35.1924ZM34.7707 50.3439L34.7183 49.7037H34.6787L34.6262 50.3439L34.3886 51.9783H35.0023L34.7717 50.3439H34.7707Z" fill="#DB4F40"/>
<path d="M37.3477 53.2856C37.1765 53.2856 37.0181 53.2206 36.8993 53.1096C36.7736 52.9916 36.6885 52.8215 36.6885 52.6325V49.3636C36.6885 49.1876 36.7607 49.0306 36.8736 48.9125C36.9924 48.7885 37.1636 48.7095 37.3487 48.7095H38.0742C38.2593 48.7095 38.4306 48.7875 38.5494 48.9125C38.6612 49.0306 38.7344 49.1866 38.7344 49.3636V50.0178H38.0752V49.4617C38.0752 49.3766 37.996 49.2986 37.9099 49.2986H37.514C37.4279 49.2986 37.3487 49.3766 37.3487 49.4617V52.5344C37.3487 52.6195 37.4279 52.6975 37.514 52.6975H37.9099C37.996 52.6975 38.0752 52.6195 38.0752 52.5344V51.9783H38.7344V52.6325C38.7344 52.8155 38.6553 52.9856 38.5305 53.1036C38.4118 53.2146 38.2534 53.2866 38.0752 53.2866H37.3497L37.3477 53.2856Z" fill="#DB4F40"/>
<path d="M39.7217 53.2856V48.7095H41.3707V49.2976H40.3819V50.638H41.1866V51.2261H40.3819V52.6965H41.3707V53.2846H39.7217V53.2856Z" fill="#DB4F40"/>
<path d="M42.8995 53.2856C42.7084 53.2856 42.557 53.2136 42.4382 53.0956C42.3125 52.9776 42.2402 52.8205 42.2402 52.6315V51.9773H42.8995V52.5334C42.8995 52.6185 42.9717 52.6965 43.0648 52.6965H43.4607C43.5468 52.6965 43.626 52.6185 43.626 52.5334V51.7752C43.626 51.6182 43.5339 51.5012 43.4607 51.4552L42.8935 51.0821C42.557 50.86 42.2402 50.638 42.2402 50.1868V49.3636C42.2402 49.1736 42.3125 49.0176 42.4382 48.8995C42.557 48.7815 42.7084 48.7095 42.8995 48.7095H43.625C43.8101 48.7095 43.9675 48.7815 44.0932 48.9055C44.212 49.0236 44.2842 49.1796 44.2842 49.3626V50.0168H43.625V49.4607C43.625 49.3756 43.5458 49.2976 43.4597 49.2976H43.0638C42.9777 49.2976 42.8985 49.3756 42.8985 49.4607V50.0818C42.8985 50.2449 42.9846 50.3559 43.0638 50.4089L43.6181 50.755C43.9606 50.977 44.2842 51.2261 44.2842 51.6832V52.6315C44.2842 52.8145 44.212 52.9716 44.0932 53.0886C43.9675 53.2126 43.8091 53.2846 43.625 53.2846H42.8995V53.2856Z" fill="#DB4F40"/>
<path d="M22.7149 47.2C22.5239 47.2 22.3724 47.1269 22.2536 47.0079C22.1279 46.8889 22.0557 46.7298 22.0557 46.5388V45.8776H22.7149V46.4398C22.7149 46.5258 22.7871 46.6048 22.8802 46.6048H23.2761C23.3622 46.6048 23.4414 46.5258 23.4414 46.4398V45.6726C23.4414 45.5135 23.3494 45.3945 23.2761 45.3485L22.7089 44.9714C22.3724 44.7463 22.0557 44.5223 22.0557 44.0662V43.2329C22.0557 43.0409 22.1279 42.8829 22.2536 42.7638C22.3724 42.6448 22.5239 42.5718 22.7149 42.5718H23.4404C23.6255 42.5718 23.7829 42.6448 23.9086 42.7698C24.0274 42.8889 24.0997 43.0479 24.0997 43.2329V43.8941H23.4404V43.332C23.4404 43.2459 23.3612 43.1669 23.2751 43.1669H22.8792C22.7931 43.1669 22.7139 43.2459 22.7139 43.332V43.9601C22.7139 44.1252 22.8 44.2382 22.8792 44.2902L23.4335 44.6403C23.776 44.8654 24.0997 45.1164 24.0997 45.5785V46.5368C24.0997 46.7218 24.0274 46.8809 23.9086 46.9999C23.7829 47.1259 23.6245 47.198 23.4404 47.198H22.7149V47.2Z" fill="#DB4F40"/>
<path d="M27.6866 47.1999V44.7873L27.739 43.7491H27.6994L27.4619 44.8723L27.0531 46.5378H26.5126L26.1038 44.8723L25.8663 43.7491H25.8267L25.8791 44.7873V47.1999H25.2793V42.5728H26.1167L26.6512 44.7603L26.7502 45.4415H26.8165L26.9155 44.7603L27.45 42.5728H28.2874V47.1999H27.6875H27.6866Z" fill="#DB4F40"/>
<path d="M30.918 47.1999L30.8121 46.4727H30.0271L29.9281 47.1999H29.2422L30.0598 42.5728H30.7853L31.6029 47.1999H30.917H30.918ZM30.4963 44.2252L30.4438 43.577H30.4042L30.3518 44.2252L30.1142 45.8776H30.7279L30.4973 44.2252H30.4963Z" fill="#DB4F40"/>
<path d="M32.5596 47.1999V42.5728H33.2188V46.6048H34.2076V47.1999H32.5586H32.5596Z" fill="#DB4F40"/>
<path d="M35.1172 47.1999V42.5728H35.7764V46.6048H36.7653V47.1999H35.1162H35.1172Z" fill="#DB4F40"/>
<path d="M26.5557 58.5589V57.8147C26.5557 57.5476 26.7556 57.4066 26.9447 57.2725L27.2297 57.0705C27.2683 57.0435 27.3258 56.9755 27.3258 56.8794V56.3263C27.3258 56.2763 27.2792 56.2313 27.2297 56.2313H27.0377C26.9882 56.2313 26.9417 56.2773 26.9417 56.3263V56.6504H26.5567V56.2693C26.5567 56.1663 26.5992 56.0712 26.6685 56.0022C26.7378 55.9332 26.8338 55.8882 26.9417 55.8882H27.3267C27.4346 55.8882 27.5346 55.9342 27.6039 56.0062C27.6692 56.0752 27.7118 56.1663 27.7118 56.2693V56.9364C27.7118 57.2035 27.5198 57.3215 27.3307 57.4626L27.0377 57.6796C26.9991 57.7107 26.9417 57.7747 26.9417 57.8707V58.2138H27.7118V58.5569H26.5576L26.5557 58.5589Z" fill="black"/>
<path d="M28.7493 58.5589C28.6454 58.5589 28.5533 58.5169 28.484 58.4519C28.4108 58.3828 28.3643 58.2838 28.3643 58.1768V56.2693C28.3643 56.1623 28.4108 56.0673 28.4801 55.9982C28.5494 55.9292 28.6454 55.8872 28.7493 55.8872H29.1343C29.2422 55.8872 29.3382 55.9292 29.4075 56.0012C29.4768 56.0703 29.5194 56.1653 29.5194 56.2683V58.1758C29.5194 58.2828 29.4729 58.3818 29.3996 58.4509C29.3303 58.5159 29.2383 58.5579 29.1343 58.5579H28.7493V58.5589ZM29.1343 56.3273C29.1343 56.2773 29.0878 56.2323 29.0383 56.2323H28.8463C28.7968 56.2323 28.7503 56.2783 28.7503 56.3273V58.1198C28.7503 58.1698 28.7968 58.2148 28.8463 58.2148H29.0383C29.0878 58.2148 29.1343 58.1688 29.1343 58.1198V56.3273Z" fill="black"/>
<path d="M30.4043 58.5588V56.2322H30.1123V55.8892H30.7893V58.5588H30.4043Z" fill="black"/>
<path d="M31.7511 58.5589V57.6316C31.7511 57.3646 31.9976 57.1475 32.1401 56.9715L32.1708 56.9335C32.1975 56.8994 32.3282 56.7194 32.3282 56.6244V56.2313H31.5967V55.8882H32.7122V56.6814C32.7122 56.9485 32.4855 57.1505 32.3272 57.3255L32.2965 57.3596C32.2618 57.3976 32.1351 57.5736 32.1351 57.6686V58.5569H31.7501L31.7511 58.5589Z" fill="black"/>
<path d="M25.7765 56.6372H14.1064V56.6722H25.7765V56.6372Z" fill="black"/>
<path d="M25.7765 57.2026H14.1064V57.2376H25.7765V57.2026Z" fill="black"/>
<path d="M25.7757 57.7236H14.0205V57.7586H25.7757V57.7236Z" fill="black"/>
<path d="M44.9498 56.5674H33.6826V56.6024H44.9498V56.5674Z" fill="black"/>
<path d="M44.9498 57.1323H33.6826V57.1673H44.9498V57.1323Z" fill="black"/>
<path d="M44.9469 57.6538H33.6826V57.6888H44.9469V57.6538Z" fill="black"/>
<path d="M19.7803 1.95557C19.8476 1.96557 19.9159 1.97357 19.9832 1.98757C20.1931 2.02959 20.3881 2.11061 20.5653 2.23164C20.7939 2.38768 20.9711 2.58873 21.0998 2.83579C21.1799 2.99083 21.2324 3.15487 21.275 3.32291C21.277 3.33092 21.277 3.34092 21.277 3.34892C21.2779 4.66125 21.2799 5.97259 21.2799 7.28492C21.2799 7.43296 21.27 7.58199 21.2631 7.73003C21.2562 7.86007 21.2116 7.9811 21.1631 8.09913C21.078 8.30418 20.9572 8.48522 20.7979 8.64126C20.5643 8.87132 20.2901 9.02136 19.9684 9.08238C19.5903 9.15439 19.232 9.09738 18.8934 8.91533C18.7014 8.81131 18.5381 8.67027 18.4025 8.49823C18.2184 8.26517 18.0976 8.0031 18.06 7.70703C18.0452 7.595 18.0481 7.48097 18.0471 7.36794C18.0452 7.10988 18.0442 6.85181 18.0442 6.59374C18.0442 5.84855 18.0412 5.10337 18.0422 4.35718C18.0422 4.0541 18.0471 3.75002 18.0531 3.44694C18.0561 3.2719 18.1065 3.10686 18.1758 2.94882C18.3174 2.62374 18.5391 2.36867 18.84 2.18462C19.0439 2.06059 19.2656 1.98357 19.5042 1.96357C19.519 1.96257 19.5339 1.95857 19.5487 1.95657C19.6259 1.95657 19.7031 1.95657 19.7803 1.95657V1.95557ZM20.103 5.54848H20.105C20.105 5.35843 20.105 5.16838 20.105 4.97833C20.103 4.49121 20.1 4.00409 20.0971 3.51696C20.0971 3.45095 20.0753 3.39293 20.0357 3.34292C20.009 3.30891 19.9803 3.2739 19.9466 3.24589C19.815 3.13587 19.6645 3.11786 19.5071 3.16987C19.3953 3.20688 19.3171 3.28991 19.2597 3.39393C19.2359 3.43694 19.225 3.47995 19.225 3.52897C19.224 4.47921 19.2211 5.43045 19.2191 6.38069C19.2191 6.76479 19.2191 7.14888 19.2191 7.53298C19.2191 7.54398 19.2181 7.55599 19.2211 7.56699C19.2597 7.70003 19.3319 7.80905 19.4557 7.87507C19.6348 7.97109 19.9001 7.93508 20.0357 7.73003C20.0812 7.66101 20.106 7.592 20.104 7.50598C20.0991 7.29692 20.104 7.08887 20.104 6.87982C20.104 6.4367 20.104 5.99359 20.104 5.55048L20.103 5.54848Z" fill="black"/>
<path d="M44.5353 9.0135C44.5185 9.0155 44.5007 9.0185 44.4839 9.0185C43.5663 9.0185 42.6487 9.0185 41.7302 9.0185C41.6965 9.0185 41.6797 9.0015 41.6797 8.96749C41.6797 7.25906 41.6797 5.55062 41.6797 3.84219V2.05273H41.7242C42.6458 2.05273 43.5673 2.05273 44.4888 2.05273C44.5037 2.05273 44.5195 2.05874 44.5344 2.06174V3.23303C44.5185 3.23503 44.5027 3.24004 44.4878 3.24004C43.9603 3.24004 43.4327 3.24004 42.9061 3.24004H42.8606V4.84544H43.9276V6.03274H42.8596V7.8292H42.9091C43.4337 7.8292 43.9593 7.8292 44.4839 7.8292C44.5007 7.8292 44.5175 7.8332 44.5353 7.8342V9.0125V9.0135Z" fill="black"/>
<path d="M38.9825 5.76268V2.05473C39.0043 2.05373 39.0162 2.05273 39.0281 2.05273C39.3923 2.05273 39.7566 2.05273 40.1208 2.05273C40.1545 2.05273 40.1644 2.06074 40.1644 2.09675C40.1644 4.38933 40.1644 6.68291 40.1644 8.97549V9.0195C40.0961 9.0195 40.0298 9.0195 39.9645 9.0195C39.8764 9.0195 39.7873 9.0175 39.6992 9.0165C39.4319 9.0155 39.1657 9.0135 38.8984 9.0135C38.8667 9.0135 38.8558 9.0015 38.8479 8.97349C38.6747 8.41135 38.5005 7.84921 38.3263 7.28806C38.162 6.76093 37.9977 6.2348 37.8324 5.70766C37.8294 5.69666 37.8254 5.68666 37.8145 5.67665C37.8136 5.70066 37.8116 5.72367 37.8116 5.74767C37.8096 6.81894 37.8086 7.89122 37.8066 8.96249C37.8066 9.0005 37.7878 9.0195 37.7502 9.0195C37.3959 9.0195 37.0415 9.0195 36.6881 9.0195C36.6525 9.0195 36.6416 9.0105 36.6416 8.97349C36.6416 6.68191 36.6416 4.38933 36.6416 2.09775V2.05473C36.6871 2.05473 36.7277 2.05473 36.7683 2.05473C36.9999 2.05473 37.2325 2.05574 37.4641 2.05674C37.5681 2.05674 37.671 2.05974 37.775 2.05874C37.8037 2.05874 37.8155 2.06774 37.8235 2.09575C37.969 2.56787 38.1164 3.03898 38.2629 3.5111C38.4292 4.04524 38.5965 4.57838 38.7638 5.11251C38.8281 5.31856 38.8925 5.52462 38.9578 5.72967C38.9618 5.74167 38.9657 5.75267 38.9697 5.76368H38.9816L38.9825 5.76268Z" fill="black"/>
<path d="M22.8125 2.05269C22.8323 2.05269 22.8472 2.05269 22.862 2.05269C23.2441 2.05269 23.6252 2.05169 24.0072 2.05269C24.2032 2.05269 24.3992 2.05469 24.5942 2.06469C24.7862 2.0747 24.9674 2.13371 25.1406 2.21873C25.5157 2.40278 25.7781 2.69285 25.9394 3.07895C26.0087 3.24699 26.0493 3.42104 26.0483 3.60308C26.0483 4.0692 26.0503 4.53432 26.0384 5.00044C26.0285 5.40554 25.881 5.76263 25.6207 6.07071C25.5702 6.13073 25.5078 6.18074 25.4494 6.23375C25.4336 6.24776 25.4267 6.25776 25.4336 6.28076C25.5049 6.52483 25.5741 6.76989 25.6444 7.01495C25.7563 7.40505 25.8691 7.79615 25.981 8.18625C26.0572 8.45231 26.1344 8.71938 26.2116 8.98545C26.2136 8.99245 26.2136 8.99945 26.2156 9.01246C26.1859 9.01246 26.1591 9.01246 26.1314 9.01246C25.7711 9.01346 25.4108 9.01446 25.0505 9.01646C25.0189 9.01646 25.005 9.00746 24.9971 8.97645C24.9179 8.67137 24.8377 8.36729 24.7575 8.06222C24.613 7.51008 24.4695 6.95794 24.326 6.4048C24.2705 6.19274 24.2171 5.97969 24.1607 5.76763C24.1508 5.72962 24.1607 5.71162 24.1933 5.69862C24.2943 5.65861 24.3943 5.6186 24.4843 5.55558C24.6496 5.44055 24.7714 5.29351 24.8377 5.10146C24.8743 4.99644 24.8793 4.88641 24.8793 4.77738C24.8793 4.40229 24.8733 4.02719 24.8773 3.6521C24.8793 3.44204 24.6546 3.24299 24.4744 3.24699C24.32 3.24999 24.1656 3.24399 24.0112 3.24099C24.0063 3.24099 24.0013 3.24099 23.9904 3.24299V3.29401C23.9904 5.17948 23.9904 7.06396 23.9904 8.94944C23.9904 8.96044 23.9894 8.97245 23.9904 8.98345C23.9944 9.01146 23.9825 9.02046 23.9548 9.02046C23.841 9.01946 23.7281 9.02046 23.6143 9.02046C23.3619 9.02046 23.1105 9.02046 22.8581 9.02046C22.8204 9.02046 22.8105 9.01146 22.8105 8.97245C22.8115 7.6091 22.8115 6.24475 22.8115 4.88141C22.8115 3.95417 22.8115 3.02794 22.8115 2.1007V2.05369L22.8125 2.05269Z" fill="black"/>
<path d="M31.9121 2.05469H33.0732C33.0732 2.07269 33.0752 2.0897 33.0752 2.1067C33.0752 3.49205 33.0752 4.8774 33.0752 6.26276C33.0752 6.52982 33.0742 6.79689 33.0782 7.06396C33.0801 7.232 33.09 7.40105 33.097 7.56909C33.1019 7.68112 33.1712 7.75814 33.2484 7.82815C33.3603 7.92918 33.4978 7.94418 33.6315 7.91518C33.7908 7.88017 33.9066 7.77514 33.9542 7.6121C33.97 7.55709 33.968 7.49507 33.968 7.43605C33.971 5.92867 33.9739 4.42129 33.9759 2.91391C33.9759 2.64484 33.9759 2.37477 33.9759 2.1057V2.05769H35.1509C35.1509 2.07069 35.1528 2.08369 35.1528 2.0977C35.1528 3.279 35.1528 4.4603 35.1518 5.6416C35.1518 6.22075 35.1489 6.79989 35.1449 7.37904C35.1449 7.51707 35.1489 7.65511 35.1202 7.79214C35.0826 7.97619 35.0202 8.15024 34.9232 8.31028C34.7906 8.52733 34.6203 8.70938 34.4095 8.85041C34.2115 8.98245 33.9928 9.06247 33.7582 9.09648C33.4771 9.13749 33.2049 9.10548 32.9396 9.00145C32.6644 8.89342 32.4367 8.72238 32.2546 8.48932C32.0804 8.26627 31.9686 8.0152 31.9309 7.73413C31.9131 7.6041 31.9151 7.47006 31.9151 7.33803C31.9131 5.59059 31.9111 3.84214 31.9102 2.0947C31.9102 2.08369 31.9102 2.07269 31.9102 2.05669L31.9121 2.05469Z" fill="black"/>
<path d="M14.0498 2.05471H16.8976V3.23901H15.2297V4.84442H16.3076V6.02972H15.2277V6.08673C15.2277 7.04598 15.2277 8.00622 15.2277 8.96546C15.2277 9.00081 15.2102 9.01848 15.1753 9.01848C14.816 9.01848 14.4567 9.01848 14.0973 9.01848C14.0617 9.01848 14.0479 9.01248 14.0479 8.97147C14.0488 6.67988 14.0488 4.3873 14.0488 2.09572V2.05371L14.0498 2.05471Z" fill="black"/>
<path d="M30.5609 2.05469V3.23799H29.5315V9.01445H28.3546V3.23799H27.3271V2.05469H30.5609Z" fill="black"/>
<path d="M45.4957 2.53581C45.4957 2.67885 45.3858 2.8849 45.1096 2.8849C44.8335 2.8849 44.7256 2.67885 44.7256 2.53581V2.40378C44.7256 2.26274 44.8355 2.05469 45.1096 2.05469C45.3838 2.05469 45.4957 2.26274 45.4957 2.40378V2.53581ZM45.4056 2.40378C45.4056 2.27974 45.3175 2.13471 45.1096 2.13471C44.9018 2.13471 44.8157 2.27974 44.8157 2.40378V2.53581C44.8157 2.65984 44.9038 2.80688 45.1096 2.80688C45.3155 2.80688 45.4056 2.65984 45.4056 2.53581V2.40378ZM45.2254 2.68785L45.1334 2.5098H45.0493L45.0324 2.5078L45.0344 2.52281V2.68785H44.9483V2.24774H45.167C45.2185 2.24774 45.2789 2.29575 45.2789 2.35876V2.37177C45.2789 2.42378 45.2571 2.46479 45.2106 2.4798L45.3225 2.68785H45.2264H45.2254ZM45.1849 2.35576C45.1849 2.34076 45.17 2.32776 45.1571 2.32776H45.0324L45.0344 2.34076V2.41678L45.0324 2.43178H45.1522C45.1651 2.43178 45.1839 2.41178 45.1839 2.39477V2.35576H45.1849Z" fill="black"/>
</g>
<defs>
<clipPath id="clip0_147_8871">
<rect width="47" height="63" fill="white"/>
</clipPath>
</defs>
</svg>