<svg xmlns="http://www.w3.org/2000/svg" width="61" height="58" viewBox="0 0 61 58" fill="none">
<g clip-path="url(#clip0_147_8831)">
<path d="M13.3874 26.8465C14.0362 27.5908 14.361 28.5582 14.3618 29.7487C14.3618 31.2204 13.8275 32.3527 12.7589 33.1455C11.6903 33.9383 10.1043 34.3351 8.00094 34.3359H0.30957V16.9761H7.50803C9.38082 16.9761 10.8393 17.3606 11.8834 18.1296C12.9275 18.8986 13.4495 19.993 13.4495 21.4129C13.4495 22.4045 13.1906 23.2394 12.6728 23.9175C12.1346 24.6099 11.3989 25.1204 10.5643 25.3807C11.8002 25.6144 12.7412 26.103 13.3874 26.8465ZM1.56654 18.0684V24.9817H7.45861C8.9707 24.9817 10.1335 24.6882 10.947 24.101C11.7605 23.5138 12.1664 22.6518 12.1647 21.5149C12.1647 20.3907 11.7579 19.5354 10.9444 18.9491C10.1309 18.3628 8.96816 18.0692 7.45608 18.0684H1.56654ZM11.8099 32.3654C12.6732 31.7791 13.1049 30.8737 13.1049 29.6493C13.1049 28.4248 12.6732 27.5237 11.8099 26.9459C10.9482 26.3672 9.67859 26.0779 8.00094 26.0779H1.56654V33.2449H8.00094C9.67859 33.2449 10.9482 32.9517 11.8099 32.3654Z" fill="black"/>
<path d="M30.7556 33.1952V34.3359H18.8447V16.9761H30.3856V18.1168H20.1055V24.9613H29.3009V26.0779H20.1055V33.1952H30.7556Z" fill="black"/>
<path d="M36.2657 33.803C35.1228 33.3603 34.2311 32.794 33.5908 32.104L34.1585 31.1621C34.7667 31.807 35.5844 32.3317 36.6116 32.7362C37.6442 33.1429 38.744 33.3491 39.8529 33.3442C41.4967 33.3442 42.7377 33.0302 43.5757 32.4023C44.4136 31.7743 44.8326 30.9577 44.8326 29.9525C44.8326 29.1767 44.6109 28.5568 44.1674 28.0929C43.7048 27.6179 43.1418 27.2537 42.5202 27.0273C41.6494 26.7185 40.7608 26.4631 39.8592 26.2626C38.8278 26.0198 37.8121 25.7133 36.8182 25.3449C36.0612 25.0553 35.3882 24.5799 34.8605 23.962C34.3257 23.3425 34.0588 22.5119 34.0596 21.4701C34.0532 20.6488 34.2843 19.8433 34.7249 19.1517C35.1684 18.4498 35.8463 17.892 36.7586 17.4781C37.6709 17.0643 38.8092 16.8574 40.1735 16.8574C41.1258 16.8578 42.0729 17 42.9839 17.2793C43.8365 17.5283 44.6438 17.9135 45.375 18.4201L44.9061 19.4397C44.2082 18.9566 43.4383 18.5883 42.6253 18.3487C41.8285 18.1033 41.0004 17.9762 40.1671 17.9714C38.5731 17.9714 37.3651 18.2939 36.5432 18.9388C36.153 19.2261 35.8372 19.6037 35.6226 20.0396C35.408 20.4756 35.3009 20.957 35.3103 21.4434C35.3103 22.2209 35.532 22.8408 35.9755 23.303C36.4377 23.7788 37.0008 24.1435 37.6228 24.3698C38.5031 24.6848 39.4003 24.9495 40.3103 25.1626C41.339 25.4051 42.3516 25.7116 43.3425 26.0803C44.0852 26.3693 44.7486 26.8325 45.2774 27.4314C45.8121 28.0355 46.0795 28.85 46.0795 29.8748C46.0861 30.694 45.8501 31.4967 45.4016 32.1805C44.9488 32.8756 44.2544 33.4279 43.3184 33.8374C42.3825 34.247 41.2319 34.4535 39.8668 34.4569C38.6368 34.4626 37.4161 34.241 36.2657 33.803Z" fill="black"/>
<path d="M53.4129 18.1183H47.2041V16.9712H60.8889V18.1183H54.6801V34.3361H53.4231L53.4129 18.1183Z" fill="black"/>
<path d="M60.9863 14.1592H0.114258V15.4338H60.9863V14.1592Z" fill="black"/>
<path d="M2.0404 42.5329C1.50659 42.2403 1.06366 41.8049 0.760617 41.2748C0.455234 40.7243 0.294922 40.1043 0.294922 39.4739C0.294922 38.8434 0.455234 38.2234 0.760617 37.6729C1.06655 37.1412 1.51307 36.7053 2.05054 36.4136C2.61725 36.1073 3.25216 35.9511 3.89545 35.9598C4.37812 35.9548 4.85741 36.0413 5.30828 36.2147C5.7245 36.3774 6.09846 36.6333 6.4018 36.9629L5.94057 37.4269C5.6766 37.1578 5.36036 36.9462 5.01156 36.8054C4.66275 36.6647 4.28887 36.5976 3.91319 36.6086C3.39547 36.602 2.88497 36.7311 2.43194 36.9833C1.99733 37.2235 1.63594 37.5782 1.38657 38.0093C1.13912 38.4559 1.00924 38.9587 1.00924 39.47C1.00924 39.9813 1.13912 40.4841 1.38657 40.9307C1.63685 41.3595 1.99815 41.7119 2.43194 41.9504C2.88497 42.2025 3.39547 42.3317 3.91319 42.3251C4.28992 42.3372 4.66498 42.2697 5.01419 42.127C5.36339 41.9843 5.67897 41.7696 5.94057 41.4966L6.4018 41.9606C6.09539 42.2931 5.71806 42.5515 5.29814 42.7164C4.84598 42.8915 4.36471 42.978 3.88024 42.9713C3.23982 42.9854 2.60645 42.8345 2.0404 42.5329Z" fill="black"/>
<path d="M8.95684 42.5279C8.41854 42.2361 7.9705 41.8009 7.66185 41.2699C7.35596 40.7211 7.19531 40.1025 7.19531 39.4734C7.19531 38.8442 7.35596 38.2256 7.66185 37.6768C7.9705 37.1459 8.41854 36.7106 8.95684 36.4188C9.526 36.1193 10.1588 35.9629 10.8011 35.9629C11.4435 35.9629 12.0762 36.1193 12.6454 36.4188C13.1818 36.7106 13.6287 37.1443 13.9379 37.673C14.2468 38.2224 14.4091 38.8428 14.4091 39.474C14.4091 40.1052 14.2468 40.7256 13.9379 41.275C13.6294 41.8052 13.1824 42.2403 12.6454 42.533C12.0759 42.832 11.4429 42.9878 10.8005 42.9869C10.1581 42.986 9.52549 42.8285 8.95684 42.5279ZM12.2779 41.9658C12.7088 41.7258 13.065 41.3701 13.3068 40.9385C13.5518 40.4893 13.6803 39.9851 13.6803 39.4727C13.6803 38.9603 13.5518 38.4562 13.3068 38.007C13.0648 37.5758 12.7086 37.2206 12.2779 36.9809C11.8241 36.738 11.3178 36.6109 10.8037 36.6109C10.2895 36.6109 9.78326 36.738 9.32937 36.9809C8.89542 37.2202 8.53546 37.5752 8.28907 38.007C8.04166 38.4554 7.91184 38.9599 7.91184 39.4727C7.91184 39.9856 8.04166 40.4901 8.28907 40.9385C8.53507 41.3709 8.89509 41.7264 9.32937 41.9658C9.78326 42.2087 10.2895 42.3358 10.8037 42.3358C11.3178 42.3358 11.8241 42.2087 12.2779 41.9658Z" fill="black"/>
<path d="M23.1677 36.02V42.9283H22.4708V37.4017L19.7731 42.0488H19.4297L16.7321 37.431V42.9283H16.0352V36.02H16.6332L19.616 41.1413L22.5684 36.02H23.1677Z" fill="black"/>
<path d="M30.0305 36.6509C30.5272 37.0758 30.7756 37.6549 30.7756 38.3882C30.7756 39.1215 30.5272 39.6989 30.0305 40.1204C29.533 40.5384 28.8462 40.7475 27.9702 40.7475H26.1304V42.9283H25.4043V36.02H27.9753C28.8513 36.02 29.5363 36.2303 30.0305 36.6509ZM29.511 39.6564C29.8709 39.3565 30.0508 38.9337 30.0508 38.3882C30.0508 37.8291 29.8709 37.4 29.511 37.1009C29.1511 36.8018 28.6312 36.6522 27.9512 36.6522H26.1265V40.1063H27.9512C28.627 40.1063 29.1465 39.9564 29.5097 39.6564H29.511Z" fill="black"/>
<path d="M36.3139 41.0825H32.4872L31.6636 42.9281H30.9033L34.042 36.0186H34.7591L37.8978 42.9281H37.1375L36.3139 41.0825ZM36.0491 40.4898L34.4018 36.7795L32.7546 40.4898H36.0491Z" fill="black"/>
<path d="M44.781 36.02V42.9283H44.183L39.7671 37.3201V42.9283H39.041V36.02H39.6404L44.0651 41.6282V36.02H44.781Z" fill="black"/>
<path d="M47.0176 36.02H47.7436V42.9283H47.0176V36.02Z" fill="black"/>
<path d="M54.8363 42.2959V42.9332H49.9795V36.0249H54.6893V36.6622H50.7055V39.1196H54.2535V39.7416H50.7055V42.3073L54.8363 42.2959Z" fill="black"/>
<path d="M56.9704 42.7406C56.5627 42.6122 56.191 42.3886 55.8857 42.088L56.1708 41.5259C56.4536 41.7978 56.7917 42.0048 57.1617 42.1326C57.5696 42.287 58.0019 42.3656 58.4377 42.3646C59.0527 42.3646 59.5135 42.2511 59.8201 42.0243C59.9639 41.9272 60.0814 41.7956 60.162 41.6414C60.2425 41.4872 60.2835 41.3152 60.2814 41.141C60.2863 41.0191 60.2664 40.8976 60.2228 40.7838C60.1792 40.67 60.1129 40.5665 60.0279 40.4795C59.8531 40.3093 59.6439 40.1789 59.4146 40.0971C59.0821 39.9824 58.7437 39.8853 58.401 39.8065C57.9819 39.7042 57.5693 39.5765 57.1655 39.4241C56.8663 39.3053 56.5993 39.1171 56.3863 38.8748C56.1541 38.588 56.0371 38.2243 56.0581 37.8551C56.0546 37.5174 56.1502 37.1862 56.333 36.903C56.5411 36.5959 56.8347 36.3573 57.1769 36.2172C57.6248 36.0331 58.1062 35.9463 58.5898 35.9623C58.9798 35.9624 59.3679 36.0173 59.7428 36.1255C60.09 36.2211 60.4194 36.3727 60.7185 36.5741L60.4727 37.1566C60.1884 36.9677 59.8774 36.8229 59.5502 36.7271C59.238 36.6338 58.9142 36.5858 58.5885 36.5843C57.987 36.5843 57.5343 36.7012 57.2301 36.9348C57.0871 37.0368 56.9708 37.1722 56.8913 37.3294C56.8118 37.4866 56.7716 37.6609 56.774 37.8372C56.7687 37.9599 56.7885 38.0823 56.8321 38.1969C56.8757 38.3116 56.9421 38.416 57.0274 38.5039C57.2053 38.6771 57.4196 38.8078 57.6546 38.8862C57.9081 38.9754 58.246 39.0727 58.6683 39.1781C59.0829 39.2751 59.4909 39.3986 59.8898 39.5477C60.1939 39.6639 60.465 39.8534 60.6792 40.0996C60.9073 40.3815 61.0229 40.7386 61.0036 41.1015C61.0061 41.4397 60.9087 41.7711 60.7236 42.0536C60.5107 42.3606 60.2122 42.5975 59.8657 42.7342C59.4136 42.9158 58.9294 43.0026 58.4428 42.9891C57.9416 42.9903 57.4437 42.9063 56.9704 42.7406Z" fill="black"/>
<path d="M1.71313 45.1445H0V44.6958H3.94452V45.1445H2.23012V49.6055H1.7144L1.71313 45.1445Z" fill="black"/>
<path d="M5.51551 49.3187C5.13331 49.1119 4.81506 48.8032 4.59559 48.4265C4.3786 48.0372 4.26465 47.5983 4.26465 47.1519C4.26465 46.7056 4.3786 46.2667 4.59559 45.8774C4.81521 45.5008 5.13343 45.1922 5.51551 44.9851C5.91973 44.772 6.36931 44.6606 6.8257 44.6606C7.2821 44.6606 7.73168 44.772 8.1359 44.9851C8.51674 45.1925 8.83364 45.5012 9.05202 45.8774C9.27133 46.2676 9.38658 46.7082 9.38658 47.1564C9.38658 47.6046 9.27133 48.0453 9.05202 48.4355C8.83348 48.8115 8.51662 49.1201 8.1359 49.3277C7.73158 49.5405 7.28204 49.6517 6.8257 49.6517C6.36937 49.6517 5.91982 49.5405 5.51551 49.3277V49.3187ZM7.87487 48.9185C8.18106 48.7484 8.43419 48.496 8.60599 48.1895C8.77968 47.8704 8.87072 47.5125 8.87072 47.1488C8.87072 46.785 8.77968 46.4271 8.60599 46.1081C8.43475 45.8002 8.18157 45.5464 7.87487 45.3752C7.55247 45.2025 7.19284 45.1123 6.8276 45.1123C6.46237 45.1123 6.10274 45.2025 5.78034 45.3752C5.4718 45.5448 5.21607 45.7972 5.04161 46.1042C4.86529 46.4224 4.77274 46.7807 4.77274 47.1449C4.77274 47.5092 4.86529 47.8674 5.04161 48.1856C5.21607 48.4927 5.4718 48.7451 5.78034 48.9147C6.10243 49.0879 6.4619 49.1788 6.82713 49.1795C7.19236 49.1802 7.55216 49.0906 7.87487 48.9185Z" fill="black"/>
<path d="M19.0678 44.6958L17.4206 49.603H16.877L15.4489 45.4185L14.0146 49.603H13.4773L11.8301 44.6958H12.3597L13.7675 48.916L15.2247 44.6958H15.7125L17.1443 48.944L18.5724 44.7022L19.0678 44.6958Z" fill="black"/>
<path d="M20.7808 49.3187C20.3993 49.1115 20.0815 48.8029 19.8622 48.4265C19.6452 48.0372 19.5313 47.5983 19.5312 47.152C19.5313 46.7056 19.6452 46.2667 19.8622 45.8774C20.0817 45.5012 20.3994 45.1926 20.7808 44.9852C21.1853 44.772 21.6351 44.6606 22.0917 44.6606C22.5483 44.6606 22.9981 44.772 23.4025 44.9852C23.7831 45.1929 24.0999 45.5015 24.3186 45.8774C24.5392 46.2665 24.6561 46.7064 24.6579 47.1544C24.6597 47.6024 24.5463 48.0433 24.3288 48.4342C24.1096 48.8097 23.7929 49.1182 23.4126 49.3264C23.0081 49.5392 22.5583 49.6504 22.1018 49.6504C21.6453 49.6504 21.1955 49.5392 20.791 49.3264L20.7808 49.3187ZM23.1402 48.9185C23.447 48.7488 23.7007 48.4963 23.8726 48.1895C24.0463 47.8704 24.1373 47.5125 24.1373 47.1488C24.1373 46.785 24.0463 46.4271 23.8726 46.1081C23.7007 45.8012 23.447 45.5487 23.1402 45.379C22.8178 45.2064 22.4582 45.1161 22.0929 45.1161C21.7277 45.1161 21.3681 45.2064 21.0457 45.379C20.7371 45.5486 20.4814 45.801 20.3069 46.1081C20.1312 46.4264 20.039 46.7846 20.039 47.1488C20.039 47.5129 20.1312 47.8711 20.3069 48.1895C20.4814 48.4965 20.7371 48.7489 21.0457 48.9185C21.3686 49.0918 21.7289 49.1824 22.0948 49.1824C22.4608 49.1824 22.8211 49.0918 23.144 48.9185H23.1402Z" fill="black"/>
<path d="M29.1434 49.603L28.0284 48.0263C27.8988 48.0401 27.7685 48.0469 27.6381 48.0467H26.3292V49.603H25.8135V44.6958H27.6394C28.262 44.6958 28.7498 44.8454 29.1029 45.1445C29.2787 45.296 29.4179 45.4859 29.5097 45.6997C29.6014 45.9135 29.6435 46.1456 29.6325 46.3783C29.6435 46.7249 29.5421 47.0658 29.3436 47.3495C29.1357 47.6234 28.8463 47.8234 28.5175 47.9205L29.7086 49.603H29.1434ZM28.7329 47.287C28.9729 47.0536 29.1109 46.7338 29.1166 46.398C29.1223 46.0622 28.9952 45.7378 28.7633 45.4962L28.7329 45.4669C28.4795 45.2553 28.1082 45.1483 27.6254 45.1483H26.3292V47.6057H27.6229C28.1057 47.6057 28.4757 47.4973 28.7304 47.2819L28.7329 47.287Z" fill="black"/>
<path d="M32.3645 47.2958L31.3673 48.3155V49.6054H30.8516V44.6982H31.3673V47.6642L34.2322 44.6982H34.8252L32.713 46.9211L34.9722 49.6028H34.3589L32.3645 47.2958Z" fill="black"/>
<path d="M38.1485 45.1445V47.0716H40.6739V47.5203H38.1485V49.603H37.6328V44.6958H40.978V45.1445H38.1485Z" fill="black"/>
<path d="M42.8007 49.3187C42.4188 49.1115 42.1006 48.8029 41.8808 48.4265C41.6644 48.037 41.5508 47.5982 41.5508 47.1519C41.5508 46.7057 41.6644 46.2669 41.8808 45.8774C42.1007 45.5011 42.4189 45.1925 42.8007 44.9851C43.2049 44.772 43.6545 44.6606 44.1109 44.6606C44.5673 44.6606 45.0169 44.772 45.4211 44.9851C45.8023 45.1925 46.1196 45.5011 46.3385 45.8774C46.5578 46.2676 46.6731 46.7082 46.6731 47.1564C46.6731 47.6046 46.5578 48.0453 46.3385 48.4355C46.1192 48.8113 45.8019 49.1198 45.4211 49.3277C45.0168 49.5405 44.5672 49.6517 44.1109 49.6517C43.6546 49.6517 43.205 49.5405 42.8007 49.3277V49.3187ZM45.1601 48.9185C45.4669 48.7488 45.7205 48.4963 45.8925 48.1895C46.0662 47.8704 46.1572 47.5125 46.1572 47.1488C46.1572 46.785 46.0662 46.4271 45.8925 46.1081C45.7211 45.7998 45.4674 45.546 45.1601 45.3752C44.8377 45.2025 44.478 45.1123 44.1128 45.1123C43.7476 45.1123 43.3879 45.2025 43.0655 45.3752C42.757 45.5448 42.5013 45.7972 42.3268 46.1042C42.1511 46.4226 42.0589 46.7808 42.0589 47.1449C42.0589 47.5091 42.1511 47.8673 42.3268 48.1856C42.5013 48.4927 42.757 48.7451 43.0655 48.9147C43.3876 49.0879 43.7471 49.1788 44.1123 49.1795C44.4776 49.1802 44.8374 49.0906 45.1601 48.9185Z" fill="black"/>
<path d="M51.1613 49.603L50.0513 48.0263C49.9217 48.0401 49.7914 48.0469 49.6611 48.0467H48.3458V49.603H47.8301V44.6958H49.656C50.2786 44.6958 50.7664 44.8454 51.1195 45.1445C51.2953 45.296 51.4345 45.4859 51.5263 45.6997C51.618 45.9135 51.6601 46.1456 51.6491 46.3783C51.666 46.7247 51.5647 47.0665 51.3618 47.3471C51.159 47.6276 50.867 47.8299 50.5341 47.9205L51.7252 49.603H51.1613ZM50.7495 47.287C50.9893 47.0534 51.1271 46.7335 51.1326 46.3977C51.138 46.0619 51.0107 45.7377 50.7786 45.4962L50.7495 45.4669C50.4961 45.2553 50.1248 45.1483 49.642 45.1483H48.3458V47.6057H49.642C50.1248 47.6057 50.4948 47.4973 50.7495 47.2819V47.287Z" fill="black"/>
<path d="M54.6934 44.6958H55.2091V49.603H54.6934V44.6958Z" fill="black"/>
<path d="M60.8754 44.6958V49.603H60.4497L57.3136 45.6199V49.603H56.7979V44.6958H57.2236L60.366 48.6776V44.6958H60.8754Z" fill="black"/>
<path d="M1.58035 52.9679V54.5675H4.36799V55.6917H1.58035V57.8968H0.186523V51.8438H4.73419V52.9679H1.58035Z" fill="#DB4F40"/>
<path d="M6.84215 57.5936C6.35493 57.336 5.94765 56.9483 5.66501 56.4732C5.38606 55.9854 5.23926 55.4325 5.23926 54.8698C5.23926 54.307 5.38606 53.7542 5.66501 53.2664C5.94773 52.7916 6.35502 52.4044 6.84215 52.1473C7.36231 51.8712 7.94319 51.7314 8.53121 51.7407C9.11764 51.7313 9.69691 51.8711 10.2152 52.1473C10.706 52.4104 11.1164 52.8028 11.4026 53.2824C11.6888 53.7621 11.84 54.311 11.84 54.8704C11.84 55.4298 11.6888 55.9788 11.4026 56.4584C11.1164 56.9381 10.706 57.3305 10.2152 57.5936C9.69673 57.8673 9.11794 58.005 8.53248 57.9938C7.94463 58.0047 7.36345 57.8671 6.84215 57.5936ZM9.49422 56.5612C9.77805 56.3991 10.0115 56.1608 10.1683 55.8729C10.3289 55.5634 10.4127 55.2195 10.4127 54.8704C10.4127 54.5213 10.3289 54.1774 10.1683 53.868C10.0118 53.5801 9.7783 53.3421 9.49422 53.181C9.19875 53.0191 8.86766 52.9343 8.53121 52.9343C8.19477 52.9343 7.86368 53.0191 7.56821 53.181C7.28413 53.3421 7.05061 53.5801 6.89411 53.868C6.73355 54.1774 6.64971 54.5213 6.64971 54.8704C6.64971 55.2195 6.73355 55.5634 6.89411 55.8729C7.05097 56.1608 7.28437 56.3991 7.56821 56.5612C7.86423 56.722 8.19539 56.8063 8.53185 56.8063C8.8683 56.8063 9.19947 56.722 9.49549 56.5612H9.49422Z" fill="#DB4F40"/>
<path d="M16.7054 57.8956L15.5447 56.2093H14.2649V57.8956H12.8711V51.8439H15.475C15.9533 51.8316 16.4287 51.9229 16.8688 52.1115C17.244 52.2695 17.562 52.5392 17.7801 52.8844C17.9983 53.2297 18.1061 53.6338 18.0891 54.0425C18.1053 54.4508 17.995 54.8541 17.7734 55.1966C17.5519 55.5391 17.23 55.8039 16.8524 55.9544L18.2018 57.8994L16.7054 57.8956ZM16.3531 53.2574C16.1352 53.0764 15.8171 52.9859 15.399 52.9859H14.2586V55.0941H15.399C15.8171 55.0941 16.1352 55.0019 16.3531 54.8175C16.5587 54.6153 16.676 54.3392 16.6793 54.05C16.6827 53.7609 16.5717 53.4822 16.3709 53.2752L16.3531 53.2574Z" fill="#DB4F40"/>
<path d="M20.3498 52.986H18.4238V51.8389H23.6671V52.986H21.7424V57.8957H20.3486L20.3498 52.986Z" fill="#DB4F40"/>
<path d="M35.9387 51.8438L33.9708 57.8955H32.4756L31.1528 53.7977L29.7856 57.8955H28.2992L26.3213 51.8438H27.7658L29.1241 56.097L30.537 51.8438H31.8256L33.2004 56.1315L34.6019 51.8438H35.9387Z" fill="#DB4F40"/>
<path d="M37.8688 57.5933C37.3812 57.3358 36.9736 56.9481 36.6904 56.473C36.4121 55.985 36.2656 55.4322 36.2656 54.8696C36.2656 54.3069 36.4121 53.7541 36.6904 53.2661C36.9733 52.7911 37.3811 52.4038 37.8688 52.147C38.3914 51.8799 38.9692 51.7407 39.5553 51.7407C40.1415 51.7407 40.7193 51.8799 41.2419 52.147C41.7327 52.4102 42.1431 52.8025 42.4293 53.2822C42.7155 53.7619 42.8667 54.3108 42.8667 54.8702C42.8667 55.4296 42.7155 55.9785 42.4293 56.4582C42.1431 56.9378 41.7327 57.3302 41.2419 57.5933C40.7193 57.8604 40.1415 57.9997 39.5553 57.9997C38.9692 57.9997 38.3914 57.8604 37.8688 57.5933ZM40.5196 56.5609C40.8034 56.3984 41.0371 56.1602 41.195 55.8727C41.3555 55.5632 41.4394 55.2193 41.4394 54.8702C41.4394 54.5211 41.3555 54.1772 41.195 53.8677C41.038 53.5798 40.804 53.3419 40.5196 53.1807C40.2244 53.0189 39.8935 52.934 39.5572 52.934C39.221 52.934 38.8901 53.0189 38.5949 53.1807C38.3105 53.3419 38.0765 53.5798 37.9195 53.8677C37.759 54.1772 37.6751 54.5211 37.6751 54.8702C37.6751 55.2193 37.759 55.5632 37.9195 55.8727C38.0768 56.1606 38.3107 56.3989 38.5949 56.5609C38.8903 56.7221 39.2211 56.8066 39.5572 56.8066C39.8934 56.8066 40.2242 56.7221 40.5196 56.5609Z" fill="#DB4F40"/>
<path d="M47.7311 57.8954L46.5704 56.2092H45.2893V57.8954H43.8955V51.8437H46.5032C46.9794 51.8325 47.4525 51.9237 47.8907 52.1114C48.2663 52.269 48.585 52.5386 48.8038 52.8838C49.0226 53.229 49.1311 53.6333 49.1147 54.0424C49.1305 54.4507 49.0199 54.854 48.7981 55.1964C48.5764 55.5388 48.2545 55.8036 47.8768 55.9542L49.2262 57.8993L47.7311 57.8954ZM47.3775 53.2572C47.1613 53.0762 46.8437 52.9857 46.4247 52.9857H45.2843V55.0939H46.4247C46.847 55.0939 47.1647 55.0017 47.3775 54.8173C47.4789 54.7171 47.5596 54.5977 47.6151 54.4661C47.6706 54.3344 47.6998 54.1931 47.701 54.0501C47.7022 53.9071 47.6753 53.7653 47.622 53.6328C47.5687 53.5002 47.4899 53.3795 47.3902 53.2776L47.3775 53.2572Z" fill="#DB4F40"/>
<path d="M51.374 52.986H49.4492V51.8389H54.6913V52.986H52.7665V57.8957H51.3727L51.374 52.986Z" fill="#DB4F40"/>
<path d="M60.957 51.8438V57.8955H59.5632V55.4139H56.8313V57.8955H55.4375V51.8438H56.8313V54.2298H59.5645V51.8438H60.957Z" fill="#DB4F40"/>
<path d="M30.4357 10.8633H29.5323V12.4909H33.6022V10.8633H32.6519V4.1577H29.3574V5.78152H30.4345V10.8633H30.4357ZM29.9758 1.38547C29.9758 2.21395 30.546 2.77222 31.4634 2.77222C32.3807 2.77222 32.9522 2.21523 32.9522 1.38547C32.9522 0.555719 32.382 0 31.4634 0C30.5447 0 29.9758 0.558268 29.9758 1.38547ZM34.8656 10.8633H34.0571V12.4909H38.0321V10.8633H37.0817V8.09107C37.0817 6.83433 37.6671 5.87839 39.0141 5.87839C39.8529 5.87839 40.4548 6.29135 40.4548 7.43848V10.8633H39.5513V12.4909H43.6213V10.8633H42.671V7.21543C42.671 5.22452 41.7688 3.96523 39.8048 3.96523C38.3641 3.96523 37.3504 4.77842 36.9398 5.87711H36.9069C37.0111 5.30988 37.0536 4.73291 37.0336 4.15642H33.7885V5.78152H34.8656V10.8633ZM48.6188 6.80246H50.5194V4.36418C49.674 4.09727 48.7927 3.96314 47.9067 3.96651C45.2622 3.96651 43.5529 5.63877 43.5529 8.33069C43.5529 10.7358 45.0405 12.6783 47.861 12.6783C48.9698 12.6783 49.54 12.584 50.3471 12.2806L50.4738 10.4019C49.8259 10.7072 49.1189 10.8648 48.4034 10.8633C46.5027 10.8633 45.7754 9.50841 45.7754 8.09107C45.7754 6.94394 46.3925 5.59161 47.8648 5.59161C48.1211 5.59297 48.3762 5.62462 48.6251 5.68593V6.80246H48.6188ZM50.9477 11.3247C50.9477 12.1213 51.4863 12.7586 52.4353 12.7586C53.3844 12.7586 53.9242 12.1213 53.9242 11.3247C53.9242 10.3853 53.2754 9.89206 52.4353 9.89206C51.5952 9.89206 50.9477 10.3853 50.9477 11.3247Z" fill="#464646"/>
<path d="M6.99979 12.5672V10.4743H5.09912V7.23433H7.76006V5.14146H5.09912V2.27492H8.79909V4.00198H11.161V0.178223H0.139648V2.27492H1.90093V10.4743H0.139648V12.5672H6.99979ZM18.7674 12.5672L20.587 6.94882L22.513 12.5672H24.8002L28.177 2.26089H29.5049V0.182046H24.6076V2.26089H25.8303L23.903 8.16987L21.8985 2.26089H23.0389V0.182046H18.6344V2.26089H19.7431L17.8792 8.16987L15.8911 2.26089H17.1582V0.182046H11.6438V2.26089H12.9362L16.4284 12.5672H18.7674Z" fill="#DB4F40"/>
</g>
<defs>
<clipPath id="clip0_147_8831">
<rect width="61" height="58" fill="white"/>
</clipPath>
</defs>
</svg>