<?xml version="1.0" encoding="utf-8"?>
<!-- Generator: Adobe Illustrator 26.5.0, SVG Export Plug-In . SVG Version: 6.00 Build 0)  -->
<svg version="1.1" id="Layer_1" xmlns="http://www.w3.org/2000/svg" xmlns:xlink="http://www.w3.org/1999/xlink" x="0px" y="0px"
	 viewBox="0 0 427 427" style="enable-background:new 0 0 427 427;" xml:space="preserve">
<g id="Layer_2_00000134928268540358145960000006831373798263845268_">
	<g id="Layer_1-2">
		<path d="M213.5,427C95.8,427,0,331.2,0,213.5S95.8,0,213.5,0C331.4,0,427,95.6,427,213.5C427,331.4,331.4,427,213.5,427z M213.5,7
			C99.6,7,7,99.6,7,213.4S99.6,420,213.5,420S420,327.4,420,213.5S327.4,7,213.5,7z"/>
		<path d="M256.5,194.7c-9.1,0-14.2,16.8-14.2,48.6c0,29.6,2.9,48.4,13.7,48.4c9.3,0,14.3-16.9,14.3-48.6
			C270.3,214.3,267.5,194.7,256.5,194.7z"/>
		<path d="M123.2,174.1c-0.3,0.3-0.6,0.5-0.9,0.8v0.4h2.2c0-0.1,0.1-0.1,0.1-0.2L123.2,174.1z"/>
		<path d="M168.7,194.7c-9.1,0-14.2,16.8-14.2,48.6c0,29.6,2.9,48.4,13.7,48.4c9.3,0,14.3-16.9,14.3-48.6
			C182.5,214.3,179.6,194.7,168.7,194.7z"/>
		<path d="M344.4,194.7c-9.1,0-14.2,16.8-14.2,48.6c0,29.6,2.9,48.4,13.7,48.4c9.3,0,14.3-16.9,14.3-48.6
			C358.2,214.3,355.3,194.7,344.4,194.7z"/>
		<path d="M211.8,26C108.2,26,24.2,109.9,24.2,213.4c0,17.9,2.5,35.7,7.6,52.8c2.8-6,8-8.9,13.2-8.9c8.1,0,14,5.6,14,13.6
			c0,9.4-3.8,16.6-6.4,23c0.7,4.9,5.5,8.6,12.3,8.6c12.4,0,20-16.7,20-43.4c0-20.1-6-32.1-19.2-32.1c-9.5,0-20,7.2-25.2,18.7l-2.8-1
			l13.1-69.7H53c2.4,3.3,20.7,8,34,8c11.6,0,27.5-1.9,35.3-8.2v-14.1h12.9v-36.5h-8.7v-15.7h46.4v15.7h-8.7v36.5h8.7v14.6h-48.4
			c-14.3,27.4-35.5,36.4-55.3,36.4c-4,0-21.1-0.6-22.1-0.8l-4.7,24.5c6.1-5.8,15.4-12.3,34.7-12.3c22.8,0,43.7,12.9,43.7,36.8
			c0,30-23.7,44.8-52.7,44.8l0,0c-8.5,0-16-1-22.1-3.4c32.5,61.4,96.3,99.8,165.8,99.8c103.6,0,187.5-84,187.5-187.5
			S315.3,26,211.8,26z M315.8,159.9L315.8,159.9c4.5,0,8.2,3.7,8.2,8.2c0,4.5-3.7,8.2-8.2,8.2c-4.5,0-8.2-3.7-8.2-8.2
			C307.5,163.6,311.2,159.9,315.8,159.9C315.7,159.9,315.7,159.9,315.8,159.9L315.8,159.9z M167.6,293.6L167.6,293.6
			c-23.6,0-40.4-19.3-40.4-48.3c0-35.8,22.2-52.5,42-52.5c23.8,0,40.6,19,40.6,48.3C209.8,276.6,187.9,293.6,167.6,293.6z
			 M214.2,138.9c-5-0.2-9.2,3.8-9.4,8.8v13.1h6.9v14.5h-36.3v-14.5h6.6v-21.9h-6.6v-14.6h28.6v10c0.5-0.4,0.9-0.9,1.3-1.4
			c5.2-6,11.2-8.1,19.1-8.1c11,0,20,4.5,20,16.8v19.2h5.9v14.5h-35.4v-14.5h6.7v-15.2C221.6,140.9,218.4,138.9,214.2,138.9z
			 M255.5,293.6L255.5,293.6c-23.6,0-40.4-19.3-40.4-48.3c0-35.8,22.2-52.5,42-52.5c23.8,0,40.6,19,40.6,48.3
			C297.7,276.6,275.7,293.6,255.5,293.6z M280.5,176.5c-16.2,0-32.1-8-32.1-26s15.9-26,32.1-26c0,0,25.4-1.6,27.8,21.2v0.1
			l-19.6,2.1c-0.2-5.4-1.4-11.2-8-11.2c-8.4,0-9.1,7-9.1,13.8v0.1c0,6.7,0.6,13.8,9.1,13.8c4.4,0,8.3-2.5,8.3-7.9h19.5l-0.2,1.7
			C305.1,174.1,290.8,176.5,280.5,176.5L280.5,176.5z M343.4,293.6L343.4,293.6c-23.6,0-40.4-19.3-40.4-48.3
			c0-35.8,22.2-52.5,42-52.5c23.8,0,40.6,19,40.6,48.3C385.5,276.6,363.6,293.6,343.4,293.6L343.4,293.6z"/>
	</g>
</g>
</svg>
