<svg xmlns="http://www.w3.org/2000/svg" width="55" height="57" viewBox="0 0 55 57" fill="none">
<path d="M27.7465 0.835938C12.7151 0.835938 0.519539 13.2132 0.519539 28.4925C0.51754 31.1295 0.886704 33.7533 1.61582 36.2841C2.02239 35.3989 2.77744 34.9651 3.53539 34.9651C4.71589 34.9651 5.56823 35.7869 5.56823 36.9673C5.56823 38.3586 5.01646 39.4209 4.64039 40.3607C4.74057 41.0895 5.44336 41.6354 6.42202 41.6354C8.22253 41.6354 9.32607 39.1774 9.32607 35.2336C9.32607 32.2607 8.45485 30.5005 6.54254 30.5005C5.16311 30.5005 3.63849 31.5628 2.88053 33.261L2.47977 33.1135L4.38483 22.8284H4.69556C5.04114 23.3123 7.6998 24.0087 9.63245 24.0087C11.3197 24.0087 13.627 23.7343 14.7625 22.7974V20.7156H16.637V15.3259H15.3738V13.0169H22.1053V15.3259H20.8421V20.7127H22.1053V22.8594H15.079C12.9968 26.8991 9.92285 28.2284 7.04349 28.2284C6.46268 28.2284 3.97826 28.1369 3.83306 28.1074L3.15642 31.7177C4.04215 30.8679 5.38818 29.9015 8.19785 29.9015C11.5085 29.9015 14.5432 31.8122 14.5432 35.3325C14.5432 39.7587 11.1048 41.9453 6.89393 41.9453C5.6568 41.9453 4.57069 41.7977 3.67915 41.4466C5.99527 45.8909 9.45993 49.6096 13.7005 52.2028C17.9411 54.7959 22.7972 56.1653 27.7465 56.1638C42.7836 56.1638 54.9748 43.7704 54.9748 28.4969C54.9748 13.2235 42.7778 0.835938 27.7465 0.835938ZM42.8475 20.5917C43.0838 20.592 43.3147 20.6634 43.511 20.797C43.7074 20.9306 43.8603 21.1204 43.9505 21.3423C44.0408 21.5642 44.0642 21.8083 44.0179 22.0437C43.9717 22.2792 43.8577 22.4954 43.6906 22.6651C43.5234 22.8347 43.3104 22.9502 43.0787 22.997C42.8469 23.0437 42.6067 23.0196 42.3884 22.9276C42.1701 22.8357 41.9836 22.68 41.8523 22.4804C41.7211 22.2807 41.651 22.046 41.651 21.8059C41.6505 21.646 41.681 21.4875 41.7409 21.3396C41.8008 21.1916 41.8889 21.0572 42 20.9439C42.1112 20.8307 42.2433 20.7409 42.3887 20.6797C42.5342 20.6185 42.6901 20.5871 42.8475 20.5872V20.5917ZM21.343 40.3179C17.9104 40.3179 15.471 37.4733 15.471 33.1961C15.471 27.92 18.6902 25.4443 21.5695 25.4443C25.021 25.4443 27.4619 28.2476 27.4619 32.5661C27.4619 37.8171 24.279 40.3164 21.343 40.3179ZM28.0978 17.4904C27.7488 17.4788 27.4094 17.6087 27.1546 17.8513C26.8997 18.094 26.7501 18.4296 26.7387 18.7843V20.7156H27.7436V22.8594H22.4698V20.7156H23.4267V17.4815H22.4756V15.3333H26.6357V16.8087C26.7053 16.7456 26.769 16.6759 26.8259 16.6007C27.5867 15.7154 28.4565 15.3997 29.5978 15.3997C31.195 15.3997 32.5018 16.0622 32.5018 17.871V20.7082H33.3571V22.8535H28.2111V20.7156H29.1898V18.47C29.184 17.7943 28.7091 17.4904 28.0978 17.4904ZM34.102 40.3179C30.6694 40.3179 28.23 37.4733 28.23 33.1961C28.23 27.92 31.4477 25.4443 34.3285 25.4443C37.7799 25.4443 40.2208 28.2476 40.2208 32.5661C40.2208 37.8171 37.038 40.3164 34.102 40.3179ZM37.732 23.0453C35.3812 23.0453 33.071 21.865 33.071 19.2092C33.071 16.5535 35.3812 15.3732 37.732 15.3732C37.732 15.3732 41.4158 15.1312 41.7629 18.4995V18.5084L38.9183 18.8256C38.8835 18.0245 38.7209 17.1761 37.7567 17.1761C36.5341 17.1761 36.4397 18.2089 36.4397 19.2048V19.2254C36.4397 20.2184 36.5341 21.2541 37.7567 21.2541C38.3985 21.2541 38.9648 20.8809 38.9648 20.09H41.7948L41.7716 20.3379C41.304 22.6794 39.2247 23.0453 37.7277 23.0453H37.732ZM46.8653 40.3179C43.4327 40.3179 40.9933 37.4733 40.9933 33.1961C40.9933 27.92 44.211 25.4443 47.0918 25.4443C50.5432 25.4443 52.9841 28.2476 52.9841 32.5661C52.9797 37.8171 49.7969 40.3164 46.8609 40.3179H46.8653Z" fill="black"/>
</svg>