<?xml version="1.0" encoding="UTF-8"?><svg id="Layer_2" xmlns="http://www.w3.org/2000/svg" viewBox="0 0 114.21 64.52"><defs><style>.cls-1{fill:#f58a00;}.cls-2{fill:#fff;}</style></defs><g id="Layer_1-2"><g><path class="cls-1" d="M0,44.67H5.78l1.8-5.41,1.78,5.41h5.78l-4.68,3.34,1.78,5.44-4.65-3.34-4.68,3.34,1.78-5.44-4.69-3.34Zm42.55,3.34l-1.78,5.44,4.68-3.34,4.65,3.34-1.78-5.44,4.68-3.34h-5.78l-1.78-5.41-1.8,5.41h-5.78l4.69,3.34Zm-18.93,0l-1.78,5.44,4.68-3.34,4.65,3.34-1.78-5.44,4.68-3.34h-5.78l-1.78-5.41-1.8,5.41h-5.78l4.69,3.34Zm37.87,0l-1.78,5.44,4.68-3.34,4.65,3.34-1.78-5.44,4.68-3.34h-5.78l-1.78-5.41-1.8,5.41h-5.78l4.69,3.34Zm18.93,0l-1.78,5.44,4.68-3.34,4.65,3.34-1.78-5.44,4.68-3.34h-5.78l-1.78-5.41-1.8,5.41h-5.78l4.69,3.34Z"/><path class="cls-2" d="M10.71,61.24c0-1.09,.26-2.13,.77-3.12,.06-.11,.15-.17,.26-.17,.06,0,.11,.02,.15,.06,.04,.04,.06,.09,.06,.15,0,.03,0,.07-.02,.11-.41,.96-.61,1.95-.61,2.97s.2,2.01,.61,2.97c.01,.04,.02,.08,.02,.11,0,.06-.02,.11-.06,.15-.04,.04-.09,.05-.15,.05-.11,0-.19-.06-.26-.17-.52-.99-.77-2.03-.77-3.12Zm5.78-.29c.16,.21,.24,.48,.24,.8,0,.45-.15,.8-.45,1.04-.3,.24-.72,.36-1.26,.36h-1.84c-.09,0-.17-.03-.22-.08-.06-.05-.08-.12-.08-.21v-4.56c0-.09,.03-.16,.08-.21,.06-.05,.13-.08,.22-.08h1.76c.53,0,.94,.12,1.23,.35,.29,.23,.44,.56,.44,.99,0,.28-.07,.52-.22,.71s-.34,.35-.6,.45c.3,.08,.53,.22,.69,.44Zm-3.02-.66h1.39c.38,0,.68-.08,.87-.23,.2-.16,.3-.38,.3-.68,0-.58-.39-.88-1.17-.88h-1.39v1.79Zm2.39,2.14c.19-.15,.29-.38,.29-.7,0-.63-.39-.95-1.18-.95h-1.5v1.87h1.5c.4,0,.7-.07,.89-.22Zm4.64-1.52v1.98c0,.09-.03,.16-.08,.21s-.12,.08-.21,.08-.16-.03-.21-.08c-.05-.05-.08-.12-.08-.21v-.35c-.09,.21-.23,.37-.42,.49-.19,.11-.41,.17-.66,.17-.23,0-.44-.05-.63-.14-.19-.09-.34-.22-.46-.39-.11-.17-.17-.35-.17-.55,0-.27,.07-.48,.2-.62s.36-.26,.67-.32,.74-.1,1.3-.1h.16v-.24c0-.29-.06-.51-.18-.64-.12-.14-.31-.2-.58-.2-.33,0-.67,.09-1.01,.27-.13,.08-.22,.12-.28,.12-.06,0-.11-.02-.15-.07-.04-.04-.06-.1-.06-.17s.02-.13,.06-.18c.04-.05,.11-.1,.2-.16,.17-.1,.36-.17,.58-.23,.22-.06,.43-.08,.65-.08,.89,0,1.34,.47,1.34,1.4Zm-.86,1.53c.19-.2,.28-.45,.28-.76v-.21h-.13c-.43,0-.75,.02-.98,.05-.22,.04-.38,.1-.48,.18-.1,.08-.14,.21-.14,.38,0,.19,.07,.35,.21,.47,.14,.12,.31,.19,.52,.19,.29,0,.53-.1,.72-.3Zm2.5,.68c-.2-.05-.38-.13-.54-.23-.09-.06-.15-.11-.19-.16-.04-.05-.05-.11-.05-.19,0-.06,.02-.12,.05-.16,.04-.04,.08-.06,.14-.06s.14,.04,.26,.11c.15,.09,.29,.16,.43,.21,.14,.05,.32,.08,.54,.08,.26,0,.47-.05,.61-.14,.15-.09,.22-.23,.22-.4,0-.11-.03-.19-.08-.26s-.15-.12-.28-.17c-.13-.05-.32-.1-.58-.16-.43-.09-.73-.22-.92-.37-.18-.16-.28-.37-.28-.63,0-.21,.06-.39,.17-.55,.12-.16,.28-.29,.49-.38,.21-.09,.44-.14,.7-.14,.19,0,.37,.03,.55,.08,.18,.05,.33,.12,.47,.21,.17,.12,.25,.24,.25,.37,0,.06-.02,.12-.06,.16s-.08,.07-.14,.07c-.06,0-.15-.04-.26-.12-.14-.09-.27-.16-.39-.2s-.27-.07-.45-.07c-.23,0-.41,.05-.55,.15-.14,.1-.21,.24-.21,.41,0,.11,.03,.19,.08,.26,.05,.07,.14,.12,.26,.17,.12,.05,.29,.1,.51,.15,.33,.07,.59,.15,.77,.24,.18,.09,.31,.2,.39,.32,.08,.13,.12,.29,.12,.48,0,.31-.13,.55-.39,.74-.26,.19-.6,.28-1.02,.28-.22,0-.44-.03-.64-.08Zm5.83-.73s.06,.1,.06,.17c0,.12-.09,.23-.26,.33-.18,.1-.36,.18-.55,.23-.19,.05-.38,.08-.57,.08-.55,0-.98-.16-1.3-.49-.32-.33-.48-.78-.48-1.35,0-.36,.07-.69,.21-.97,.14-.28,.34-.5,.59-.65,.26-.16,.55-.23,.87-.23,.46,0,.83,.15,1.1,.45,.27,.3,.41,.71,.41,1.23,0,.1-.02,.17-.06,.21-.04,.04-.1,.07-.19,.07h-2.35c.04,.84,.44,1.25,1.19,1.25,.19,0,.35-.03,.49-.08,.14-.05,.28-.12,.44-.21,.13-.07,.21-.11,.26-.11,.05,0,.1,.02,.14,.07Zm-2.16-2.13c-.19,.19-.3,.47-.33,.82h2.06c0-.36-.1-.64-.27-.83s-.41-.29-.71-.29-.56,.1-.75,.29Zm6.19-2.21c.05,.05,.08,.12,.08,.2v4.64c0,.09-.03,.16-.08,.21-.05,.05-.13,.08-.22,.08s-.16-.03-.22-.08c-.05-.05-.08-.12-.08-.21v-.39c-.11,.22-.26,.4-.47,.52-.21,.12-.45,.18-.73,.18-.31,0-.59-.08-.82-.23-.24-.16-.42-.37-.55-.65-.13-.28-.2-.6-.2-.97s.07-.69,.2-.96c.13-.28,.32-.49,.55-.64s.51-.23,.82-.23c.28,0,.52,.06,.73,.18,.21,.12,.36,.29,.47,.52v-1.96c0-.09,.03-.16,.08-.21,.05-.05,.12-.08,.22-.08s.17,.03,.22,.08Zm-.79,4.31c.19-.24,.28-.57,.28-1s-.09-.77-.28-1-.45-.35-.8-.35-.61,.12-.81,.35c-.19,.23-.29,.56-.29,.99s.1,.77,.29,1.01c.19,.24,.46,.36,.81,.36s.61-.12,.8-.35Zm4.44,.62c-.26-.15-.45-.37-.59-.65-.14-.28-.21-.6-.21-.97s.07-.69,.21-.97c.14-.28,.34-.5,.59-.65s.55-.23,.89-.23,.63,.08,.89,.23,.46,.37,.59,.65c.14,.28,.21,.6,.21,.97s-.07,.69-.21,.97c-.14,.28-.34,.5-.59,.65-.26,.15-.55,.23-.89,.23s-.63-.08-.89-.23Zm1.69-.61c.19-.23,.28-.57,.28-1.01s-.1-.77-.28-1c-.19-.24-.46-.35-.8-.35s-.61,.12-.8,.35c-.19,.24-.28,.57-.28,1s.09,.77,.28,1.01c.19,.23,.46,.35,.81,.35s.62-.12,.81-.35Zm4.83-1.45v1.98c0,.09-.03,.17-.08,.22-.05,.05-.12,.08-.22,.08s-.17-.03-.22-.08c-.05-.05-.08-.12-.08-.22v-1.94c0-.33-.06-.57-.19-.72s-.33-.23-.62-.23c-.33,0-.59,.1-.78,.3-.19,.2-.29,.47-.29,.81v1.78c0,.09-.03,.17-.08,.22-.05,.05-.12,.08-.21,.08s-.17-.03-.22-.08c-.05-.05-.08-.12-.08-.22v-3.08c0-.09,.03-.16,.08-.21,.05-.05,.13-.08,.22-.08,.09,0,.16,.03,.21,.08,.05,.05,.08,.12,.08,.21v.37c.12-.22,.28-.39,.49-.5,.21-.11,.45-.17,.71-.17,.85,0,1.28,.47,1.28,1.41Zm6.21,1.8s.07,.1,.07,.18c0,.08-.02,.15-.07,.19-.05,.04-.12,.07-.21,.07h-2.42c-.09,0-.16-.02-.21-.07s-.07-.11-.07-.19c0-.08,.02-.14,.07-.18,.05-.04,.12-.07,.2-.07h.9v-3.91l-.8,.52s-.08,.04-.12,.04c-.07,0-.13-.03-.18-.09s-.08-.13-.08-.2c0-.1,.04-.18,.12-.22l1.11-.72c.08-.05,.17-.08,.26-.08,.08,0,.15,.03,.2,.08,.05,.05,.08,.13,.08,.23v4.37h.91c.09,0,.16,.02,.2,.07Zm1.7-.21c.08,.09,.11,.24,.11,.43,0,.38-.12,.71-.37,.97-.05,.05-.1,.08-.17,.08-.05,0-.09-.02-.13-.05-.04-.04-.06-.08-.06-.13,0-.05,.02-.1,.06-.14,.13-.13,.21-.29,.24-.49-.11,0-.2-.05-.27-.12-.07-.07-.11-.16-.11-.27,0-.12,.04-.22,.11-.3,.08-.08,.17-.12,.28-.12,.12,0,.22,.05,.3,.14Zm4.42-4.43s.07,.11,.07,.18c0,.07-.02,.14-.07,.23l-2.42,4.56c-.06,.11-.14,.16-.26,.16-.08,0-.15-.03-.21-.08-.06-.05-.09-.12-.09-.2,0-.05,.02-.11,.05-.16l2.28-4.25h-2.52c-.09,0-.15-.02-.2-.07-.05-.04-.07-.1-.07-.18,0-.08,.02-.15,.07-.19,.05-.04,.11-.07,.2-.07h2.96c.09,0,.15,.02,.2,.07Zm4.29,2.91c.17,.22,.25,.49,.25,.8,0,.44-.16,.79-.48,1.04-.32,.25-.78,.38-1.36,.38s-1.04-.12-1.36-.38c-.32-.25-.48-.6-.48-1.04,0-.32,.09-.59,.26-.81,.17-.22,.41-.38,.71-.47-.26-.1-.46-.25-.61-.46-.15-.21-.23-.46-.23-.74,0-.42,.15-.75,.46-1,.3-.25,.73-.37,1.27-.37s.96,.12,1.27,.37c.3,.25,.46,.58,.46,1,0,.28-.08,.53-.23,.74s-.35,.36-.61,.46c.3,.09,.54,.25,.7,.47Zm-.34,.77c0-.64-.42-.96-1.26-.96s-1.25,.32-1.25,.96,.42,.96,1.25,.96,1.26-.32,1.26-.96Zm-2.1-1.7c.19,.16,.47,.24,.84,.24s.65-.08,.84-.24c.19-.16,.29-.39,.29-.69s-.1-.51-.29-.67c-.19-.16-.47-.24-.84-.24s-.65,.08-.84,.24c-.19,.16-.29,.38-.29,.67,0,.3,.1,.53,.29,.69Zm6.5-1.45c.34,.43,.51,1.05,.51,1.85,0,.57-.08,1.07-.23,1.48-.16,.41-.38,.73-.68,.95-.3,.22-.65,.33-1.06,.33-.28,0-.55-.05-.83-.16-.28-.11-.51-.25-.7-.44-.08-.08-.12-.16-.12-.25,0-.07,.02-.13,.06-.18,.04-.05,.09-.07,.14-.07,.07,0,.14,.03,.21,.08,.42,.34,.83,.52,1.23,.52,.43,0,.77-.2,1.01-.59,.24-.39,.36-.95,.36-1.66v-.09c-.11,.27-.29,.49-.54,.64-.25,.16-.53,.23-.85,.23s-.59-.07-.83-.2c-.24-.14-.43-.33-.57-.58-.14-.25-.2-.53-.2-.85s.07-.6,.21-.85c.14-.25,.34-.45,.59-.59,.25-.14,.54-.21,.85-.21,.62,0,1.1,.22,1.44,.65Zm-.58,1.82c.21-.21,.32-.49,.32-.82s-.11-.62-.32-.83c-.21-.21-.49-.32-.83-.32s-.6,.1-.79,.31c-.2,.21-.3,.49-.3,.83s.1,.62,.3,.83c.2,.21,.47,.31,.8,.31s.61-.11,.82-.32Zm7.99,2.53c0,.07-.03,.13-.08,.18-.06,.05-.12,.07-.19,.07-.11,0-.2-.05-.26-.15l-.98-1.55c-.13-.2-.26-.34-.39-.41-.14-.08-.32-.11-.55-.11h-.92v1.91c0,.09-.03,.17-.08,.22-.05,.06-.12,.08-.21,.08s-.17-.03-.22-.08c-.05-.06-.08-.13-.08-.22v-4.58c0-.09,.03-.16,.08-.21s.13-.08,.22-.08h1.81c.56,0,.99,.12,1.28,.37,.29,.25,.44,.61,.44,1.09,0,.41-.12,.74-.35,.99-.24,.25-.57,.4-1.01,.45,.12,.04,.23,.1,.33,.19,.1,.09,.19,.21,.29,.37l.83,1.31c.03,.05,.05,.11,.05,.17Zm-1.91-2.47c.4,0,.7-.08,.89-.25s.3-.42,.3-.75-.1-.58-.29-.74c-.19-.16-.49-.24-.9-.24h-1.47v1.98h1.47Zm5.63,.43v1.98c0,.09-.03,.16-.08,.21-.05,.05-.12,.08-.21,.08s-.16-.03-.21-.08-.08-.12-.08-.21v-.35c-.09,.21-.23,.37-.42,.49s-.41,.17-.66,.17c-.23,0-.44-.05-.63-.14-.19-.09-.34-.22-.46-.39-.11-.17-.17-.35-.17-.55,0-.27,.07-.48,.21-.62,.14-.15,.36-.26,.67-.32s.74-.1,1.3-.1h.16v-.24c0-.29-.06-.51-.18-.64-.12-.14-.31-.2-.58-.2-.33,0-.67,.09-1.01,.27-.13,.08-.22,.12-.28,.12-.06,0-.11-.02-.15-.07s-.06-.1-.06-.17,.02-.13,.06-.18c.04-.05,.11-.1,.2-.16,.17-.1,.36-.17,.58-.23,.22-.06,.43-.08,.65-.08,.89,0,1.34,.47,1.34,1.4Zm-.86,1.53c.19-.2,.28-.45,.28-.76v-.21h-.13c-.43,0-.75,.02-.98,.05s-.38,.1-.48,.18-.14,.21-.14,.38c0,.19,.07,.35,.21,.47,.14,.12,.31,.19,.52,.19,.29,0,.53-.1,.72-.3Zm3.83,.51c0,.08-.03,.15-.09,.19s-.15,.06-.27,.05h-.2c-.39-.04-.68-.16-.86-.36s-.28-.51-.28-.93v-1.83h-.49c-.08,0-.15-.02-.19-.06-.05-.04-.07-.1-.07-.16,0-.07,.02-.13,.07-.18,.05-.04,.11-.07,.19-.07h.49v-.82c0-.09,.03-.17,.08-.22,.05-.05,.13-.08,.22-.08,.09,0,.16,.03,.21,.08s.08,.12,.08,.22v.82h.81c.08,0,.14,.02,.19,.07,.05,.04,.07,.1,.07,.18,0,.07-.02,.12-.07,.16-.05,.04-.11,.06-.19,.06h-.81v1.86c0,.27,.06,.46,.17,.58s.27,.19,.49,.2h.2c.17,.03,.25,.11,.25,.25Zm.6-4.3c-.07-.07-.11-.16-.11-.27,0-.11,.04-.19,.11-.26,.07-.07,.17-.1,.29-.1s.21,.03,.28,.1c.07,.07,.11,.16,.11,.26,0,.11-.04,.2-.11,.27-.07,.07-.17,.1-.28,.1s-.21-.03-.29-.1Zm.07,4.46c-.06-.05-.08-.12-.08-.22v-3.08c0-.09,.03-.16,.08-.21,.06-.05,.13-.08,.22-.08s.16,.03,.21,.08c.05,.05,.08,.12,.08,.21v3.08c0,.1-.03,.17-.08,.22-.05,.05-.12,.07-.21,.07s-.16-.03-.22-.08Zm4.67-2.19v1.98c0,.09-.03,.17-.08,.22-.05,.05-.12,.08-.21,.08s-.17-.03-.22-.08-.08-.12-.08-.22v-1.94c0-.33-.06-.57-.19-.72s-.33-.23-.62-.23c-.33,0-.59,.1-.78,.3-.2,.2-.29,.47-.29,.81v1.78c0,.09-.03,.17-.08,.22-.05,.05-.12,.08-.21,.08s-.17-.03-.22-.08c-.05-.05-.08-.12-.08-.22v-3.08c0-.09,.03-.16,.08-.21s.13-.08,.22-.08c.09,0,.16,.03,.21,.08,.05,.05,.08,.12,.08,.21v.37c.12-.22,.28-.39,.49-.5s.45-.17,.71-.17c.85,0,1.28,.47,1.28,1.41Zm4.18-1.31c.05,.05,.08,.12,.08,.21v3.09c0,.53-.14,.93-.41,1.2-.27,.27-.68,.4-1.21,.4s-.95-.1-1.3-.31c-.17-.1-.26-.21-.26-.34,0-.07,.02-.12,.05-.17,.04-.04,.08-.07,.14-.07,.05,0,.14,.03,.26,.1,.17,.09,.34,.16,.5,.21,.17,.05,.36,.08,.59,.08,.35,0,.61-.09,.78-.27,.17-.18,.26-.45,.26-.8v-.63c-.1,.23-.26,.4-.47,.53-.21,.12-.46,.18-.75,.18-.31,0-.59-.07-.83-.22-.24-.15-.43-.35-.56-.62s-.2-.58-.2-.93,.07-.66,.2-.93,.32-.47,.56-.62c.24-.15,.52-.22,.83-.22,.28,0,.53,.06,.74,.18,.21,.12,.37,.29,.47,.52v-.39c0-.09,.03-.16,.08-.21,.05-.05,.12-.08,.21-.08s.17,.03,.22,.08Zm-.8,2.61c.19-.23,.29-.54,.29-.94s-.1-.71-.29-.93c-.19-.23-.46-.34-.81-.34s-.62,.11-.81,.34c-.2,.23-.3,.54-.3,.93s.1,.71,.3,.94c.2,.23,.47,.34,.81,.34s.61-.11,.8-.34Zm2.54,.91c-.2-.05-.38-.13-.54-.23-.09-.06-.15-.11-.19-.16-.04-.05-.05-.11-.05-.19,0-.06,.02-.12,.05-.16,.04-.04,.08-.06,.14-.06s.14,.04,.26,.11c.15,.09,.29,.16,.43,.21,.14,.05,.32,.08,.54,.08,.26,0,.47-.05,.61-.14,.15-.09,.22-.23,.22-.4,0-.11-.03-.19-.08-.26s-.15-.12-.28-.17c-.13-.05-.32-.1-.58-.16-.43-.09-.73-.22-.92-.37-.18-.16-.28-.37-.28-.63,0-.21,.06-.39,.18-.55,.12-.16,.28-.29,.49-.38,.21-.09,.44-.14,.7-.14,.19,0,.37,.03,.55,.08,.18,.05,.33,.12,.47,.21,.17,.12,.25,.24,.25,.37,0,.06-.02,.12-.06,.16s-.08,.07-.14,.07c-.06,0-.15-.04-.26-.12-.14-.09-.26-.16-.39-.2s-.27-.07-.45-.07c-.23,0-.41,.05-.55,.15-.14,.1-.21,.24-.21,.41,0,.11,.03,.19,.08,.26s.14,.12,.26,.17c.12,.05,.29,.1,.51,.15,.33,.07,.59,.15,.77,.24,.18,.09,.31,.2,.39,.32,.08,.13,.12,.29,.12,.48,0,.31-.13,.55-.39,.74-.26,.19-.6,.28-1.02,.28-.22,0-.44-.03-.64-.08Zm2.91,1.39c-.06,0-.11-.02-.15-.05-.04-.04-.06-.08-.06-.14,0-.02,0-.06,.03-.12,.4-.97,.61-1.96,.61-2.97s-.2-2-.61-2.97c-.02-.06-.03-.1-.03-.12,0-.06,.02-.11,.06-.14,.04-.04,.09-.05,.15-.05,.11,0,.2,.06,.26,.17,.51,.99,.77,2.03,.77,3.12s-.26,2.12-.77,3.12c-.06,.11-.15,.17-.26,.17Zm-6.68-13.59l3.52,2.52-1.78-5.44,4.68-3.34h-5.78l-.64-1.99v8.25Zm19.04-2.15c.13,.11,.19,.27,.19,.47,0,.43-.26,.64-.77,.64h-.65v1.01c0,.26-.07,.47-.22,.61-.15,.14-.34,.22-.58,.22s-.43-.07-.58-.22c-.15-.14-.22-.35-.22-.61v-1.01h-3.35c-.23,0-.41-.07-.54-.2-.13-.13-.19-.3-.19-.49s.07-.4,.2-.59l3.95-5.67c.08-.12,.19-.21,.32-.28,.13-.06,.26-.1,.4-.1,.22,0,.41,.07,.58,.22,.16,.14,.24,.35,.24,.61v5.21h.65c.26,0,.45,.06,.58,.17Zm-2.83-.17v-3.44l-2.38,3.44h2.38Zm4.12,2.84c-.18-.18-.27-.41-.27-.68s.09-.5,.27-.68c.18-.18,.4-.27,.68-.27s.5,.09,.68,.27c.18,.18,.27,.41,.27,.68s-.09,.5-.27,.68c-.18,.18-.41,.27-.68,.27s-.5-.09-.68-.27Zm8.07-5.21c.42,.24,.74,.58,.98,1.02s.35,.94,.35,1.5-.13,1.1-.39,1.55c-.26,.46-.62,.81-1.07,1.07-.46,.26-.97,.38-1.55,.38-1.14,0-2.02-.39-2.64-1.16s-.93-1.87-.93-3.3c0-.98,.15-1.83,.43-2.55s.7-1.27,1.25-1.65c.54-.38,1.18-.58,1.91-.58,.49,0,.97,.09,1.46,.26,.49,.17,.9,.41,1.25,.71,.11,.09,.19,.19,.24,.27,.05,.09,.07,.2,.07,.33,0,.19-.05,.35-.16,.48s-.23,.2-.38,.2c-.08,0-.17-.01-.24-.04-.08-.03-.17-.08-.28-.15-.71-.49-1.34-.74-1.89-.74-.62,0-1.11,.29-1.47,.86-.36,.57-.55,1.38-.56,2.42,.2-.38,.49-.69,.88-.91s.83-.34,1.32-.34c.54,0,1.01,.12,1.43,.36Zm-.65,3.77c.28-.3,.42-.7,.42-1.19s-.14-.89-.42-1.19-.66-.45-1.12-.45-.86,.15-1.16,.45c-.29,.3-.44,.7-.44,1.18s.15,.89,.44,1.19c.29,.3,.68,.45,1.16,.45s.84-.15,1.12-.45ZM21.95,6.52c-2.76,2.63-5.16,5.48-7.27,8.6-.44-1.16-.86-2.29-1.29-3.42-.18-.48-.38-.95-.58-1.43-.14-.34-.32-.64-.71-.74-.12-.03-.24-.04-.36-.04-1.18,0-2.35,0-3.53,0-.04,0-.09,0-.15,.01,1.12,2.46,1.97,4.99,2.7,7.57,.72,2.58,1.29,5.2,1.72,7.87-.1,0-.17,0-.25,0-1.27,0-2.54,0-3.82,0-1.55,0-2.6-.91-2.8-2.44-.16-1.17-.31-2.34-.46-3.51-.19-1.46-.38-2.93-.57-4.39-.13-1.03-.26-2.06-.39-3.09-.09-.71-.2-1.42-.28-2.13-.16-1.5,1.06-2.85,2.58-2.85,1.07,0,2.14,0,3.21,0,3.99,0,7.99,0,11.98,0h.28Zm-6.34,18.4c.07,.01,.09,.02,.12,.02,2.06,0,4.12,0,6.18,0,.1,0,.14-.04,.16-.14,.1-.61,.19-1.23,.31-1.84,.4-2.09,.91-4.14,1.56-6.16,1.74-5.41,4.31-10.39,7.7-14.95,.47-.63,.95-1.24,1.43-1.85-8.34,6.54-14.16,14.83-17.46,24.92Zm21.24-13.48c-.76,.03-1.47,.24-2.09,.71-.55,.42-1,.95-1.34,1.54-2.14,3.68-4.27,7.37-6.4,11.05-.02,.03-.03,.08-.04,.12,.03,0,.05,.02,.07,.02,.76,0,1.51,0,2.27,0,.06,0,.15-.07,.18-.13,.16-.3,.31-.61,.46-.92,.87-1.75,2.23-2.74,4.24-2.71,.83,.01,1.65,0,2.48,0h.2c.16,1.27,.32,2.5,.48,3.75h2.41c.09-.5-1.34-12.88-1.43-13.44-.5,0-.99-.02-1.48,0Zm-4.55,8.26c.03-.06,.06-.11,.09-.16,1.08-1.76,2.16-3.52,3.24-5.27,.12-.19,.26-.35,.5-.44,.2,1.97,.4,3.91,.61,5.87h-4.43Zm11.05,5.16c.73,0,1.46,.01,2.19,0,.46-.01,.93-.04,1.38-.11,1.04-.17,1.86-.7,2.37-1.64,.22-.4,.39-.82,.53-1.26,.26-.83,.4-1.69,.48-2.55,.07-.76,.07-1.52-.12-2.27-.23-.92-.72-1.63-1.63-1.99-.45-.18-.93-.25-1.42-.25-1.51,0-3.01,0-4.52,0q-.26,0-.31,.27c-.02,.09-.03,.19-.04,.28-.14,.86-.28,1.73-.41,2.59-.18,1.18-.36,2.35-.54,3.53-.15,.96-.3,1.91-.45,2.87-.16,1.03-.32,2.05-.48,3.08-.04,.28-.08,.56-.12,.84h2.36c.17-1.13,.33-2.25,.5-3.39h.22Zm.61-5.42c.15-.91,.29-1.83,.43-2.74,.02-.12,.06-.16,.18-.15,.66,0,1.32,0,1.98,0,.83,0,1.31,.45,1.41,1.27,.07,.59,0,1.17-.07,1.74-.11,.77-.25,1.53-.57,2.24-.27,.59-.65,1.07-1.33,1.24-.12,.03-.25,.05-.38,.06-.74,0-1.49,0-2.25,0,.2-1.23,.4-2.44,.6-3.65Zm9.42,5.42c1.08-.02,2.16,0,3.24-.08,1.04-.08,1.91-.54,2.51-1.43,.31-.46,.52-.96,.67-1.48,.25-.84,.4-1.7,.48-2.57,.06-.72,.07-1.43-.09-2.14-.21-.97-.7-1.74-1.67-2.12-.45-.18-.92-.25-1.4-.25-1.52,0-3.04,0-4.56,0-.2,0-.3,.04-.29,.25,0,.09-.02,.19-.04,.28-.14,.86-.28,1.72-.41,2.59-.13,.86-.26,1.73-.4,2.59-.18,1.18-.37,2.35-.56,3.53-.15,.96-.3,1.92-.44,2.87-.07,.45-.14,.9-.21,1.35h2.37c.17-1.13,.33-2.25,.5-3.39,.11,0,.2,0,.29,0Zm1-8.28c.83,0,1.64-.04,2.44,.01,.78,.05,1.03,.65,1.11,1.24,.1,.71,0,1.41-.14,2.1-.1,.54-.24,1.07-.4,1.6-.08,.26-.23,.51-.38,.74-.35,.53-.85,.81-1.49,.82-.71,.01-1.41,0-2.12,0-.02,0-.05,0-.08-.01,.35-2.18,.7-4.35,1.05-6.51Zm49.36-1.76c-.92,0-1.83,0-2.75,0-.5,0-1,.09-1.47,.26-1.06,.36-1.7,1.14-2.09,2.15-.3,.77-.47,1.58-.59,2.39-.14,.92-.2,1.83-.03,2.75,.11,.6,.33,1.16,.75,1.62,.55,.6,1.26,.86,2.05,.87,1.67,.03,3.34,.01,5.02,.02,.03,0,.06-.01,.09-.02,.7-4.48,1.39-8.95,2.09-13.43-.05-.01-.08-.02-.1-.02-.71,0-1.42,0-2.14,0-.12,0-.14,.07-.15,.15-.06,.38-.11,.75-.17,1.13-.1,.71-.21,1.42-.32,2.14-.07,0-.13,0-.19,0Zm-1.1,8.27s-.08,.02-.11,.02c-.74,0-1.47,0-2.21-.01-.66-.01-1.13-.5-1.21-1.19-.11-.84,.03-1.67,.18-2.49,.1-.59,.25-1.16,.53-1.7,.28-.55,.67-.97,1.3-1.1,.13-.03,.26-.04,.4-.04,.67,0,1.35,0,2.02,0,.04,0,.09,0,.16,.01-.35,2.18-.7,4.34-1.05,6.5Zm-31.38-8.26c-.81,.1-1.55,.36-2.15,.96-.42,.42-.71,.93-.92,1.47-.34,.85-.52,1.73-.65,2.63-.12,.83-.2,1.66-.07,2.5,.09,.6,.27,1.16,.7,1.61,.47,.5,1.07,.71,1.72,.82,1.04,.17,2.09,.14,3.13,.03,.64-.07,1.26-.23,1.81-.6,.74-.49,1.16-1.21,1.46-2.01,.35-.93,.52-1.9,.62-2.89,.08-.75,.1-1.51-.04-2.25-.23-1.19-.92-1.95-2.11-2.19-.62-.12-1.25-.15-1.72-.21-.71,.05-1.24,.06-1.77,.12Zm-.56,8.14c-.56-.13-.86-.53-.91-1.1-.05-.72,.04-1.43,.18-2.14,.12-.6,.26-1.2,.44-1.78,.27-.85,.87-1.29,1.77-1.33,.49-.02,.98-.04,1.46,.07,.48,.11,.77,.42,.88,.89,.11,.45,.08,.91,.03,1.36-.09,.83-.21,1.65-.46,2.44-.06,.2-.14,.39-.23,.58-.35,.73-.97,1.03-1.75,1.09-.15,.01-.3,0-.46,0,0,.01,0,.02,0,.04-.32-.04-.65-.05-.96-.12Zm18.75-1.82c1.31,0,2.62,0,3.93,0,.82,0,1.45-.34,1.91-1.02,.42-.63,.6-1.34,.69-2.07,.07-.55,.08-1.1-.09-1.64-.33-1.05-1.13-1.5-2.11-1.58-1.15-.09-2.31-.11-3.46,.07-1.08,.17-1.94,.71-2.47,1.69-.2,.38-.37,.78-.5,1.19-.26,.8-.39,1.64-.48,2.48-.08,.82-.09,1.63,.12,2.44,.23,.89,.72,1.57,1.6,1.93,.46,.19,.95,.25,1.45,.25,1.27,0,2.54,0,3.81,0,.15,0,.31,0,.46,0,.13,0,.19-.02,.21-.17,.04-.29,.12-.58,.17-.88,.05-.23,.08-.47,.13-.72-.11,0-.19,0-.27,0-1.36,0-2.72,0-4.08-.01-.59,0-1.08-.36-1.22-.93-.08-.32-.07-.66-.11-1.02h.3Zm.66-3.74c.34-.51,.81-.82,1.44-.83,.42,0,.84-.02,1.26,0,.49,.02,.71,.22,.75,.71,.04,.53,0,1.07-.17,1.58-.19,.53-.56,.8-1.12,.8-.93,0-1.85,0-2.78,0-.04,0-.09,0-.15-.01,.17-.79,.32-1.57,.77-2.25Zm-2.95-2.59c-.72,0-1.44,0-2.16,0-.17,0-.25,.05-.33,.2-1.11,2.31-2.22,4.62-3.33,6.92-.07,.15-.15,.31-.24,.49-.02-.1-.03-.17-.04-.23-.17-1.38-.33-2.76-.49-4.14-.12-1.02-.24-2.04-.35-3.06-.02-.14-.06-.19-.21-.19-.71,0-1.42,0-2.14,0-.06,0-.11,0-.17,.01,.51,3.36,1.02,6.7,1.53,10.05,.09,0,.16,0,.23,0,.85,0,1.69,0,2.54,0,.18,0,.25-.06,.33-.21,1.57-3.05,3.14-6.1,4.71-9.15,.12-.22,.23-.45,.36-.71h-.23Zm-26.32,10.09c.73,0,1.46,0,2.19,0,.12,0,.12-.07,.13-.16,.13-.85,.26-1.7,.39-2.56,.16-1.03,.32-2.05,.48-3.08,.15-.96,.65-1.65,1.58-1.97,.43-.15,.89-.18,1.34-.24,.13-.02,.18-.06,.23-.17,.31-.73,.72-1.39,1.31-1.92,.02-.02,.04-.05,.06-.09-1.53-.19-2.81,.37-4.03,1.27,.06-.43,.12-.81,.18-1.2h-2.35c-.52,3.37-1.05,6.73-1.57,10.09,.04,.02,.05,.03,.06,.03Zm-39.23,4.03c0-1.56-1.3-2.61-2.62-2.61-1.33,0-2.62,1.08-2.62,2.61,0,1.58,1.35,2.66,2.62,2.59,1.25,.07,2.62-.99,2.62-2.6Zm-9.85,0c0-1.44-1.16-2.59-2.6-2.61-1.44-.02-2.63,1.19-2.63,2.6,0,1.47,1.25,2.66,2.61,2.6,1.24,.07,2.62-.99,2.62-2.59ZM97.39,9.55c.37-.59,.49-1.24,.43-1.91-.05-.55-.38-.9-.92-1.03-.21-.05-.43-.08-.64-.08-.95,0-1.91,0-2.86,0-.14,0-.19,.05-.2,.18,0,.13-.04,.25-.06,.37-.12,.76-.24,1.51-.36,2.27-.12,.75-.24,1.5-.36,2.25-.05,.31-.1,.62-.15,.94h1.32c.12-.71,.23-1.41,.34-2.11,.02-.12,.06-.16,.18-.16,.27,0,.53,.01,.8,0,.14,0,.19,.05,.23,.17,.16,.51,.34,1.02,.51,1.53,.06,.19,.09,.45,.22,.55,.14,.1,.39,.03,.59,.03,.28,0,.56,0,.87,0-.31-.81-.61-1.58-.91-2.35,.63-.26,.76-.34,.96-.66Zm-2.99-1.99c.34,0,.67,0,1.01,0,.23,0,.47,0,.7,.03,.25,.04,.38,.18,.37,.43-.02,.29-.08,.59-.15,.87-.04,.17-.18,.32-.36,.32-.61,.02-1.21,0-1.83,0,.09-.54,.17-1.09,.27-1.66Zm-29.84,4.96c.95-.08,1.63-.56,2-1.44,.4-.95,.56-1.95,.51-2.97-.05-.97-.47-1.45-1.44-1.58-.52-.07-1.06-.05-1.59-.03-.91,.04-1.63,.45-2.02,1.29-.51,1.09-.71,2.24-.58,3.44,.07,.69,.48,1.12,1.16,1.25,.37,.07,.75,.08,1.05,.11,.37-.02,.65-.04,.93-.06Zm.65-4.92c.28,.05,.47,.23,.49,.51,.03,.36,.04,.72,0,1.08-.06,.46-.15,.91-.27,1.36-.15,.53-.5,.89-1.08,.91-.38,.02-.76,0-1.13-.06-.3-.04-.44-.28-.48-.57-.08-.61,.05-1.2,.18-1.79,.06-.29,.16-.59,.28-.86,.17-.41,.5-.6,.95-.62,.14,0,.28-.01,.42-.02,0,0,0,0,0-.01,.22,.02,.44,.04,.66,.08Zm-8.59,4.94h1.32c.32-2.01,.64-4,.96-6h-1.32c-.14,.86-.28,1.72-.41,2.57h-2.31c.14-.86,.27-1.71,.41-2.58-.43,0-.84,0-1.24,0-.04,0-.1,.09-.11,.15-.13,.81-.26,1.61-.39,2.42-.16,.99-.32,1.99-.48,2.98-.02,.15-.04,.3-.06,.47h1.31c.13-.79,.25-1.57,.38-2.36h2.31c-.13,.79-.25,1.57-.37,2.35Zm33.28-6.04c-.88,0-1.75,0-2.63,0-.16,0-.33,0-.49,.03-.7,.07-1.18,.49-1.31,1.15-.06,.32-.11,.65-.16,.98-.14,.85-.26,1.7-.41,2.55-.14,.81,.18,1.32,.96,1.34,1.07,.03,2.14,.01,3.2,0,.05,0,.13-.05,.13-.09,.06-.33,.11-.66,.17-1.01-.15,0-.29,0-.42,0-.79,0-1.59,0-2.38,0-.22,0-.34-.11-.31-.29,.04-.34,.1-.68,.16-1.04h2.76c.06-.38,.12-.74,.18-1.12h-2.73s-.01-.06,0-.08c.04-.26,.08-.53,.12-.79,.07-.43,.18-.52,.62-.52,.51,0,1.03,0,1.54,0,.36,0,.71,0,1.09,0,.06-.37,.12-.72,.19-1.1-.11,0-.18,0-.26,0Zm-39.47,.02h-.22c-.78,0-1.56,0-2.35,0-.22,0-.43,.01-.65,.04-.73,.11-1.26,.49-1.47,1.22-.08,.3-.13,.62-.16,.94-.06,.75,.25,1.17,.98,1.32,.22,.04,.44,.06,.66,.06,.36,.01,.72,0,1.09,.01,.29,.01,.41,.16,.38,.45,0,.09-.02,.19-.04,.28-.07,.43-.25,.59-.7,.63-.08,0-.17,0-.25,0-.73,0-1.46,0-2.19,0-.11,0-.18,.01-.2,.14-.05,.31-.1,.61-.15,.94h.22c.79,0,1.59,0,2.38,0,.22,0,.44,0,.66-.04,.73-.11,1.25-.5,1.44-1.23,.11-.4,.15-.82,.16-1.24,.02-.51-.29-.9-.79-1.04-.18-.05-.37-.08-.56-.08-.44-.01-.88,0-1.32,0-.33,0-.45-.14-.43-.46,0-.09,.03-.18,.04-.26,.07-.43,.26-.59,.69-.59,.79,0,1.58,0,2.36,0,.07,0,.14,0,.22,0,.05-.36,.1-.71,.16-1.08Zm28.43,3.97c.02-.15,.09-.18,.22-.18,.58,0,1.16,.01,1.74,0,.77-.03,1.37-.37,1.65-1.1,.15-.37,.24-.78,.27-1.18,.06-.96-.36-1.46-1.32-1.5-1.04-.05-2.08-.02-3.13-.03-.11,0-.14,.06-.15,.15-.11,.67-.21,1.34-.32,2.01-.12,.74-.25,1.49-.37,2.23-.09,.55-.17,1.1-.26,1.66h1.32c.12-.69,.24-1.37,.35-2.06Zm.46-2.84s.09-.1,.14-.1c.47,0,.94-.01,1.41,0,.36,0,.54,.17,.53,.53-.01,.29-.1,.58-.2,.86-.07,.19-.25,.32-.46,.33-.55,.01-1.1,0-1.69,0,.09-.55,.17-1.08,.27-1.61Zm-8.55,4.9s.08-.08,.09-.13c.12-.64,.23-1.28,.33-1.93,.02-.16,.08-.18,.22-.18,.58,0,1.16,.01,1.73,0,.74-.03,1.31-.35,1.64-1.04,.2-.43,.29-.88,.3-1.34,.02-.84-.42-1.36-1.27-1.39-1.07-.04-2.13-.02-3.2-.03-.05,0-.13,.08-.14,.13-.05,.25-.09,.51-.13,.77-.2,1.22-.4,2.45-.59,3.67-.08,.49-.16,.97-.24,1.48,.43,0,.84,0,1.25,0Zm.74-4.13c.04-.24,.09-.47,.11-.71,.02-.14,.07-.18,.21-.18,.44,0,.88,0,1.31,0,.42,0,.6,.18,.57,.6-.02,.24-.07,.49-.15,.72-.1,.27-.32,.41-.62,.41-.51,0-1.03,0-1.56,0,.04-.3,.08-.57,.12-.85Zm38.24,2.88c-.76,0-1.37,.6-1.36,1.34,0,.75,.6,1.33,1.37,1.33,.77,0,1.35-.59,1.35-1.35,0-.74-.6-1.32-1.36-1.33Zm0,.3c.57,0,1,.45,.99,1.05,0,.58-.44,1.03-1,1.02-.57,0-1.01-.46-1-1.05,0-.59,.44-1.03,1.01-1.03Zm-.2,1.21c.28-.03,.34,.01,.4,.25q.08,.3,.44,.24c-.08-.22-.16-.43-.25-.66,.12-.07,.23-.19,.17-.39-.05-.17-.17-.25-.33-.26-.21-.02-.43,0-.65,0-.04,0-.11,.07-.11,.11,0,.4,0,.81,0,1.22h.33v-.5Zm.15-.62c.12,.01,.28,.02,.28,.19,0,.17-.16,.17-.28,.18-.16,.02-.15-.09-.14-.2-.02-.12,.03-.18,.15-.17Z"/></g></g></svg>