<?xml version="1.0" encoding="UTF-8"?><svg id="Layer_2" xmlns="http://www.w3.org/2000/svg" viewBox="0 0 114.21 64.52"><defs><style>.cls-1{fill:#f58a00;}.cls-2{fill:#fff;}</style></defs><g id="Layer_1-2"><g><g id="Group_1134"><g id="Group_693"><path id="Path_2110" class="cls-1" d="M0,44.67H5.78l1.8-5.41,1.78,5.41h5.78l-4.68,3.34,1.78,5.44-4.65-3.34-4.68,3.34,1.78-5.44-4.69-3.34Z"/><path id="Path_2113" class="cls-1" d="M37.87,44.67h5.78l1.8-5.41,1.78,5.41h5.78l-4.68,3.34,1.78,5.44-4.65-3.34-4.68,3.34,1.78-5.44-4.69-3.34Z"/><path id="Path_2111" class="cls-1" d="M18.93,44.67h5.78l1.8-5.41,1.78,5.41h5.78l-4.68,3.34,1.78,5.44-4.65-3.34-4.68,3.34,1.78-5.44-4.69-3.34Z"/><path id="Path_2112" class="cls-1" d="M56.8,44.67h5.78l1.8-5.41,1.78,5.41h5.78l-4.68,3.34,1.78,5.44-4.65-3.34-4.68,3.34,1.78-5.44-4.69-3.34Z"/><path id="Path_2114" class="cls-1" d="M75.73,44.67h5.78l1.8-5.41,1.78,5.41h5.78l-4.68,3.34,1.78,5.44-4.65-3.34-4.68,3.34,1.78-5.44-4.69-3.34Z"/><path id="Path_2115" class="cls-2" d="M84.46,42.68l.64,1.99h5.78l-4.68,3.34,1.78,5.44-3.52-2.52v-8.25Z"/></g></g><path class="cls-2" d="M21.95,6.52c-2.76,2.63-5.16,5.48-7.27,8.6-.44-1.16-.86-2.29-1.29-3.42-.18-.48-.38-.95-.58-1.43-.14-.34-.32-.64-.71-.74-.12-.03-.24-.04-.36-.04-1.18,0-2.35,0-3.53,0-.04,0-.09,0-.15,.01,1.12,2.46,1.97,4.99,2.7,7.57,.72,2.58,1.29,5.2,1.72,7.87-.1,0-.17,0-.25,0-1.27,0-2.54,0-3.82,0-1.55,0-2.6-.91-2.8-2.44-.16-1.17-.31-2.34-.46-3.51-.19-1.46-.38-2.93-.57-4.39-.13-1.03-.26-2.06-.39-3.09-.09-.71-.2-1.42-.28-2.13-.16-1.5,1.06-2.85,2.58-2.85,1.07,0,2.14,0,3.21,0,3.99,0,7.99,0,11.98,0h.28Zm-6.34,18.4c.07,.01,.09,.02,.12,.02,2.06,0,4.12,0,6.18,0,.1,0,.14-.04,.16-.14,.1-.61,.19-1.23,.31-1.84,.4-2.09,.91-4.14,1.56-6.16,1.74-5.41,4.31-10.39,7.7-14.95,.47-.63,.95-1.24,1.43-1.85-8.34,6.54-14.16,14.83-17.46,24.92Zm21.24-13.48c-.76,.03-1.47,.24-2.09,.71-.55,.42-1,.95-1.34,1.54-2.14,3.68-4.27,7.37-6.4,11.05-.02,.03-.03,.08-.04,.12,.03,0,.05,.02,.07,.02,.76,0,1.51,0,2.27,0,.06,0,.15-.07,.18-.13,.16-.3,.31-.61,.46-.92,.87-1.75,2.23-2.74,4.24-2.71,.83,.01,1.65,0,2.48,0h.2c.16,1.27,.32,2.5,.48,3.75h2.41c.09-.5-1.34-12.88-1.43-13.44-.5,0-.99-.02-1.48,0Zm-4.55,8.26c.03-.06,.06-.11,.09-.16,1.08-1.76,2.16-3.52,3.24-5.27,.12-.19,.26-.35,.5-.44,.2,1.97,.4,3.91,.61,5.87h-4.43Zm11.05,5.16c.73,0,1.46,.01,2.19,0,.46-.01,.93-.04,1.38-.11,1.04-.17,1.86-.7,2.37-1.64,.22-.4,.39-.82,.53-1.26,.26-.83,.4-1.69,.48-2.55,.07-.76,.07-1.52-.12-2.27-.23-.92-.72-1.63-1.63-1.99-.45-.18-.93-.25-1.42-.25-1.51,0-3.01,0-4.52,0q-.26,0-.31,.27c-.02,.09-.03,.19-.04,.28-.14,.86-.28,1.73-.41,2.59-.18,1.18-.36,2.35-.54,3.53-.15,.96-.3,1.91-.45,2.87-.16,1.03-.32,2.05-.48,3.08-.04,.28-.08,.56-.12,.84h2.36c.17-1.13,.33-2.25,.5-3.39h.22Zm.61-5.42c.15-.91,.29-1.83,.43-2.74,.02-.12,.06-.16,.18-.15,.66,0,1.32,0,1.98,0,.83,0,1.31,.45,1.41,1.27,.07,.59,0,1.17-.07,1.74-.11,.77-.25,1.53-.57,2.24-.27,.59-.65,1.07-1.33,1.24-.12,.03-.25,.05-.38,.06-.74,0-1.49,0-2.25,0,.2-1.23,.4-2.44,.6-3.65Zm9.42,5.42c1.08-.02,2.16,0,3.24-.08,1.04-.08,1.91-.54,2.51-1.43,.31-.46,.52-.96,.67-1.48,.25-.84,.4-1.7,.48-2.57,.06-.72,.07-1.43-.09-2.14-.21-.97-.7-1.74-1.67-2.12-.45-.18-.92-.25-1.4-.25-1.52,0-3.04,0-4.56,0-.2,0-.3,.04-.29,.25,0,.09-.02,.19-.04,.28-.14,.86-.28,1.72-.41,2.59-.13,.86-.26,1.73-.4,2.59-.18,1.18-.37,2.35-.56,3.53-.15,.96-.3,1.92-.44,2.87-.07,.45-.14,.9-.21,1.35h2.37c.17-1.13,.33-2.25,.5-3.39,.11,0,.2,0,.29,0Zm1-8.28c.83,0,1.64-.04,2.44,.01,.78,.05,1.03,.65,1.11,1.24,.1,.71,0,1.41-.14,2.1-.1,.54-.24,1.07-.4,1.6-.08,.26-.23,.51-.38,.74-.35,.53-.85,.81-1.49,.82-.71,.01-1.41,0-2.12,0-.02,0-.05,0-.08-.01,.35-2.18,.7-4.35,1.05-6.51Zm49.36-1.76c-.92,0-1.83,0-2.75,0-.5,0-1,.09-1.47,.26-1.06,.36-1.7,1.14-2.09,2.15-.3,.77-.47,1.58-.59,2.39-.14,.92-.2,1.83-.03,2.75,.11,.6,.33,1.16,.75,1.62,.55,.6,1.26,.86,2.05,.87,1.67,.03,3.34,.01,5.02,.02,.03,0,.06-.01,.09-.02,.7-4.48,1.39-8.95,2.09-13.43-.05-.01-.08-.02-.1-.02-.71,0-1.42,0-2.14,0-.12,0-.14,.07-.15,.15-.06,.38-.11,.75-.17,1.13-.1,.71-.21,1.42-.32,2.14-.07,0-.13,0-.19,0Zm-1.1,8.27s-.08,.02-.11,.02c-.74,0-1.47,0-2.21-.01-.66-.01-1.13-.5-1.21-1.19-.11-.84,.03-1.67,.18-2.49,.1-.59,.25-1.16,.53-1.7,.28-.55,.67-.97,1.3-1.1,.13-.03,.26-.04,.4-.04,.67,0,1.35,0,2.02,0,.04,0,.09,0,.16,.01-.35,2.18-.7,4.34-1.05,6.5Zm-31.38-8.26c-.81,.1-1.55,.36-2.15,.96-.42,.42-.71,.93-.92,1.47-.34,.85-.52,1.73-.65,2.63-.12,.83-.2,1.66-.07,2.5,.09,.6,.27,1.16,.7,1.61,.47,.5,1.07,.71,1.72,.82,1.04,.17,2.09,.14,3.13,.03,.64-.07,1.26-.23,1.81-.6,.74-.49,1.16-1.21,1.46-2.01,.35-.93,.52-1.9,.62-2.89,.08-.75,.1-1.51-.04-2.25-.23-1.19-.92-1.95-2.11-2.19-.62-.12-1.25-.15-1.72-.21-.71,.05-1.24,.06-1.77,.12Zm-.56,8.14c-.56-.13-.86-.53-.91-1.1-.05-.72,.04-1.43,.18-2.14,.12-.6,.26-1.2,.44-1.78,.27-.85,.87-1.29,1.77-1.33,.49-.02,.98-.04,1.46,.07,.48,.11,.77,.42,.88,.89,.11,.45,.08,.91,.03,1.36-.09,.83-.21,1.65-.46,2.44-.06,.2-.14,.39-.23,.58-.35,.73-.97,1.03-1.75,1.09-.15,.01-.3,0-.46,0,0,.01,0,.02,0,.04-.32-.04-.65-.05-.96-.12Zm18.75-1.82c1.31,0,2.62,0,3.93,0,.82,0,1.45-.34,1.91-1.02,.42-.63,.6-1.34,.69-2.07,.07-.55,.08-1.1-.09-1.64-.33-1.05-1.13-1.5-2.11-1.58-1.15-.09-2.31-.11-3.46,.07-1.08,.17-1.94,.71-2.47,1.69-.2,.38-.37,.78-.5,1.19-.26,.8-.39,1.64-.48,2.48-.08,.82-.09,1.63,.12,2.44,.23,.89,.72,1.57,1.6,1.93,.46,.19,.95,.25,1.45,.25,1.27,0,2.54,0,3.81,0,.15,0,.31,0,.46,0,.13,0,.19-.02,.21-.17,.04-.29,.12-.58,.17-.88,.05-.23,.08-.47,.13-.72-.11,0-.19,0-.27,0-1.36,0-2.72,0-4.08-.01-.59,0-1.08-.36-1.22-.93-.08-.32-.07-.66-.11-1.02h.3Zm.66-3.74c.34-.51,.81-.82,1.44-.83,.42,0,.84-.02,1.26,0,.49,.02,.71,.22,.75,.71,.04,.53,0,1.07-.17,1.58-.19,.53-.56,.8-1.12,.8-.93,0-1.85,0-2.78,0-.04,0-.09,0-.15-.01,.17-.79,.32-1.57,.77-2.25Zm-2.95-2.59c-.72,0-1.44,0-2.16,0-.17,0-.25,.05-.33,.2-1.11,2.31-2.22,4.62-3.33,6.92-.07,.15-.15,.31-.24,.49-.02-.1-.03-.17-.04-.23-.17-1.38-.33-2.76-.49-4.14-.12-1.02-.24-2.04-.35-3.06-.02-.14-.06-.19-.21-.19-.71,0-1.42,0-2.14,0-.06,0-.11,0-.17,.01,.51,3.36,1.02,6.7,1.53,10.05,.09,0,.16,0,.23,0,.85,0,1.69,0,2.54,0,.18,0,.25-.06,.33-.21,1.57-3.05,3.14-6.1,4.71-9.15,.12-.22,.23-.45,.36-.71h-.23Zm-26.32,10.09c.73,0,1.46,0,2.19,0,.12,0,.12-.07,.13-.16,.13-.85,.26-1.7,.39-2.56,.16-1.03,.32-2.05,.48-3.08,.15-.96,.65-1.65,1.58-1.97,.43-.15,.89-.18,1.34-.24,.13-.02,.18-.06,.23-.17,.31-.73,.72-1.39,1.31-1.92,.02-.02,.04-.05,.06-.09-1.53-.19-2.81,.37-4.03,1.27,.06-.43,.12-.81,.18-1.2h-2.35c-.52,3.37-1.05,6.73-1.57,10.09,.04,.02,.05,.03,.06,.03Zm-39.23,4.03c0-1.56-1.3-2.61-2.62-2.61-1.33,0-2.62,1.08-2.62,2.61,0,1.58,1.35,2.66,2.62,2.59,1.25,.07,2.62-.99,2.62-2.6Zm-9.85,0c0-1.44-1.16-2.59-2.6-2.61-1.44-.02-2.63,1.19-2.63,2.6,0,1.47,1.25,2.66,2.61,2.6,1.24,.07,2.62-.99,2.62-2.59ZM97.39,9.55c.37-.59,.49-1.24,.43-1.91-.05-.55-.38-.9-.92-1.03-.21-.05-.43-.08-.64-.08-.95,0-1.91,0-2.86,0-.14,0-.19,.05-.2,.18,0,.13-.04,.25-.06,.37-.12,.76-.24,1.51-.36,2.27-.12,.75-.24,1.5-.36,2.25-.05,.31-.1,.62-.15,.94h1.32c.12-.71,.23-1.41,.34-2.11,.02-.12,.06-.16,.18-.16,.27,0,.53,.01,.8,0,.14,0,.19,.05,.23,.17,.16,.51,.34,1.02,.51,1.53,.06,.19,.09,.45,.22,.55,.14,.1,.39,.03,.59,.03,.28,0,.56,0,.87,0-.31-.81-.61-1.58-.91-2.35,.63-.26,.76-.34,.96-.66Zm-2.99-1.99c.34,0,.67,0,1.01,0,.23,0,.47,0,.7,.03,.25,.04,.38,.18,.37,.43-.02,.29-.08,.59-.15,.87-.04,.17-.18,.32-.36,.32-.61,.02-1.21,0-1.83,0,.09-.54,.17-1.09,.27-1.66Zm-29.84,4.96c.95-.08,1.63-.56,2-1.44,.4-.95,.56-1.95,.51-2.97-.05-.97-.47-1.45-1.44-1.58-.52-.07-1.06-.05-1.59-.03-.91,.04-1.63,.45-2.02,1.29-.51,1.09-.71,2.24-.58,3.44,.07,.69,.48,1.12,1.16,1.25,.37,.07,.75,.08,1.05,.11,.37-.02,.65-.04,.93-.06Zm.65-4.92c.28,.05,.47,.23,.49,.51,.03,.36,.04,.72,0,1.08-.06,.46-.15,.91-.27,1.36-.15,.53-.5,.89-1.08,.91-.38,.02-.76,0-1.13-.06-.3-.04-.44-.28-.48-.57-.08-.61,.05-1.2,.18-1.79,.06-.29,.16-.59,.28-.86,.17-.41,.5-.6,.95-.62,.14,0,.28-.01,.42-.02,0,0,0,0,0-.01,.22,.02,.44,.04,.66,.08Zm-8.59,4.94h1.32c.32-2.01,.64-4,.96-6h-1.32c-.14,.86-.28,1.72-.41,2.57h-2.31c.14-.86,.27-1.71,.41-2.58-.43,0-.84,0-1.24,0-.04,0-.1,.09-.11,.15-.13,.81-.26,1.61-.39,2.42-.16,.99-.32,1.99-.48,2.98-.02,.15-.04,.3-.06,.47h1.31c.13-.79,.25-1.57,.38-2.36h2.31c-.13,.79-.25,1.57-.37,2.35Zm33.28-6.04c-.88,0-1.75,0-2.63,0-.16,0-.33,0-.49,.03-.7,.07-1.18,.49-1.31,1.15-.06,.32-.11,.65-.16,.98-.14,.85-.26,1.7-.41,2.55-.14,.81,.18,1.32,.96,1.34,1.07,.03,2.14,.01,3.2,0,.05,0,.13-.05,.13-.09,.06-.33,.11-.66,.17-1.01-.15,0-.29,0-.42,0-.79,0-1.59,0-2.38,0-.22,0-.34-.11-.31-.29,.04-.34,.1-.68,.16-1.04h2.76c.06-.38,.12-.74,.18-1.12h-2.73s-.01-.06,0-.08c.04-.26,.08-.53,.12-.79,.07-.43,.18-.52,.62-.52,.51,0,1.03,0,1.54,0,.36,0,.71,0,1.09,0,.06-.37,.12-.72,.19-1.1-.11,0-.18,0-.26,0Zm-39.47,.02h-.22c-.78,0-1.56,0-2.35,0-.22,0-.43,.01-.65,.04-.73,.11-1.26,.49-1.47,1.22-.08,.3-.13,.62-.16,.94-.06,.75,.25,1.17,.98,1.32,.22,.04,.44,.06,.66,.06,.36,.01,.72,0,1.09,.01,.29,.01,.41,.16,.38,.45,0,.09-.02,.19-.04,.28-.07,.43-.25,.59-.7,.63-.08,0-.17,0-.25,0-.73,0-1.46,0-2.19,0-.11,0-.18,.01-.2,.14-.05,.31-.1,.61-.15,.94h.22c.79,0,1.59,0,2.38,0,.22,0,.44,0,.66-.04,.73-.11,1.25-.5,1.44-1.23,.11-.4,.15-.82,.16-1.24,.02-.51-.29-.9-.79-1.04-.18-.05-.37-.08-.56-.08-.44-.01-.88,0-1.32,0-.33,0-.45-.14-.43-.46,0-.09,.03-.18,.04-.26,.07-.43,.26-.59,.69-.59,.79,0,1.58,0,2.36,0,.07,0,.14,0,.22,0,.05-.36,.1-.71,.16-1.08Zm28.43,3.97c.02-.15,.09-.18,.22-.18,.58,0,1.16,.01,1.74,0,.77-.03,1.37-.37,1.65-1.1,.15-.37,.24-.78,.27-1.18,.06-.96-.36-1.46-1.32-1.5-1.04-.05-2.08-.02-3.13-.03-.11,0-.14,.06-.15,.15-.11,.67-.21,1.34-.32,2.01-.12,.74-.25,1.49-.37,2.23-.09,.55-.17,1.1-.26,1.66h1.32c.12-.69,.24-1.37,.35-2.06Zm.46-2.84s.09-.1,.14-.1c.47,0,.94-.01,1.41,0,.36,0,.54,.17,.53,.53-.01,.29-.1,.58-.2,.86-.07,.19-.25,.32-.46,.33-.55,.01-1.1,0-1.69,0,.09-.55,.17-1.08,.27-1.61Zm-8.55,4.9s.08-.08,.09-.13c.12-.64,.23-1.28,.33-1.93,.02-.16,.08-.18,.22-.18,.58,0,1.16,.01,1.73,0,.74-.03,1.31-.35,1.64-1.04,.2-.43,.29-.88,.3-1.34,.02-.84-.42-1.36-1.27-1.39-1.07-.04-2.13-.02-3.2-.03-.05,0-.13,.08-.14,.13-.05,.25-.09,.51-.13,.77-.2,1.22-.4,2.45-.59,3.67-.08,.49-.16,.97-.24,1.48,.43,0,.84,0,1.25,0Zm.74-4.13c.04-.24,.09-.47,.11-.71,.02-.14,.07-.18,.21-.18,.44,0,.88,0,1.31,0,.42,0,.6,.18,.57,.6-.02,.24-.07,.49-.15,.72-.1,.27-.32,.41-.62,.41-.51,0-1.03,0-1.56,0,.04-.3,.08-.57,.12-.85Zm38.24,2.88c-.76,0-1.37,.6-1.36,1.34,0,.75,.6,1.33,1.37,1.33,.77,0,1.35-.59,1.35-1.35,0-.74-.6-1.32-1.36-1.33Zm0,.3c.57,0,1,.45,.99,1.05,0,.58-.44,1.03-1,1.02-.57,0-1.01-.46-1-1.05,0-.59,.44-1.03,1.01-1.03Zm-.2,1.21c.28-.03,.34,.01,.4,.25q.08,.3,.44,.24c-.08-.22-.16-.43-.25-.66,.12-.07,.23-.19,.17-.39-.05-.17-.17-.25-.33-.26-.21-.02-.43,0-.65,0-.04,0-.11,.07-.11,.11,0,.4,0,.81,0,1.22h.33v-.5Zm.15-.62c.12,.01,.28,.02,.28,.19,0,.17-.16,.17-.28,.18-.16,.02-.15-.09-.14-.2-.02-.12,.03-.18,.15-.17Z"/></g></g></svg>