<svg xmlns="http://www.w3.org/2000/svg" width="104" height="55" viewBox="0 0 104 55" fill="none">
<g clip-path="url(#clip0_978_1761)">
<path d="M15.5738 41.4419V37.0806H5.75623V31.7612H14.7435V27.4638H5.75623V22.8105H15.2818V18.4766H0.400391V41.4419H15.5738ZM33.3475 22.7375V18.4766H16.1121V22.7375H22.0336V41.4419H27.4259V22.7375H33.3475ZM54.7435 41.4419V18.4766H49.3511V27.3726H40.1358V18.4766H34.7435V41.4419H40.1358V31.8251H49.3511V41.4419H54.7435ZM63.4935 41.4419V18.4766H58.1103V41.4419H63.4935ZM86.03 38.7047L84.2052 34.5076C83.3905 35.3104 82.4214 35.9395 81.3565 36.3566C80.2916 36.7738 79.153 36.9704 78.0099 36.9346C74.2508 36.9346 71.1212 34.3799 71.1212 29.8817C71.1212 25.3835 74.1504 22.8105 78.0373 22.8105C80.2427 22.8372 82.357 23.694 83.9588 25.2101L85.6285 20.7485C85.0354 20.1189 82.4716 18.1572 77.7453 18.1572C71.0573 18.1572 65.7015 22.5824 65.7015 30.0185C65.7015 37.4547 70.9935 41.8799 77.7453 41.8799C82.4351 41.8799 84.8621 39.9456 86.03 38.7503V38.7047ZM103.165 34.4437C103.165 31.1226 101.103 29.2248 98.1741 28.1572C97.4442 27.8561 95.7471 27.2448 94.7435 26.8616C93.7398 26.4784 92.4168 25.9492 92.4168 24.5258C92.4168 23.1025 93.6851 22.4638 95.4095 22.4638C97.3442 22.5925 99.1664 23.4192 100.537 24.7904L102.837 21.0313C100.818 19.2493 98.2296 18.2463 95.5373 18.2028C93.3673 18.0903 91.2257 18.7354 89.4789 20.0277C88.7272 20.6359 88.1215 21.4049 87.7062 22.2781C87.291 23.1512 87.0767 24.1064 87.0792 25.0733C87.0439 25.8991 87.1889 26.7228 87.504 27.487C87.8191 28.2512 88.2969 28.9376 88.9041 29.4985C89.7093 30.212 90.6365 30.7745 91.6413 31.1591C92.3986 31.4966 94.1322 32.0715 95.1358 32.4547C96.1395 32.8379 97.873 33.4218 97.873 34.9912C97.873 36.5605 96.5409 37.3543 94.8073 37.3543C92.5266 37.1443 90.3997 36.1132 88.8219 34.4529L86.1577 38.3762C88.3596 40.4931 91.2625 41.727 94.3146 41.8434C98.7763 41.8434 103.229 39.4164 103.229 34.4529L103.165 34.4437Z" fill="#396C9C"/>
<path d="M5.40039 50.8392C5.39227 50.3974 5.22409 49.9735 4.92708 49.6463C4.63007 49.3191 4.22441 49.1107 3.78543 49.06C4.11684 48.9415 4.40262 48.7218 4.60237 48.432C4.80212 48.1422 4.90573 47.7969 4.89857 47.445C4.91129 47.1511 4.84527 46.8591 4.70732 46.5992C4.56936 46.3394 4.36449 46.1211 4.11389 45.9669C3.58172 45.6862 2.97955 45.5657 2.38032 45.6202H0.400391V52.9195H2.77265C3.41729 52.9747 4.06137 52.8072 4.59747 52.445C4.85113 52.2622 5.05669 52.0206 5.19653 51.7409C5.33637 51.4612 5.40632 51.1518 5.40039 50.8392ZM3.86754 47.5545C3.87749 47.7448 3.8372 47.9343 3.75072 48.1041C3.66424 48.2738 3.5346 48.4179 3.37484 48.5217C3.04353 48.7121 2.65903 48.789 2.27995 48.7406H1.42229V46.4231H2.3347C3.11937 46.4231 3.83105 46.6239 3.83105 47.5545H3.86754ZM4.342 50.8027C4.35327 51.0048 4.31011 51.2062 4.21703 51.386C4.12395 51.5657 3.98435 51.7172 3.8128 51.8246C3.41897 52.0359 2.97101 52.1249 2.5263 52.0801H1.43141V49.5253H2.53543C2.9778 49.4889 3.4213 49.5807 3.8128 49.7899C3.985 49.8944 4.12534 50.044 4.21862 50.2225C4.3119 50.401 4.35457 50.6017 4.342 50.8027ZM10.592 47.883H9.52448L8.06462 51.7972L6.53178 47.883H5.47338L7.51718 52.8191L7.27995 53.4852C7.14309 53.8501 7.0336 54.0782 6.62302 54.0782C6.44084 54.0715 6.26146 54.0313 6.09382 53.9596L5.87484 54.7899C6.16542 54.9055 6.47458 54.9673 6.78725 54.9724C7.35295 54.9724 7.76353 54.6713 8.11025 53.8045L10.592 47.883ZM19.0318 49.2698C19.0489 48.3219 18.6899 47.4057 18.0333 46.7218C17.3767 46.0378 16.476 45.6418 15.5281 45.6202H15.1632H12.9551V52.9195H15.1632C16.1104 52.9951 17.049 52.6917 17.7726 52.0758C18.4963 51.4599 18.9459 50.582 19.0227 49.6348C19.0227 49.5071 19.0227 49.3885 19.0227 49.2607L19.0318 49.2698ZM17.9825 49.2698C18.0049 49.965 17.7537 50.6412 17.2828 51.1531C16.8118 51.6649 16.1589 51.9716 15.4643 52.0071H13.9862V46.5326H15.1632C15.5113 46.5103 15.8603 46.5569 16.1904 46.6696C16.5206 46.7822 16.8252 46.9589 17.087 47.1893C17.3489 47.4198 17.5627 47.6996 17.7164 48.0128C17.87 48.3259 17.9604 48.6663 17.9825 49.0144C17.9825 49.1056 17.9825 49.206 17.9825 49.3063V49.2698ZM23.977 52.9195V49.9906C24.0142 49.7356 24 49.4757 23.9354 49.2262C23.8707 48.9768 23.7568 48.7427 23.6004 48.5379C23.444 48.333 23.2482 48.1615 23.0246 48.0334C22.801 47.9052 22.554 47.8231 22.2982 47.7917C22.1168 47.7642 21.9322 47.7642 21.7508 47.7917C21.0874 47.7945 20.4363 47.9706 19.8621 48.3027L20.1723 48.9779C20.6317 48.7054 21.153 48.5547 21.6869 48.5399C21.9718 48.5004 22.261 48.5736 22.4927 48.744C22.7245 48.9144 22.8806 49.1686 22.9278 49.4523C22.9323 49.5192 22.9323 49.5862 22.9278 49.6531V49.8538L21.5774 49.9085C20.4186 49.9085 19.6066 50.456 19.6066 51.4414C19.6185 51.8657 19.798 52.268 20.1058 52.5604C20.4135 52.8528 20.8245 53.0114 21.2489 53.0016H21.3858C21.6925 53.0004 21.9953 52.932 22.2727 52.8011C22.5502 52.6703 22.7956 52.4802 22.9916 52.2443V52.9195H23.977ZM22.9734 50.5016V51.5874C22.8363 51.8041 22.6482 51.984 22.4255 52.1113C22.2028 52.2385 21.9524 52.3093 21.696 52.3173C21.03 52.3173 20.6559 51.925 20.6559 51.4049C20.6559 50.8848 20.9843 50.5837 21.7964 50.4925L22.9734 50.5016ZM26.0756 52.9195V45.6202H25.0354V52.9195H26.0756ZM28.3292 52.9195V45.6202H27.3256V52.9195H28.3292ZM33.4205 52.9195V49.9906C33.4578 49.7376 33.4446 49.4797 33.3816 49.2319C33.3187 48.984 33.2071 48.7511 33.0536 48.5466C32.9 48.3421 32.7074 48.1701 32.4869 48.0405C32.2664 47.911 32.0224 47.8264 31.769 47.7917C31.5876 47.7642 31.403 47.7642 31.2216 47.7917C30.5582 47.7945 29.9071 47.9706 29.3329 48.3027L29.6431 48.9779C30.1025 48.7054 30.6238 48.5547 31.1577 48.5399C31.4426 48.5004 31.7318 48.5736 31.9635 48.744C32.1953 48.9144 32.3514 49.1686 32.3986 49.4523C32.4031 49.5192 32.4031 49.5862 32.3986 49.6531V49.8538L31.0482 49.9085C29.8803 49.9085 29.0774 50.456 29.0774 51.4414C29.0821 51.6519 29.1284 51.8593 29.2137 52.0519C29.2989 52.2444 29.4213 52.4182 29.574 52.5632C29.7266 52.7082 29.9064 52.8216 30.1031 52.8968C30.2997 52.9721 30.5093 53.0077 30.7197 53.0016H30.811C31.1176 52.9998 31.4202 52.9311 31.6975 52.8003C31.9749 52.6695 32.2204 52.4797 32.4168 52.2443V52.9195H33.4205ZM32.4168 50.5016V51.5874C32.2798 51.8041 32.0917 51.984 31.869 52.1113C31.6463 52.2385 31.3958 52.3093 31.1394 52.3173C30.4734 52.3173 30.0993 51.925 30.0993 51.4049C30.0993 50.8848 30.4278 50.5837 31.2398 50.4925L32.4168 50.5016ZM37.8913 51.414C37.871 51.1317 37.7648 50.8625 37.587 50.6423C37.4093 50.4221 37.1684 50.2616 36.8967 50.1823L36.2216 49.945C35.7197 49.7808 35.2362 49.6074 35.2362 49.1877C35.2362 48.768 35.5464 48.5673 36.0391 48.5673C36.5159 48.5741 36.9712 48.7673 37.3073 49.1056L37.7362 48.476C37.5119 48.2404 37.239 48.0564 36.9365 47.9366C36.634 47.8169 36.3091 47.7643 35.9843 47.7826C35.5841 47.739 35.1828 47.8556 34.8682 48.1069C34.5537 48.3582 34.3514 48.7238 34.3055 49.1239C34.3014 49.1572 34.3014 49.1909 34.3055 49.2242C34.3055 50.1366 35.0446 50.4469 35.7836 50.7023C36.1212 50.8209 36.9241 50.9852 36.9241 51.5417C36.9241 52.0983 36.4223 52.2625 35.957 52.2625C35.3881 52.2184 34.8569 51.9609 34.4697 51.5417L33.9862 52.1348C34.2189 52.4299 34.5176 52.6662 34.8583 52.8246C35.1991 52.9831 35.5723 53.0594 35.9478 53.0472C36.1794 53.0777 36.4148 53.0601 36.6392 52.9954C36.8637 52.9308 37.0724 52.8205 37.2522 52.6715C37.4321 52.5224 37.5793 52.3379 37.6845 52.1294C37.7898 51.9208 37.8508 51.6928 37.8639 51.4596L37.8913 51.414ZM48.3019 52.9195L47.6358 45.6202H46.3767L44.269 51.268L42.1431 45.6202H40.8657L40.2088 52.9195H41.2307L41.696 47.1439L43.9314 52.9833H44.5154L46.7508 47.1439L47.2891 52.9195H48.3019ZM54.2325 50.4195C54.2422 50.0832 54.1854 49.7483 54.0654 49.4341C53.9453 49.1198 53.7644 48.8323 53.533 48.5882C53.3015 48.344 53.0241 48.148 52.7167 48.0113C52.4093 47.8746 52.078 47.8 51.7416 47.7917H51.5774C50.8979 47.7645 50.2352 48.0074 49.7343 48.4673C49.2334 48.9272 48.9349 49.5668 48.904 50.2461V50.4195C48.8956 50.755 48.9533 51.0889 49.0739 51.4021C49.1945 51.7153 49.3756 52.0017 49.6069 52.2449C49.8382 52.4881 50.1152 52.6833 50.422 52.8194C50.7288 52.9555 51.0594 53.0298 51.3949 53.0381H51.5774C52.2521 53.0653 52.9101 52.8244 53.4076 52.3679C53.9051 51.9114 54.2017 51.2765 54.2325 50.602V50.4195ZM53.2106 50.4195C53.2358 50.6382 53.2168 50.8597 53.1547 51.0709C53.0926 51.2821 52.9886 51.4787 52.849 51.6489C52.7095 51.8191 52.5371 51.9596 52.3421 52.0619C52.1472 52.1641 51.9337 52.2262 51.7143 52.2443H51.5774C51.141 52.2443 50.7223 52.0716 50.4129 51.7638C50.1034 51.4561 49.9284 51.0384 49.9259 50.602C49.9217 50.5534 49.9217 50.5045 49.9259 50.456C49.9085 50.2414 49.9337 50.0254 50 49.8206C50.0663 49.6157 50.1725 49.426 50.3124 49.2624C50.4523 49.0987 50.6232 48.9643 50.8153 48.867C51.0073 48.7696 51.2167 48.7112 51.4314 48.695H51.5683C52.0023 48.6974 52.4177 48.8715 52.7237 49.1793C53.0297 49.487 53.2015 49.9034 53.2015 50.3374C53.2064 50.3798 53.2064 50.4227 53.2015 50.4651L53.2106 50.4195ZM57.8365 47.9104C57.6678 47.8462 57.4875 47.8182 57.3073 47.8282C57.0367 47.8284 56.7726 47.9116 56.5507 48.0666C56.3288 48.2216 56.1598 48.441 56.0665 48.695V47.9195H55.0081V52.9195H56.0573V50.4104C56.0573 49.6804 56.2854 48.7133 57.1887 48.7133C57.3764 48.7048 57.5636 48.7392 57.7362 48.8136H57.7818L57.8365 47.9104ZM62.6632 52.9195V49.945C62.6632 48.7315 62.2982 47.7917 60.8384 47.7917C60.5222 47.7869 60.2109 47.8696 59.9388 48.0306C59.6667 48.1916 59.4444 48.4247 59.2964 48.7042V47.9104H58.2927V52.9195H59.3055V50.383C59.3055 49.4706 59.6522 48.6312 60.6011 48.6312C61.55 48.6312 61.6504 49.2698 61.6504 50.1093V52.9195H62.6632ZM64.9624 46.2315C64.9637 46.1505 64.9487 46.07 64.9186 45.9948C64.8884 45.9196 64.8435 45.8511 64.7867 45.7933C64.7298 45.7356 64.662 45.6898 64.5872 45.6585C64.5124 45.6272 64.4322 45.6111 64.3511 45.6111C64.2696 45.6049 64.1877 45.6148 64.11 45.6404C64.0323 45.6659 63.9605 45.7066 63.8986 45.76C63.8367 45.8134 63.786 45.8786 63.7493 45.9516C63.7127 46.0247 63.6908 46.1043 63.6851 46.1859V46.2315C63.6851 46.3969 63.7501 46.5557 63.8662 46.6735C63.9823 46.7913 64.1401 46.8587 64.3055 46.8611H64.269C64.3513 46.866 64.4336 46.8545 64.5114 46.8272C64.5891 46.8 64.6607 46.7575 64.7218 46.7023C64.783 46.6471 64.8325 46.5802 64.8676 46.5057C64.9026 46.4311 64.9225 46.3503 64.9259 46.268L64.9624 46.2315ZM64.8165 52.9195V47.883H63.8037V52.9195H64.8165ZM70.373 52.9195V49.945C70.373 48.7315 69.9989 47.7917 68.5482 47.7917C68.233 47.7855 67.9223 47.8677 67.6514 48.0289C67.3805 48.1902 67.1602 48.4241 67.0154 48.7042V47.9104H65.9935V52.9195H67.0062V50.383C67.0062 49.4706 67.353 48.6312 68.2927 48.6312C69.2325 48.6312 69.342 49.2698 69.342 50.1093V52.9195H70.373ZM76.3402 51.8611V47.883H75.3365V48.6768C75.1499 48.3847 74.8899 48.1466 74.5825 47.9865C74.2751 47.8264 73.931 47.7498 73.5847 47.7644C73.2624 47.7545 72.9414 47.81 72.641 47.9274C72.3407 48.0448 72.0672 48.2218 71.8371 48.4477C71.6069 48.6736 71.4249 48.9437 71.3018 49.2418C71.1788 49.5399 71.1174 49.8598 71.1212 50.1823C71.1164 50.243 71.1164 50.304 71.1212 50.3647C71.0939 50.9959 71.3176 51.6121 71.7433 52.0789C72.169 52.5456 72.7621 52.8249 73.3931 52.8556H73.5847C73.9309 52.8693 74.2746 52.7923 74.5819 52.6322C74.8891 52.4722 75.1493 52.2347 75.3365 51.9432V52.1987C75.3365 53.3848 74.853 54.1604 73.5756 54.1604C72.9156 54.1429 72.2776 53.9196 71.7508 53.5217L71.2763 54.2333C71.9294 54.7083 72.7134 54.9696 73.5208 54.9815C73.9445 55.0145 74.3698 54.9446 74.7606 54.7778C75.1514 54.611 75.4961 54.3522 75.7654 54.0235C76.2094 53.392 76.4044 52.6186 76.3128 51.852L76.3402 51.8611ZM75.3639 50.3191C75.3971 50.7284 75.2685 51.1343 75.0058 51.4498C74.7431 51.7654 74.3673 51.9654 73.9588 52.0071H73.7581C73.5532 52.0132 73.3491 51.9788 73.1574 51.9059C72.9658 51.8331 72.7904 51.7232 72.6413 51.5826C72.4921 51.4419 72.3722 51.2732 72.2883 51.0862C72.2044 50.8991 72.1581 50.6974 72.1522 50.4925C72.1477 50.4287 72.1477 50.3647 72.1522 50.3009C72.1334 50.0953 72.1553 49.8881 72.2167 49.691C72.2781 49.494 72.3777 49.311 72.51 49.1525C72.6422 48.994 72.8044 48.8632 72.9872 48.7674C73.1701 48.6717 73.37 48.613 73.5756 48.5947H73.7489C73.9604 48.5885 74.1709 48.6251 74.3678 48.7024C74.5647 48.7796 74.744 48.8959 74.8948 49.0442C75.0457 49.1925 75.165 49.3697 75.2456 49.5653C75.3262 49.7609 75.3665 49.9707 75.3639 50.1823C75.3687 50.243 75.3687 50.304 75.3639 50.3647V50.3191ZM85.6559 52.9195V45.6202H84.6522V49.5071C84.6522 50.4195 84.6522 51.3319 84.6522 51.3319L80.519 45.6202H79.4333V52.9195H80.4551V49.0235C80.4551 48.1111 80.4551 47.0892 80.4551 47.0892L84.6522 52.9195H85.6559ZM91.5044 50.1823C91.5317 49.5729 91.3167 48.9775 90.9064 48.5262C90.4961 48.0748 89.9238 47.8042 89.3146 47.7735H89.123C88.7947 47.765 88.4679 47.8213 88.1613 47.9391C87.8548 48.057 87.5744 48.2341 87.3363 48.4603C87.0982 48.6866 86.907 48.9575 86.7737 49.2576C86.6403 49.5578 86.5674 49.8813 86.5592 50.2096C86.5549 50.2673 86.5549 50.3253 86.5592 50.383C86.5317 50.7019 86.5676 51.0231 86.6648 51.3281C86.7619 51.6332 86.9185 51.9159 87.1254 52.1602C87.3324 52.4044 87.5856 52.6053 87.8705 52.7513C88.1554 52.8973 88.4663 52.9854 88.7854 53.0107H89.0774C89.4815 53.0358 89.8865 52.9783 90.2676 52.8418C90.6488 52.7054 90.9982 52.4927 91.2946 52.2169L90.8657 51.633C90.3893 52.001 89.807 52.2058 89.2051 52.2169C88.7943 52.2343 88.3932 52.0888 88.089 51.812C87.7849 51.5352 87.6023 51.1495 87.5811 50.7388V50.6385H91.4588C91.4588 50.4925 91.4588 50.3465 91.4588 50.1914L91.5044 50.1823ZM90.5373 49.945H87.5993C87.6112 49.5586 87.7731 49.1919 88.0507 48.9228C88.3283 48.6537 88.6999 48.5032 89.0865 48.5034C89.469 48.5058 89.8352 48.6581 90.1065 48.9277C90.3778 49.1973 90.5325 49.5626 90.5373 49.945ZM99.3968 47.8647H98.3657L97.207 51.6695L95.8749 47.8556H95.0628L93.7398 51.6695L92.5537 47.883H91.5409L93.2106 52.9195H94.123L95.4551 49.1604L96.8055 52.9195H97.7179L99.3968 47.8647ZM103.165 51.4231C103.146 51.1408 103.041 50.8709 102.865 50.6493C102.689 50.4277 102.45 50.2648 102.18 50.1823L101.504 49.945C101.003 49.7808 100.519 49.6074 100.519 49.1877C100.519 48.768 100.838 48.5673 101.322 48.5673C101.802 48.5717 102.261 48.7651 102.599 49.1056L103.019 48.476C102.796 48.2508 102.528 48.0757 102.232 47.9624C101.936 47.8491 101.62 47.8003 101.304 47.8191C100.902 47.7754 100.5 47.8917 100.184 48.1428C99.868 48.3939 99.6638 48.7596 99.6157 49.1604C99.6157 49.1604 99.6157 49.2333 99.6157 49.2607C99.6157 50.1731 100.355 50.4833 101.103 50.7388C101.441 50.8574 102.234 51.0217 102.234 51.5782C102.234 52.1348 101.742 52.299 101.267 52.299C100.701 52.2544 100.173 51.9968 99.7891 51.5782L99.2964 52.1713C99.5291 52.4664 99.8278 52.7027 100.169 52.8611C100.509 53.0196 100.882 53.0959 101.258 53.0837C101.494 53.1146 101.733 53.0954 101.961 53.0274C102.188 52.9594 102.399 52.8441 102.579 52.6891C102.759 52.534 102.904 52.3428 103.005 52.1278C103.106 51.9128 103.161 51.6789 103.165 51.4414V51.4231Z" fill="#396C9C"/>
<path d="M12.1157 0.784672H10.1084L6.28543 11.6332L2.45331 0.784672H0.400391L5.40952 14.4161H7.1066L12.1157 0.784672ZM25.9478 7.60949C25.9832 6.72044 25.8426 5.83316 25.5339 4.99867C25.2252 4.16417 24.7547 3.3989 24.1493 2.74687C23.5439 2.09483 22.8156 1.56889 22.0062 1.19926C21.1969 0.829636 20.3225 0.623623 19.4332 0.593066C19.2539 0.583949 19.0742 0.583949 18.8949 0.593066C17.1045 0.523946 15.3599 1.16835 14.0443 2.38473C12.7287 3.6011 11.9497 5.28996 11.8785 7.08029C11.8694 7.25657 11.8694 7.43321 11.8785 7.60949C11.8168 9.39526 12.4645 11.1328 13.6801 12.4425C14.8957 13.7521 16.5803 14.5273 18.3657 14.5985C18.542 14.6077 18.7186 14.6077 18.8949 14.5985C20.6854 14.6777 22.4342 14.0428 23.7567 12.8331C25.0792 11.6235 25.8674 9.93828 25.9478 8.14781C25.957 7.97153 25.957 7.7949 25.9478 7.61861V7.60949ZM23.9953 7.60949C24.0829 8.92936 23.643 10.23 22.7722 11.2257C21.9014 12.2214 20.6709 12.8307 19.3511 12.9197H18.9223C17.5969 12.9368 16.3187 12.4278 15.3679 11.5043C14.417 10.5808 13.8709 9.31805 13.8493 7.9927C13.8493 7.85584 13.8493 7.7281 13.8493 7.59124C13.8034 6.93934 13.8864 6.28478 14.0936 5.66499C14.3008 5.0452 14.6282 4.47234 15.057 3.97916C15.4858 3.48597 16.0076 3.08215 16.5925 2.79077C17.1775 2.49939 17.8141 2.32617 18.4661 2.28102C18.615 2.27211 18.7643 2.27211 18.9132 2.28102C19.5674 2.26771 20.2179 2.38342 20.8274 2.62155C21.4369 2.85969 21.9935 3.21557 22.4655 3.66887C22.9374 4.12218 23.3154 4.66402 23.5779 5.26345C23.8404 5.86288 23.9822 6.50816 23.9953 7.16241C23.9953 7.31752 23.9953 7.4635 23.9953 7.60949ZM34.9898 2.38139V0.784672H25.4095V2.38139H29.2599V14.3978H31.1759V2.39051L34.9898 2.38139ZM44.2781 14.3978V12.7737H38.0646V8.06569H43.7854V6.45073H38.0646V2.39051H44.123V0.784672H36.1577V14.3978H44.2781ZM57.4351 7.59124C57.4351 3.36679 54.3146 0.784672 50.2362 0.784672H46.1303V14.3978H50.2362C54.3146 14.3978 57.4351 11.8157 57.4351 7.60037V7.59124ZM55.4825 7.59124C55.5169 8.23993 55.4227 8.88901 55.2053 9.50114C54.9879 10.1133 54.6515 10.6764 54.2157 11.158C53.7798 11.6397 53.253 12.0304 52.6655 12.3077C52.0781 12.585 51.4416 12.7434 50.7927 12.7737C50.6075 12.7874 50.4214 12.7874 50.2362 12.7737H48.0464V2.42701H50.2362C51.5439 2.34451 52.8309 2.78436 53.8145 3.64998C54.7982 4.5156 55.3981 5.73622 55.4825 7.0438C55.4825 7.22628 55.4825 7.40876 55.4825 7.60037V7.59124ZM73.1741 5.76642V4.07847H71.103L71.8055 0H69.9807L69.2508 4.07847H66.842L67.5537 0H65.7289L65.0172 4.07847H62.5993V5.7573H64.7252L64.269 8.54015H61.9059V10.219H63.9588L63.2471 14.2792H65.0719L65.7836 10.219H68.2289L67.5172 14.2792H69.342L70.0537 10.219H72.4807V8.54015H70.3365L70.811 5.80292L73.1741 5.76642ZM68.9862 5.76642L68.5208 8.54927H66.0938L66.5683 5.81204L68.9862 5.76642ZM80.3274 14.3978V0.784672H74.7891V2.97445H77.2526V14.3978H80.3274ZM89.0865 14.3978V0.784672H87.1705V14.3978H89.0865ZM103.174 14.3978V0.784672H101.295V8.00183C101.295 9.82664 101.295 11.469 101.295 11.469L93.603 0.784672H91.6413V14.3978H93.4661V7.15329C93.4661 5.38321 93.4661 3.54927 93.4661 3.54927L101.313 14.3978H103.174Z" fill="#396C9C"/>
</g>
<defs>
<clipPath id="clip0_978_1761">
<rect width="102.774" height="55" fill="white" transform="translate(0.400391)"/>
</clipPath>
</defs>
</svg>